<svg id="care" xmlns="http://www.w3.org/2000/svg" width="42" height="42" viewBox="0 0 42 42">
  <g id="Group_540" data-name="Group 540" transform="translate(23.461 14.848)">
    <g id="Group_539" data-name="Group 539">
      <path id="Path_854" data-name="Path 854" d="M290.922,181a4.922,4.922,0,1,0,4.922,4.922A4.928,4.928,0,0,0,290.922,181Z" transform="translate(-286 -181)" fill="#fff"/>
    </g>
  </g>
  <g id="Group_542" data-name="Group 542" transform="translate(33.783 22.592)">
    <g id="Group_541" data-name="Group 541">
      <path id="Path_855" data-name="Path 855" d="M416.543,277.987a6.289,6.289,0,0,0-3.292-2.584,7.155,7.155,0,0,1-1.416,2.1h1.982A8.5,8.5,0,0,1,416.543,277.987Z" transform="translate(-411.834 -275.403)" fill="#fff"/>
    </g>
  </g>
  <g id="Group_544" data-name="Group 544" transform="translate(0 22.23)">
    <g id="Group_543" data-name="Group 543">
      <path id="Path_856" data-name="Path 856" d="M21.454,271H17.278c-8.091.034-8.307-.062-9.771.128A8.581,8.581,0,0,0,0,279.613v9.926a1.23,1.23,0,0,0,1.23,1.23H4.922v-8.7a1.23,1.23,0,0,1,2.461,0v8.7h5v-8.7A8.624,8.624,0,0,1,21,273.461h1.92A7.347,7.347,0,0,1,21.454,271Z" transform="translate(0 -271)" fill="#fff"/>
    </g>
  </g>
  <g id="Group_546" data-name="Group 546" transform="translate(7.465 9.926)">
    <g id="Group_545" data-name="Group 545">
      <path id="Path_857" data-name="Path 857" d="M95.922,121a4.922,4.922,0,1,0,4.922,4.922A4.928,4.928,0,0,0,95.922,121Z" transform="translate(-91 -121)" fill="#fff"/>
    </g>
  </g>
  <g id="Group_548" data-name="Group 548" transform="translate(14.848 27.152)">
    <g id="Group_547" data-name="Group 547">
      <path id="Path_858" data-name="Path 858" d="M202,331H187.152A6.159,6.159,0,0,0,181,337.152v8.7h4.922v-8.7a1.23,1.23,0,0,1,2.461,0v8.7H200.77v-8.7a1.23,1.23,0,0,1,2.461,0v8.7h3.691a1.23,1.23,0,0,0,1.23-1.23v-7.465A6.159,6.159,0,0,0,202,331Z" transform="translate(-181 -331)" fill="#fff"/>
    </g>
  </g>
  <g id="Group_550" data-name="Group 550" transform="translate(14.896)">
    <g id="Group_549" data-name="Group 549">
      <path id="Path_859" data-name="Path 859" d="M191.973,0a4.006,4.006,0,0,0-3.052,1.4A4.006,4.006,0,0,0,185.869,0a4.372,4.372,0,0,0-4.283,4.545c0,2.676,2.081,4.432,4.96,6.863.493.416,1.019.858,1.569,1.335a1.229,1.229,0,0,0,1.61,0c.546-.471,1.065-.91,1.553-1.321,2.253-1.9,4.977-3.955,4.977-6.877A4.372,4.372,0,0,0,191.973,0Z" transform="translate(-181.586)" fill="#fff"/>
    </g>
  </g>
</svg>
