<svg xmlns="http://www.w3.org/2000/svg" width="41.942" height="42" viewBox="0 0 41.942 42">
  <g id="classroom" transform="translate(-0.353)">
    <g id="Group_514" data-name="Group 514" transform="translate(17.58 1.375)">
      <g id="Group_513" data-name="Group 513">
        <path id="Path_845" data-name="Path 845" d="M231.437,16.768H211.269a.91.91,0,0,0-.91.91V24.77l1.009-.627a2.523,2.523,0,0,1,.811-.326V18.588h18.348V31.715H212.179V29.591l-1.82,1.13v1.9a.91.91,0,0,0,.91.91h20.168a.91.91,0,0,0,.91-.91V17.678A.91.91,0,0,0,231.437,16.768Z" transform="translate(-210.359 -16.768)" fill="#db2400"/>
      </g>
    </g>
    <g id="Group_516" data-name="Group 516" transform="translate(21.307 6.161)">
      <g id="Group_515" data-name="Group 515">
        <path id="Path_846" data-name="Path 846" d="M259.916,75.372a.7.7,0,0,0-.983-.116L255.8,77.728a2.517,2.517,0,0,1,.763.782,2.552,2.552,0,0,1,.15.281l3.089-2.435A.7.7,0,0,0,259.916,75.372Z" transform="translate(-255.798 -75.106)" fill="#db2400"/>
      </g>
    </g>
    <g id="Group_518" data-name="Group 518" transform="translate(7.674 0)">
      <g id="Group_517" data-name="Group 517" transform="translate(0 0)">
        <circle id="Ellipse_21" data-name="Ellipse 21" cx="2.62" cy="2.62" r="2.62" fill="#db2400"/>
      </g>
    </g>
    <g id="Group_520" data-name="Group 520" transform="translate(3.856 6.074)">
      <g id="Group_519" data-name="Group 519">
        <path id="Path_847" data-name="Path 847" d="M60.2,78.205A1.264,1.264,0,0,0,58.46,77.8L55.9,79.388c-.011-2.123-.005-1-.012-2.363A3,3,0,0,0,52.9,74.048H51.653c-1.062,2.755-.72,1.732-1.622,4.071l.379-1.651a.527.527,0,0,0-.054-.363l-.514-.935.456-.829a.186.186,0,0,0-.163-.275H48.884a.186.186,0,0,0-.163.275l.457.831-.515.936a.528.528,0,0,0-.055.357l.329,1.655-1.57-4.071H46.1a3,3,0,0,0-2.991,2.976L43.06,86.31a1.264,1.264,0,0,0,1.258,1.27h.006a1.264,1.264,0,0,0,1.264-1.258l.047-9.286v0a.251.251,0,0,1,.5,0V90.192a4.217,4.217,0,0,1,3.034,1.1V86.161h.655v5.888a4.229,4.229,0,0,1,.119,4.57,4.6,4.6,0,0,1,1.157.153,4.228,4.228,0,0,1,1.758-.913c0-22.915-.027-8.747-.027-18.819a.265.265,0,0,1,.529,0c0,.887.018,3.658.023,4.623a1.264,1.264,0,0,0,1.931,1.067l4.479-2.781A1.264,1.264,0,0,0,60.2,78.205Z" transform="translate(-43.06 -74.048)" fill="#db2400"/>
      </g>
    </g>
    <g id="Group_522" data-name="Group 522" transform="translate(32.761 23.709)">
      <g id="Group_521" data-name="Group 521">
        <circle id="Ellipse_22" data-name="Ellipse 22" cx="2.773" cy="2.773" r="2.773" fill="#db2400"/>
      </g>
    </g>
    <g id="Group_524" data-name="Group 524" transform="translate(32.011 30.139)">
      <g id="Group_523" data-name="Group 523">
        <path id="Path_848" data-name="Path 848" d="M396.552,370.557a3.173,3.173,0,0,0-3.166-3.15h-6.955a4.226,4.226,0,0,1-.147,4.129,4.636,4.636,0,0,1,3.7,2.124h3.329v-3.07a.28.28,0,0,1,.56-.019h0l.016,3.089h2.676Z" transform="translate(-386.284 -367.407)" fill="#db2400"/>
      </g>
    </g>
    <g id="Group_526" data-name="Group 526" transform="translate(18.294 30.108)">
      <g id="Group_525" data-name="Group 525">
        <path id="Path_849" data-name="Path 849" d="M224.921,369a4.21,4.21,0,0,1,.483-1.962h-6.174a4.227,4.227,0,0,1-.167,4.082,4.619,4.619,0,0,1,3.3,1.416,4.584,4.584,0,0,1,3.186-1.312A4.232,4.232,0,0,1,224.921,369Z" transform="translate(-219.064 -367.036)" fill="#db2400"/>
      </g>
    </g>
    <g id="Group_528" data-name="Group 528" transform="translate(19.274 23.679)">
      <g id="Group_527" data-name="Group 527">
        <path id="Path_850" data-name="Path 850" d="M233.788,288.655a2.773,2.773,0,1,0,2.773,2.773A2.773,2.773,0,0,0,233.788,288.655Z" transform="translate(-231.015 -288.655)" fill="#db2400"/>
      </g>
    </g>
    <g id="Group_530" data-name="Group 530" transform="translate(0.353 30.108)">
      <g id="Group_529" data-name="Group 529" transform="translate(0)">
        <path id="Path_851" data-name="Path 851" d="M10.432,368.922a4.212,4.212,0,0,1,.444-1.885c-.12-.006.383,0-7.341,0a3.174,3.174,0,0,0-3.166,3.15l-.016,3.133H3.029l.016-3.12a.28.28,0,0,1,.56,0v3.118H7.356a4.608,4.608,0,0,1,3.711-2.166A4.205,4.205,0,0,1,10.432,368.922Z" transform="translate(-0.353 -367.032)" fill="#db2400"/>
      </g>
    </g>
    <g id="Group_532" data-name="Group 532" transform="translate(4.342 23.679)">
      <g id="Group_531" data-name="Group 531">
        <path id="Path_852" data-name="Path 852" d="M51.756,288.655a2.773,2.773,0,1,0,2.773,2.773A2.773,2.773,0,0,0,51.756,288.655Z" transform="translate(-48.983 -288.655)" fill="#db2400"/>
      </g>
    </g>
    <g id="Group_534" data-name="Group 534" transform="translate(8.071 35.643)">
      <g id="Group_533" data-name="Group 533">
        <path id="Path_853" data-name="Path 853" d="M121.356,437.734a3.173,3.173,0,0,0-3.166-3.15h-7.014a3.253,3.253,0,0,0-3.257,3.15l-.023-.073a3.173,3.173,0,0,0-3.166-3.15H97.715a3.253,3.253,0,0,0-3.257,3.15l-.016,3.206h2.676l.016-3.193a.241.241,0,0,1,.482,0v3.192H104.7v-3.192a.258.258,0,0,1,.517,0l.016,3.193h5.343l.016-3.12h0a.241.241,0,0,1,.482,0v3.119h7.087v-3.119a.258.258,0,0,1,.517,0l.016,3.12h2.676Z" transform="translate(-94.442 -434.51)" fill="#db2400"/>
      </g>
    </g>
    <g id="Group_536" data-name="Group 536" transform="translate(11.951 29.181)">
      <g id="Group_535" data-name="Group 535">
        <circle id="Ellipse_23" data-name="Ellipse 23" cx="2.805" cy="2.805" r="2.805" fill="#db2400"/>
      </g>
    </g>
    <g id="Group_538" data-name="Group 538" transform="translate(25.579 29.254)">
      <g id="Group_537" data-name="Group 537">
        <circle id="Ellipse_24" data-name="Ellipse 24" cx="2.805" cy="2.805" r="2.805" fill="#db2400"/>
      </g>
    </g>
  </g>
</svg>
