<svg xmlns="http://www.w3.org/2000/svg" width="221.493" height="60.435" viewBox="0 0 221.493 60.435">
  <g id="Group_76" data-name="Group 76" transform="translate(-254.999 -5090.535)">
    <path id="Path_107" data-name="Path 107" d="M202.049,121.466l-7.771.69.028,1.028a6.077,6.077,0,0,0-4.6-.925c-5.756.6-8.1,5.057-7.483,10.506.341,3.523,1.375,7.155,3.506,8.886a16.318,16.318,0,0,0,6.181.67c1.7-.224,2.886-1.367,4.236-2.9l.442,1.534,7.5-.711C202.968,133.987,202.717,127.713,202.049,121.466Zm-10.275,15.108c-1.966-.331-2.951-2.021-3.261-4.479-.265-2.346-.393-4.931,2.141-5.246a6,6,0,0,1,3.9.779c.24.175.7,1.442.912,3.525C195.784,133.724,193.97,136.929,191.774,136.574Zm-19.027-15.7a10.133,10.133,0,0,0-2.869-6.167c-2.056-1.8-5.4-2.655-9.164-2.484l-12.376.514q.642,15.16.857,30.32l9.25-.642-.642-9.165,4.968-.6a22.081,22.081,0,0,0,7.109-2.484C171.077,129.05,172.919,124.554,172.747,120.871Zm-8.95,3.6a5.392,5.392,0,0,1-2.27.985l-2.4.214-.514-7.023,2.484-.257a2.852,2.852,0,0,1,3.34,2.7,6.06,6.06,0,0,1-.642,3.383Zm13.159-15.513-6.154,31.8,7.987,1.831,5.961-31.737Zm40.25,11.542-2.671,14.316-3.673-14.942-7.68.042,5.593,20.785c-.083,2-1.336,2.755-4.633,2.588l-.209,6.052c3.047.376,10.852.209,13.4-4.549,2.88-4.758,5.635-12.9,7.054-23.791Z" transform="translate(106.662 4981.58)" fill="#0fe88a"/>
    <path id="Path_108" data-name="Path 108" d="M521.286,121.461l.026,1.028a6.076,6.076,0,0,0-4.594-.934c-5.757.587-8.11,5.041-7.5,10.492.334,3.524,1.361,7.157,3.489,8.892a16.316,16.316,0,0,0,6.179.682c1.7-.22,2.888-1.361,4.241-2.894l.439,1.535,7.5-.7c-1.114-6.258-1.353-12.532-2.009-18.781Zm-2.532,14.413c-1.965-.335-2.947-2.027-3.253-4.486-.261-2.347-.384-4.932,2.151-5.242a6,6,0,0,1,3.9.786c.24.176.7,1.443.906,3.527C522.77,133.032,520.949,136.233,518.754,135.874Zm-23.282-24.42-6.463,15.919-5.726-14.965-8.675.217.867,30.8,8.458.347-.737-16.83,7.244,13.186,4.945.174,3.08-16.353,2.039,18.391,8.935-.217q-2.017-15.745-3.08-31.231a91.09,91.09,0,0,0-10.887.564ZM553.9,136.929l-.553-6.991L558,129.5l-.2-5.253-4.5.079-.277-6.754-6.28-.2.276,7.268-4.187-.237-2.883.158-.316-7.188-6.675,1.027.277,7.268-2.528.079.2,5.688,2.528-.119.356,6.28c.237,4.819,1.619,8.532,4.621,8.334,2.844-.079,7.149-.04,6.991-1.382l-.79-5.846c-2.844,1.185-3.871.158-4.068-1.146l-.553-6.991,3.041-.434,4.187-.2.514,6.32c.237,2.291.158,8.018,5.648,8.808,3.792.632,5.451-.395,5.451-.474l-.039-5.727C555.161,139.654,554.094,138.232,553.9,136.929Zm24.933-12.678a24.82,24.82,0,0,0-5.854-2.559c-6.057-1.709-10.182,1.029-12.365,7.1-2.888,8.3,1.667,13.418,7.846,15.156,3.363.977,8.709,1.188,10.982-2.936a58.755,58.755,0,0,1-5.4-3.735,4.858,4.858,0,0,1-4.48.468c-1.591-.509-3.025-2.566-2.748-5.155l13.6,2.917.421-1.4c1.2-4.295-.35-8.906-2.006-9.86Zm-4.133,5.99-6.542-1.653a4.2,4.2,0,0,1,4.572-2.459C575.126,126.662,575.133,128.419,574.7,130.242Zm19.773-9.9c-1.508.042-2.555,1.173-3.225,2.6l-.335-1.717-6.995.545.712,20.481,7.581-.209-.628-10.387c-.168-3.1.167-4.44,1.675-5.194a7.716,7.716,0,0,1,4.4-.126l1.215-5.11A7.648,7.648,0,0,0,594.469,120.342Zm16.046,7.24c-2.242-.615-2.814-.879-2.77-1.978s.967-2.9,2.286-2.77c1.275.044,2.242.835,2.154,2.989l6.858-.835a6.712,6.712,0,0,0-2.858-5.012c-1.451-.791-5.056-1.231-6.419-1.275-6.419-.22-10.024,2.726-10.2,6.814-.132,3.033,1.891,5.32,7.166,6.99,1.451.616,3.737.572,3.649,2.462-.044,1.407-1.275,2.286-1.934,2.11-1.978-.352-2.2-.7-2.9-2.726l-7.474,1.319c1.627,5.32,5.715,6.155,10.244,6.287,6.858.264,10.112-2.418,10.288-6.814.176-3.649-1.187-5.935-8.089-7.562Z" transform="translate(-142.553 4980.104)" fill="#fe5410"/>
    <path id="Path_109" data-name="Path 109" d="M192.081,316.28a3.927,3.927,0,0,1-1.614-.681,2.716,2.716,0,0,1-1-1.3l1.431-.715a1.7,1.7,0,0,0,.269.462,1.49,1.49,0,0,0,.409.364,2.182,2.182,0,0,0,.864.366,1.447,1.447,0,0,0,.937-.11.845.845,0,0,0,.506-.615.77.77,0,0,0,0-.312.632.632,0,0,0-.142-.284l-.04-.051a3.338,3.338,0,0,0-.547-.457,6.141,6.141,0,0,0-.78-.441,3.545,3.545,0,0,1-1.494-1.162,1.933,1.933,0,0,1-.278-1.467,2.342,2.342,0,0,1,.256-.734,1.763,1.763,0,0,1,.461-.535,2.78,2.78,0,0,1,1.149-.544,3.249,3.249,0,0,1,1.37-.019,3.632,3.632,0,0,1,.985.329,3.535,3.535,0,0,1,.873.609,3.288,3.288,0,0,1,.628.814,3.178,3.178,0,0,1-.432.215q-.244.1-.487.2l-.5.327a2.183,2.183,0,0,0-.249-.4,2.112,2.112,0,0,0-.285-.3,1.97,1.97,0,0,0-.372-.25,1.519,1.519,0,0,0-.432-.142,1.4,1.4,0,0,0-.564-.009.9.9,0,0,0-.445.225.75.75,0,0,0-.229.432.662.662,0,0,0,.09.513,1.52,1.52,0,0,0,.424.424,5.938,5.938,0,0,0,.753.426,9.289,9.289,0,0,1,.882.5,3.922,3.922,0,0,1,.637.515,2.014,2.014,0,0,1,.445.842,2.474,2.474,0,0,1-.625,2.3,2.556,2.556,0,0,1-1.25.652A4.023,4.023,0,0,1,192.081,316.28Z" transform="translate(75.248 4829.555)" fill="#fe8657"/>
    <path id="Path_110" data-name="Path 110" d="M219.889,320.653l-.027.48.088-.071a2.537,2.537,0,0,1,.462-.292,1.846,1.846,0,0,1,.5-.143,3.769,3.769,0,0,1,.738-.021,2.286,2.286,0,0,1,1.3.458,2.733,2.733,0,0,1,.876,1.144,3.654,3.654,0,0,1,.272,1.587,3.419,3.419,0,0,1-.424,1.532,2.775,2.775,0,0,1-.994,1.041,2.418,2.418,0,0,1-1.325.351,4.071,4.071,0,0,1-.687-.083,2.226,2.226,0,0,1-.528-.181,2.387,2.387,0,0,1-.462-.313l-.054-.04-.114,2.646-1.623-.1.381-8.083Zm-.212,2.923a2.864,2.864,0,0,0,.043.638,1.346,1.346,0,0,0,.185.491,1.455,1.455,0,0,0,.469.469,1.344,1.344,0,0,0,1.932-.593,2.3,2.3,0,0,0,.2-.916,2.135,2.135,0,0,0-.133-.934,1.229,1.229,0,0,0-.467-.6,1.311,1.311,0,0,0-.344-.174,1.464,1.464,0,0,0-.4-.076,1.28,1.28,0,0,0-1.028.428,2.005,2.005,0,0,0-.46,1.27Z" transform="translate(53.532 4819.946)" fill="#fe8657"/>
    <path id="Path_111" data-name="Path 111" d="M251.31,329.691l-.009-.46a2.841,2.841,0,0,1-.709.459,2.08,2.08,0,0,1-.844.138,2.974,2.974,0,0,1-1.056-.212,2.269,2.269,0,0,1-.823-.537,2.851,2.851,0,0,1-.625-1.067,3.8,3.8,0,0,1-.189-1.353,3.1,3.1,0,0,1,.383-1.462,2.59,2.59,0,0,1,1-1.01,2.733,2.733,0,0,1,1.44-.343,2.356,2.356,0,0,1,.849.155,1.966,1.966,0,0,1,.687.452l.013-.447,1.615.051q-.015.47-.025.945t-.025.945q-.05,1.041-.066,1.952t-.022,1.829Zm.121-2.918a2.022,2.022,0,0,0-.113-.738,1.081,1.081,0,0,0-.338-.5,1.4,1.4,0,0,0-.45-.255,1.643,1.643,0,0,0-.544-.09,1.218,1.218,0,0,0-1,.412,1.766,1.766,0,0,0-.4,1.139,2.019,2.019,0,0,0,.162.834,1.466,1.466,0,0,0,.468.6,1.26,1.26,0,0,0,.7.246,1.211,1.211,0,0,0,.755-.18,1.478,1.478,0,0,0,.542-.6A2.024,2.024,0,0,0,251.431,326.773Z" transform="translate(31.262 4817.442)" fill="#fe8657"/>
    <path id="Path_112" data-name="Path 112" d="M279.5,326.4a2.656,2.656,0,0,0-.533-.189,1.329,1.329,0,0,0-.326-.015.714.714,0,0,0-.612.334,1.77,1.77,0,0,0-.192.945l0,3.13-1.536-.018.052-5.673,1.491,0,.016.46a.94.94,0,0,1,.446-.436,1.43,1.43,0,0,1,.635-.16,1.85,1.85,0,0,1,.6.1,2.725,2.725,0,0,1,.59.279Z" transform="translate(8.92 4816.726)" fill="#fe8657"/>
    <path id="Path_113" data-name="Path 113" d="M296.1,323.442l.011,1.879-1.581-.009-.048-8.137,1.569.008.036,4.4,1.88-2.119,1.715.084-2.046,2.248,2.324,3.311-1.728.19-1.646-2.407Z" transform="translate(-4.964 4822.535)" fill="#fe8657"/>
    <path id="Path_114" data-name="Path 114" d="M320.308,324.124l-1.495-.136.5-5.639,1.507.113Zm-.158-6.522a.992.992,0,0,1-.669-.34.921.921,0,0,1-.054-1.164,1.05,1.05,0,0,1,.384-.324.876.876,0,0,1,.467-.091.977.977,0,0,1,.469.166,1.054,1.054,0,0,1,.341.368.818.818,0,0,1,.1.473,1.071,1.071,0,0,1-.156.5.876.876,0,0,1-.361.324A1,1,0,0,1,320.15,317.6Z" transform="translate(-23.552 4823.677)" fill="#fe8657"/>
    <path id="Path_115" data-name="Path 115" d="M332.294,328.524a.711.711,0,0,1,.082-.066l.093-.066a1.382,1.382,0,0,1,.412-.218,2.594,2.594,0,0,1,.5-.107,2.858,2.858,0,0,1,.607,0,1.783,1.783,0,0,1,.98.375,1.921,1.921,0,0,1,.607.869,2.848,2.848,0,0,1,.146,1.206l-.3,3.507q-.308-.031-.628-.057t-.651-.034l-.251-.018.282-3.37a1.67,1.67,0,0,0-.057-.671.8.8,0,0,0-.253-.384.685.685,0,0,0-.369-.141,1.22,1.22,0,0,0-.958.284,1.55,1.55,0,0,0-.44,1.065l-.25,3.016-1.5-.1.468-5.666,1.508.119Z" transform="translate(-32.368 4814.307)" fill="#fe8657"/>
    <path id="Path_116" data-name="Path 116" d="M358.34,335.262a1.164,1.164,0,0,0,.5.469,1.59,1.59,0,0,0,.719.174h.034a1.945,1.945,0,0,0,.694-.13,1.075,1.075,0,0,0,.5-.406,1.386,1.386,0,0,0,.219-.7l.013-.183a2.406,2.406,0,0,1-.759.335,2.75,2.75,0,0,1-.836.071,3.035,3.035,0,0,1-.948-.216,2.451,2.451,0,0,1-.75-.489,2.812,2.812,0,0,1-.714-1.135,4,4,0,0,1-.183-1.576,2.81,2.81,0,0,1,.473-1.391,2.956,2.956,0,0,1,1.063-.973,2.487,2.487,0,0,1,1.388-.294,2.986,2.986,0,0,1,.856.2,2.649,2.649,0,0,1,.739.449l.028-.446,1.566.143-.368,5.455a3,3,0,0,1-.462,1.454,2.756,2.756,0,0,1-1.052.967,2.5,2.5,0,0,1-1.4.271,3.822,3.822,0,0,1-1.148-.173,2.6,2.6,0,0,1-.848-.444,2.972,2.972,0,0,1-.588-.647.4.4,0,0,0-.023-.04.389.389,0,0,1-.022-.04Zm.038-3.479a1.831,1.831,0,0,0,.3,1.216,1.272,1.272,0,0,0,.973.526,1.562,1.562,0,0,0,.78-.141,1.39,1.39,0,0,0,.578-.5,1.52,1.52,0,0,0,.249-.747,2.147,2.147,0,0,0-.227-1.216,1.259,1.259,0,0,0-.464-.474,1.514,1.514,0,0,0-.673-.2,1.481,1.481,0,0,0-.631.1,1.175,1.175,0,0,0-.485.367c-.008.008-.012.013-.012.017s0,.01-.012.017a1.321,1.321,0,0,0-.239.392,1.736,1.736,0,0,0-.114.462C358.394,331.639,358.386,331.7,358.377,331.783Z" transform="translate(-52.576 4813.645)" fill="#fe8657"/>
    <path id="Path_117" data-name="Path 117" d="M400.938,325.249l3.378.187-.09,1.477-5.106-.241.328-8.128q.217.021.429.031l.418.019q.229.009.464.013t.464,0Z" transform="translate(-84.892 4821.49)" fill="#fe8657"/>
    <path id="Path_118" data-name="Path 118" d="M425.8,324.941l-1.5-.054.189-5.657,1.512.031Zm-.512-6.5a.991.991,0,0,1-.686-.3.921.921,0,0,1-.117-1.16,1.053,1.053,0,0,1,.366-.344.875.875,0,0,1,.462-.117.979.979,0,0,1,.477.141,1.053,1.053,0,0,1,.361.349.818.818,0,0,1,.128.467,1.074,1.074,0,0,1-.129.506.873.873,0,0,1-.343.344A1,1,0,0,1,425.284,318.437Z" transform="translate(-104.123 4823.04)" fill="#fe8657"/>
    <path id="Path_119" data-name="Path 119" d="M434.811,320.5l.606-.048-.048-.583a2.252,2.252,0,0,1,.249-1.357,1.572,1.572,0,0,1,.922-.708,3.18,3.18,0,0,1,1.493-.023l.111,1.337a2.3,2.3,0,0,0-.825-.044.458.458,0,0,0-.371.295,1.888,1.888,0,0,0-.052.728l.016.194,1.36-.1.1,1.337-1.3.11q.082,1.086.176,2.165t.164,2.154l-1.542.15-.35-4.261-.595.036Z" transform="translate(-112.154 4822.132)" fill="#fe8657"/>
    <path id="Path_120" data-name="Path 120" d="M451.345,330.516a3.353,3.353,0,0,1,.4-1.535,2.59,2.59,0,0,1,1-1.021,2.735,2.735,0,0,1,1.444-.337,3.573,3.573,0,0,1,.776.119,3.747,3.747,0,0,1,.725.292,2.386,2.386,0,0,1,.638.638,3.166,3.166,0,0,1,.43.931,3.691,3.691,0,0,1,.138,1.129l-.011.39-4.043-.046a1.306,1.306,0,0,0,.433.845,1.414,1.414,0,0,0,.909.327,1.574,1.574,0,0,0,.638-.094,1.6,1.6,0,0,0,.527-.377q.2.12.4.234t.413.222c.062.044.129.088.2.131s.14.091.211.142a2.541,2.541,0,0,1-1.032.879,3.065,3.065,0,0,1-1.383.261,2.964,2.964,0,0,1-1.478-.412,2.618,2.618,0,0,1-1.007-1.1A3.326,3.326,0,0,1,451.345,330.516Zm4.059-.538a1.3,1.3,0,0,0-.374-.8,1.169,1.169,0,0,0-.816-.29,1.217,1.217,0,0,0-.833.261,1.265,1.265,0,0,0-.451.764Z" transform="translate(-124.781 4814.556)" fill="#fe8657"/>
    <path id="Path_121" data-name="Path 121" d="M479.8,324.228l-1.548-.044.149-8.137,1.536.045Z" transform="translate(-145.334 4823.396)" fill="#fe8657"/>
    <path id="Path_122" data-name="Path 122" d="M489.386,329.2a2.577,2.577,0,0,1,.025-.723,3.416,3.416,0,0,1,.2-.7,2.609,2.609,0,0,1,.318-.581,3.352,3.352,0,0,1,.97-.857,2.978,2.978,0,0,1,1.242-.4,3.632,3.632,0,0,1,1.194.073,2.824,2.824,0,0,1,1,.436,2.208,2.208,0,0,1,.523.555,4.073,4.073,0,0,1,.413.783,3.13,3.13,0,0,1,.216.855,2.925,2.925,0,0,1-.257,1.558,2.98,2.98,0,0,1-1,1.19,3.1,3.1,0,0,1-1.505.548,3.785,3.785,0,0,1-.825-.009,2.956,2.956,0,0,1-.717-.163,2.822,2.822,0,0,1-1.236-1A3.218,3.218,0,0,1,489.386,329.2Zm1.552-.126a1.718,1.718,0,0,0,.521,1.151,1.354,1.354,0,0,0,1.127.345,2.178,2.178,0,0,0,.606-.165,1.234,1.234,0,0,0,.461-.318,1.176,1.176,0,0,0,.28-.539,2.615,2.615,0,0,0,.055-.7l-.014-.056a1.605,1.605,0,0,0-.555-1.138,1.5,1.5,0,0,0-1.15-.344,1.444,1.444,0,0,0-1.034.568A1.619,1.619,0,0,0,490.938,329.074Z" transform="translate(-153.831 4815.857)" fill="#fe8657"/>
    <path id="Path_123" data-name="Path 123" d="M520.53,325.385a.757.757,0,0,1,.076-.073l.088-.073a1.377,1.377,0,0,1,.393-.25,2.578,2.578,0,0,1,.491-.146,2.862,2.862,0,0,1,.6-.049,1.784,1.784,0,0,1,1.007.3,1.922,1.922,0,0,1,.674.818,2.844,2.844,0,0,1,.241,1.191l-.02,3.519q-.31-.007-.63-.007t-.653.017l-.252,0,.016-3.382a1.663,1.663,0,0,0-.11-.665.8.8,0,0,0-.283-.363.687.687,0,0,0-.379-.112,1.22,1.22,0,0,0-.932.359,1.551,1.551,0,0,0-.355,1.1l-.012,3.026-1.5.022.02-5.685h1.513Z" transform="translate(-176.458 4816.717)" fill="#fe8657"/>
    <path id="Path_124" data-name="Path 124" d="M546.443,329.962a1.162,1.162,0,0,0,.53.432,1.589,1.589,0,0,0,.73.122l.034,0a1.945,1.945,0,0,0,.683-.179,1.072,1.072,0,0,0,.467-.441,1.388,1.388,0,0,0,.169-.71V329a2.414,2.414,0,0,1-.733.388,2.763,2.763,0,0,1-.829.13,3.043,3.043,0,0,1-.96-.149,2.445,2.445,0,0,1-.783-.434,2.808,2.808,0,0,1-.793-1.081,4.007,4.007,0,0,1-.294-1.559,2.812,2.812,0,0,1,.373-1.421,2.957,2.957,0,0,1,.991-1.046,2.487,2.487,0,0,1,1.364-.392,2.994,2.994,0,0,1,.868.137,2.647,2.647,0,0,1,.769.4l0-.447,1.573.031.02,5.468a3,3,0,0,1-.358,1.483,2.756,2.756,0,0,1-.981,1.039,2.5,2.5,0,0,1-1.376.37,3.83,3.83,0,0,1-1.158-.091,2.6,2.6,0,0,1-.877-.383,2.98,2.98,0,0,1-.633-.6.353.353,0,0,0-.025-.039.379.379,0,0,1-.025-.039Zm-.209-3.473a1.831,1.831,0,0,0,.387,1.192,1.272,1.272,0,0,0,1.008.455,1.56,1.56,0,0,0,.767-.2,1.387,1.387,0,0,0,.541-.543,1.52,1.52,0,0,0,.2-.763,2.146,2.146,0,0,0-.313-1.2,1.258,1.258,0,0,0-.5-.44,1.518,1.518,0,0,0-.686-.154,1.482,1.482,0,0,0-.622.146,1.172,1.172,0,0,0-.457.4.033.033,0,0,0-.011.018s0,.01-.01.018a1.319,1.319,0,0,0-.21.408,1.74,1.74,0,0,0-.081.469,1.842,1.842,0,0,0-.012.184Z" transform="translate(-196.064 4817.75)" fill="#fe8657"/>
    <path id="Path_125" data-name="Path 125" d="M589,317.5l3.383-.016v1.48l-5.112.067-.161-8.133q.219.008.431,0l.418-.006q.229,0,.464-.015t.463-.026Z" transform="translate(-228.485 4827.363)" fill="#fe8657"/>
    <path id="Path_126" data-name="Path 126" d="M611.705,321.78a3.356,3.356,0,0,1,.333-1.551,2.59,2.59,0,0,1,.954-1.063,2.733,2.733,0,0,1,1.428-.4,3.578,3.578,0,0,1,.781.086,3.727,3.727,0,0,1,.736.261,2.386,2.386,0,0,1,.665.611,3.155,3.155,0,0,1,.469.912,3.7,3.7,0,0,1,.186,1.122l.005.39-4.041.127a1.3,1.3,0,0,0,.468.826,1.413,1.413,0,0,0,.922.288,1.576,1.576,0,0,0,.634-.121,1.6,1.6,0,0,0,.51-.4q.2.111.412.216t.423.2q.1.062.2.123t.217.133a2.544,2.544,0,0,1-.993.923,3.068,3.068,0,0,1-1.371.319,2.962,2.962,0,0,1-1.495-.349,2.615,2.615,0,0,1-1.053-1.052A3.323,3.323,0,0,1,611.705,321.78Zm4.033-.711a1.3,1.3,0,0,0-.407-.779,1.168,1.168,0,0,0-.828-.255,1.217,1.217,0,0,0-.821.3,1.265,1.265,0,0,0-.418.782Z" transform="translate(-247.272 4821.318)" fill="#fe8657"/>
    <path id="Path_127" data-name="Path 127" d="M642.843,321.518l-.081-.453a2.837,2.837,0,0,1-.627.566,2.084,2.084,0,0,1-.811.27,2.98,2.98,0,0,1-1.077-.042,2.271,2.271,0,0,1-.9-.4,2.846,2.846,0,0,1-.786-.955,3.8,3.8,0,0,1-.4-1.306,3.1,3.1,0,0,1,.147-1.5,2.591,2.591,0,0,1,.828-1.155,2.732,2.732,0,0,1,1.368-.566,2.348,2.348,0,0,1,.862.019,1.965,1.965,0,0,1,.75.337l-.058-.443,1.6-.206q.06.466.125.937t.125.937q.116,1.036.243,1.938t.268,1.81Zm-.341-2.9a2.014,2.014,0,0,0-.228-.711,1.082,1.082,0,0,0-.413-.444,1.394,1.394,0,0,0-.485-.18,1.641,1.641,0,0,0-.551,0,1.218,1.218,0,0,0-.926.566,1.766,1.766,0,0,0-.212,1.187,2.02,2.02,0,0,0,.292.8,1.465,1.465,0,0,0,.557.519,1.26,1.26,0,0,0,.734.132,1.213,1.213,0,0,0,.717-.3,1.478,1.478,0,0,0,.44-.677A2.022,2.022,0,0,0,642.5,318.618Z" transform="translate(-267.456 4823.676)" fill="#fe8657"/>
    <path id="Path_128" data-name="Path 128" d="M669.528,314.963a2.654,2.654,0,0,0-.554-.11,1.339,1.339,0,0,0-.325.032.715.715,0,0,0-.557.418,1.77,1.77,0,0,0-.054.963l.446,3.1-1.522.2-.764-5.621,1.476-.211.082.453a.941.941,0,0,1,.379-.5,1.43,1.43,0,0,1,.606-.25,1.843,1.843,0,0,1,.609.008,2.721,2.721,0,0,1,.624.191Z" transform="translate(-288.895 4825.403)" fill="#fe8657"/>
    <path id="Path_129" data-name="Path 129" d="M688.147,313.468a.789.789,0,0,1,.074-.075l.086-.076a1.378,1.378,0,0,1,.386-.262,2.579,2.579,0,0,1,.486-.161,2.857,2.857,0,0,1,.6-.067,1.782,1.782,0,0,1,1.015.266,1.923,1.923,0,0,1,.7.8,2.851,2.851,0,0,1,.276,1.183l.085,3.518q-.31,0-.63.012t-.651.037l-.252.009-.085-3.38a1.663,1.663,0,0,0-.129-.661.8.8,0,0,0-.293-.355.69.69,0,0,0-.382-.1,1.221,1.221,0,0,0-.921.386,1.552,1.552,0,0,0-.322,1.106l.079,3.025-1.5.067-.149-5.683,1.512-.045Z" transform="translate(-304.495 4825.857)" fill="#fe8657"/>
    <path id="Path_130" data-name="Path 130" d="M712.626,301.3a.991.991,0,0,1-.7-.257.921.921,0,0,1-.194-1.149,1.047,1.047,0,0,1,.342-.368.875.875,0,0,1,.453-.147.98.98,0,0,1,.486.108,1.053,1.053,0,0,1,.383.324.816.816,0,0,1,.159.457,1.077,1.077,0,0,1-.095.513.874.874,0,0,1-.32.366A1,1,0,0,1,712.626,301.3Zm.945,6.455-1.5.046-.189-5.657,1.51-.07Z" transform="translate(-323.58 4836.13)" fill="#fe8657"/>
    <path id="Path_131" data-name="Path 131" d="M726.1,310.274a.713.713,0,0,1,.074-.075l.085-.076a1.376,1.376,0,0,1,.385-.262,2.581,2.581,0,0,1,.486-.162,2.871,2.871,0,0,1,.6-.069,1.781,1.781,0,0,1,1.016.264,1.92,1.92,0,0,1,.7.8,2.851,2.851,0,0,1,.278,1.182l.092,3.518q-.31,0-.631.013t-.651.038l-.252.01-.092-3.38a1.663,1.663,0,0,0-.131-.661.8.8,0,0,0-.294-.354.688.688,0,0,0-.382-.1,1.22,1.22,0,0,0-.92.388,1.551,1.551,0,0,0-.32,1.107l.085,3.025-1.5.07-.161-5.683,1.512-.048Z" transform="translate(-333.482 4828.301)" fill="#fe8657"/>
    <path id="Path_132" data-name="Path 132" d="M752.466,314.145a1.168,1.168,0,0,0,.541.419,1.59,1.59,0,0,0,.732.1l.034,0a1.946,1.946,0,0,0,.679-.2,1.077,1.077,0,0,0,.455-.452,1.382,1.382,0,0,0,.152-.714l0-.183a2.415,2.415,0,0,1-.723.406,2.754,2.754,0,0,1-.825.151,3.042,3.042,0,0,1-.964-.125,2.449,2.449,0,0,1-.793-.415,2.81,2.81,0,0,1-.82-1.061,4.006,4.006,0,0,1-.333-1.551,2.812,2.812,0,0,1,.338-1.43,2.954,2.954,0,0,1,.965-1.07,2.488,2.488,0,0,1,1.353-.425,3,3,0,0,1,.871.115,2.642,2.642,0,0,1,.779.376l-.015-.447,1.573-.008.156,5.465a3,3,0,0,1-.321,1.492,2.756,2.756,0,0,1-.955,1.063,2.5,2.5,0,0,1-1.367.4,3.823,3.823,0,0,1-1.159-.062,2.6,2.6,0,0,1-.887-.361,2.969,2.969,0,0,1-.647-.588.44.44,0,0,0-.026-.038.312.312,0,0,1-.026-.038Zm-.3-3.466a1.828,1.828,0,0,0,.417,1.182,1.271,1.271,0,0,0,1.018.43,1.563,1.563,0,0,0,.763-.214,1.391,1.391,0,0,0,.527-.556,1.519,1.519,0,0,0,.176-.767,2.147,2.147,0,0,0-.342-1.188,1.263,1.263,0,0,0-.507-.428,1.52,1.52,0,0,0-.689-.137,1.482,1.482,0,0,0-.618.162,1.178,1.178,0,0,0-.447.411.032.032,0,0,0-.01.018s0,.01-.01.018a1.318,1.318,0,0,0-.2.413,1.753,1.753,0,0,0-.069.471C752.173,310.533,752.171,310.594,752.171,310.678Z" transform="translate(-353.36 4829.85)" fill="#fe8657"/>
    <path id="Path_133" data-name="Path 133" d="M789.287,293.966q-.057-.4-.114-.806l-.115-.817q.771-.122,1.577-.23t1.658-.214l1.469-.216,1.458-.214.142,1.55q-.306.038-.637.071t-.67.085l-.886.109q.209,1.659.421,3.295t.419,3.272l-1.634.229-.85-6.417Z" transform="translate(-382.739 4842.171)" fill="#fe8657"/>
    <path id="Path_134" data-name="Path 134" d="M820.375,295.744l.064-.073a2.777,2.777,0,0,1,.632-.529,1.841,1.841,0,0,1,.7-.258,1.941,1.941,0,0,1,1.609.421,2.662,2.662,0,0,1,.749,1.677l.449,3.444-1.51.215q-.075-.557-.15-1.1t-.127-1.1l-.147-1.056a2.154,2.154,0,0,0-.184-.709.723.723,0,0,0-.311-.333.748.748,0,0,0-.424-.061,1.281,1.281,0,0,0-.624.253,1.073,1.073,0,0,0-.367.555,2.029,2.029,0,0,0-.048.83l.38,2.978-1.547.183q-.285-1.987-.548-4t-.505-4.054l1.557-.206Z" transform="translate(-405.201 4841.147)" fill="#fe8657"/>
    <path id="Path_135" data-name="Path 135" d="M849.1,300.415a2.665,2.665,0,0,0-.552-.119,1.335,1.335,0,0,0-.325.027.715.715,0,0,0-.565.409,1.769,1.769,0,0,0-.07.962l.393,3.105-1.525.178-.67-5.634,1.479-.186.075.454a.94.94,0,0,1,.388-.489,1.429,1.429,0,0,1,.609-.24,1.846,1.846,0,0,1,.609.018,2.721,2.721,0,0,1,.62.2Z" transform="translate(-426.074 4836.521)" fill="#fe8657"/>
    <path id="Path_136" data-name="Path 136" d="M863.617,301.944a2.568,2.568,0,0,1,.019-.723,3.426,3.426,0,0,1,.192-.7,2.632,2.632,0,0,1,.313-.584,3.355,3.355,0,0,1,.963-.865,2.983,2.983,0,0,1,1.239-.41,3.641,3.641,0,0,1,1.195.063,2.828,2.828,0,0,1,1.008.428,2.212,2.212,0,0,1,.528.551,4.094,4.094,0,0,1,.419.78,3.129,3.129,0,0,1,.223.853,2.926,2.926,0,0,1-.244,1.56,2.978,2.978,0,0,1-.991,1.2,3.1,3.1,0,0,1-1.5.561,3.79,3.79,0,0,1-.825,0,2.961,2.961,0,0,1-.719-.157,2.823,2.823,0,0,1-1.245-.994A3.218,3.218,0,0,1,863.617,301.944Zm1.551-.14a1.718,1.718,0,0,0,.531,1.146,1.354,1.354,0,0,0,1.129.335,2.177,2.177,0,0,0,.6-.17,1.235,1.235,0,0,0,.458-.322,1.174,1.174,0,0,0,.275-.542,2.6,2.6,0,0,0,.049-.7l-.014-.057a1.607,1.607,0,0,0-.564-1.133,1.5,1.5,0,0,0-1.152-.334,1.444,1.444,0,0,0-1.029.576A1.618,1.618,0,0,0,865.168,301.8Z" transform="translate(-439.678 4836.696)" fill="#fe8657"/>
    <path id="Path_137" data-name="Path 137" d="M893.371,297.584l.311,3.309a1.493,1.493,0,0,0,.344.88.977.977,0,0,0,.845.231.877.877,0,0,0,.707-.371,1.256,1.256,0,0,0,.128-.83l-.316-3.412,1.507-.139.322,3.274a3.337,3.337,0,0,1-.143,1.466,1.775,1.775,0,0,1-.755.923,3.306,3.306,0,0,1-1.375.414,3.587,3.587,0,0,1-1.194-.068,1.9,1.9,0,0,1-.842-.437,1.931,1.931,0,0,1-.456-.7,3.241,3.241,0,0,1-.227-.982l-.327-3.4Z" transform="translate(-461.294 4837.752)" fill="#fe8657"/>
    <path id="Path_138" data-name="Path 138" d="M919.788,303.416a1.166,1.166,0,0,0,.514.452,1.588,1.588,0,0,0,.725.149h.034a1.952,1.952,0,0,0,.689-.153,1.078,1.078,0,0,0,.482-.423,1.388,1.388,0,0,0,.2-.7l.007-.183a2.41,2.41,0,0,1-.747.361,2.765,2.765,0,0,1-.834.1,3.042,3.042,0,0,1-.954-.184,2.453,2.453,0,0,1-.766-.463,2.815,2.815,0,0,1-.752-1.11,4,4,0,0,1-.236-1.569,2.81,2.81,0,0,1,.426-1.406,2.957,2.957,0,0,1,1.03-1.008,2.49,2.49,0,0,1,1.377-.341,3,3,0,0,1,.863.169,2.644,2.644,0,0,1,.754.423l.013-.447,1.57.09-.184,5.464a3,3,0,0,1-.413,1.469,2.753,2.753,0,0,1-1.019,1,2.5,2.5,0,0,1-1.389.318,3.825,3.825,0,0,1-1.153-.134,2.6,2.6,0,0,1-.862-.415,2.965,2.965,0,0,1-.61-.627.449.449,0,0,0-.024-.04.39.39,0,0,1-.024-.04Zm-.08-3.478a1.831,1.831,0,0,0,.343,1.206,1.271,1.271,0,0,0,.99.492,1.563,1.563,0,0,0,.774-.167,1.39,1.39,0,0,0,.56-.522,1.518,1.518,0,0,0,.223-.755,2.145,2.145,0,0,0-.268-1.207,1.256,1.256,0,0,0-.48-.458,1.513,1.513,0,0,0-.679-.179,1.483,1.483,0,0,0-.627.123,1.176,1.176,0,0,0-.472.383c-.007.008-.011.014-.011.017s0,.01-.011.017a1.324,1.324,0,0,0-.225.4,1.753,1.753,0,0,0-.1.466Q919.713,299.846,919.708,299.938Z" transform="translate(-481.338 4837.999)" fill="#fe8657"/>
    <path id="Path_139" data-name="Path 139" d="M949.03,290.015l.068-.069a2.783,2.783,0,0,1,.667-.484,1.834,1.834,0,0,1,.714-.209,1.939,1.939,0,0,1,1.576.53,2.66,2.66,0,0,1,.631,1.725l.211,3.467-1.521.11-.074-1.11q-.037-.549-.051-1.11l-.074-1.064a2.153,2.153,0,0,0-.135-.72.723.723,0,0,0-.288-.353.746.746,0,0,0-.418-.09,1.277,1.277,0,0,0-.64.209,1.071,1.071,0,0,0-.4.528,2.028,2.028,0,0,0-.105.825l.174,3-1.556.076q-.147-2-.27-4.033t-.225-4.079l1.568-.1Z" transform="translate(-503.62 4845.536)" fill="#fe8657"/>
    <path id="Path_140" data-name="Path 140" d="M991.289,286.2a4.092,4.092,0,0,1,1.364.161,2.363,2.363,0,0,1,.976.563,2.038,2.038,0,0,1,.474.7,2.636,2.636,0,0,1,.2.933,2.832,2.832,0,0,1-.133.941,2.543,2.543,0,0,1-.4.774,1.985,1.985,0,0,1-.62.534,3.832,3.832,0,0,1-.676.24,3.558,3.558,0,0,1-.811.122l-1.7.071.1,3.128-1.684.06q-.02-1.019-.051-2.033t-.051-2.033q-.031-1.019-.062-2.034t-.063-2.022Zm.242,3.475a1.5,1.5,0,0,0,.494-.085,1.3,1.3,0,0,0,.348-.18.966.966,0,0,0,.319-.827.834.834,0,0,0-.325-.707,1.519,1.519,0,0,0-.933-.207l-1.5.053.074,2.005Z" transform="translate(-534.821 4846.201)" fill="#fe8657"/>
    <path id="Path_141" data-name="Path 141" d="M1018.3,294.669l-1.539-.169.8-8.1,1.528.168Z" transform="translate(-556.669 4846.041)" fill="#fe8657"/>
    <path id="Path_142" data-name="Path 142" d="M1033.445,304.356l-.018-.46a2.842,2.842,0,0,1-.7.473,2.087,2.087,0,0,1-.84.155,2.978,2.978,0,0,1-1.06-.191,2.265,2.265,0,0,1-.834-.521,2.841,2.841,0,0,1-.647-1.054,3.8,3.8,0,0,1-.216-1.349,3.1,3.1,0,0,1,.353-1.469,2.594,2.594,0,0,1,.98-1.03,2.734,2.734,0,0,1,1.433-.372,2.347,2.347,0,0,1,.851.138,1.962,1.962,0,0,1,.7.438l0-.447,1.615.018q-.005.47-.006.945t-.006.946q-.029,1.042-.027,1.953t.015,1.829Zm.063-2.92a2.018,2.018,0,0,0-.127-.736,1.079,1.079,0,0,0-.348-.5,1.394,1.394,0,0,0-.455-.245,1.647,1.647,0,0,0-.546-.079,1.217,1.217,0,0,0-.995.433,1.765,1.765,0,0,0-.374,1.147,2.026,2.026,0,0,0,.179.831,1.465,1.465,0,0,0,.48.591,1.262,1.262,0,0,0,.708.232,1.213,1.213,0,0,0,.751-.2,1.481,1.481,0,0,0,.53-.61A2.023,2.023,0,0,0,1033.508,301.436Z" transform="translate(-566.113 4836.77)" fill="#fe8657"/>
    <path id="Path_143" data-name="Path 143" d="M1059.523,306.721a2.04,2.04,0,0,1-.881.814,2.13,2.13,0,0,1-1.056.2,2.754,2.754,0,0,1-1-.265l.516-1.311a1.156,1.156,0,0,0,.65.125.7.7,0,0,0,.415-.217,2.362,2.362,0,0,0,.319-.5.521.521,0,0,1,.036-.083.594.594,0,0,0,.036-.083l-1.392-5.933,1.624.221.871,3.992,1.713-3.6,1.577.229q-.335.683-.664,1.361t-.66,1.315A35.492,35.492,0,0,1,1059.523,306.721Z" transform="translate(-587.086 4836.064)" fill="#fe8657"/>
  </g>
</svg>
