<svg xmlns="http://www.w3.org/2000/svg" width="29.708" height="32" viewBox="0 0 29.708 32">
  <path id="Icon_ionic-md-radio" data-name="Icon ionic-md-radio" d="M5.217,10.1a3.025,3.025,0,0,0-1.842,2.821V31.2A3.009,3.009,0,0,0,6.346,34.25H30.112A3.009,3.009,0,0,0,33.083,31.2V12.919A3,3,0,0,0,30.112,9.87H12.73L25,4.778,23.992,2.25Zm6.156,21.145a4.57,4.57,0,1,1,4.57-4.57A4.566,4.566,0,0,1,11.373,31.244ZM29.655,19.011H27.37v-3.3h-3.2v3.3H6.8V12.919H29.655Z" transform="translate(-3.375 -2.25)" fill="#fff"/>
</svg>
