<svg xmlns="http://www.w3.org/2000/svg" width="40" height="27.941" viewBox="0 0 40 27.941">
  <path id="Icon_metro-books" data-name="Icon metro-books" d="M10.721,8.571H3.736A1.168,1.168,0,0,0,2.571,9.736V35.349a1.168,1.168,0,0,0,1.164,1.164h6.985a1.168,1.168,0,0,0,1.164-1.164V9.736a1.168,1.168,0,0,0-1.164-1.164ZM9.557,15.557H4.9V13.228H9.557ZM22.363,8.571H15.378a1.168,1.168,0,0,0-1.164,1.164V35.349a1.168,1.168,0,0,0,1.164,1.164h6.985a1.168,1.168,0,0,0,1.164-1.164V9.736a1.168,1.168,0,0,0-1.164-1.164ZM21.2,15.557H16.542V13.228H21.2Zm9.208-5.185-6.238,3.143a1.168,1.168,0,0,0-.516,1.564L34.13,35.872a1.168,1.168,0,0,0,1.564.516l6.238-3.143a1.168,1.168,0,0,0,.516-1.563L31.97,10.888a1.168,1.168,0,0,0-1.564-.516Zm5.927,24.977a1.164,1.164,0,1,1-1.164-1.164A1.164,1.164,0,0,1,36.334,35.349Z" transform="translate(-2.571 -8.571)" fill="#fff"/>
</svg>
