<svg xmlns="http://www.w3.org/2000/svg" xmlns:xlink="http://www.w3.org/1999/xlink" width="1170.039" height="242.885" viewBox="0 0 1170.039 242.885">
  <defs>
    <clipPath id="clip-path">
      <rect id="Rectangle_438" data-name="Rectangle 438" width="1170" height="189" transform="translate(255 1604)" fill="#fff" stroke="#707070" stroke-width="1"/>
    </clipPath>
  </defs>
  <g id="Group_212" data-name="Group 212" transform="translate(-254 -1622.115)">
    <g id="Mask_Group_15" data-name="Mask Group 15" transform="translate(-1 72)" clip-path="url(#clip-path)">
      <path id="path-1" d="M75.2,2C-73.4,10,42.4,35.6,95.4,35.6s156.3,47.8,317,28.3C573.1,44.5,624.2,26.5,743.7,26.5c119.4,0,394,78,483,74.3,48.6-2,200.6,15,338.9,145.2" transform="translate(256.758 1652)" fill="none" stroke="#ffc038" stroke-linecap="round" stroke-linejoin="round" stroke-width="4"/>
    </g>
    <path id="leaf-1" d="M56.006,170.443h.881l.176.528a187.214,187.214,0,0,1,.352,23.6l-.528.176a.7.7,0,0,1-.7-.7,187.744,187.744,0,0,0,0-23.6ZM7.925,19.682c-1.233-7.926.7-14.618,5.284-17.788A6.02,6.02,0,0,1,18.845.836c2.818.881,5.284,3.875,6.517,7.749,1.761,4.931,3.346,9.687,15.5,24.833C53.188,48.566,52.132,58.429,50.9,70.933v.7C49.49,82.91,54.421,89.25,59.705,93.829l1.761,1.761a42.269,42.269,0,0,1,18.141,31.7c.881,8.982-2.818,19.2-10.567,29.589a90.592,90.592,0,0,1-12.152,12.857c-.352.352-.352-.176-.352-.176a177.709,177.709,0,0,0-3.17-22.015,61.643,61.643,0,0,0,11.272-25.186c0-.352-.176-.7-.528-.7a.969.969,0,0,0-.881.528,60.586,60.586,0,0,1-9.863,23.248c0,.352-.528.176-.528,0l-1.761-6.869a105.672,105.672,0,0,0-5.284-14.618q-6.1-13.509-11.1-27.475a13.869,13.869,0,0,0,3.522-2.113,19.373,19.373,0,0,0,6.34-13.738.758.758,0,0,0-.7-.7c-.352,0-.528.176-.7.7-.881,10.567-6.869,13.738-8.806,14.618l-.528-.176A166.611,166.611,0,0,1,26.77,69.348l2.113-1.409a21.135,21.135,0,0,0,7.045-11.8.969.969,0,0,0-.528-.881.969.969,0,0,0-.881.528,19.545,19.545,0,0,1-7.573,11.976l-.528-.176a84.537,84.537,0,0,1-1.057-11.976,73.972,73.972,0,0,0-3.17-23.953c0-.352-.352-.528-.7-.528a.969.969,0,0,0-.528.881s1.761,4.4,2.466,14.09c0,.352-.176.528-.528.352a26.054,26.054,0,0,1-5.46-5.988.7.7,0,0,0-1.057.7A27.651,27.651,0,0,0,23.6,48.742l.352,7.045A90.57,90.57,0,0,0,27.3,77.978c0,.352-.176.528-.352.352-2.29-.7-7.045-2.994-11.448-10.215a.7.7,0,0,0-.881-.176c-.176,0-.352.528-.176.881,5.46,8.982,11.624,10.92,13.209,11.1l.176.352a239.042,239.042,0,0,0,9.158,26.418c0,.352-.176.7-.528.528a48.109,48.109,0,0,1-14.09-9.335.7.7,0,0,0-.881,0c-.352.176-.352.528,0,.881,7.045,6.869,14.09,9.687,16.027,10.215h.176l.176.352,6.693,15.147a98.975,98.975,0,0,1,4.755,12.681c0,.176-.176.528-.528.352a82.778,82.778,0,0,1-19.2-7.573.7.7,0,0,0-.881.352c-.176.176,0,.7.176.881a87,87,0,0,0,21.135,8.454A164.5,164.5,0,0,1,55.3,169.562s-.352.352-.528.176C8.982,149.66,11.1,127.821,12.856,111.794l.352-3.875A26.418,26.418,0,0,0,7.22,86.784a59.881,59.881,0,0,1-4.227-6.517c-4.755-8.806-1.233-18.317,2.466-27.475l.352-1.233,1.233-2.818C10.919,38.7,9.158,27.079,8.1,20.034Z" transform="translate(1344.305 1621.594)" fill="#fff" fill-rule="evenodd"/>
    <path id="leaf-1-2" data-name="leaf-1" d="M10.991,74.254h-.382l-.076.229a81.237,81.237,0,0,0-.153,10.241l.229.076a.306.306,0,0,0,.306-.306,81.468,81.468,0,0,1,0-10.241ZM31.854,8.835c.535-3.439-.306-6.343-2.293-7.719A2.612,2.612,0,0,0,27.116.658,4.94,4.94,0,0,0,24.288,4.02c-.764,2.14-1.452,4.2-6.725,10.776-5.35,6.572-4.891,10.852-4.356,16.278v.306a10.082,10.082,0,0,1-3.821,9.629l-.764.764A18.342,18.342,0,0,0,.75,55.53c-.382,3.9,1.223,8.33,4.585,12.839a39.309,39.309,0,0,0,5.273,5.579c.153.153.153-.076.153-.076a77.113,77.113,0,0,1,1.376-9.553A26.748,26.748,0,0,1,7.246,53.39c0-.153.076-.306.229-.306a.42.42,0,0,1,.382.229A26.29,26.29,0,0,0,12.137,63.4c0,.153.229.076.229,0l.764-2.981a45.854,45.854,0,0,1,2.293-6.343q2.646-5.862,4.815-11.922a6.018,6.018,0,0,1-1.528-.917,8.407,8.407,0,0,1-2.751-5.961.329.329,0,0,1,.306-.306c.153,0,.229.076.306.306.382,4.585,2.98,5.961,3.821,6.343l.229-.076a72.3,72.3,0,0,0,3.057-11.158l-.917-.611a9.171,9.171,0,0,1-3.057-5.12.315.315,0,1,1,.611-.153A8.481,8.481,0,0,0,23.6,29.7l.229-.076a36.683,36.683,0,0,0,.459-5.2,32.1,32.1,0,0,1,1.376-10.394c0-.153.153-.229.306-.229a.42.42,0,0,1,.229.382,22.675,22.675,0,0,0-1.07,6.114c0,.153.076.229.229.153a11.306,11.306,0,0,0,2.369-2.6.306.306,0,0,1,.459.306,12,12,0,0,1-3.133,3.286L24.9,24.5a39.3,39.3,0,0,1-1.452,9.629c0,.153.076.229.153.153.993-.306,3.057-1.3,4.967-4.433a.306.306,0,0,1,.382-.076c.076,0,.153.229.076.382-2.369,3.9-5.044,4.738-5.732,4.815l-.076.153a103.727,103.727,0,0,1-3.974,11.464c0,.153.076.306.229.229a20.875,20.875,0,0,0,6.114-4.05.306.306,0,0,1,.382,0c.153.076.153.229,0,.382a18.476,18.476,0,0,1-6.954,4.433h-.076l-.076.153-2.9,6.572a42.948,42.948,0,0,0-2.063,5.5c0,.076.076.229.229.153a35.919,35.919,0,0,0,8.33-3.286.306.306,0,0,1,.382.153c.076.076,0,.306-.076.382a37.752,37.752,0,0,1-9.171,3.668A71.381,71.381,0,0,0,11.3,73.872s.153.153.229.076C31.4,65.236,30.479,55.759,29.714,48.8l-.153-1.681a11.464,11.464,0,0,1,2.6-9.171,25.984,25.984,0,0,0,1.834-2.828c2.063-3.821.535-7.948-1.07-11.922l-.153-.535-.535-1.223c-1.681-4.356-.917-9.4-.459-12.457Z" transform="translate(340.428 1675.479)" fill="#60fcb7" fill-rule="evenodd"/>
    <path id="leaf-2" d="M52.005,64.327c1.982,2.863,0,7.266-1.762,9.689-2.2,3.083-5.725,4.4-8.808,5.5a34.723,34.723,0,0,0-9.689,4.4,11.01,11.01,0,0,0-4.4,6.165h-.22q.437-4.726.661-9.468c1.541-5.064,7.487-7.487,11.89-9.468,4.184-1.762,8.808-3.523,12.331-6.606ZM4.884,65.868v.44c5.064,6.606,13.872,7.707,20.7,12.111h.44v9.909c-3.083-3.743-7.046-6.606-10.569-9.468C11.269,75.337,6.2,71.373,4.443,65.868h.44ZM52.005,38.344c2.2,2.863,1.541,7.266-.22,9.909-2.2,3.3-5.5,5.725-8.588,8.147-2.642,2.2-5.725,4.4-7.046,7.707l.22.44c4.4.661,9.028-3.743,13.212-1.762l1.541.881c-3.743,3.743-9.689,5.5-14.313,7.707-3.743,1.541-7.707,3.743-9.689,7.487a177.475,177.475,0,0,1,.661-18.716c9.248-5.945,15.193-15.414,24.221-21.8ZM1.14,35.261c7.266,8.147,16.515,13.872,25.322,20.258h.44q-.3,10.685-.881,21.359C19.416,72.914,11.049,71.814,6.2,65.648c3.743,0,9.468,2.863,10.569-1.762C18.316,56.4,7.966,52.216,4.443,47.372,2.462,44.509.7,40.766.7,37.243A3.272,3.272,0,0,1,1.14,35.261ZM47.6,17.866a10.864,10.864,0,0,1,1.321,5.064,13.1,13.1,0,0,1-2.2,6.606c-2.2,3.743-5.725,6.606-8.147,10.349v.661c2.2,1.541,4.4.44,6.386-.661,1.762-1.1,4.624-3.963,6.606-2.2C42.757,43.629,36.812,53.1,28,59.042l.661-13.432q.345-3.632.661-7.266C35.931,32.179,42.757,26.233,47.6,18.527v-.661ZM26.9,54.2ZM11.489,18.967c3.963,6.606,9.909,11.67,16.294,15.414l-.44,11.67L26.9,54.2l-1.321-.881c-7.707-5.725-15.854-11.01-22.46-18.056l-1.1-1.1,1.321-.44c1.321,0,2.642.881,3.963,1.541,2.642,1.541,8.808,6.606,9.689.44.44-3.3-1.541-6.165-3.083-8.808-.881-1.541-1.982-3.083-2.2-5.064a4.4,4.4,0,0,1-.22-2.863ZM27.123,1.352c2.863-2.422,5.064,2.642,5.945,4.4,1.1,2.863,1.541,5.725,2.422,8.808l1.321,3.963c.22.661.44,1.1,1.1.661l.881-.661,2.642-1.541c1.1-.44,3.083-2.2,4.4-1.321A5.2,5.2,0,0,1,47.6,17.646c-.22-.44-.881-.22-1.1,0-4.4,7.707-11.01,13.432-17.615,19.377V23.371L27.564,1.352c0-.44-.22-.44-.661-.44h.22Zm-.881.661c.22,7.487,1.1,14.753,1.321,22.019v8.808A46.241,46.241,0,0,1,12.37,17.205l.661-.44c1.982-.661,4.4,1.982,6.165,2.642,2.2.881,3.743-.22,4.844-2.2,1.321-2.2,1.1-5.064,1.1-7.487,0-2.2,0-5.945,1.1-8.147Z" transform="translate(1270.6 1693.41)" fill="#ff5300" fill-rule="evenodd"/>
  </g>
</svg>
