<svg xmlns="http://www.w3.org/2000/svg" width="200.001" height="67.429" viewBox="0 0 200.001 67.429">
  <g id="Group_20" data-name="Group 20" transform="translate(0)">
    <g id="Group_1" data-name="Group 1">
      <path id="Path_6" data-name="Path 6" d="M286.424,132.049l-200,9.058,2.26-52.268L283.6,96.273Z" transform="translate(-86.423 -88.839)" fill="#fff"/>
      <path id="Path_7" data-name="Path 7" d="M190.871,151.264l-6.153.546.022.814a4.813,4.813,0,0,0-3.639-.732c-4.558.474-6.414,4-5.926,8.32.27,2.79,1.088,5.666,2.776,7.037a12.923,12.923,0,0,0,4.894.531c1.347-.177,2.285-1.083,3.354-2.3l.35,1.215,5.941-.563C191.6,161.179,191.4,156.211,190.871,151.264Zm-8.137,11.964c-1.556-.262-2.337-1.6-2.583-3.547-.21-1.858-.311-3.9,1.7-4.154a4.753,4.753,0,0,1,3.089.617,6.011,6.011,0,0,1,.723,2.791C185.91,160.971,184.473,163.509,182.734,163.228Zm-15.067-12.435a8.024,8.024,0,0,0-2.272-4.883c-1.628-1.424-4.273-2.1-7.257-1.967l-9.8.407q.509,12,.678,24.01l7.325-.508-.509-7.257,3.934-.475a17.486,17.486,0,0,0,5.629-1.967C166.345,157.27,167.8,153.709,167.667,150.793Zm-7.088,2.849a4.269,4.269,0,0,1-1.8.78l-1.9.17-.407-5.562,1.967-.2a2.258,2.258,0,0,1,2.645,2.137A4.8,4.8,0,0,1,160.58,153.642ZM171,141.357l-4.873,25.182,6.325,1.45,4.721-25.132Zm31.873,9.14-2.115,11.337L197.85,150l-6.081.033,4.429,16.46c-.066,1.586-1.058,2.181-3.669,2.049l-.165,4.792c2.413.3,8.593.165,10.61-3.6,2.281-3.768,4.462-10.213,5.586-18.839Z" transform="translate(-136.758 -131.535)" fill="#0fe88a"/>
      <path id="Path_8" data-name="Path 8" d="M511.572,151.662l.021.814a4.812,4.812,0,0,0-3.638-.739c-4.559.465-6.422,3.992-5.942,8.309.264,2.791,1.078,5.668,2.763,7.042a12.922,12.922,0,0,0,4.893.54c1.347-.175,2.287-1.078,3.359-2.292l.347,1.216,5.942-.551c-.882-4.956-1.071-9.924-1.591-14.872Zm-2.005,11.414c-1.556-.265-2.334-1.605-2.576-3.552-.206-1.859-.3-3.905,1.7-4.151a4.752,4.752,0,0,1,3.087.623,6,6,0,0,1,.717,2.793c.248,2.037-1.194,4.572-2.932,4.288Zm-18.436-19.338-5.118,12.606-4.534-11.85-6.87.172.687,24.388,6.7.275L481.41,156l5.736,10.442,3.916.138,2.439-12.95,1.615,14.564,7.076-.171q-1.6-12.469-2.439-24.731a72.117,72.117,0,0,0-8.621.446ZM537.4,163.911l-.438-5.536,3.691-.344-.156-4.16-3.566.063-.219-5.349-4.973-.156.219,5.755L528.638,154l-2.283.125-.25-5.692-5.286.813.219,5.755-2,.063.156,4.5,2-.094.281,4.973c.188,3.816,1.283,6.756,3.66,6.6,2.252-.063,5.661-.031,5.536-1.095l-.626-4.629c-2.252.938-3.065.125-3.222-.907l-.438-5.536,2.408-.344,3.316-.156.407,5c.188,1.814.125,6.349,4.473,6.975,3,.5,4.316-.313,4.316-.375l-.031-4.535c-2.878.626-3.722-.5-3.878-1.533Zm19.744-10.039a19.651,19.651,0,0,0-4.635-2.026c-4.8-1.353-8.063.815-9.792,5.623-2.287,6.574,1.32,10.626,6.213,12,2.663.774,6.9.94,8.7-2.325a46.557,46.557,0,0,1-4.276-2.958,3.848,3.848,0,0,1-3.548.371,3.778,3.778,0,0,1-2.176-4.082l10.773,2.31.333-1.107c.951-3.4-.277-7.053-1.589-7.808Zm-3.273,4.744-5.18-1.309a3.329,3.329,0,0,1,3.62-1.947c1.9.422,1.906,1.813,1.56,3.257Zm15.658-7.839a3.059,3.059,0,0,0-2.554,2.057l-.265-1.36-5.539.431.564,16.219,6-.166-.5-8.226c-.133-2.454.133-3.516,1.326-4.113a6.111,6.111,0,0,1,3.483-.1l.961-4.046A6.055,6.055,0,0,0,569.525,150.776Zm12.707,5.733c-1.776-.487-2.228-.7-2.193-1.567s.766-2.3,1.811-2.193c1.009.035,1.775.661,1.706,2.367l5.431-.661a5.315,5.315,0,0,0-2.263-3.969,15.885,15.885,0,0,0-5.083-1.01c-5.083-.174-7.938,2.159-8.077,5.4-.1,2.4,1.5,4.213,5.675,5.535,1.149.488,2.959.453,2.89,1.95-.034,1.114-1.009,1.811-1.532,1.671-1.566-.279-1.741-.557-2.3-2.158l-5.919,1.044c1.288,4.213,4.526,4.874,8.112,4.979,5.431.209,8.008-1.915,8.147-5.4C588.777,159.609,587.7,157.8,582.232,156.51Z" transform="translate(-402.011 -133.106)" fill="#fe5410"/>
    </g>
    <g id="Group_19" data-name="Group 19" transform="translate(12.954 52.219)">
      <path id="Path_11" data-name="Path 11" d="M191.607,314.777a3.216,3.216,0,0,1-1.321-.558,2.224,2.224,0,0,1-.822-1.06l1.172-.586a1.392,1.392,0,0,0,.221.378,1.219,1.219,0,0,0,.335.3,1.786,1.786,0,0,0,.708.3,1.185,1.185,0,0,0,.767-.09.692.692,0,0,0,.415-.5.631.631,0,0,0,0-.255.518.518,0,0,0-.116-.232l-.032-.042a2.73,2.73,0,0,0-.448-.374,5.032,5.032,0,0,0-.639-.361,2.9,2.9,0,0,1-1.223-.951,1.583,1.583,0,0,1-.228-1.2,1.916,1.916,0,0,1,.21-.6,1.444,1.444,0,0,1,.378-.438,2.278,2.278,0,0,1,.941-.445,2.661,2.661,0,0,1,1.122-.016,2.973,2.973,0,0,1,.806.269,2.9,2.9,0,0,1,.715.5,2.692,2.692,0,0,1,.514.666,2.606,2.606,0,0,1-.353.176q-.2.083-.4.161l-.412.268a1.789,1.789,0,0,0-.2-.324,1.734,1.734,0,0,0-.233-.243,1.618,1.618,0,0,0-.3-.2,1.249,1.249,0,0,0-.353-.116,1.149,1.149,0,0,0-.462-.008.734.734,0,0,0-.364.184.614.614,0,0,0-.187.354.542.542,0,0,0,.073.42,1.245,1.245,0,0,0,.347.347,4.863,4.863,0,0,0,.616.349,7.6,7.6,0,0,1,.722.41,3.207,3.207,0,0,1,.522.422,1.648,1.648,0,0,1,.365.689,2.026,2.026,0,0,1-.512,1.88,2.093,2.093,0,0,1-1.023.534A3.294,3.294,0,0,1,191.607,314.777Z" transform="translate(-189.463 -303.771)" fill="#fff"/>
      <path id="Path_12" data-name="Path 12" d="M219.528,320.637l-.022.393.072-.058a2.079,2.079,0,0,1,.378-.239,1.515,1.515,0,0,1,.412-.117,3.088,3.088,0,0,1,.6-.017,1.871,1.871,0,0,1,1.068.375,2.238,2.238,0,0,1,.717.937,2.992,2.992,0,0,1,.223,1.3,2.8,2.8,0,0,1-.347,1.254,2.272,2.272,0,0,1-.814.853,1.979,1.979,0,0,1-1.085.287,3.33,3.33,0,0,1-.563-.068,1.821,1.821,0,0,1-.432-.149,1.949,1.949,0,0,1-.378-.256l-.044-.033-.094,2.166-1.329-.082.312-6.619Zm-.174,2.394a2.345,2.345,0,0,0,.035.522,1.1,1.1,0,0,0,.151.4,1.192,1.192,0,0,0,.384.384,1.1,1.1,0,0,0,1.581-.486,1.884,1.884,0,0,0,.167-.75,1.747,1.747,0,0,0-.109-.765,1.006,1.006,0,0,0-.382-.492,1.074,1.074,0,0,0-.282-.142,1.2,1.2,0,0,0-.328-.062,1.048,1.048,0,0,0-.842.35,1.642,1.642,0,0,0-.377,1.039Z" transform="translate(-212.398 -313.918)" fill="#fff"/>
      <path id="Path_13" data-name="Path 13" d="M250.538,328.631l-.007-.377a2.328,2.328,0,0,1-.58.376,1.7,1.7,0,0,1-.691.113,2.435,2.435,0,0,1-.865-.173,1.858,1.858,0,0,1-.674-.44,2.334,2.334,0,0,1-.512-.873,3.114,3.114,0,0,1-.155-1.108,2.539,2.539,0,0,1,.313-1.2,2.12,2.12,0,0,1,.819-.827,2.237,2.237,0,0,1,1.179-.281,1.928,1.928,0,0,1,.695.127,1.609,1.609,0,0,1,.562.37l.011-.366,1.322.041q-.012.385-.02.774t-.02.774q-.041.852-.054,1.6t-.018,1.5Zm.1-2.389a1.656,1.656,0,0,0-.092-.6.885.885,0,0,0-.277-.413,1.142,1.142,0,0,0-.369-.208,1.346,1.346,0,0,0-.445-.074,1,1,0,0,0-.822.338,1.446,1.446,0,0,0-.325.933,1.652,1.652,0,0,0,.133.683,1.2,1.2,0,0,0,.383.492,1.031,1.031,0,0,0,.576.2.991.991,0,0,0,.618-.147,1.21,1.21,0,0,0,.444-.49A1.657,1.657,0,0,0,250.638,326.242Z" transform="translate(-235.916 -316.563)" fill="#fff"/>
      <path id="Path_14" data-name="Path 14" d="M278.923,326.105a2.175,2.175,0,0,0-.436-.154,1.087,1.087,0,0,0-.267-.012.585.585,0,0,0-.5.273,1.449,1.449,0,0,0-.157.774l0,2.563-1.257-.014.043-4.645,1.22,0,.013.376a.77.77,0,0,1,.366-.357,1.171,1.171,0,0,1,.52-.131,1.514,1.514,0,0,1,.493.078,2.233,2.233,0,0,1,.483.228Z" transform="translate(-259.51 -317.318)" fill="#fff"/>
      <path id="Path_15" data-name="Path 15" d="M295.8,322.307l.009,1.539-1.294-.007-.039-6.663,1.285.007.03,3.6,1.539-1.735,1.4.069-1.676,1.841,1.9,2.711-1.415.156-1.348-1.97Z" transform="translate(-274.174 -311.184)" fill="#fff"/>
      <path id="Path_16" data-name="Path 16" d="M320.037,322.593l-1.224-.111.406-4.617,1.234.093Zm-.129-5.34a.812.812,0,0,1-.548-.278.754.754,0,0,1-.044-.953.859.859,0,0,1,.315-.265.717.717,0,0,1,.383-.075.8.8,0,0,1,.384.136.864.864,0,0,1,.28.3.67.67,0,0,1,.084.388.876.876,0,0,1-.128.408.716.716,0,0,1-.3.266A.818.818,0,0,1,319.907,317.253Z" transform="translate(-293.801 -309.978)" fill="#fff"/>
      <path id="Path_17" data-name="Path 17" d="M331.943,328.42a.587.587,0,0,1,.067-.054l.076-.054a1.13,1.13,0,0,1,.337-.179,2.123,2.123,0,0,1,.41-.088,2.341,2.341,0,0,1,.5,0,1.46,1.46,0,0,1,.8.307,1.573,1.573,0,0,1,.5.711,2.332,2.332,0,0,1,.12.987l-.243,2.871q-.252-.025-.514-.046t-.533-.028l-.206-.015.231-2.759a1.365,1.365,0,0,0-.047-.549.654.654,0,0,0-.207-.315.561.561,0,0,0-.3-.116,1,1,0,0,0-.784.233,1.27,1.27,0,0,0-.36.872l-.2,2.469-1.226-.079.383-4.639,1.235.1Z" transform="translate(-303.109 -319.874)" fill="#fff"/>
      <path id="Path_18" data-name="Path 18" d="M358.062,334.094a.953.953,0,0,0,.408.384,1.3,1.3,0,0,0,.589.142h.028a1.592,1.592,0,0,0,.568-.106.88.88,0,0,0,.407-.333,1.134,1.134,0,0,0,.18-.57l.011-.15a1.972,1.972,0,0,1-.622.274,2.254,2.254,0,0,1-.684.058,2.488,2.488,0,0,1-.776-.177,2.006,2.006,0,0,1-.614-.4,2.3,2.3,0,0,1-.585-.929,3.277,3.277,0,0,1-.15-1.29,2.3,2.3,0,0,1,.387-1.139,2.421,2.421,0,0,1,.871-.8,2.036,2.036,0,0,1,1.136-.241,2.443,2.443,0,0,1,.7.162,2.168,2.168,0,0,1,.605.367l.023-.365,1.283.117-.3,4.466a2.454,2.454,0,0,1-.378,1.191,2.255,2.255,0,0,1-.861.792,2.046,2.046,0,0,1-1.146.222,3.132,3.132,0,0,1-.94-.141,2.13,2.13,0,0,1-.694-.364,2.432,2.432,0,0,1-.482-.53.312.312,0,0,0-.018-.033.325.325,0,0,1-.018-.033Zm.031-2.848a1.5,1.5,0,0,0,.247,1,1.041,1.041,0,0,0,.8.43,1.279,1.279,0,0,0,.638-.115,1.138,1.138,0,0,0,.473-.412,1.244,1.244,0,0,0,.2-.611,1.758,1.758,0,0,0-.186-1,1.03,1.03,0,0,0-.38-.388,1.241,1.241,0,0,0-.551-.165,1.213,1.213,0,0,0-.516.083.961.961,0,0,0-.4.3c-.006.006-.009.011-.009.014s0,.008-.009.014a1.081,1.081,0,0,0-.2.321,1.424,1.424,0,0,0-.093.378C358.107,331.127,358.1,331.177,358.093,331.245Z" transform="translate(-324.451 -320.573)" fill="#fff"/>
      <path id="Path_19" data-name="Path 19" d="M400.609,324.033l2.766.153L403.3,325.4l-4.181-.2.269-6.655q.178.017.352.025l.342.016q.187.008.38.011t.38,0Z" transform="translate(-358.58 -312.288)" fill="#fff"/>
      <path id="Path_20" data-name="Path 20" d="M425.523,323.414l-1.228-.045.155-4.632,1.238.026Zm-.419-5.325a.811.811,0,0,1-.562-.248.754.754,0,0,1-.1-.95.861.861,0,0,1,.3-.281.716.716,0,0,1,.378-.1.8.8,0,0,1,.391.115.862.862,0,0,1,.3.285.67.67,0,0,1,.1.383.879.879,0,0,1-.105.414.714.714,0,0,1-.281.281.817.817,0,0,1-.425.1Z" transform="translate(-378.887 -310.65)" fill="#fff"/>
      <path id="Path_21" data-name="Path 21" d="M434.811,319.993l.5-.04-.039-.477a1.844,1.844,0,0,1,.2-1.111,1.287,1.287,0,0,1,.755-.58,2.6,2.6,0,0,1,1.223-.019l.091,1.094a1.881,1.881,0,0,0-.676-.036.375.375,0,0,0-.3.241,1.545,1.545,0,0,0-.043.6l.013.159,1.113-.082.082,1.095-1.067.09q.067.889.144,1.773t.134,1.764l-1.262.123-.287-3.489-.487.03Z" transform="translate(-387.369 -311.609)" fill="#fff"/>
      <path id="Path_22" data-name="Path 22" d="M451.344,329.991a2.746,2.746,0,0,1,.326-1.257,2.121,2.121,0,0,1,.818-.836,2.239,2.239,0,0,1,1.182-.276,2.924,2.924,0,0,1,.636.1,3.066,3.066,0,0,1,.594.239,1.955,1.955,0,0,1,.522.523,2.591,2.591,0,0,1,.352.762,3.024,3.024,0,0,1,.113.925l-.009.319-3.31-.038a1.07,1.07,0,0,0,.354.692,1.158,1.158,0,0,0,.745.267,1.289,1.289,0,0,0,.522-.077,1.311,1.311,0,0,0,.431-.309q.162.1.329.191t.338.182c.051.036.105.072.163.107s.115.075.172.117a2.08,2.08,0,0,1-.845.72,2.509,2.509,0,0,1-1.132.213,2.426,2.426,0,0,1-1.21-.337,2.144,2.144,0,0,1-.825-.9A2.723,2.723,0,0,1,451.344,329.991Zm3.324-.441a1.067,1.067,0,0,0-.306-.651.957.957,0,0,0-.668-.237,1,1,0,0,0-.682.213,1.036,1.036,0,0,0-.37.626Z" transform="translate(-400.703 -319.609)" fill="#fff"/>
      <path id="Path_23" data-name="Path 23" d="M479.517,322.746l-1.267-.036.122-6.662,1.258.037Z" transform="translate(-422.408 -310.274)" fill="#fff"/>
      <path id="Path_24" data-name="Path 24" d="M489.383,328.606a2.108,2.108,0,0,1,.021-.592,2.8,2.8,0,0,1,.162-.575,2.139,2.139,0,0,1,.26-.476,2.745,2.745,0,0,1,.794-.7,2.438,2.438,0,0,1,1.017-.327,2.974,2.974,0,0,1,.978.059,2.313,2.313,0,0,1,.823.357,1.809,1.809,0,0,1,.428.455,3.332,3.332,0,0,1,.338.641,2.563,2.563,0,0,1,.177.7,2.394,2.394,0,0,1-.21,1.276,2.44,2.44,0,0,1-.819.975,2.539,2.539,0,0,1-1.232.449,3.1,3.1,0,0,1-.675-.007,2.416,2.416,0,0,1-.587-.133,2.311,2.311,0,0,1-1.012-.822A2.635,2.635,0,0,1,489.383,328.606Zm1.271-.1a1.407,1.407,0,0,0,.427.942,1.109,1.109,0,0,0,.922.282,1.784,1.784,0,0,0,.5-.135,1.01,1.01,0,0,0,.377-.261.962.962,0,0,0,.229-.442,2.138,2.138,0,0,0,.045-.574l-.012-.046a1.314,1.314,0,0,0-.454-.932,1.226,1.226,0,0,0-.941-.282,1.182,1.182,0,0,0-.847.465A1.325,1.325,0,0,0,490.654,328.5Z" transform="translate(-431.379 -318.237)" fill="#fff"/>
      <path id="Path_25" data-name="Path 25" d="M520.252,325.277a.6.6,0,0,1,.062-.06l.072-.06a1.128,1.128,0,0,1,.322-.2,2.119,2.119,0,0,1,.4-.12,2.349,2.349,0,0,1,.5-.04,1.461,1.461,0,0,1,.824.242,1.574,1.574,0,0,1,.551.67,2.329,2.329,0,0,1,.2.975l-.016,2.881q-.254-.005-.516-.005t-.534.014l-.206,0,.013-2.769a1.361,1.361,0,0,0-.09-.544.654.654,0,0,0-.232-.3.562.562,0,0,0-.31-.092,1,1,0,0,0-.763.294,1.27,1.27,0,0,0-.29.9l-.01,2.478-1.228.018.016-4.655h1.239Z" transform="translate(-455.275 -317.328)" fill="#fff"/>
      <path id="Path_26" data-name="Path 26" d="M546.12,328.78a.952.952,0,0,0,.434.354,1.3,1.3,0,0,0,.6.1l.028,0a1.592,1.592,0,0,0,.559-.146.878.878,0,0,0,.382-.361,1.136,1.136,0,0,0,.139-.581v-.15a1.977,1.977,0,0,1-.6.318,2.262,2.262,0,0,1-.679.107,2.493,2.493,0,0,1-.786-.122,2,2,0,0,1-.641-.356,2.3,2.3,0,0,1-.65-.885,3.28,3.28,0,0,1-.241-1.276,2.3,2.3,0,0,1,.305-1.164,2.42,2.42,0,0,1,.812-.856,2.036,2.036,0,0,1,1.117-.321,2.45,2.45,0,0,1,.711.112,2.167,2.167,0,0,1,.629.323l0-.366,1.288.026.016,4.477a2.458,2.458,0,0,1-.293,1.214,2.256,2.256,0,0,1-.8.851,2.044,2.044,0,0,1-1.127.3,3.133,3.133,0,0,1-.948-.074,2.129,2.129,0,0,1-.718-.313,2.436,2.436,0,0,1-.518-.494.3.3,0,0,0-.021-.032.3.3,0,0,1-.021-.032Zm-.172-2.843a1.5,1.5,0,0,0,.317.976,1.041,1.041,0,0,0,.825.373,1.278,1.278,0,0,0,.628-.16,1.137,1.137,0,0,0,.443-.444,1.245,1.245,0,0,0,.16-.624,1.757,1.757,0,0,0-.256-.979,1.029,1.029,0,0,0-.406-.36,1.244,1.244,0,0,0-.561-.126,1.213,1.213,0,0,0-.509.12.959.959,0,0,0-.375.328.027.027,0,0,0-.009.015s0,.008-.008.015a1.076,1.076,0,0,0-.172.334,1.419,1.419,0,0,0-.066.384,1.49,1.49,0,0,0-.01.151Z" transform="translate(-475.979 -316.236)" fill="#fff"/>
      <path id="Path_27" data-name="Path 27" d="M588.658,316.3l2.77-.013v1.212l-4.185.055-.132-6.659q.179.007.353,0l.342,0c.125,0,.252-.006.38-.012s.254-.013.379-.022Z" transform="translate(-510.219 -306.085)" fill="#fff"/>
      <path id="Path_28" data-name="Path 28" d="M611.7,321.234a2.747,2.747,0,0,1,.273-1.27,2.121,2.121,0,0,1,.781-.871,2.238,2.238,0,0,1,1.169-.326,2.931,2.931,0,0,1,.639.07,3.054,3.054,0,0,1,.6.214,1.953,1.953,0,0,1,.544.5,2.582,2.582,0,0,1,.384.747,3.03,3.03,0,0,1,.153.919l0,.319-3.309.1a1.068,1.068,0,0,0,.384.676,1.157,1.157,0,0,0,.755.235,1.291,1.291,0,0,0,.519-.1,1.309,1.309,0,0,0,.417-.327q.166.091.337.177t.346.167c.052.034.108.067.167.1s.118.07.177.109a2.082,2.082,0,0,1-.813.755,2.512,2.512,0,0,1-1.122.261,2.426,2.426,0,0,1-1.224-.285,2.142,2.142,0,0,1-.862-.862A2.721,2.721,0,0,1,611.7,321.234Zm3.3-.582a1.068,1.068,0,0,0-.334-.638.956.956,0,0,0-.678-.208,1,1,0,0,0-.673.242,1.036,1.036,0,0,0-.343.641Z" transform="translate(-530.057 -312.469)" fill="#fff"/>
      <path id="Path_29" data-name="Path 29" d="M641.989,320.46l-.067-.371a2.322,2.322,0,0,1-.514.463,1.706,1.706,0,0,1-.664.221,2.441,2.441,0,0,1-.881-.035,1.858,1.858,0,0,1-.735-.328,2.33,2.33,0,0,1-.644-.781,3.113,3.113,0,0,1-.328-1.069,2.539,2.539,0,0,1,.12-1.231,2.121,2.121,0,0,1,.678-.946,2.237,2.237,0,0,1,1.12-.463,1.922,1.922,0,0,1,.706.015,1.609,1.609,0,0,1,.614.276l-.047-.363,1.312-.168q.049.382.1.767t.1.767q.095.848.2,1.587t.219,1.482Zm-.279-2.375a1.65,1.65,0,0,0-.187-.582.886.886,0,0,0-.338-.364,1.142,1.142,0,0,0-.4-.147,1.346,1.346,0,0,0-.451,0,1,1,0,0,0-.758.463,1.445,1.445,0,0,0-.173.972,1.655,1.655,0,0,0,.239.653,1.2,1.2,0,0,0,.456.425,1.032,1.032,0,0,0,.6.108.993.993,0,0,0,.587-.243,1.212,1.212,0,0,0,.361-.554,1.658,1.658,0,0,0,.061-.728Z" transform="translate(-551.371 -309.978)" fill="#fff"/>
      <path id="Path_30" data-name="Path 30" d="M668.925,314.684a2.172,2.172,0,0,0-.454-.09,1.1,1.1,0,0,0-.266.026.585.585,0,0,0-.456.342,1.449,1.449,0,0,0-.044.788l.365,2.537-1.246.166-.626-4.6,1.208-.173.067.371a.77.77,0,0,1,.31-.406,1.17,1.17,0,0,1,.5-.2,1.507,1.507,0,0,1,.5.007,2.224,2.224,0,0,1,.511.156Z" transform="translate(-574.012 -308.156)" fill="#fff"/>
      <path id="Path_31" data-name="Path 31" d="M687.87,313.352a.634.634,0,0,1,.061-.061l.07-.062a1.128,1.128,0,0,1,.316-.214,2.112,2.112,0,0,1,.4-.132,2.34,2.34,0,0,1,.494-.055,1.46,1.46,0,0,1,.831.218,1.575,1.575,0,0,1,.571.653,2.334,2.334,0,0,1,.226.969l.07,2.881q-.254,0-.516.01t-.533.03l-.206.008-.07-2.768a1.365,1.365,0,0,0-.106-.541.655.655,0,0,0-.24-.29.565.565,0,0,0-.313-.082,1,1,0,0,0-.754.316,1.27,1.27,0,0,0-.263.906l.064,2.477-1.227.055-.122-4.653,1.238-.037Z" transform="translate(-590.486 -307.675)" fill="#fff"/>
      <path id="Path_32" data-name="Path 32" d="M712.441,300.951a.812.812,0,0,1-.577-.21.754.754,0,0,1-.159-.941.857.857,0,0,1,.28-.3.717.717,0,0,1,.371-.12.8.8,0,0,1,.4.089.862.862,0,0,1,.313.265.668.668,0,0,1,.13.375.88.88,0,0,1-.077.42.716.716,0,0,1-.262.3A.816.816,0,0,1,712.441,300.951Zm.774,5.285-1.229.038-.155-4.632,1.236-.057Z" transform="translate(-610.641 -296.828)" fill="#fff"/>
      <path id="Path_33" data-name="Path 33" d="M725.822,310.157a.592.592,0,0,1,.061-.062l.07-.062a1.128,1.128,0,0,1,.315-.215,2.113,2.113,0,0,1,.4-.133,2.345,2.345,0,0,1,.494-.056,1.458,1.458,0,0,1,.832.216,1.573,1.573,0,0,1,.573.652,2.333,2.333,0,0,1,.228.968l.075,2.881q-.253,0-.516.011t-.533.031l-.206.008-.075-2.768a1.362,1.362,0,0,0-.107-.541.657.657,0,0,0-.241-.29.563.563,0,0,0-.312-.082,1,1,0,0,0-.753.318,1.27,1.27,0,0,0-.262.906l.069,2.477-1.227.057-.132-4.653,1.238-.039Z" transform="translate(-621.098 -305.096)" fill="#fff"/>
      <path id="Path_34" data-name="Path 34" d="M752.127,312.958a.956.956,0,0,0,.443.343,1.3,1.3,0,0,0,.6.085l.028,0a1.592,1.592,0,0,0,.556-.16.882.882,0,0,0,.373-.37,1.132,1.132,0,0,0,.124-.584l0-.15a1.975,1.975,0,0,1-.592.333,2.255,2.255,0,0,1-.676.123,2.492,2.492,0,0,1-.789-.1,2.006,2.006,0,0,1-.65-.34,2.3,2.3,0,0,1-.671-.869,3.283,3.283,0,0,1-.273-1.27,2.3,2.3,0,0,1,.277-1.171,2.419,2.419,0,0,1,.79-.876,2.037,2.037,0,0,1,1.108-.348,2.454,2.454,0,0,1,.713.094,2.163,2.163,0,0,1,.638.308l-.013-.366,1.288-.006.128,4.475a2.454,2.454,0,0,1-.262,1.221,2.256,2.256,0,0,1-.782.871,2.045,2.045,0,0,1-1.119.33,3.133,3.133,0,0,1-.949-.051,2.129,2.129,0,0,1-.726-.3,2.432,2.432,0,0,1-.53-.481.334.334,0,0,0-.021-.031.247.247,0,0,1-.021-.031Zm-.242-2.838a1.5,1.5,0,0,0,.341.968,1.041,1.041,0,0,0,.834.352,1.28,1.28,0,0,0,.625-.175,1.138,1.138,0,0,0,.431-.455,1.241,1.241,0,0,0,.144-.628,1.757,1.757,0,0,0-.28-.973,1.035,1.035,0,0,0-.415-.35,1.245,1.245,0,0,0-.565-.112,1.215,1.215,0,0,0-.506.132.965.965,0,0,0-.366.337c-.006.007-.008.012-.008.015s0,.008-.008.015a1.08,1.08,0,0,0-.164.338,1.437,1.437,0,0,0-.057.386C751.887,310,751.885,310.051,751.885,310.12Z" transform="translate(-642.09 -303.46)" fill="#fff"/>
      <path id="Path_35" data-name="Path 35" d="M789.245,293.513q-.046-.325-.093-.66l-.094-.669q.631-.1,1.291-.189t1.358-.175l1.2-.177,1.194-.176.116,1.269q-.251.031-.522.058t-.549.07l-.726.089q.171,1.358.344,2.7t.343,2.679l-1.338.188-.7-5.254Z" transform="translate(-673.117 -290.448)" fill="#fff"/>
      <path id="Path_36" data-name="Path 36" d="M820.028,295.212l.052-.06a2.273,2.273,0,0,1,.518-.433,1.507,1.507,0,0,1,.572-.211,1.589,1.589,0,0,1,1.317.345,2.18,2.18,0,0,1,.613,1.373l.368,2.82-1.237.176q-.062-.456-.123-.9t-.1-.9l-.12-.865a1.769,1.769,0,0,0-.151-.581.593.593,0,0,0-.255-.273.612.612,0,0,0-.347-.05,1.049,1.049,0,0,0-.511.207.877.877,0,0,0-.3.454,1.658,1.658,0,0,0-.039.679l.311,2.439-1.267.15q-.233-1.627-.448-3.279t-.414-3.319l1.275-.169Z" transform="translate(-696.836 -291.53)" fill="#fff"/>
      <path id="Path_37" data-name="Path 37" d="M848.5,300.134a2.177,2.177,0,0,0-.452-.1,1.094,1.094,0,0,0-.266.022.585.585,0,0,0-.462.335,1.449,1.449,0,0,0-.058.788l.322,2.543-1.249.146-.548-4.613L847,299.1l.061.372a.77.77,0,0,1,.317-.4,1.171,1.171,0,0,1,.5-.2,1.513,1.513,0,0,1,.5.015,2.229,2.229,0,0,1,.508.165Z" transform="translate(-718.879 -296.414)" fill="#fff"/>
      <path id="Path_38" data-name="Path 38" d="M863.614,301.345a2.105,2.105,0,0,1,.016-.592,2.8,2.8,0,0,1,.157-.576,2.159,2.159,0,0,1,.256-.478,2.748,2.748,0,0,1,.788-.708,2.442,2.442,0,0,1,1.014-.335,2.981,2.981,0,0,1,.978.051,2.315,2.315,0,0,1,.826.35,1.811,1.811,0,0,1,.432.451,3.341,3.341,0,0,1,.343.639,2.558,2.558,0,0,1,.183.7,2.4,2.4,0,0,1-.2,1.277,2.439,2.439,0,0,1-.811.981,2.539,2.539,0,0,1-1.228.459,3.1,3.1,0,0,1-.676,0,2.425,2.425,0,0,1-.588-.128,2.312,2.312,0,0,1-1.019-.814A2.635,2.635,0,0,1,863.614,301.345Zm1.27-.114a1.406,1.406,0,0,0,.435.939,1.109,1.109,0,0,0,.925.275,1.784,1.784,0,0,0,.495-.139,1.011,1.011,0,0,0,.375-.264.961.961,0,0,0,.225-.444,2.131,2.131,0,0,0,.04-.575l-.012-.046a1.315,1.315,0,0,0-.462-.928,1.227,1.227,0,0,0-.944-.274,1.182,1.182,0,0,0-.843.472A1.325,1.325,0,0,0,864.884,301.23Z" transform="translate(-733.244 -296.23)" fill="#fff"/>
      <path id="Path_39" data-name="Path 39" d="M893.1,297.524l.255,2.709a1.223,1.223,0,0,0,.281.721.8.8,0,0,0,.692.189.718.718,0,0,0,.579-.3,1.027,1.027,0,0,0,.105-.679l-.258-2.794,1.233-.114.263,2.681a2.732,2.732,0,0,1-.117,1.2,1.453,1.453,0,0,1-.618.755,2.708,2.708,0,0,1-1.126.339,2.936,2.936,0,0,1-.977-.056,1.556,1.556,0,0,1-.689-.358,1.584,1.584,0,0,1-.373-.572,2.654,2.654,0,0,1-.186-.8l-.267-2.784Z" transform="translate(-756.072 -295.114)" fill="#fff"/>
      <path id="Path_40" data-name="Path 40" d="M919.489,302.241a.954.954,0,0,0,.421.37,1.3,1.3,0,0,0,.593.122h.028a1.6,1.6,0,0,0,.564-.125.882.882,0,0,0,.4-.346,1.136,1.136,0,0,0,.16-.576l.006-.15a1.972,1.972,0,0,1-.612.3,2.263,2.263,0,0,1-.682.081,2.491,2.491,0,0,1-.781-.151,2.008,2.008,0,0,1-.627-.379,2.3,2.3,0,0,1-.616-.909,3.277,3.277,0,0,1-.193-1.284,2.3,2.3,0,0,1,.348-1.151,2.42,2.42,0,0,1,.843-.825,2.038,2.038,0,0,1,1.128-.279,2.454,2.454,0,0,1,.706.139,2.165,2.165,0,0,1,.617.347l.011-.366,1.286.074-.151,4.474a2.452,2.452,0,0,1-.338,1.2,2.253,2.253,0,0,1-.834.82,2.044,2.044,0,0,1-1.137.26,3.131,3.131,0,0,1-.944-.109,2.125,2.125,0,0,1-.706-.34,2.424,2.424,0,0,1-.5-.513.367.367,0,0,0-.02-.032.334.334,0,0,1-.019-.032Zm-.065-2.848a1.5,1.5,0,0,0,.28.987,1.041,1.041,0,0,0,.81.4,1.281,1.281,0,0,0,.634-.136,1.138,1.138,0,0,0,.459-.428,1.243,1.243,0,0,0,.183-.618,1.757,1.757,0,0,0-.22-.988,1.028,1.028,0,0,0-.393-.375,1.239,1.239,0,0,0-.556-.147,1.214,1.214,0,0,0-.513.1.964.964,0,0,0-.387.313c-.006.007-.009.011-.009.014s0,.008-.009.014a1.083,1.083,0,0,0-.185.328,1.426,1.426,0,0,0-.08.381,1.492,1.492,0,0,0-.015.15Z" transform="translate(-777.238 -294.854)" fill="#fff"/>
      <path id="Path_41" data-name="Path 41" d="M948.719,289.48l.056-.056a2.276,2.276,0,0,1,.547-.4,1.5,1.5,0,0,1,.585-.171,1.588,1.588,0,0,1,1.29.434,2.179,2.179,0,0,1,.517,1.412l.172,2.838-1.246.09-.06-.909q-.03-.45-.042-.909l-.06-.871a1.767,1.767,0,0,0-.11-.59.592.592,0,0,0-.236-.289.611.611,0,0,0-.343-.073,1.046,1.046,0,0,0-.524.171.877.877,0,0,0-.33.432,1.66,1.66,0,0,0-.086.675l.142,2.454-1.274.062q-.12-1.639-.221-3.3t-.184-3.339l1.283-.081Z" transform="translate(-800.77 -286.894)" fill="#fff"/>
      <path id="Path_42" data-name="Path 42" d="M990.722,286.2a3.351,3.351,0,0,1,1.117.132,1.937,1.937,0,0,1,.8.461,1.67,1.67,0,0,1,.388.572,2.157,2.157,0,0,1,.168.764,2.319,2.319,0,0,1-.109.77,2.082,2.082,0,0,1-.33.633,1.624,1.624,0,0,1-.508.437,3.128,3.128,0,0,1-.553.2,2.914,2.914,0,0,1-.664.1l-1.389.058.084,2.561-1.379.049q-.016-.834-.041-1.665t-.042-1.665q-.025-.835-.051-1.665t-.051-1.656Zm.2,2.845a1.229,1.229,0,0,0,.4-.069,1.059,1.059,0,0,0,.285-.147.791.791,0,0,0,.261-.678.683.683,0,0,0-.266-.579,1.244,1.244,0,0,0-.764-.17l-1.229.043.061,1.642Z" transform="translate(-833.719 -286.192)" fill="#fff"/>
      <path id="Path_43" data-name="Path 43" d="M1018.024,293.171l-1.26-.138.659-6.63,1.251.138Z" transform="translate(-856.791 -286.361)" fill="#fff"/>
      <path id="Path_44" data-name="Path 44" d="M1032.663,303.3l-.015-.376a2.331,2.331,0,0,1-.573.388,1.71,1.71,0,0,1-.688.127,2.437,2.437,0,0,1-.868-.156,1.856,1.856,0,0,1-.683-.426,2.331,2.331,0,0,1-.53-.863,3.105,3.105,0,0,1-.177-1.1,2.54,2.54,0,0,1,.289-1.2,2.123,2.123,0,0,1,.8-.843,2.238,2.238,0,0,1,1.173-.3,1.924,1.924,0,0,1,.7.113,1.609,1.609,0,0,1,.57.359l0-.366,1.323.015q0,.385,0,.774t0,.774q-.024.853-.022,1.6t.012,1.5Zm.051-2.391a1.653,1.653,0,0,0-.1-.6.884.884,0,0,0-.285-.407,1.147,1.147,0,0,0-.373-.2,1.349,1.349,0,0,0-.447-.065,1,1,0,0,0-.815.354,1.446,1.446,0,0,0-.306.939,1.657,1.657,0,0,0,.146.68,1.2,1.2,0,0,0,.393.484,1.033,1.033,0,0,0,.58.19.993.993,0,0,0,.615-.16,1.213,1.213,0,0,0,.434-.5,1.661,1.661,0,0,0,.16-.713Z" transform="translate(-866.766 -296.152)" fill="#fff"/>
      <path id="Path_45" data-name="Path 45" d="M1058.991,305.406a1.671,1.671,0,0,1-.721.666,1.744,1.744,0,0,1-.865.16,2.253,2.253,0,0,1-.818-.217l.422-1.073a.948.948,0,0,0,.532.1.573.573,0,0,0,.34-.177,1.932,1.932,0,0,0,.261-.41.433.433,0,0,1,.029-.068.475.475,0,0,0,.029-.068l-1.14-4.858,1.329.181.714,3.269,1.4-2.944,1.291.187q-.274.559-.543,1.114t-.54,1.077A29.071,29.071,0,0,1,1058.991,305.406Z" transform="translate(-888.914 -296.897)" fill="#fff"/>
    </g>
  </g>
</svg>
