<svg xmlns="http://www.w3.org/2000/svg" width="407.826" height="65.864" viewBox="0 0 407.826 65.864">
  <g id="snail" transform="translate(0 -2.1)">
    <path id="Path_534" data-name="Path 534" d="M19.1,8v4.4a13.394,13.394,0,0,1,4.9,1l4.2-2.9a3.355,3.355,0,1,1,6.7.2A3.343,3.343,0,0,1,30,13.8l-2.8,2c3.9,4.4,2.8,12,2.5,17.4,5.9,0,18.3,1.4,18.3,8.2,0,7.1-7.7,19.3-9.8,19.5-.5,0-.9-.3-1.3-.9a16,16,0,0,1-11.4,7.8h-.3C15.8,69.1,6.9,62.5,6.9,53.4a12.746,12.746,0,0,1,2-7C3.7,44.3,0,40,0,34.8c0-5.7,6.4-19,15.4-22v-5c-2.7-1.9-1.2-5.7,2-5.7,3.7,0,4.9,4.4,1.7,6ZM9,18.2c.6,0,.9,1,.6,2.1-.2,1.1-.9,2-1.5,2-.8,0-.8-1.7-.3-2.8a37.777,37.777,0,0,0-5.2,8.7c-1.2,3.2-2.1,6.3-1,9.6,1.7,4.4,6,7.1,10.6,7.9v-1l-2.3-.3c-.4,0-.3-.7,0-.6a35.39,35.39,0,0,1,6,1.2c.3.2,0,.7-.3.6a11.465,11.465,0,0,0-2.8-.8v1c6,.8,13.1-2,15.3-8a9.191,9.191,0,0,0,.6-3.3c0-5.8,1.8-14.2-2.3-18.7L26,16a1.882,1.882,0,0,1-2.3-2.1,11,11,0,0,0-6.6-.8,15.594,15.594,0,0,0-8.2,5.2H9Zm3.3,2.7c.2,0,.3.1.4.3,1-.7,1.7.6,1.3,2.2-.3,1.4-1.2,2.5-2,2.5s-1.1-1.1-.8-2.5l.2-.6V22c.2-.6.6-1.1,1-1.1ZM29,13.7A3.454,3.454,0,0,1,28,12l-4,2.4c-.1.8.2,1.7,1.2,1.6ZM27.7,41a15,15,0,0,1-6.4,5.2A22.244,22.244,0,0,0,20,53.7c0,5.9,2.2,11,5.3,13.3A15.211,15.211,0,0,0,34,62.3c-3.8-2.1-4-12.4-1.4-16.3a48.529,48.529,0,0,1-2.8-4.1,15,15,0,0,0-2.1-.9Zm-7.5,6a19.615,19.615,0,0,1-10.2.2C3.6,57.3,13.6,67.9,24,66.9c-3.5-3.2-4.8-8.7-4.8-13.1a22.864,22.864,0,0,1,1-6.8ZM36,58.9,34.7,61c-1.5-.6-2.7-3.8-2.7-7.7A13.454,13.454,0,0,1,33.3,47ZM16,13l2-.4V7.4c-.1-.6-1.6-.5-2,.1Z" fill="#011c44"/>
    <path id="Path_535" data-name="Path 535" d="M19.1,8v4.4a13.394,13.394,0,0,1,4.9,1l4.2-2.9a3.355,3.355,0,1,1,6.7.2A3.343,3.343,0,0,1,30,13.8l-2.8,2c3.9,4.4,2.8,12,2.5,17.4,5.9,0,18.3,1.4,18.3,8.2,0,7.1-7.7,19.3-9.8,19.5-.5,0-.9-.3-1.3-.9a16,16,0,0,1-11.4,7.8h-.3C15.8,69.1,6.9,62.5,6.9,53.4a12.746,12.746,0,0,1,2-7C3.7,44.3,0,40,0,34.8c0-5.7,6.4-19,15.4-22v-5c-2.7-1.9-1.2-5.7,2-5.7,3.7,0,4.9,4.4,1.7,6ZM9,18.2c.6,0,.9,1,.6,2.1-.2,1.1-.9,2-1.5,2-.8,0-.8-1.7-.3-2.8a37.777,37.777,0,0,0-5.2,8.7c-1.2,3.2-2.1,6.3-1,9.6,1.7,4.4,6,7.1,10.6,7.9v-1l-2.3-.3c-.4,0-.3-.7,0-.6a35.39,35.39,0,0,1,6,1.2c.3.2,0,.7-.3.6a11.465,11.465,0,0,0-2.8-.8v1c6,.8,13.1-2,15.3-8a9.191,9.191,0,0,0,.6-3.3c0-5.8,1.8-14.2-2.3-18.7L26,16a1.882,1.882,0,0,1-2.3-2.1,11,11,0,0,0-6.6-.8,15.594,15.594,0,0,0-8.2,5.2H9Zm3.3,2.7c.2,0,.3.1.4.3,1-.7,1.7.6,1.3,2.2-.3,1.4-1.2,2.5-2,2.5s-1.1-1.1-.8-2.5l.2-.6V22c.2-.6.6-1.1,1-1.1ZM29,13.7A3.454,3.454,0,0,1,28,12l-4,2.4c-.1.8.2,1.7,1.2,1.6ZM27.7,41a15,15,0,0,1-6.4,5.2A22.244,22.244,0,0,0,20,53.7c0,5.9,2.2,11,5.3,13.3A15.211,15.211,0,0,0,34,62.3c-3.8-2.1-4-12.4-1.4-16.3a48.529,48.529,0,0,1-2.8-4.1,15,15,0,0,0-2.1-.9Zm-7.5,6a19.615,19.615,0,0,1-10.2.2C3.6,57.3,13.6,67.9,24,66.9c-3.5-3.2-4.8-8.7-4.8-13.1a22.864,22.864,0,0,1,1-6.8ZM36,58.9,34.7,61c-1.5-.6-2.7-3.8-2.7-7.7A13.454,13.454,0,0,1,33.3,47ZM16,13l2-.4V7.4c-.1-.6-1.6-.5-2,.1Z" fill="#011c44"/>
    <path id="Path_536" data-name="Path 536" d="M38.4,60q-5.85,3,12.9,0C70,56.8,85,54.1,122.7,60c37.8,5.6,119.6-16.6,154.5-12.5m13.8.6c23.8,2.3,35.7-4,73.4,2.3M379,53c8.4.6,12.9,3.3,27.8,2.9" fill="none" stroke="#0a303a" stroke-linecap="round" stroke-linejoin="round" stroke-width="2" fill-rule="evenodd"/>
  </g>
</svg>
