<svg xmlns="http://www.w3.org/2000/svg" width="49.796" height="42" viewBox="0 0 49.796 42">
  <g id="group" transform="translate(0 -38.321)">
    <g id="Group_551" data-name="Group 551" transform="translate(0 38.321)">
      <path id="Path_860" data-name="Path 860" d="M335.328,48.666a5.136,5.136,0,0,0,3.174,3.926,3.518,3.518,0,0,0,2.329,0,5.249,5.249,0,0,0,3.184-3.926c.244-.02.559-.356.905-1.577.468-1.668-.031-1.912-.448-1.872a4.534,4.534,0,0,0,.183-.682c.712-4.3-1.4-4.455-1.4-4.455a3.354,3.354,0,0,0-1.282-1.19,4.3,4.3,0,0,0-2.624-.549,3.907,3.907,0,0,0-1.048.2h0a4.546,4.546,0,0,0-1.149.59,6.341,6.341,0,0,0-1.18.976,4.594,4.594,0,0,0-1.271,4.425h0a4.229,4.229,0,0,0,.183.682c-.427-.041-.926.2-.448,1.872C334.769,48.3,335.084,48.646,335.328,48.666Z" transform="translate(-300.24 -38.321)" fill="#db2400"/>
      <path id="Path_861" data-name="Path 861" d="M47.928,48.666A5.135,5.135,0,0,0,51.1,52.593a3.518,3.518,0,0,0,2.329,0,5.249,5.249,0,0,0,3.184-3.926c.244-.02.559-.356.905-1.577.468-1.668-.031-1.912-.448-1.872a4.533,4.533,0,0,0,.183-.682c.712-4.3-1.4-4.455-1.4-4.455a3.354,3.354,0,0,0-1.282-1.19,4.3,4.3,0,0,0-2.624-.549,3.907,3.907,0,0,0-1.048.2h0a4.546,4.546,0,0,0-1.149.59,6.341,6.341,0,0,0-1.18.976A4.594,4.594,0,0,0,47.3,44.537h0a4.231,4.231,0,0,0,.183.682c-.427-.041-.926.2-.448,1.872C47.369,48.3,47.694,48.646,47.928,48.666Z" transform="translate(-42.074 -38.321)" fill="#db2400"/>
      <path id="Path_862" data-name="Path 862" d="M187.1,70.293a5.657,5.657,0,0,0,3.479,4.313,3.733,3.733,0,0,0,2.553-.01,5.736,5.736,0,0,0,3.489-4.3c.264-.02.62-.4,1-1.729.519-1.821-.031-2.1-.5-2.055a5.167,5.167,0,0,0,.2-.753c.783-4.72-1.536-4.893-1.536-4.893a3.573,3.573,0,0,0-1.4-1.3,4.744,4.744,0,0,0-2.879-.61,4.693,4.693,0,0,0-1.149.214h0a4.936,4.936,0,0,0-1.261.651,7.2,7.2,0,0,0-1.3,1.068,5.168,5.168,0,0,0-1.4,2.462,5.316,5.316,0,0,0,.01,2.4h0a4.37,4.37,0,0,0,.2.753c-.468-.041-1.017.224-.5,2.055C186.489,69.9,186.835,70.273,187.1,70.293Z" transform="translate(-166.984 -56.836)" fill="#db2400"/>
      <path id="Path_863" data-name="Path 863" d="M314.843,176.762a16.082,16.082,0,0,1-4.679-2.136l-1.638,5.177-.305.977v-.01l-.264.824-.865-2.451c2.126-2.96-.427-2.929-.57-2.929s-2.7-.031-.57,2.929l-.865,2.451-.264-.824v.01l-.305-.977-1.638-5.177a16.082,16.082,0,0,1-4.679,2.136,2.306,2.306,0,0,0-.946.478,16.1,16.1,0,0,0,4.16,1.8c2.217.559,3.408,2.675,3.194,5.656,0,.051-.01.183-.031.376.62.051,1.271.081,1.953.081a19.678,19.678,0,0,0,10.05-2.441c.112-.651.224-2.146.224-2.146C316.857,179.468,316.766,177.25,314.843,176.762Z" transform="translate(-267.02 -160.761)" fill="#db2400"/>
      <path id="Path_864" data-name="Path 864" d="M185.641,310.872l-1.383-.234a5.6,5.6,0,0,0-.62-1.505l.824-1.149a.525.525,0,0,0-.051-.682l-.488-.488-.488-.488a.526.526,0,0,0-.682-.061l-1.149.814a5.373,5.373,0,0,0-1.536-.631l-.224-1.373a.536.536,0,0,0-.529-.448h-1.4a.535.535,0,0,0-.529.448l-.244,1.4a5.725,5.725,0,0,0-1.5.62l-1.129-.824a.525.525,0,0,0-.682.051l-.488.488-.488.488a.526.526,0,0,0-.061.682l.814,1.16a6.03,6.03,0,0,0-.62,1.5l-1.383.2a.536.536,0,0,0-.448.529v1.4a.535.535,0,0,0,.448.529l1.4.244a5.726,5.726,0,0,0,.62,1.5l-.814,1.139a.525.525,0,0,0,.051.682l.488.488.488.488a.526.526,0,0,0,.682.061l1.16-.814a5.644,5.644,0,0,0,1.465.61l.224,1.394a.536.536,0,0,0,.529.448h1.4a.535.535,0,0,0,.529-.448l.234-1.383a5.6,5.6,0,0,0,1.505-.62l1.149.824a.525.525,0,0,0,.682-.051l.488-.488.488-.488a.526.526,0,0,0,.061-.682l-.814-1.149a6.059,6.059,0,0,0,.631-1.5l1.394-.224a.536.536,0,0,0,.448-.529v-1.4A.574.574,0,0,0,185.641,310.872Zm-6.215,4.71a3.606,3.606,0,1,1,2.706-4.323A3.6,3.6,0,0,1,179.426,315.581Z" transform="translate(-153.746 -277.538)" fill="#db2400"/>
      <path id="Path_865" data-name="Path 865" d="M15.386,179.041a16.429,16.429,0,0,0,4.16-1.8,2.249,2.249,0,0,0-.946-.478,16.082,16.082,0,0,1-4.679-2.136L12.283,179.8l-.305.977v-.01l-.264.824-.865-2.451c2.126-2.96-.427-2.929-.57-2.929s-2.7-.031-.57,2.929l-.865,2.451-.264-.824v.01l-.305-.977-1.638-5.177a16.082,16.082,0,0,1-4.679,2.136c-1.922.488-2.014,2.706-1.943,3.814,0,0,.112,1.5.224,2.146a19.678,19.678,0,0,0,10.05,2.441c.682,0,1.333-.031,1.953-.081-.02-.193-.031-.326-.031-.376C11.978,181.716,13.178,179.6,15.386,179.041Z" transform="translate(0 -160.761)" fill="#db2400"/>
      <path id="Path_866" data-name="Path 866" d="M153.88,210.966a17.752,17.752,0,0,1-5.137-2.34l-1.79,5.676-.336,1.068-.01-.01-.295.905-.946-2.685c2.329-3.245-.468-3.214-.631-3.214s-2.95-.041-.631,3.214l-.946,2.685-.295-.905-.01.01-.336-1.068-1.79-5.676a17.591,17.591,0,0,1-5.137,2.34c-2.106.539-2.217,2.97-2.126,4.181,0,0,.122,1.638.244,2.36a17.664,17.664,0,0,0,4.852,1.922l.376-.366a1.947,1.947,0,0,1,2.512-.2l.02.01.427.315a1.06,1.06,0,0,1,.1-.041l.1-.559a1.965,1.965,0,0,1,1.933-1.628l1.4.01a1.946,1.946,0,0,1,1.922,1.638l.081.529.153.061.448-.315a1.956,1.956,0,0,1,1.129-.356,1.906,1.906,0,0,1,1.383.58l.346.346a17.843,17.843,0,0,0,4.862-1.922c.122-.722.244-2.36.244-2.36C156.1,213.936,156,211.5,153.88,210.966Z" transform="translate(-119.87 -191.303)" fill="#db2400"/>
    </g>
  </g>
</svg>
