<?xml version="1.0" standalone="no"?>
<!DOCTYPE svg PUBLIC "-//W3C//DTD SVG 1.1//EN" "http://www.w3.org/Graphics/SVG/1.1/DTD/svg11.dtd" >
<svg xmlns="http://www.w3.org/2000/svg" xmlns:xlink="http://www.w3.org/1999/xlink" version="1.1">
<metadata>
Created by FontForge 20170731 at Mon Aug 23 13:01:04 2021
 By Aleksey,,,
Copyright (c) 2019 by Andrew Bellamy. All rights reserved. 
</metadata>
<defs>
<font id="-OCFormatCollage-D5" horiz-adv-x="1755" >
  <font-face 
    font-family="-OC Format Collage D5"
    font-weight="800"
    font-stretch="semi-expanded"
    units-per-em="2048"
    panose-1="0 0 8 0 0 0 0 0 0 0"
    ascent="1638"
    descent="-410"
    x-height="1010"
    cap-height="1419"
    bbox="-1743 -786 4123 2101"
    underline-thickness="256"
    underline-position="-788"
    unicode-range="U+0020-1F53A"
  />
<missing-glyph horiz-adv-x="1673" 
d="M750 967q119 0 200.5 -81.5t81.5 -201.5q0 -119 -82 -201t-200 -82q-117 0 -200 82.5t-83 200.5q0 117 82.5 200t200.5 83zM1599 494q-90 -93 -210 -93q-117 0 -200 82.5t-83 200.5q0 117 82.5 200t200.5 83t210 -95l-75 -63q-52 61 -135 61q-76 0 -130.5 -55.5
t-54.5 -130.5q0 -76 54 -130t131 -54q86 0 135 61zM750 500q76 0 131 54t55 130t-55.5 131t-130.5 55q-78 0 -131.5 -55t-53.5 -131t54 -130t131 -54zM74 733h309v-98h-309v98z" />
    <glyph glyph-name="f_f.liga" unicode="ff" horiz-adv-x="1400" 
d="M1311 1233q-59 2 -89.5 -2t-54.5 -22t-29.5 -54t-0.5 -98l2 -35l186 20l18 -239l-184 -43l60 -750l-349 -39l-47 768l-325 -51l61 -731l-354 -18l-45 725l-107 -9l-20 287l108 8l-6 160q-10 68 23.5 133.5t105 114t179 65t245.5 -13.5l-59 -252q-55 10 -87 7.5t-49.5 -20
t-19 -51.5t3.5 -87l2 -35l324 33l-6 108q-11 119 62 217t193.5 137t239.5 0z" />
    <glyph glyph-name="f_t.liga" unicode="ft" horiz-adv-x="1536" 
d="M1427 0q-89 -56 -309 -43q-65 8 -130.5 62t-107 140t-32.5 173l35 452l-373 19l-43 -737l-356 4l61 753l-109 11l19 258l108 -9l9 158q9 74 62.5 137t136 98t185 38t208.5 -44l-19 -249q-129 27 -179.5 2t-60.5 -125l-4 -35l390 -39l24 356l344 62l-35 -412l205 -20
l-18 -265h-207l-27 -352q-8 -46 17.5 -87.5t71.5 -54t106 18.5z" />
    <glyph glyph-name="t_f.liga" unicode="tf" horiz-adv-x="1486" 
d="M1413 1235q-133 10 -178 -19.5t-35 -138.5l2 -35l209 19l19 -219l-209 -39q49 -342 73 -772l-352 -41l-61 774l-373 -59l20 -291q2 -69 16.5 -107t43 -47.5t61 -2.5t80.5 30l68 -285q-61 -24 -95 -35.5t-100.5 -24.5t-140.5 -16q-113 -12 -185.5 87.5t-87.5 287.5
l-32 389l-111 -8l-16 285l108 -4l-6 372l320 84l34 -436l377 41l-6 180q-10 64 16 124.5t89.5 108t166.5 62.5t248 -12z" />
    <glyph glyph-name="A_A.liga" unicode="AA" horiz-adv-x="2693" 
d="M2306 1507q51 -171 114.5 -402.5t160.5 -597t126 -474.5l-399 -15l-100 310h-346l-84 -310h-457l-176 -26l-129 299l-410 -45l-102 -303l-447 -33q47 171 122.5 465.5t144.5 540t155 503.5l514 13l410 -1096q274 950 336 1157zM1888 557l314 -6l-138 551zM633 487l303 37
l-166 473z" />
    <glyph glyph-name="B_B.liga" unicode="BB" horiz-adv-x="2521" 
d="M1868 1470q155 -7 264 -41t169.5 -93t85 -135t17.5 -175q-2 -49 -15 -87t-30 -62t-45.5 -44t-51.5 -30t-58 -23q17 -3 40.5 -10t57 -22.5t63 -36t57 -53.5t40.5 -72q22 -48 27.5 -93.5t-1.5 -132.5q-7 -101 -63 -174.5t-146 -112.5t-198.5 -53.5t-231.5 -5.5l-579 41
l133 1450zM346 1427q378 19 540 -62.5t177 -305.5q2 -45 -17.5 -86.5t-41 -63.5t-58 -52.5t-45.5 -39.5q48 -2 110.5 -22.5t112.5 -61.5q114 -81 127 -272q15 -200 -123 -331t-376 -150l-639 -48q-9 129 -27.5 372.5t-28.5 387t-17 339t-3 355.5zM1860 870q63 -8 121.5 36.5
t62.5 105.5q6 84 -33 120t-127 42l-155 18l-17 -303zM561 850q65 9 115 61.5t43 110.5q-9 85 -54.5 114t-132.5 19l-147 -25l37 -305zM1890 295q88 -9 134 27.5t51 111.5q6 75 -40.5 115t-142.5 51l-188 21l-21 -304zM647 236q114 10 174.5 79.5t52.5 147.5
q-14 145 -276 119l-180 -23l28 -348z" />
    <glyph glyph-name="C_C.liga" unicode="CC" horiz-adv-x="2488" 
d="M1257 791q10 125 52.5 225.5t140.5 204.5q109 111 265.5 188t295.5 64q103 -4 172 -15.5t129 -38.5t98 -74t66.5 -119t46.5 -177l-250 -99q-18 81 -83 127.5t-152 52.5q-51 6 -102.5 -2t-102 -35t-89.5 -69.5t-63.5 -112.5t-25.5 -157q-5 -59 9.5 -124.5t45.5 -124.5
t85.5 -100.5t121.5 -48.5q67 -6 139.5 23t132.5 90l250 -170q-30 -89 -90 -155.5t-137 -103t-161.5 -53t-174.5 -12.5q-98 10 -192 51.5t-175.5 114.5t-141 168t-90 220t-20.5 262zM74 530q-30 247 -19 356t78 230q69 131 248 235.5t389 118.5q146 8 239.5 -17t241.5 -116
l-227 -309q-196 119 -348 55q-65 -24 -112 -68.5t-68.5 -96.5t-31 -110.5t0.5 -111.5q17 -143 114 -234t212 -91q179 -31 354 155l190 -299q-114 -130 -213.5 -191.5t-228.5 -68.5q-132 -13 -266.5 18t-250.5 99t-198.5 184.5t-103.5 261.5z" />
    <glyph glyph-name="D_D.liga" unicode="DD" horiz-adv-x="2799" 
d="M1966 1456q229 -24 354 -79.5t238 -172.5q59 -50 99 -120t55.5 -140t22 -145t-0.5 -135q-12 -163 -67.5 -293t-149.5 -205q-105 -87 -265 -133t-315 -31l-536 33l133 1464zM287 1468q247 11 429 -14t298.5 -77.5t190 -141.5t106 -191t43.5 -241q10 -151 -19.5 -275
t-88.5 -210t-146 -149t-185.5 -97t-214.5 -49l-542 -56l-97 1467zM723 391q146 31 215.5 145t48.5 304q-23 158 -127 231.5t-252 54.5l-155 -14l96 -754zM1950 348q64 -10 130 7.5t124 59.5t98.5 118.5t48.5 175.5q17 179 -79 287t-257 116l-149 2l-74 -754z" />
    <glyph glyph-name="E_E.liga" unicode="EE" horiz-adv-x="2516" 
d="M2349 1513l21 -274l-641 -59l18 -297l528 28l21 -258l-531 -71l31 -279l641 59l60 -301l-1084 -77l-94 1450zM1219 1378l-21 -264l-608 66l-23 -256l416 -84l-18 -252l-484 63l-37 -278l721 -84l-24 -342l-1071 57l143 1471z" />
    <glyph glyph-name="F_F.liga" unicode="FF" horiz-adv-x="2236" 
d="M1180 1438q-7 -82 -33 -357l-574 56l-24 -224l491 -47l-18 -280l-520 32l-31 -575l-401 6l129 1450zM2230 1466l21 -315l-547 -59l22 -261l418 39l21 -247l-473 -74l43 -602l-400 -8q-10 127 -35 476.5t-42 568t-35 405.5z" />
    <glyph glyph-name="G_G.liga" unicode="GG" horiz-adv-x="2932" 
d="M66 702q-15 205 41 377.5t170.5 283t267.5 138.5q149 22 249.5 24.5t191 -21.5t160 -61.5t177.5 -111.5l-184 -239q-175 116 -363 86q-116 -14 -191 -77.5t-103.5 -159t-16.5 -218.5q7 -96 39.5 -167.5t83 -111.5t110 -59t127.5 -18q78 -4 152.5 17.5t129 71.5t60.5 119
l-12 72l-354 -20l-21 225l631 68l53 -199q13 -149 -15.5 -269t-90.5 -202t-154.5 -137t-202.5 -80t-239 -25q-149 -5 -275.5 46t-214 145.5t-141 223t-65.5 279.5zM1542 750q25 403 268.5 584.5t655.5 113.5q165 -28 288 -121.5t146 -210.5l-346 -104q-54 74 -100 99.5
t-130 12.5q-150 -11 -254.5 -116t-119.5 -279q-16 -186 56.5 -300.5t188.5 -143.5q225 -54 359 121l31 108l-308 51l11 266l622 -61l-24 -348q-25 -92 -59 -161.5t-90.5 -130t-133 -98t-187.5 -57.5t-253 -16q-140 11 -261.5 78.5t-204 173t-125 246.5t-30.5 293z" />
    <glyph glyph-name="H_H.liga" unicode="HH" horiz-adv-x="2809" 
d="M446 1448l72 -530l359 51l-15 530l375 6q10 -166 28 -376.5t28.5 -317t41.5 -402.5t35 -339l-371 -29l-108 643l-393 -63l75 -623l-421 -27l-115 1456zM1919 1468l-27 -557l443 -55l71 541l375 -17q-17 -204 -63 -689t-66 -754l-401 20l45 600l-426 51l-58 -606l-393 33
l115 1435z" />
    <glyph glyph-name="I_I.liga" unicode="II" horiz-adv-x="1107" 
d="M412 1466q38 -506 114 -1431l-356 -23q-47 402 -74 720t-41 730zM1083 1374q-58 -688 -114 -1405l-367 27q8 103 50 597.5t61 817.5z" />
    <glyph glyph-name="J_J.liga" unicode="JJ" horiz-adv-x="2150" 
d="M350 469q7 -57 23.5 -94t39.5 -52.5t52.5 -21t60.5 1.5q29 1 64.5 27.5t52.5 58.5q7 10 10 35t1 70t-4.5 80t-8.5 102l-80 770l365 22l73 -946q13 -174 -11 -282t-107 -177q-79 -64 -162 -89t-234 -33q-71 -7 -131 4t-116.5 47.5t-98.5 97.5t-72.5 159.5t-43.5 229.5z
M1352 610q-12 -120 24.5 -196t106.5 -76q86 5 127 70q10 7 17.5 26t13.5 61.5t9 72.5t9 100l72 800l354 -51l-70 -739q-5 -146 -18 -250.5t-32.5 -165t-38.5 -92t-44 -51.5q-82 -92 -170 -121t-221 -21q-64 5 -114 14.5t-101 31t-88 55t-67 87t-46 124.5q-16 62 -18.5 152
t10.5 188z" />
    <glyph glyph-name="K_K.liga" unicode="KK" horiz-adv-x="2727" 
d="M1075 -61l-467 553l-49 -74l33 -416l-408 -10l-100 1438q171 10 381 -11l39 -487l407 561l414 -127l-514 -545l588 -706zM2298 -143l-436 745l-54 -186l-34 -428l-373 37l106 1448l367 -23l-76 -496l508 459l473 -76l-555 -598l399 -700z" />
    <glyph glyph-name="L_L.liga" unicode="LL" horiz-adv-x="2172" 
d="M563 1450l-76 -1163l451 -76l-4 -262l-887 57l98 1464q72 -3 198 -10t220 -10zM1456 1438l107 -1035l510 41l34 -405l-925 -66l-152 1475z" />
    <glyph glyph-name="M_M.liga" unicode="MM" horiz-adv-x="3354" 
d="M1542 1542q26 -279 65.5 -802.5t51.5 -661.5l-326 -21l-131 852l-246 -645h-204l-293 479l63 -757l-391 -21l-84 1450l320 15l460 -709l279 795q283 13 436 26zM3326 1382l-96 -1454l-320 23l19 768l-355 -658l-194 7l-207 694l-115 -766l-360 47l125 1438h413l330 -819
l361 729q106 -5 399 -9z" />
    <glyph glyph-name="N_N.liga" unicode="NN" horiz-adv-x="2863" 
d="M1599 1526l250 -13l588 -923l96 864l320 -20l-115 -1454l-371 -9l-452 858l-111 -774l-334 21zM45 1384l248 13l708 -762l-96 784l398 54l96 -1446q-26 -1 -101.5 -5t-103.5 -5t-106 -2.5t-109 1.5l-543 697l72 -772l-352 -7z" />
    <glyph glyph-name="O_O.liga" unicode="OO" horiz-adv-x="3272" 
d="M70 815q-10 97 31 206t110.5 197.5t153.5 157.5t161 99q82 17 159 21t124.5 1.5t108 -17.5t77 -20.5t64.5 -23.5q243 -47 369 -199t151 -420q12 -159 -42.5 -325.5t-119.5 -245.5q-87 -104 -242 -172.5t-301 -79.5q-299 -21 -505 115q-44 30 -80 65t-63 66.5t-49 74.5
t-36.5 74.5t-26 82t-18 80.5t-12.5 87t-8 85.5t-6 90.5zM1686 834q23 171 122.5 313t235.5 219t272 76q204 0 400 -43q90 -21 165 -57.5t127 -83t92.5 -102.5t62.5 -116t36 -124.5t13.5 -127.5t-5.5 -124q-6 -109 -35 -208.5t-70.5 -169t-82 -116.5t-78.5 -72
q-106 -95 -217.5 -141.5t-214.5 -34.5q-14 1 -99.5 4.5t-156.5 10.5t-109 20q-91 27 -157.5 71.5t-96.5 80.5q-80 86 -129.5 174.5t-68.5 174.5t-20.5 181t14.5 195zM817 373q74 3 148.5 27t109.5 63q68 68 97 148t26 186q-5 77 -39 156t-94 139q-51 52 -128.5 80t-141.5 26
q-123 -10 -223.5 -128.5t-96.5 -283.5q5 -201 90.5 -307t251.5 -106zM2277 248q44 -19 91.5 -23.5t88.5 4t73.5 21.5t58.5 29q72 48 115 139t73 266q12 47 2.5 133.5t-35.5 128.5q-39 67 -98 110.5t-121 57.5q-76 18 -166.5 -22t-166 -131t-101.5 -205q-42 -187 7 -319
t179 -189z" />
    <glyph glyph-name="P_P.liga" unicode="PP" horiz-adv-x="2504" 
d="M731 1473q136 -9 242.5 -53t169.5 -117q41 -48 72 -134t24 -172q-11 -139 -62.5 -244t-144.5 -155q-52 -30 -146.5 -51.5t-168.5 -18.5l-264 15l-41 -482l-373 9q25 497 48.5 820t64.5 628zM1866 1442q132 13 245.5 -15t182.5 -86q55 -45 99 -128t50 -171
q12 -129 -22 -237.5t-97 -159.5q-70 -59 -147 -94t-190 -53l-234 -45l49 -484l-407 -24q-35 305 -67 822t-40 619zM664 862q87 -7 159 56q51 36 60 133q6 75 -49.5 120t-174.5 52l-172 22l-12 -360zM1896 819q99 9 166 76q20 22 25.5 47.5t5.5 75.5q-3 70 -55 110.5
t-133 28.5l-224 -33l27 -333z" />
    <glyph glyph-name="Q_Q.liga" unicode="QQ" horiz-adv-x="3358" 
d="M829 -66q-65 -6 -143.5 11.5t-148.5 48t-119.5 57.5t-85.5 51q-114 97 -191.5 270t-91.5 306q-12 152 40.5 297t150.5 253.5t236 179.5t290 83q126 10 292.5 -27.5t235.5 -77.5q134 -101 218 -267t98 -347q11 -93 -15 -217t-100 -231q88 -100 254 -162l-39 -307
q-5 1 -100 -1.5t-105 1.5q-57 16 -92.5 31t-72 42.5t-60.5 52t-78 82.5q-134 -112 -373 -129zM2374 -98q-177 10 -335.5 91t-201.5 154q-65 114 -93.5 301t-14.5 314q12 157 74 289t165 226.5t252 142.5t326 36q141 -11 282 -53.5t185 -93.5q123 -124 185.5 -311.5
t49.5 -413.5q-5 -73 -13 -113.5t-36.5 -88.5t-60.5 -84.5t-111 -119.5q-14 -14 -21 -22q93 -148 287 -209l-69 -256q-103 7 -267 51q-27 18 -61.5 56.5t-58.5 70.5t-74 100q-152 -88 -389 -67zM819 317q72 0 131.5 20.5t99 55t69 80t41.5 97t18 105.5t-2 105
q-8 109 -31.5 192t-68 147.5t-117.5 95.5t-171 24q-70 -7 -134 -51t-101 -92q-70 -84 -47 -400q11 -102 58 -192.5t115.5 -142.5t139.5 -44zM2441 182q67 -10 125.5 12.5t99.5 66t72 104.5t48.5 124.5t23.5 128.5q5 70 3 137.5t-23 129t-54.5 109t-90.5 78t-132 36.5
q-163 13 -291 -135q-42 -47 -61 -129.5t-25 -253.5q-12 -96 19.5 -182t106 -147.5t179.5 -78.5z" />
    <glyph glyph-name="R_R.liga" unicode="RR" horiz-adv-x="2598" 
d="M2228 618l379 -600l-412 -53l-274 561l-123 -8l-45 -469l-387 23l6 82l-336 -172l-418 573l-137 -10l47 -588l-372 -20l-97 1449l449 46q325 18 489.5 -75t182.5 -294q8 -110 -10 -182t-59 -122.5t-126 -117.5l389 -436l84 1304l445 -30q125 -1 219.5 -15t154.5 -39
t95.5 -50.5t62.5 -59.5q126 -144 113 -297q-6 -78 -22 -134t-51.5 -106t-95.5 -88.5t-151 -71.5zM602 817q116 6 173 61.5t52 149.5q-6 101 -59 134.5t-164 23.5l-151 -27l18 -364zM2183 967q5 37 0 88q-3 41 -69.5 69.5t-141.5 40.5l-143 27l-45 -330l172 -31
q105 -12 159 27t68 109z" />
    <glyph glyph-name="S_S.liga" unicode="SS" horiz-adv-x="2314" 
d="M1845 -20q-119 -5 -214 11t-174 57t-130 115.5t-70 180.5l287 92q2 -2 20.5 -28.5t26 -35t26.5 -25t40 -25.5q53 -23 137 -19q53 7 104.5 51.5t45.5 96.5q-3 31 -21.5 62t-32.5 40q-29 18 -78 29.5t-127.5 30.5t-158.5 51q-161 50 -229.5 135.5t-77.5 232.5q-6 74 21 142
t93 149q51 70 183 111.5t307 35.5q81 2 140.5 -9t127 -52.5t129.5 -118.5q-21 -29 -98.5 -94t-100.5 -88q-118 124 -260 102q-84 -14 -120.5 -47t-30.5 -94q7 -79 54.5 -119t133.5 -63q41 -13 102.5 -29.5t101.5 -30t83 -34.5q126 -59 176.5 -127t54.5 -191
q24 -460 -471 -495zM563 -39q-65 5 -135 23.5t-142 54.5t-131 84.5t-102.5 118.5t-56.5 151l319 88q14 -91 117 -155q35 -24 63 -32t74 -11q67 -8 124 24t63 86q6 72 -25 103q-29 31 -103.5 76t-156.5 73q-199 68 -282.5 175t-71.5 255q6 70 25 115.5t55 87.5
q77 109 222 156t324 24q156 -22 275.5 -111t155.5 -237q-36 -17 -82 -31.5t-109.5 -32t-91.5 -26.5q-13 22 -31.5 43.5t-31.5 33t-31 26.5t-19 16q-60 46 -131 55q-39 4 -79.5 -5t-73 -38.5t-35.5 -75.5q-13 -114 252 -211q84 -31 140.5 -61t137.5 -82q65 -47 107 -152.5
t34 -201.5q-8 -112 -61 -197t-133.5 -132t-176 -66.5t-196.5 -10.5z" />
    <glyph glyph-name="T_T.liga" unicode="TT" horiz-adv-x="2453" 
d="M29 1069q-27 201 -29 358q698 62 1090 86l-7 -358q-230 -27 -352 -25q11 -154 38.5 -501.5t41.5 -577.5l-340 -39l-125 1090zM1294 1151q-12 174 -14 336q173 -6 565 -46t561 -50l-20 -340q-139 16 -322 16q-15 -170 -51.5 -513t-54.5 -574l-375 22l78 1106z" />
    <glyph glyph-name="U_U.liga" unicode="UU" horiz-adv-x="2748" 
d="M1602 186q-23 19 -45 48t-47 77t-43 122t-23 163q-19 167 -31.5 403.5t-11.5 432.5q55 3 170.5 10t193.5 10l54 -643q2 -106 17 -180t41.5 -116.5t64 -64.5t84.5 -25.5t104 1.5q57 7 93.5 20t66 42t40 80.5t3.5 129.5q-6 74 -20 264t-25 309.5t-23 209.5l336 20l82 -672
q16 -248 13 -323q-6 -116 -44 -197q-30 -61 -69 -109t-100.5 -93t-153.5 -72t-209 -33q-174 -12 -282 27t-236 159zM141 170q-114 173 -98 391q4 45 23.5 395.5t48.5 513.5q65 -5 196 -10t224 -14l-84 -635q-6 -82 -6.5 -149t6 -117.5t16.5 -88.5t27.5 -64.5t36.5 -44.5
t46.5 -29t54 -16.5t62.5 -8.5q92 -15 149.5 37t65.5 200q5 104 14 229t15.5 204t20 236t18.5 212l379 -25l-72 -917q-18 -246 -108 -354q-170 -201 -547 -181q-159 12 -291.5 75.5t-196.5 160.5z" />
    <glyph glyph-name="V_V.liga" unicode="VV" horiz-adv-x="2666" 
d="M1845 1503q9 -151 53.5 -491.5t63.5 -511.5l365 940q63 0 205 -11t153 -12q-73 -218 -244 -692t-252 -715l-479 25l-250 1495zM506 1407q25 -65 98 -249.5t122.5 -317t88.5 -250.5l168 893q13 -1 88 -2.5t128.5 -6t100.5 -14.5q-62 -556 -249 -1476l-410 -17l-567 1415z
" />
    <glyph glyph-name="W_W.liga" unicode="WW" horiz-adv-x="4182" 
d="M424 1436l278 -885l146 872l303 43q15 -44 72.5 -220.5t105.5 -310.5t94 -233l166 838l439 -37l-322 -1437q-78 -2 -153.5 -16t-147.5 -21l-322 805l-204 -857l-371 15q-93 208 -181.5 443.5t-189 521t-160.5 444.5zM2503 1374l243 -921l228 972l331 11q65 -137 159 -390
t167 -495l143 940l349 35l-310 -1514q-53 -2 -200.5 -3t-206.5 -3l-293 696l-184 -739l-328 8q-94 211 -177.5 425t-197 529.5t-155.5 426.5z" />
    <glyph glyph-name="X_X.liga" unicode="XX" horiz-adv-x="2584" 
d="M80 1513l422 48l258 -498l344 448l282 -125l-419 -536l358 -721q-38 -6 -92.5 -24t-99 -35.5t-124 -50t-126.5 -50.5l-232 441l-340 -412l-348 84l508 641zM1366 1427l424 15l246 -422l245 422h400l-412 -694l418 -734q-106 -24 -406 -47l-264 398l-282 -402l-371 19
l420 667z" />
    <glyph glyph-name="Y_Y.liga" unicode="YY" horiz-adv-x="2402" 
d="M2329 1483l-316 -869l47 -643l-418 4l-49 607q-385 582 -471 718l-377 -669l-49 -619l-420 -4l50 596q-173 361 -369 836l393 112l250 -594l301 537l291 -70l-39 -71l363 57l258 -493l147 542z" />
    <glyph glyph-name="Z_Z.liga" unicode="ZZ" horiz-adv-x="2455" 
d="M1354 1165l-8 314q638 11 1108 -11l-3 -317l-606 -784h600l-10 -340q-271 -3 -626.5 -4t-487.5 -3l-8 394l676 751h-635zM139 1036l-43 353q46 5 193 20.5t215 22.5t185.5 17.5t215 16.5t193.5 9l12 -396l-535 -684l609 54l88 -437q-478 -22 -1163 -73l14 503l610 645z
" />
    <glyph glyph-name="a_a.liga" unicode="aa" horiz-adv-x="2422" 
d="M1200 61l-358 -20l-19 82q-64 -67 -117.5 -101.5t-125.5 -41.5q-92 -7 -195.5 14t-144.5 49q-78 69 -123 191t-56 268q-18 228 97 382t336 171q163 16 260 -64l-2 64l370 20q8 -105 20.5 -317.5t25.5 -379t32 -317.5zM2312 -39l-319 4l-17 113q-52 -64 -132 -100
t-158 -29q-97 8 -190 53.5t-163 120.5q-32 42 -47.5 184.5t-5.5 356.5q7 57 27 109t59 101.5t92.5 84.5t133 53.5t175.5 11.5q176 -17 258 -109l29 91l338 -33zM803 567q-6 77 -25 131t-43 68q-35 27 -90.5 38.5t-107.5 6.5q-51 -4 -87 -31t-51.5 -67t-22 -90.5t0.5 -102.5
q11 -110 65 -178t142 -74q62 -6 115.5 37.5t81.5 115t22 146.5zM2023 391q6 116 -3.5 194.5t-26.5 102.5q-51 58 -219 74q-54 6 -92.5 -28t-57.5 -87t-25 -121q-10 -106 26 -187.5t104 -107.5q59 -22 127 0t114 68t53 92z" />
    <glyph glyph-name="b_b.liga" unicode="bb" horiz-adv-x="2379" 
d="M1702 1458l-31 -481q67 67 174 76q45 7 120.5 -1.5t133.5 -43.5q135 -64 187.5 -157t52.5 -265q4 -114 -25.5 -227.5t-78 -197.5t-110.5 -136.5t-122 -51.5q-170 -32 -282.5 5t-157.5 108l-7 -102l-305 28l82 1473zM358 1454l39 -453q30 25 51 38.5t64.5 27.5t103.5 20
q129 14 228 -22q141 -21 232 -113.5t108 -255.5q19 -320 -81.5 -500.5t-307.5 -199.5q-117 -7 -188 17.5t-142 92.5v-122h-336l-113 1450zM418 500q18 -106 80.5 -167.5t136.5 -53.5q230 3 223 299q-7 106 -52.5 184t-123.5 74q-84 -2 -139.5 -31.5t-100.5 -108.5
q-18 -31 -25 -93.5t1 -102.5zM1569 483q-10 -94 46.5 -167t174.5 -83q93 -7 151.5 68t69.5 203q6 51 -10.5 108t-59.5 101.5t-102 50.5q-105 6 -151 -19t-78 -88q-28 -47 -41 -174z" />
    <glyph glyph-name="c_c.liga" unicode="cc" horiz-adv-x="1966" 
d="M977 590q12 232 201 377q78 63 209 90t237 18q104 -8 189 -65.5t131 -159.5q-53 -36 -203 -121q-63 70 -108 92.5t-113 20.5q-106 -5 -174.5 -71.5t-77.5 -188.5q-7 -61 14 -130t71.5 -122.5t116.5 -59.5q63 -7 131.5 18t106.5 87l188 -96q-30 -66 -54 -107.5t-57.5 -82
t-73 -63t-95 -37t-127.5 -16.5q-97 5 -204 47t-161 107q-168 197 -147 463zM33 446q-10 136 17 230.5t85 179.5q51 77 150.5 134t242.5 65q186 11 392 -127q-9 -12 -61.5 -85t-88.5 -114q-73 45 -128.5 63t-131.5 11q-77 -11 -129 -102t-43 -232q10 -102 79.5 -157
t174.5 -46q52 4 87.5 21t59 41.5t64.5 79.5l180 -207q-18 -37 -38.5 -67.5t-53.5 -63.5t-71.5 -56.5t-94 -39.5t-121.5 -19q-116 -8 -196.5 5.5t-153.5 64.5q-118 85 -165 187t-56 234z" />
    <glyph glyph-name="d_d.liga" unicode="dd" horiz-adv-x="2433" 
d="M1221 20l-324 -20l-23 96q-68 -68 -137.5 -103t-181.5 -42q-113 -10 -221 23.5t-176 123.5q-47 56 -72.5 132.5t-34.5 201.5q-18 239 69.5 406.5t260.5 199.5q268 45 410 -49l-35 463l331 27zM2318 -25l-311 -2l4 103q-161 -118 -334 -105q-149 9 -237.5 67.5
t-149.5 190.5q-45 99 -55.5 176.5t-1.5 219.5q18 226 157 344.5t390 101.5q77 -6 151 -44t121 -93l53 522l312 -18zM1997 412q22 50 23 134t-13 120q-19 59 -75.5 105t-137.5 54q-83 11 -158.5 -49t-89.5 -176q-10 -81 9 -154t69 -124.5t123 -61.5q87 -12 152 25.5t98 126.5
zM827 455q-2 56 -16 135t-35 112q-75 115 -231 93q-57 -9 -97.5 -62t-55 -121.5t-5.5 -130.5q18 -129 85.5 -201.5t172.5 -58.5q89 14 137 75t45 159z" />
    <glyph glyph-name="e_e.liga" unicode="ee" horiz-adv-x="2226" 
d="M51 438q-9 614 432 647q56 3 105 6t118 -14t142 -57q109 -56 159 -156.5t64 -259.5l4 -69l-698 -95q24 -90 90 -140t143 -42q70 6 113.5 28t85.5 74q49 -14 135 -35.5t131 -33.5q-43 -152 -179 -230.5t-345 -87.5q-80 -9 -166 19t-160 86t-122.5 153t-51.5 207zM1167 637
q14 94 53.5 171.5t105.5 136.5t168 87t230 17q123 -10 209.5 -51t147.5 -115q115 -130 92 -320l-6 -123l-694 6q-9 -84 53 -148.5t143 -74.5q120 -12 211 70q54 -6 130.5 -20t127.5 -19q-21 -83 -60.5 -144t-90.5 -95.5t-114.5 -54t-131.5 -18.5t-142 11q-495 87 -432 684z
M772 684q-15 81 -63 124.5t-154 43.5q-67 -5 -120.5 -61.5t-63.5 -141.5zM1866 631q-3 75 -52 126.5t-112 59.5q-107 7 -159.5 -33.5t-63.5 -132.5z" />
    <glyph glyph-name="g_g.liga" unicode="gg" horiz-adv-x="2492" 
d="M377 -113q61 -48 146 -66.5t155 -2.5q216 48 199 233l-3 43q-90 -79 -262 -98q-107 -7 -183.5 5t-139.5 56q-95 67 -155.5 176.5t-70.5 241.5q-12 154 31 284t128 210t196 94q89 6 158 6.5t127 -19t100 -61.5l2 98l317 19l76 -727q7 -197 -9 -340t-51.5 -236.5
t-97 -149.5t-137 -80t-180.5 -28q-228 -1 -344.5 38t-179.5 126zM1591 -178q20 -10 63.5 -32.5t61.5 -31t44 -17.5t44 -9q36 0 69.5 7t71 24.5t64.5 56.5t37 96l14 98q-55 -51 -134 -81.5t-138 -24.5q-104 6 -217 46t-152 93q-66 89 -96.5 216.5t-19.5 252.5
q19 233 172.5 379t353.5 129q192 -12 311 -119l12 78l328 -18l-86 -889q-13 -185 -78.5 -327t-180.5 -220t-261 -66q-90 5 -158 20.5t-118 42.5t-82.5 53.5t-71.5 68.5zM444 430q24 -110 79.5 -148.5t156.5 -27.5q100 12 152 83t40 175q-16 158 -63 213q-69 77 -207 63
q-100 -13 -143 -108q-29 -59 -30.5 -120.5t15.5 -129.5zM1628 485q-19 -129 36 -210.5t146 -94.5q36 -6 76.5 3t81 32.5t70.5 70t39 109.5q16 127 10 176q-3 31 -12 56q-41 112 -185 131q-58 7 -114 -11.5t-86 -66.5q-46 -78 -62 -195z" />
    <glyph glyph-name="h_h.liga" unicode="hh" horiz-adv-x="2142" 
d="M365 1468l26 -550q143 159 236 167q387 25 424 -409l49 -619l-334 -32q-10 94 -17.5 190t-15.5 212.5t-12 172.5q-10 127 -37.5 174.5t-87.5 42.5q-84 -7 -127.5 -69t-30.5 -132l39 -608l-350 -20q-76 681 -115 1452zM1540 1446l-27 -541q51 72 119 101t133 24
q43 -3 61.5 -4.5t56.5 -7t60 -14.5t52 -24t53 -38.5t43 -54.5q26 -37 35 -142t-2 -251l-58 -547l-303 18q-4 49 -1.5 136.5t5.5 131t10 139.5t11 163q19 151 -53 161q-98 7 -155 -41t-71 -120l-77 -539l-328 20q36 496 113 1450z" />
    <glyph glyph-name="i_i.liga" unicode="ii" horiz-adv-x="1007" 
d="M758 1126q-74 19 -116 71.5t-38 129.5q4 98 60.5 138.5t134.5 35.5q108 -4 155 -61.5t41 -169.5q-7 -58 -77 -112t-160 -32zM229 1096q-80 -6 -143.5 46t-69.5 134q-5 68 49.5 136.5t118.5 72.5q74 6 147 -40t77 -112q2 -52 -4 -90.5t-24 -72.5t-56 -53t-95 -21z
M397 1010l90 -1014l-317 -21l-96 1002zM948 987l-84 -973l-284 15l45 964z" />
    <glyph glyph-name="j_j.liga" unicode="jj" horiz-adv-x="1116" 
d="M430 1124q-75 6 -124 78.5t-44 143.5q6 66 68 122t125 50q68 -5 125 -68.5t53 -130.5q-7 -72 -64 -135.5t-139 -59.5zM895 1124q-79 0 -130.5 51.5t-51.5 118.5q0 49 16.5 93.5t59.5 78t104 33.5q36 0 67 -8.5t60.5 -28t47 -58.5t17.5 -93q0 -69 -53.5 -128t-136.5 -59z
M489 -94q-6 -90 -35.5 -170t-56.5 -101q-70 -59 -203 -71.5t-270 26.5l86 293q57 -18 92.5 -18t54 33t25.5 114l70 1026l326 -28zM1073 -84q1 -114 -20 -196t-54 -115q-128 -128 -467 -88l41 252q18 6 43.5 14t37 12t28 11.5t23.5 16t15.5 22t11.5 32.5t5 45t2 62l-12 993
l328 14z" />
    <glyph glyph-name="k_k.liga" unicode="kk" horiz-adv-x="2099" 
d="M2083 1034l-324 -346l324 -631l-354 -92l-279 592l-45 -65l10 -467l-332 16l4 68l-301 -121l-297 456l-55 -86l27 -401l-350 -10l-105 1458l344 12l64 -702l268 387l311 -33l-278 -381l377 -516l84 1344h337l-71 -715l241 250z" />
    <glyph glyph-name="l_l.liga" unicode="ll" horiz-adv-x="948" 
d="M913 1466l5 -1478l-338 26v1444zM479 1411l-108 -1450l-334 12l100 1457z" />
    <glyph glyph-name="m_m.liga" unicode="mm" horiz-adv-x="3256" 
d="M2062 1090l4 -117q82 92 158 102q54 15 156 2q63 -12 119 -62.5t71 -109.5q57 73 140 105q88 32 194 30q48 -1 104 -22.5t91 -42.5q62 -43 97.5 -136.5t25.5 -240.5l-46 -639l-342 31l48 547q9 108 -18.5 168t-82.5 57q-148 -12 -172 -162l-43 -588l-264 19l33 522
q4 102 -28.5 165t-74.5 68q-153 14 -182 -157l-43 -572l-344 23l86 1026zM326 973l28 -109q33 62 93.5 101.5t136.5 50.5q107 12 190 -33.5t109 -108.5q49 71 130 123t189 56q42 1 79.5 -5.5t57.5 -13.5t58 -22q82 -32 117.5 -107t46.5 -231l51 -635l-332 -14l-49 561
q-9 110 -36 153.5t-83 38.5q-71 -9 -102.5 -72t-20.5 -161q4 -56 20.5 -247.5t22.5 -301.5l-311 -21l-45 580q-9 111 -41.5 161t-89.5 40q-81 -19 -118.5 -88t-27.5 -219l43 -500l-333 -19l-80 1012z" />
    <glyph glyph-name="n_n.liga" unicode="nn" horiz-adv-x="2220" 
d="M319 1026l17 -98q50 58 143.5 96t200.5 47q93 10 160.5 -12t108.5 -73.5t62.5 -118t30.5 -156.5l50 -648q-256 -19 -363 -24l-45 625q-10 83 -42 122.5t-83 34.5q-194 -15 -172 -188l31 -621l-307 -18l-80 1014zM1487 1001l22 -81q34 51 130.5 78.5t199.5 27.5
q84 0 151.5 -35t106.5 -90.5t59.5 -116.5t20.5 -120v-682q-151 -6 -322 0l-12 559q-1 60 -17.5 114t-53 89.5t-84.5 27.5q-45 -6 -79 -34.5t-52.5 -70t-27 -84t-9.5 -85.5l-7 -527l-327 4l4 1026h297z" />
    <glyph glyph-name="o_o.liga" unicode="oo" horiz-adv-x="2420" 
d="M43 500q-15 206 115 383q68 95 148.5 139t205.5 53q110 9 243 -17.5t208 -70.5q182 -111 204 -407q9 -113 -23 -221t-90 -187t-135.5 -131t-156.5 -61q-166 -5 -257 5.5t-177 51.5q-260 121 -285 463zM1260 561q6 56 15.5 96.5t31 89.5t62.5 93.5t101 85.5
q158 107 373 84q105 -11 205.5 -55t136.5 -85q78 -75 141 -210.5t52 -225.5q-28 -249 -165.5 -374t-342.5 -130q-56 -7 -104 -7.5t-89 6t-75 16t-68 26t-61.5 33.5t-61.5 41q-92 70 -131.5 206t-19.5 310zM356 557q2 -133 64.5 -215.5t173.5 -79.5q137 4 203 88
q31 43 43.5 96t15.5 164q-6 93 -84 167t-186 73q-111 -3 -171.5 -82t-58.5 -211zM1554 555q-17 -72 4 -142.5t76 -125.5q25 -47 65 -73.5t79 -30t68 -0.5t44 10q49 20 89 86t51 139q10 63 -0.5 118t-35.5 92.5t-55.5 62.5t-64.5 36q-115 42 -204 -3t-116 -169z" />
    <glyph glyph-name="p_p.liga" unicode="pp" horiz-adv-x="2439" 
d="M129 1085l369 -20l-6 -84q44 32 64 44t65 27t107 18t161 -1q161 -19 250.5 -185.5t70.5 -404.5q-9 -113 -48.5 -210.5t-96 -162.5t-127 -100t-141.5 -29q-86 -1 -146 5.5t-103.5 26t-66.5 35.5t-61 50l-27 -477l-379 27zM1241 967l332 20l29 -98q38 37 57.5 53.5
t54.5 36.5t78 28.5t106 12.5q106 7 185.5 -17t133.5 -73.5t89.5 -132t53.5 -183t26 -237.5q18 -102 -21 -180.5t-110 -102.5q-70 -73 -187.5 -110.5t-222.5 -29.5t-149 56l35 -454l-363 -45zM444 545q-5 -56 -1 -116.5t16 -84.5q66 -118 162 -129q115 -9 167.5 66t63.5 225
q8 99 -2.5 175t-40.5 103q-24 19 -66 35t-75 17q-95 10 -154.5 -56t-69.5 -235zM1624 535q5 -113 12.5 -167.5t30.5 -97.5q22 -31 70.5 -45.5t101.5 -9.5q85 9 138.5 90.5t43.5 198.5q-13 205 -133 250q-6 2 -19 7t-18 7t-18.5 5.5t-20.5 3t-24 -0.5q-87 -9 -130.5 -68.5
t-33.5 -172.5z" />
    <glyph glyph-name="q_q.liga" unicode="qq" horiz-adv-x="2457" 
d="M2132 -387l-57 516q-40 -78 -117 -110.5t-240 -38.5q-80 -9 -160.5 27.5t-144.5 105t-108.5 169.5t-53.5 214q-13 138 33.5 265.5t129 206.5t175.5 95q84 11 148 11t100.5 -3.5t71 -20.5t47 -27.5t39.5 -36.5q9 -9 14 -13l-6 104l340 -4q44 -640 115 -1446zM762 -487
l37 495q-125 -83 -291 -71q-241 17 -357 177t-96 402q8 98 30.5 176.5t66.5 144.5t108 108.5t157 63t212 13.5q74 -8 128 -36t99 -85l21 78l354 -18q-59 -641 -115 -1457zM2056 545q0 65 -13 132t-34 83q-68 47 -124 64.5t-120 -1.5q-164 -49 -141 -301q13 -99 48 -158.5
t114 -89.5q34 -16 62.5 -19.5t54 8t41 22.5t41.5 34q14 9 24 18.5t17.5 17t12 21.5t7.5 22.5t4.5 28.5t2 31.5t1.5 40.5t2 46zM846 457q13 152 -12 211q-16 41 -90.5 86t-143.5 37q-98 -9 -156.5 -81.5t-68.5 -203.5q-20 -263 176 -336q59 -20 113.5 -11.5t96.5 37.5t54 66
q25 119 31 195z" />
    <glyph glyph-name="r_r.liga" unicode="rr" horiz-adv-x="1523" 
d="M731 756q-120 42 -209 24q-63 -11 -92.5 -62t-36.5 -165l-41 -526l-334 20l88 1002l312 -7l4 -84q29 50 77.5 76.5t102.5 22.5q147 -13 199 -86zM1466 717q-89 16 -129 17.5t-90 -11.5q-126 -33 -104 -305l49 -432l-301 -35l-82 1024l281 22l20 -98q44 110 186 127
q49 8 85 6.5t102 -16.5q-8 -59 -11 -162t-6 -137z" />
    <glyph glyph-name="s_s.liga" unicode="ss" horiz-adv-x="1880" 
d="M502 -16q-81 -4 -146 2t-130.5 27t-117 67.5t-85.5 116.5l270 108q45 -59 81.5 -75.5t114.5 -14.5q38 3 73 38.5t32 80.5q-2 25 -13.5 41t-37 24t-45.5 11t-60.5 5.5t-60.5 4.5q-173 36 -258.5 106.5t-93.5 178.5q-12 145 99.5 246t319.5 116q53 3 136.5 -5.5
t130.5 -25.5q51 -20 96.5 -72.5t60.5 -97.5l-231 -96q-50 104 -162 94q-53 -6 -85.5 -49.5t-29.5 -85.5q3 -37 36.5 -50.5t131.5 -21.5q150 -20 236.5 -59.5t123.5 -96.5t44 -147q12 -157 -96.5 -255t-333.5 -115zM1311 -33q-307 21 -365 295l217 64q58 -74 105 -104
t110 -38q41 -5 90 21t52 71q3 31 -19 52.5t-49.5 31t-76 23.5t-75.5 25q-166 58 -232.5 142.5t-57.5 217.5q11 120 103.5 190.5t254.5 69.5q44 4 80 4.5t69.5 -4t53.5 -8t51.5 -15t42.5 -16t47 -20.5q98 -45 143 -185l-221 -61q-33 53 -76 75t-98 29q-148 19 -153 -102
q-1 -8 0.5 -15t6.5 -13t10 -11t15.5 -10.5t19 -9.5t24.5 -10t28 -10t34 -11.5t38 -13.5q175 -55 229 -84q92 -47 118 -128q24 -74 7 -208q-47 -268 -526 -234z" />
    <glyph glyph-name="t_t.liga" unicode="tt" horiz-adv-x="1574" 
d="M1499 362l35 -272q-10 -11 -36.5 -23.5t-87 -21t-132.5 -0.5q-56 4 -101.5 21.5t-76.5 40.5t-55.5 60t-39 68.5t-25.5 78t-15.5 75t-10.5 72.5l-39 356l-223 -18l-184 -29l37 -364q27 -173 221 -74l61 -277q-2 -15 -16.5 -26.5t-41 -19.5t-54 -13.5t-67.5 -9t-67.5 -5.5
t-66.5 -4q-126 -12 -197.5 96t-87.5 304l-32 354l-125 -10l-19 278l125 9l-26 362l311 80l31 -389l180 16l223 2l-27 363l297 37l31 -375l238 14l18 -262l-242 -29l37 -362q6 -41 21.5 -68.5t44 -44t75 -14.5t109.5 24z" />
    <glyph glyph-name="u_u.liga" unicode="uu" horiz-adv-x="2166" 
d="M20 995l308 33l47 -596q7 -99 63.5 -155.5t136.5 -47.5q52 10 78.5 62t18.5 100l-47 672l331 16l50 -522q17 -285 -88.5 -417t-348.5 -150q-131 -11 -223 7t-153 71q-40 32 -79 130t-46 195zM1171 1030l351 -12l-45 -539q-15 -196 147 -215q80 -8 122.5 26.5t51.5 86.5
l45 629l275 -29l-62 -703q-20 -149 -136 -246.5t-259 -80.5q-143 7 -227 23t-122.5 38t-68.5 60q-48 57 -88 159t-33 193z" />
    <glyph glyph-name="v_v.liga" unicode="vv" horiz-adv-x="2152" 
d="M1376 1018l219 -656q162 529 195 689l291 16l-264 -1055l-351 -6l-419 983zM356 979l250 -563q89 293 158 631l246 -23l-260 -1032l-338 -29l-422 1012z" />
    <glyph glyph-name="w_w.liga" unicode="ww" horiz-adv-x="3246" 
d="M2044 1090l90 -510l217 489l232 -20l116 -543l228 493l325 -24l-418 -971l-241 10l-174 609l-260 -572l-199 10q-122 496 -248 1053zM389 973l180 -451l109 486l274 2l262 -475l97 489l272 20l-221 -1048l-254 -25l-246 566l-186 -570l-203 -20q-224 429 -418 985z" />
    <glyph glyph-name="x_x.liga" unicode="xx" horiz-adv-x="2306" 
d="M2314 981l-368 -438l327 -572l-301 9l-239 358l-287 -311l-195 16l21 -23l-346 -45l-316 328l-225 -358l-311 -8l340 522l-410 487l379 43l246 -258l192 287l266 4l-290 -473l381 -422l387 440l-334 500l348 -8l197 -295l227 248z" />
    <glyph glyph-name="y_y.liga" unicode="yy" horiz-adv-x="2140" 
d="M1808 16q-57 -117 -139 -201.5t-164 -126t-167 -59.5t-150.5 -13.5t-112.5 22.5l41 258q121 -26 204.5 29t98.5 169l-217 983l348 -28l113 -603q20 43 39.5 91.5t33 85.5t32.5 94.5t28 86t29.5 96t27.5 89.5l324 -24q-81 -336 -172 -558.5t-197 -390.5zM803 -203
q-21 -59 -62 -106.5t-91 -76t-108 -50t-114 -28t-109 -11t-92 1.5l2 287q121 -3 164.5 39.5t46.5 130.5l-434 966l344 31l285 -680l82 719l325 14q-62 -678 -239 -1237z" />
    <glyph glyph-name="z_z.liga" unicode="zz" horiz-adv-x="2009" 
d="M1991 1018l-13 -277l-534 -419l487 -50v-282l-911 86l6 -45l-922 -70l11 285l483 475l-434 -19l-41 263q408 48 786 71l13 -264l-422 -493l485 61l31 -236l24 258l539 422l-420 33l-2 260q75 -5 257 -16.5t321.5 -21.5t255.5 -21z" />
    <glyph glyph-name="zero_zero.liga" unicode="&#x30;&#x30;" horiz-adv-x="2461" 
d="M59 662q-13 224 82 434q46 118 163 214.5t222 114.5q93 9 168.5 -2t131.5 -41t90.5 -57.5t74.5 -69.5q77 -83 121.5 -210t58.5 -261q13 -179 -16 -337.5t-88 -266.5q-48 -90 -154 -160t-221 -79q-77 -4 -154.5 21.5t-139.5 70t-104.5 84t-74.5 78.5q-71 98 -109 206.5
t-51 260.5zM1292 768q4 71 15.5 128t36.5 122t72.5 128t117.5 124q90 92 179.5 127t225.5 28q200 -7 357 -211q57 -66 87.5 -195.5t18.5 -258.5q-14 -207 -52.5 -344t-111.5 -230q-82 -110 -186 -162.5t-264 -46.5q-125 6 -228 69.5t-167 168.5q-61 101 -88 249t-13 304z
M649 317q111 12 178 121q23 43 29.5 143.5t-4.5 168.5q-11 75 -46 149.5t-67 114.5q-30 40 -81.5 56t-106.5 9q-89 -10 -150 -178q-32 -95 -12 -229q11 -93 27 -152t53 -108q34 -47 81 -74.5t99 -20.5zM1858 332q137 31 186 174l8 20q8 21 9 25t8.5 24.5t9.5 28.5t7.5 28.5
t7 32t4.5 31.5t3 35t-0.5 33.5t-3.5 36.5q-1 61 -30 123t-70 100q-48 51 -178 20q-53 -12 -97 -60t-65 -114q-53 -141 -37 -268q3 -21 7 -39.5t10 -35.5t10 -28.5t12.5 -26.5t11.5 -20.5t13 -21t12 -18.5q25 -41 67 -65.5t95 -14.5z" />
    <glyph glyph-name="one_one.liga" unicode="&#x31;&#x31;" horiz-adv-x="1699" 
d="M193 924l-134 221q299 193 357 332l276 18l121 -1456l-364 -8q-41 617 -78 993zM1008 979l-70 221q134 42 234 92t198 144l260 -84l-141 -1393l-346 16q40 583 84 1033z" />
    <glyph glyph-name="two_two.liga" unicode="&#x32;&#x32;" horiz-adv-x="2250" 
d="M549 748q69 75 105.5 126.5t47.5 78t29 85.5q18 72 -31.5 123.5t-117.5 48.5q-67 -1 -103.5 -22.5t-55.5 -72.5t-26 -148l-356 28q10 144 88 279q53 100 147 157.5t250 67.5q71 6 140.5 -2.5t138.5 -37t122 -74.5t86.5 -121.5t35.5 -171.5q4 -69 -1.5 -116t-30.5 -113
t-84.5 -141t-158.5 -167l-182 -178l514 39l18 -346l-979 -70l7 190q23 84 57.5 155.5t82 132t82.5 98t93.5 93.5t81.5 79zM1565 602q197 188 251 250t62 104q28 150 -117 207q-49 21 -108.5 11t-104.5 -46q-63 -55 -96 -145l-264 100q30 147 151 263q56 63 163.5 101.5
t264.5 16.5q94 -11 165.5 -34.5t129.5 -63.5t93 -103.5t45 -148.5q6 -43 6 -82.5t-6 -74.5t-18.5 -69.5t-29.5 -67t-40 -66t-50.5 -68.5t-60 -73.5t-68.5 -80.5q-17 -20 -26 -30l-166 -197l483 -8v-324l-985 15l-4 114q69 177 140 281.5t190 218.5z" />
    <glyph glyph-name="three_three.liga" unicode="&#x33;&#x33;" horiz-adv-x="2154" 
d="M549 0q-500 26 -500 512l283 18q7 -92 62.5 -152.5t137.5 -68.5q44 -5 78.5 4t77.5 37q48 32 51 99q3 42 1 76t-17.5 60.5t-46 44.5t-84 26.5t-131.5 7.5l18 237q109 -12 170.5 2t86.5 50.5t30 103.5q6 63 -34 107t-101 50q-90 6 -133 -26.5t-92 -147.5l-130 39l-141 27
q23 104 60 168t108 123q52 42 168 72t229 22q115 -9 188 -51.5t130 -120.5q34 -47 53.5 -125.5t13.5 -155.5q-8 -100 -32 -151q-45 -109 -117 -146q72 -67 100 -130.5t21 -174.5q-8 -108 -53.5 -215.5t-116.5 -157.5q-121 -86 -338 -63zM1700 -37q-78 -7 -146.5 5t-115.5 32
t-96 58.5t-77 67.5t-69 77l143 248q60 -71 127.5 -109t155.5 -31q45 5 89 21t54 33q20 26 27 56.5t4 90.5q-18 140 -342 117l-20 231q22 5 63.5 12.5t60.5 11.5t50.5 12.5t46.5 17t34.5 23t27.5 32t13.5 42.5t4.5 56q-4 14 -16 34t-33.5 44t-57.5 38.5t-78 10.5
q-80 -11 -133.5 -39t-113.5 -111l-160 156q18 53 52.5 91.5t90.5 82.5q45 38 109 57t166 27q118 9 229.5 -29.5t181.5 -105.5q26 -25 54 -91.5t34 -119.5q5 -98 -16 -178q-4 -22 -58.5 -78t-89.5 -80q14 -10 43.5 -28.5t45.5 -30.5t41 -33t39.5 -44t30.5 -55.5t24 -75.5
t10 -95q8 -34 -16.5 -130t-57.5 -132q-102 -94 -179.5 -138t-176.5 -51z" />
    <glyph glyph-name="four_four.liga" unicode="&#x34;&#x34;" horiz-adv-x="2320" 
d="M1782 311l-568 47l-6 273l647 848l322 -21l-45 -872l147 -13l21 -282l-209 2l-16 -297l-310 35zM702 268l-606 -30l-16 286l567 928l283 12l78 -848h166l34 -290l-180 -21l6 -301l-323 -18zM1804 598l11 408l-271 -379zM680 573l-12 402l-240 -416z" />
    <glyph glyph-name="five_five.liga" unicode="&#x35;&#x35;" horiz-adv-x="2187" 
d="M317 469q14 -79 69 -132t126 -46q136 12 166 172q9 37 4 127q-9 108 -66.5 168t-132.5 49q-121 -12 -182 -121l-285 98l54 269l80 413q287 19 802 58l21 -275q-215 -14 -539 -57l-39 -209q84 33 203 37q154 14 311 -96q58 -40 84.5 -123.5t36.5 -216.5q7 -105 -23 -198.5
t-79.5 -156.5t-111.5 -112.5t-114 -74.5t-92 -34q-238 -33 -396 70.5t-210 333.5zM1362 471q-1 -84 54 -149.5t128 -71.5q71 -4 117.5 13.5t66 41t39.5 64.5q11 25 17 54t7.5 50.5t4.5 69.5q10 87 -42.5 138.5t-182.5 61.5q-104 11 -203 -88l-221 68l186 721
q255 -13 515 -31.5t315 -21.5l-37 -279q-289 7 -570 25l-75 -213q51 56 237 53q204 -18 314 -137q66 -71 83.5 -184t-8.5 -279q-12 -79 -45.5 -147t-82 -117.5t-110 -87.5t-129.5 -56.5t-141.5 -24t-144.5 10.5q-77 15 -137.5 47t-112 86.5t-87 140.5t-52.5 201z" />
    <glyph glyph-name="six_six.liga" unicode="&#x36;&#x36;" horiz-adv-x="2301" 
d="M1188 719q6 53 13 86.5t27 90t61.5 119.5t105.5 134q283 271 708 328l74 -209q-41 -10 -75.5 -19t-84.5 -26.5t-90 -36t-86 -47.5t-80.5 -61.5t-64 -76.5t-45.5 -94q81 49 170.5 58t157 -13t110.5 -63q51 -42 81 -74t54 -77.5t32.5 -104.5t4.5 -141q-15 -203 -121 -336
q-65 -76 -156 -119t-237 -35q-143 7 -234 50.5t-161 113.5q-40 43 -77.5 112t-66 190t-20.5 251zM94 498q-23 267 101 458q69 126 107 177q168 230 480 308q20 5 41 9l115 -170q-58 -23 -116 -54.5t-124.5 -77.5t-120.5 -108.5t-81 -130.5q75 35 149.5 44t138.5 -5
t117.5 -41.5t97.5 -66.5q56 -50 102.5 -145t53.5 -187q17 -215 -126.5 -376.5t-373.5 -180.5q-196 -15 -352 102q-92 78 -146 195.5t-63 249.5zM1546 473q-1 -73 47 -127.5t125 -73.5q81 -22 143 21.5t87 136.5q24 88 -17 182q-13 34 -30.5 57.5t-39.5 36.5t-40 19t-45 12
q-51 9 -100.5 -8t-80.5 -59q-59 -75 -49 -197zM430 362q64 -152 234 -129q81 12 125 91t30 174q-6 47 -22 90t-35 65q-24 36 -78.5 49.5t-105.5 6.5q-40 -4 -68.5 -18t-46 -37t-27 -44.5t-18.5 -52.5q-25 -105 12 -195z" />
    <glyph glyph-name="seven_seven.liga" unicode="&#x37;&#x37;" horiz-adv-x="2435" 
d="M205 1120l-31 393l1079 -77l41 -342l-854 -1112l-362 116l784 983zM1348 1036l-41 355l1038 82l41 -326l-563 -1249l-363 135q124 205 329 576t269 481q-79 -6 -217 -15.5t-257 -18.5t-236 -20z" />
    <glyph glyph-name="eight_eight.liga" unicode="&#x38;&#x38;" horiz-adv-x="2142" 
d="M1102 434q7 98 63.5 181t157.5 171q-42 51 -58.5 72t-44 63.5t-39 80.5t-12.5 81q-3 87 26 163.5t62 109.5q70 85 148.5 119.5t222.5 27.5q105 -8 209 -50t156 -107q43 -55 71.5 -135t22.5 -148q-7 -108 -53.5 -179t-141.5 -130q99 -57 148.5 -153t40.5 -218
q-8 -84 -61.5 -192t-123.5 -164q-39 -26 -136.5 -48t-155.5 -12q-257 32 -367 127q-70 61 -107 149.5t-28 190.5zM72 391q-7 101 26.5 183t104.5 135q-62 49 -101 115t-45 122q-16 187 62 316q98 161 301 192q217 32 379 -84q88 -59 131 -133t49 -180q7 -82 -31.5 -161.5
t-107.5 -129.5q80 -38 145 -131.5t72 -192.5q8 -101 -26.5 -203t-98.5 -171q-114 -120 -328 -142q-122 -10 -236 42t-173 118q-45 37 -79.5 118.5t-43.5 186.5zM1610 864q16 -5 63 18.5t62 35.5q24 21 42 67.5t21 93.5q7 67 -42.5 120.5t-137.5 45.5q-54 0 -103 -61
t-38 -135q5 -59 42 -112t91 -73zM518 829q87 7 123 60q24 21 32 65.5t3 87.5q-7 89 -69.5 136.5t-131.5 31.5q-50 -11 -82 -55t-41.5 -93.5t-1.5 -92.5q15 -71 60.5 -109t107.5 -31zM1452 510q-33 -82 -8 -162q39 -114 168 -123q38 -5 82 10t73 44q27 30 36 56t12 79
q6 74 -46 149q-20 28 -60 47.5t-83 24.5q-47 6 -103 -34.5t-71 -90.5zM375 459q-23 -93 20 -160q33 -51 88 -81t103 -25q60 3 97.5 26t66.5 62q31 43 24 120q-4 50 -25.5 106t-56.5 77q-63 36 -139 30q-80 -6 -126 -49.5t-52 -105.5z" />
    <glyph glyph-name="nine_nine.liga" unicode="&#x39;&#x39;" horiz-adv-x="2414" 
d="M1159 1032q8 -110 -9 -251.5t-65 -225.5q-43 -75 -85 -136.5t-107.5 -137t-136 -132t-168.5 -107.5t-207 -79l-135 195q111 46 233.5 138t200.5 208q-85 -40 -190 -17t-192 69.5t-122 88.5q-90 119 -106 285q-16 198 51 313q13 23 34 49.5t62 63.5t88.5 66.5t117.5 51.5
t146 25q104 7 215.5 -25t184.5 -88q75 -54 128 -148.5t62 -205.5zM2384 899q-23 -325 -131 -467q-99 -122 -141 -165q-189 -195 -470 -278q-87 -25 -184 -42l-125 223q91 26 153.5 48t133.5 57t126.5 82.5t98.5 109.5q-65 -20 -170.5 9t-195 80t-127.5 97q-29 38 -46.5 133
t-11.5 175q5 52 8 74.5t13 65t25.5 70t44 64t69.5 72.5q44 36 75.5 56.5t81 42t114.5 31.5t151 11q96 -1 198 -47.5t164 -100.5q63 -58 109 -175t37 -226zM827 1001q-6 89 -69 152q-35 35 -91.5 48.5t-127.5 -7.5q-62 -20 -102.5 -83.5t-33.5 -131.5q1 -14 2.5 -26t3 -21.5
t5.5 -19.5t5.5 -15.5t7 -14.5t7 -12t8.5 -12t8.5 -10.5t10.5 -11.5t10 -11q10 -10 21.5 -19t33.5 -21t45.5 -18.5t57.5 -6.5t69 10q143 38 129 231zM2077 911q13 66 -41 170q-27 45 -97 77.5t-139 21.5q-68 -3 -127 -53.5t-74 -120.5q-18 -88 29 -177q17 -35 106 -76.5
t181 -23.5q62 0 104 50t58 132z" />
    <glyph glyph-name=".notdef" horiz-adv-x="1673" 
d="M750 967q119 0 200.5 -81.5t81.5 -201.5q0 -119 -82 -201t-200 -82q-117 0 -200 82.5t-83 200.5q0 117 82.5 200t200.5 83zM1599 494q-90 -93 -210 -93q-117 0 -200 82.5t-83 200.5q0 117 82.5 200t200.5 83t210 -95l-75 -63q-52 61 -135 61q-76 0 -130.5 -55.5
t-54.5 -130.5q0 -76 54 -130t131 -54q86 0 135 61zM750 500q76 0 131 54t55 130t-55.5 131t-130.5 55q-78 0 -131.5 -55t-53.5 -131t54 -130t131 -54zM74 733h309v-98h-309v98z" />
    <glyph glyph-name=".null" horiz-adv-x="0" 
 />
    <glyph glyph-name="nonmarkingreturn" horiz-adv-x="682" 
 />
    <glyph glyph-name="space" unicode=" " horiz-adv-x="565" 
 />
    <glyph glyph-name="exclam" unicode="!" horiz-adv-x="739" 
d="M487 1440q48 -638 60 -1034l-307 -27l-99 1040zM371 -20q-70 18 -94.5 76.5t-6.5 144.5q20 34 71.5 58.5t80.5 6.5q85 -19 118.5 -62t26.5 -122q-9 -56 -73 -88.5t-123 -13.5z" />
    <glyph glyph-name="quotedbl" unicode="&#x22;" horiz-adv-x="872" 
d="M758 1499l6 -477l-229 -4l-60 463zM365 1468l-13 -491l-190 -29l-101 512z" />
    <glyph glyph-name="numbersign" unicode="#" horiz-adv-x="1380" 
d="M1067 834l-6 -181l254 19l-41 -291l-203 -16l-41 -390l-297 11l31 366l-143 -18l-23 -381l-295 -19v381l-211 -18l10 260l211 49l27 180l-221 -18l8 289l213 37l29 327l299 19l-19 -348l131 12l19 346l305 37l-17 -354l224 8l-8 -289zM758 823l-133 2l-4 -194l131 10z
" />
    <glyph glyph-name="dollar" unicode="$" horiz-adv-x="1183" 
d="M1106 412q-15 -181 -138.5 -303.5t-299.5 -141.5l-27 -172l-221 39l14 178q-300 57 -420 348l260 127q31 -82 100.5 -125t186.5 -65q54 -11 107 30.5t59 100.5q6 32 1.5 58.5t-16.5 47t-46.5 41t-89 42t-144.5 49.5q-68 27 -124.5 66t-107 97.5t-76.5 142t-20 183.5
q8 70 69.5 142t160 124.5t203.5 65.5l28 182l219 -18l4 -152q59 -14 107 -34.5t101.5 -58t101 -100.5t84.5 -149l-299 -84q-45 80 -94 113t-127 39q-88 7 -135.5 -20.5t-53.5 -82.5q-3 -53 9.5 -89.5t46.5 -63t68 -42t99 -38.5q229 -83 325.5 -199t84.5 -278z" />
    <glyph glyph-name="percent" unicode="%" horiz-adv-x="1695" 
d="M1038 1460l267 29l-625 -1540l-260 2q318 827 618 1509zM471 750q-180 -12 -292 85t-122 277q-10 98 72 199t170 112q185 11 309 -68t135 -184q10 -177 -72.5 -293.5t-199.5 -127.5zM412 963q53 5 83.5 43.5t26.5 111.5q-5 27 -41.5 60t-66.5 30q-66 -4 -97 -34.5
t-28 -79.5q5 -57 39.5 -96t83.5 -35zM952 240q-5 89 19.5 168t65.5 129t85 80t82 36q203 11 313 -62.5t121 -195.5q12 -173 -76 -281t-262 -120q-73 -7 -152.5 29.5t-133.5 96.5t-62 120zM1184 295q5 -88 145 -78q33 3 58.5 45.5t21.5 104.5q-5 30 -42.5 56.5t-82.5 22.5
q-43 -4 -74 -54.5t-26 -96.5z" />
    <glyph glyph-name="ampersand" unicode="&#x26;" horiz-adv-x="1574" 
d="M639 -74q-103 -6 -190.5 15t-149 61.5t-106.5 98t-69 124t-30 140.5q-7 102 21.5 173.5t95.5 139.5q60 53 182 149q-71 84 -99 148t-32 160q-11 105 53.5 182t151.5 106q223 90 407.5 37.5t262.5 -237.5l-240 -131q-51 56 -68 68q-47 34 -129 30q-49 -3 -75 -29.5
t-23 -64.5q3 -34 22 -60t91 -100l342 -352q8 13 47 65t65 94l277 -174q-9 -19 -26.5 -44.5t-34 -46t-45 -56t-44.5 -55.5l267 -285l-318 -119l-182 178q-178 -115 -271 -161t-153 -54zM598 211q52 3 109 41t135 119l-242 266q-57 -47 -94 -84q-54 -56 -73.5 -95.5
t-16.5 -88.5q6 -75 55 -119.5t127 -38.5z" />
    <glyph glyph-name="quotesingle" unicode="'" horiz-adv-x="544" 
d="M410 1423q9 -209 -15 -551l-254 29l-57 529z" />
    <glyph glyph-name="parenleft" unicode="(" horiz-adv-x="815" 
d="M324 -471q-89 139 -143.5 406.5t-43.5 463.5q-18 372 86 660q36 129 96 264t117 219l309 -123l-27 -51q-112 -214 -152 -322q-66 -177 -83 -393q-37 -579 119 -1038z" />
    <glyph glyph-name="parenright" unicode=")" horiz-adv-x="815" 
d="M68 -270q85 143 170 364q13 34 23 83.5t18.5 126t12.5 116.5t11 140t8 112q21 142 -6 379.5t-94 441.5l340 86q80 -174 120 -413t17 -404q-12 -227 -37.5 -415t-56.5 -279q-165 -421 -221 -504z" />
    <glyph glyph-name="asterisk" unicode="*" horiz-adv-x="1304" 
d="M393 1247l-188 90l55 252l242 -69l-6 245l268 39l31 -245l213 83l90 -241l-191 -107l146 -204l-183 -164l-202 192l-195 -227l-188 149z" />
    <glyph glyph-name="plus" unicode="+" horiz-adv-x="1392" 
d="M131 537l-16 329l415 37l-34 408h313l35 -408l420 10l16 -286l-418 -58l35 -389l-313 -18l-56 391z" />
    <glyph glyph-name="comma" unicode="," horiz-adv-x="602" 
d="M547 78q-113 -200 -320 -498l-176 98l150 252l-74 37l106 250z" />
    <glyph glyph-name="hyphen" unicode="-" horiz-adv-x="641" 
d="M580 674l-7 -322l-512 -41l-20 293z" />
    <glyph glyph-name="period" unicode="." horiz-adv-x="612" 
d="M129 100q-3 35 14 80t57.5 83t92.5 42q91 4 152 -63.5t51 -132.5q-15 -83 -69.5 -133t-139.5 -54q-56 -6 -104 47.5t-54 130.5z" />
    <glyph glyph-name="slash" unicode="/" horiz-adv-x="1253" 
d="M725 1509l373 7l-600 -1532l-344 4q244 827 571 1521z" />
    <glyph glyph-name="zero" unicode="0" horiz-adv-x="1230" 
d="M59 717q-7 120 7.5 196.5t56.5 169.5q48 123 176 251t227 145q53 6 99 6.5t84 -6t69 -14t58.5 -23.5t47 -28t41.5 -33.5t34 -35t32 -36.5q41 -41 105 -209.5t75 -308.5q13 -145 -16.5 -296.5t-87.5 -261.5q-32 -65 -152.5 -147.5t-238.5 -89.5q-118 -10 -243 49t-185 131
q-72 99 -124 244t-65 297zM655 422q54 6 98.5 37.5t59.5 72.5q65 141 55 244q-10 73 -43.5 152.5t-62.5 111.5q-26 32 -82.5 59t-104.5 23q-51 -4 -90 -47.5t-63 -107.5q-35 -101 -19 -244q16 -144 72 -225q24 -33 76 -57.5t104 -18.5z" />
    <glyph glyph-name="one" unicode="1" horiz-adv-x="884" 
d="M172 934l-127 231q7 5 57 38t70 47.5t63.5 48t66 57.5t46 57t33.5 64h303l129 -1426l-364 -20q-47 431 -78 1018z" />
    <glyph glyph-name="two" unicode="2" horiz-adv-x="1155" 
d="M575 696q74 58 120 99.5t66.5 72t26.5 48t9 42.5q13 187 -154 209q-74 13 -117 -32t-73 -179l-349 70q17 71 59 152.5t68 111.5q67 86 209 130t330 34q41 -7 85 -26t96 -62t90 -102.5t59 -156.5t10 -214q-7 -37 -19 -67.5t-46 -80.5t-107.5 -116.5t-183.5 -147.5
l-201 -147l512 -23l-35 -377l-979 95l29 186q25 74 64.5 137t81.5 104.5t94 79.5t94 61.5t88.5 51t72.5 47.5z" />
    <glyph glyph-name="three" unicode="3" horiz-adv-x="1110" 
d="M608 0q-453 -30 -526 438l301 58q27 -94 77.5 -137.5t131.5 -34.5q45 3 89 19t54 34q37 42 31 104q-3 45 -14 76t-34 56t-60.5 35t-94.5 12.5t-135 -11.5l-20 246q164 6 229 51.5t59 143.5q-6 63 -54 105t-107 36q-91 -8 -132.5 -54.5t-58.5 -164.5l-244 8l-55 20
q7 93 36 171t56 116q60 65 161 112t216 56q119 7 231.5 -31.5t182.5 -105.5q28 -26 55 -98.5t33 -147.5q3 -37 -3.5 -106t-15.5 -105q-6 -35 -86 -92q55 -37 88.5 -72.5t56.5 -92t27 -132.5q8 -106 -23 -220.5t-93 -174.5q-36 -40 -140.5 -75t-218.5 -42z" />
    <glyph glyph-name="four" unicode="4" horiz-adv-x="1204" 
d="M698 268l-606 -49l-12 322l530 911l318 12l76 -862l167 14l33 -276l-180 -35l16 -291l-307 -43zM721 573l-43 334l-193 -348z" />
    <glyph glyph-name="five" unicode="5" horiz-adv-x="1146" 
d="M342 537q-1 -86 44.5 -146.5t117.5 -68.5q45 -7 106.5 34t85.5 80q14 25 23 109q9 110 -35 180t-121 82q-121 12 -194 -84l-289 53l78 281l176 440q125 -16 277 -25t250 -11t276 -3l-9 -291q-251 -9 -548 27l-72 -184q87 23 129 20q123 -8 211.5 -42.5t116.5 -69.5
q35 -38 72.5 -173t29.5 -245q-7 -105 -50.5 -194.5t-103.5 -145.5t-128 -94t-126.5 -51.5t-95.5 -6.5q-235 -6 -378.5 119t-178.5 362z" />
    <glyph glyph-name="six" unicode="6" horiz-adv-x="1191" 
d="M96 428q-28 316 49 442q99 164 116 189q119 177 271 275q125 80 293 126l115 -194q-114 -46 -242.5 -144t-181.5 -202q98 46 196 46t170.5 -31t133.5 -85q37 -30 85.5 -136.5t55.5 -195.5q10 -141 -51 -264.5t-180.5 -202.5t-270.5 -90q-93 -7 -186 19.5t-147 56.5
q-96 56 -157 164.5t-69 226.5zM426 385q45 -145 225 -127q82 7 131 74.5t41 154.5q-5 45 -19 88t-28 52q-99 65 -180 57q-47 -4 -100 -47t-70 -80q-31 -66 0 -172z" />
    <glyph glyph-name="seven" unicode="7" horiz-adv-x="1206" 
d="M80 1014l-66 399l1063 117l80 -342l-694 -1272l-324 113l619 1071z" />
    <glyph glyph-name="eight" unicode="8" horiz-adv-x="1081" 
d="M72 373q-15 205 131 342q-61 47 -100.5 113.5t-45.5 121.5q-7 68 -2 144t19 104q54 90 156.5 169.5t189.5 92.5q118 17 234 -6t182 -78q37 -24 87.5 -124t55.5 -191q7 -82 -19.5 -160.5t-82.5 -138.5q78 -54 125.5 -134.5t54.5 -178.5q8 -103 -27 -215.5t-98 -180.5
q-27 -35 -129 -75.5t-199 -47.5q-91 -6 -224.5 48.5t-184.5 113.5q-107 88 -123 281zM522 850q31 3 75.5 21t49.5 28q24 19 34 58t7 77q-5 63 -66.5 114t-125.5 42q-50 -8 -86.5 -45.5t-49 -83t-0.5 -82.5q46 -140 162 -129zM389 457q-22 -92 23 -150q22 -29 80 -55.5
t102 -22.5q45 3 90.5 23t67.5 49q11 18 18 59t4 74q-3 44 -23 84.5t-57 59.5q-81 32 -131 28q-78 -6 -123.5 -48.5t-50.5 -100.5z" />
    <glyph glyph-name="nine" unicode="9" horiz-adv-x="1191" 
d="M1161 942q-8 -114 -38 -236.5t-89 -197.5q-42 -51 -72 -86.5t-80 -87.5t-93.5 -89.5t-105.5 -82t-124.5 -76.5t-142 -61.5t-164.5 -47.5l-154 195q47 23 61 30t61.5 31t69.5 37.5t64 39.5t67 47t57.5 49t57 58t44.5 62q-87 -27 -180.5 -8.5t-171 63t-101.5 89.5
q-24 48 -43.5 153.5t-13.5 180.5q15 193 106 290q71 66 115 95q164 111 360 104q102 -7 218.5 -56.5t189.5 -109.5q43 -45 76.5 -160t25.5 -225zM844 952q3 41 -5.5 85t-23.5 67q-26 37 -90 59.5t-129 10.5q-63 -5 -116 -53t-60 -113q-4 -59 4.5 -90.5t32.5 -65.5
q18 -31 69.5 -64t104.5 -26q100 8 152 51.5t61 138.5z" />
    <glyph glyph-name="colon" unicode=":" horiz-adv-x="616" 
d="M289 764q-69 -5 -126 49.5t-61 136.5q-4 75 45 136.5t111 66.5q106 5 170 -39t61 -139q-2 -83 -55 -144t-145 -67zM147 160q-5 101 35.5 165t116.5 68q79 4 157 -43.5t83 -93.5q8 -206 -183 -256q-77 -19 -140.5 36t-68.5 124z" />
    <glyph glyph-name="semicolon" unicode=";" horiz-adv-x="598" 
d="M309 748q-68 -6 -124 48t-62 136q-4 75 45 136.5t111 66.5q106 5 170.5 -39.5t60.5 -139.5q-2 -83 -55.5 -143.5t-145.5 -64.5zM539 203q-42 -112 -136 -299t-120 -248l-183 82l117 223l-67 78l65 260z" />
    <glyph glyph-name="equal" unicode="=" horiz-adv-x="1648" 
d="M1516 1083l-35 -311l-1274 98l18 285zM1499 633l-4 -311l-1282 98l4 299z" />
    <glyph glyph-name="question" unicode="?" horiz-adv-x="1122" 
d="M383 451q14 157 59 240.5t172 168.5q46 33 74 59.5t42 54t18 47t8 56.5q1 68 -31 109.5t-82 46.5q-118 7 -172 -52.5t-63 -197.5h-322q0 109 26 217.5t60 147.5q71 85 197.5 129.5t263.5 35.5q217 -15 337 -153t107 -356q-10 -93 -53 -148.5t-193 -181.5q-58 -42 -83 -90
t-31 -135zM537 -2q-97 4 -142.5 62.5t-40.5 158.5q4 46 55.5 90t94.5 39q96 -4 142 -41t56 -104q10 -47 -3.5 -88t-40.5 -67t-59.5 -39.5t-61.5 -10.5z" />
    <glyph glyph-name="at" unicode="@" horiz-adv-x="1851" 
d="M860 -78q-86 -9 -185.5 22t-195.5 99t-176.5 160.5t-134.5 218t-64 260.5q-13 160 38 297t163 245t296.5 178.5t428.5 92.5q96 12 193 -9.5t185.5 -77.5t158.5 -140t114.5 -205.5t51.5 -265.5q15 -141 -85 -282q-83 -119 -198 -171q-133 -60 -226 8q-37 27 -63 74
q-110 -119 -194 -129q-95 -6 -181 22.5t-143 77.5t-92.5 104.5t-42.5 106.5q-13 255 100.5 391t321.5 150q100 13 196 -64l2 66l183 -31l22 -239l-22 -226q-8 -111 36 -125q34 -12 75 45q61 87 65 229l-2 64q-17 210 -188 322.5t-445 95.5q-61 -8 -129 -40.5t-133 -87.5
t-116 -123.5t-78.5 -157t-20.5 -179.5q22 -275 204.5 -429t462.5 -132q130 11 244.5 48.5t249.5 117.5l84 -203q-101 -62 -192.5 -98t-234 -58.5t-333.5 -21.5zM956 518q72 7 114 82t34 178q-6 83 -57 125.5t-162 38.5q-49 -10 -100 -82.5t-44 -175.5q8 -65 74.5 -118.5
t140.5 -47.5z" />
    <glyph glyph-name="A" unicode="A" horiz-adv-x="1447" 
d="M547 1419l446 25l469 -1415l-286 -23l-132 283l-409 -45l-103 -303l-475 -21q234 843 490 1499zM965 524l-166 473l-137 -510z" />
    <glyph glyph-name="B" unicode="B" horiz-adv-x="1316" 
d="M494 1489q152 13 285 -26.5t220 -129.5t97 -213q3 -34 -16.5 -78t-42 -75.5t-58 -76t-45.5 -59.5q78 -3 168 -24q51 -17 113 -100.5t69 -184.5q15 -199 -122.5 -328.5t-377.5 -148.5l-663 -47q-80 724 -51 1450zM645 932q65 8 117 58.5t45 109.5q-6 84 -50.5 114.5
t-131.5 22.5l-148 -20l27 -306zM680 297q114 10 174.5 79.5t52.5 147.5q-14 145 -276 119l-180 -22l30 -349z" />
    <glyph glyph-name="C" unicode="C" horiz-adv-x="1300" 
d="M57 713q13 140 41.5 238t96.5 167q134 141 295 224t303 69q126 -4 211 -25t151 -71t105.5 -134t62.5 -214l-268 -62q-19 84 -86 142.5t-150 64.5q-50 7 -102.5 -5t-102 -45t-89 -82.5t-64 -123.5t-25.5 -162q-7 -79 18 -154.5t83.5 -131t138.5 -66.5q156 -11 295 131
l280 -297q-119 -134 -248.5 -201.5t-238.5 -58.5q-155 12 -288.5 72.5t-231 160t-148 245.5t-39.5 319z" />
    <glyph glyph-name="D" unicode="D" horiz-adv-x="1413" 
d="M485 1468q187 10 329.5 -15t238 -78.5t159 -140.5t95 -191t43.5 -240q12 -159 -38.5 -299.5t-150 -242.5t-245.5 -166.5t-320 -78.5l-438 -32l-113 1450zM756 410q159 30 237.5 149.5t61.5 327.5q-17 171 -125.5 252t-267.5 65l-173 -6l74 -821z" />
    <glyph glyph-name="E" unicode="E" horiz-adv-x="1232" 
d="M1073 1454l21 -254l-551 -49l24 -270l416 12l21 -252l-525 -33l23 -321l651 59l57 -342l-1026 -78l-114 1432z" />
    <glyph glyph-name="F" unicode="F" horiz-adv-x="1159" 
d="M1151 1434q3 -195 -18 -359l-502 55l-25 -192l492 -47l-19 -252l-620 47l-2 -647l-387 20l114 1450z" />
    <glyph glyph-name="G" unicode="G" horiz-adv-x="1484" 
d="M66 649q-9 123 20.5 240.5t92.5 215.5t150.5 174.5t199.5 123t235 55.5q132 11 303 -54.5t256 -166.5l-229 -199q-54 54 -152 79t-166 7q-167 -42 -251.5 -159.5t-69.5 -296.5q7 -96 41.5 -171.5t86.5 -120t113.5 -67.5t128.5 -22q109 -6 209.5 66.5t132.5 168.5l-12 70
l-414 -55l19 278l651 51l53 -200q33 -369 -119 -537t-479 -168q-127 -4 -237 14.5t-211 67.5t-174 127t-120.5 200t-57.5 279z" />
    <glyph glyph-name="H" unicode="H" horiz-adv-x="1421" 
d="M522 1520l-12 -531l416 -51l71 532l373 -20q-25 -659 -94 -1450l-371 10l-6 674l-393 37l-27 -651l-442 20l147 1450z" />
    <glyph glyph-name="I" unicode="I" horiz-adv-x="557" 
d="M406 1419q85 -789 112 -1431l-356 -23q-11 224 -56.5 673.5t-56.5 776.5z" />
    <glyph glyph-name="J" unicode="J" horiz-adv-x="1067" 
d="M373 496q12 -114 48.5 -167.5t82.5 -37.5q82 19 114 88q27 39 5 260l-76 782l377 37l75 -946q11 -143 -32.5 -278t-85.5 -181q-101 -76 -159 -95.5t-171 -27.5q-114 -9 -197 10t-150 76t-111 160.5t-70 261.5z" />
    <glyph glyph-name="K" unicode="K" horiz-adv-x="1372" 
d="M946 -100l-405 628l-72 -49l-47 -403l-352 4l114 1452q302 -14 437 -51l-50 -490l441 475l411 -184l-571 -528l420 -729z" />
    <glyph glyph-name="L" unicode="L" horiz-adv-x="1069" 
d="M600 1436l-76 -1151l480 -60l-33 -293l-901 72l75 1452q212 -27 455 -20z" />
    <glyph glyph-name="M" unicode="M" horiz-adv-x="1695" 
d="M1513 1573q67 -720 170 -1462l-374 -23l-107 854l-188 -731h-205l-383 588l66 -799l-361 -4l-98 1450l334 16l397 -712l342 798q241 25 407 25z" />
    <glyph glyph-name="N" unicode="N" horiz-adv-x="1437" 
d="M172 1466l250 -10l508 -881l71 820l424 -43l-110 -1405q-63 0 -406 -10l-444 964l-72 -905l-352 20z" />
    <glyph glyph-name="O" unicode="O" horiz-adv-x="1642" 
d="M66 616q-8 108 23.5 219.5t85 199.5t118.5 163t124.5 121.5t104.5 64.5q72 2 130 2t91 -0.5t65.5 -3t43 -4t34.5 -5.5t29 -5q169 -17 313.5 -101t238 -225.5t108.5 -314.5q12 -159 -42 -325.5t-118 -245.5q-88 -104 -242.5 -172.5t-300.5 -79.5q-134 -9 -288 32t-219 82
q-71 60 -122 122t-82 115t-51 118t-28.5 117t-15.5 126zM854 295q76 10 149.5 38t104.5 68q101 116 86 306q-9 106 -49.5 197.5t-85.5 117.5q-62 37 -140.5 56t-136.5 12q-59 -8 -114.5 -43t-99 -91.5t-67 -140t-16.5 -178.5q15 -177 108.5 -267t260.5 -75z" />
    <glyph glyph-name="P" unicode="P" horiz-adv-x="1257" 
d="M618 1485q137 11 250.5 -16.5t186.5 -90.5q48 -36 91.5 -118.5t49.5 -169.5q10 -128 -36 -256.5t-111 -180.5q-30 -25 -134 -63t-176 -45l-262 -37l51 -481l-389 -33q-36 636 -98 1446zM684 858q32 3 71 21.5t52 31.5q21 22 29.5 67t5.5 93q-6 69 -58 105t-133 26
l-176 -22l37 -344z" />
    <glyph glyph-name="Q" unicode="Q" horiz-adv-x="1699" 
d="M713 -109q-126 11 -270.5 95.5t-196.5 152.5q-102 116 -157 303t-40 312q16 203 137.5 369.5t308.5 253.5t390 71q135 -10 294 -68.5t205 -113.5q118 -118 178 -295.5t46 -358.5q-35 -261 -187 -422q65 -115 211 -204l-67 -277q-6 1 -96 1t-103 5q-29 12 -51 22.5
t-42.5 26.5t-32.5 25t-32.5 34t-29 35.5t-35 47t-39.5 53.5q-150 -85 -391 -68zM741 274q87 -12 159 5t119.5 54t82.5 91.5t52.5 113.5t23.5 124q42 504 -310 534q-118 11 -260 -88q-77 -60 -100 -377q-10 -102 19 -203t86.5 -171t127.5 -83z" />
    <glyph glyph-name="R" unicode="R" horiz-adv-x="1376" 
d="M625 1483q247 21 392.5 -79t162.5 -312q8 -98 -8.5 -164.5t-51.5 -111t-104 -97.5l389 -498l-326 -162l-448 555l-135 -18l47 -586l-387 -22l-115 1452zM555 874q119 20 173 74t48 146q-9 105 -68 142.5t-161 6.5l-137 -37l30 -358z" />
    <glyph glyph-name="S" unicode="S" horiz-adv-x="1183" 
d="M520 -63q-65 4 -127.5 19t-127 46t-116.5 74.5t-93 110t-60 147.5l319 145q7 -47 39 -99t58 -69q55 -33 157 -41q61 -8 121 24t66 85q3 25 -2.5 51t-14.5 39q-40 38 -114 86.5t-154 77.5q-199 68 -282.5 175t-71.5 255q6 76 24 123t56 80q83 79 220 134t259 46
q70 -5 147 -31.5t149.5 -69t128 -108.5t73.5 -141q-63 -28 -347 -113q-11 86 -82 141q-25 21 -49.5 29.5t-62.5 11.5q-61 9 -97 -13t-40 -91q-15 -130 200 -209q163 -60 293 -143q65 -47 107 -153t34 -202q-7 -91 -43 -165t-93.5 -123.5t-133.5 -81.5t-161.5 -43.5
t-178.5 -3.5z" />
    <glyph glyph-name="T" unicode="T" horiz-adv-x="1167" 
d="M29 1061q-26 194 -29 383q183 26 569.5 50t530.5 38l-17 -332q-112 -13 -323 -10q21 -575 33 -1143l-361 -20l-55 1054z" />
    <glyph glyph-name="U" unicode="U" horiz-adv-x="1398" 
d="M250 90q-138 153 -154 373q-48 547 -45 917q203 -19 463 -4l55 -618q1 -93 9 -167.5t20.5 -124.5t30 -86.5t38 -55t44 -30t48 -10.5t50.5 3q75 9 118.5 33.5t64 86t7.5 164.5q-11 96 -29 277.5t-34.5 328.5t-36.5 277l367 31l71 -930q19 -258 -34 -344
q-66 -101 -223.5 -186t-309.5 -97q-158 -12 -299.5 31.5t-220.5 130.5z" />
    <glyph glyph-name="V" unicode="V" horiz-adv-x="1280" 
d="M526 1520q17 -89 54.5 -270t65.5 -327.5t44 -271.5l322 838q74 -27 288 -74q-61 -212 -216 -652.5t-224 -686.5l-446 -37l-340 1503z" />
    <glyph glyph-name="W" unicode="W" horiz-adv-x="2086" 
d="M424 1380l278 -884l146 872l303 43q16 -47 72.5 -222t105 -310t94.5 -234l166 840l439 -37l-322 -1438q-78 -2 -153.5 -16t-147.5 -21l-322 805l-204 -856l-371 15q-93 208 -181.5 443.5t-188.5 519t-161 443.5z" />
    <glyph glyph-name="X" unicode="X" horiz-adv-x="1329" 
d="M80 1518l422 45l258 -498l344 448l282 -124l-419 -535l358 -723q-38 -6 -92.5 -24t-99 -35.5t-124 -50t-126.5 -50.5l-232 441l-340 -410l-348 82l508 643z" />
    <glyph glyph-name="Y" unicode="Y" horiz-adv-x="1265" 
d="M-43 1288l393 160l334 -545l217 586l291 -23l-318 -870l50 -619l-418 -45l-49 596q-247 352 -500 760z" />
    <glyph glyph-name="Z" unicode="Z" horiz-adv-x="1253" 
d="M225 1102l-2 362q25 -1 123 -7t130 -8l120 -7.5t130.5 -9t120 -10t130.5 -12t120 -13t128 -15.5l-13 -395l-698 -571l608 -56l47 -448q-520 59 -1161 106l41 504l772 533z" />
    <glyph glyph-name="bracketleft" unicode="[" horiz-adv-x="761" 
d="M731 -424l-526 -47q-104 1038 -142 1982l515 21l36 -252l-243 -33l114 -1356l250 33z" />
    <glyph glyph-name="backslash" unicode="\" horiz-adv-x="1253" 
d="M866 -20q-417 822 -827 1419l354 20l848 -1394z" />
    <glyph glyph-name="bracketright" unicode="]" horiz-adv-x="761" 
d="M276 -92l132 1403h-228l19 250l520 -35l-131 -1932l-543 11v299z" />
    <glyph glyph-name="underscore" unicode="_" horiz-adv-x="1327" 
d="M1333 -344l-1319 -131l13 323l1286 93z" />
    <glyph glyph-name="a" unicode="a" horiz-adv-x="1230" 
d="M1200 20l-358 -20l-19 82q-62 -67 -116 -101.5t-127 -41.5q-92 -7 -195.5 14t-144.5 49q-78 67 -123 189.5t-56 269.5q-18 227 97 381.5t336 171.5q163 16 260 -66l-2 66l370 20q8 -105 20.5 -317.5t25.5 -379t32 -317.5zM803 526q-6 77 -25 130t-43 67q-34 29 -90 40.5
t-108 6.5q-51 -4 -87 -31t-51.5 -67t-22 -90.5t0.5 -102.5q11 -110 65 -178.5t142 -75.5q95 -7 161.5 88.5t57.5 212.5z" />
    <glyph glyph-name="b" unicode="b" horiz-adv-x="1230" 
d="M371 1468l39 -471q8 7 28.5 25t31 26t28 20.5t34.5 20.5t37 13q73 18 136 14q238 -33 357 -151.5t134 -364.5q14 -160 -28 -287t-145 -209t-257 -94q-85 -7 -150.5 14.5t-136.5 73.5l6 -80l-344 -20l-127 1436zM432 494q11 -89 91 -156.5t186 -58.5q92 9 131 93.5
t28 215.5q-10 105 -60.5 170t-143.5 57q-170 -20 -218 -123q-14 -29 -17 -94.5t3 -103.5z" />
    <glyph glyph-name="c" unicode="c" horiz-adv-x="1015" 
d="M33 512q19 315 200 440q56 37 185.5 63t236.5 19q102 -8 201.5 -62t147.5 -134q-9 -6 -43.5 -32t-47 -36t-37.5 -30.5t-41.5 -38t-31.5 -37.5q-44 65 -91.5 86t-154.5 18q-77 5 -131 -63.5t-64 -210.5q-9 -116 36.5 -184t148.5 -77q74 -6 116 14.5t111 86.5l172 -131
q-75 -119 -174 -190.5t-201 -71.5q-120 1 -246 39.5t-167 85.5q-72 72 -103.5 196.5t-21.5 249.5z" />
    <glyph glyph-name="d" unicode="d" horiz-adv-x="1218" 
d="M1219 68l-351 -21l-6 80q-65 -64 -125 -94t-155 -37q-109 -7 -227.5 31t-164.5 79q-56 59 -92.5 171.5t-46.5 228.5q-11 169 40.5 304.5t156.5 216t248 91.5q169 12 286 -65l-26 444l348 21zM821 494q-1 18 -3 86t-7.5 113t-17.5 67q-64 117 -226 106q-75 -9 -129 -116.5
t-45 -231.5q11 -95 67.5 -166.5t127.5 -62.5q118 10 181 72t52 133z" />
    <glyph glyph-name="e" unicode="e" horiz-adv-x="1122" 
d="M51 551q30 238 168 364t363 109q72 -6 126 -20.5t162 -53.5q82 -43 143 -178.5t48 -290.5l-6 -69l-697 22q9 -93 66.5 -154t132.5 -69q69 -6 117 9t96 61q88 -49 264 -129q-29 -69 -83 -118t-121 -73t-134.5 -32.5t-136.5 -2.5q-117 9 -215.5 53t-170.5 120t-105 192.5
t-17 259.5zM758 614q-4 186 -160 191q-68 6 -129 -38.5t-84 -125.5z" />
    <glyph glyph-name="f" unicode="f" horiz-adv-x="724" 
d="M31 672l-19 270l107 8l-6 144q-7 89 12 155.5t60 108.5t107 66.5t144.5 33.5t181.5 6l25 -258q-72 1 -116 -9t-65.5 -31.5t-26.5 -55t1 -78.5l2 -35l242 19l20 -240l-215 -28q43 -419 62 -764l-348 -39l-62 735z" />
    <glyph glyph-name="g" unicode="g" horiz-adv-x="1232" 
d="M354 -145q28 -52 94 -82t132 -21q201 16 215 205l4 33q-108 -69 -256 -53q-105 8 -177.5 32t-129.5 78q-87 84 -126.5 220.5t-29.5 365.5q9 65 55 135t111.5 125t151 87t165.5 24q178 -12 297 -119l14 98l347 -47l-78 -975q-8 -106 -58.5 -203t-119.5 -159.5t-144 -97
t-135 -27.5q-126 -3 -225.5 13.5t-165.5 48.5t-106 63.5t-74 72.5zM412 477q-11 -123 35 -200t145 -84q101 -10 182 40t90 117q10 185 -28 256q-28 49 -81.5 82t-113.5 39q-91 7 -170 -72q-16 -17 -26.5 -36t-16.5 -40.5t-8.5 -35.5t-4.5 -37t-3 -29z" />
    <glyph glyph-name="h" unicode="h" horiz-adv-x="1112" 
d="M365 1407l26 -551q59 67 122 115.5t114 54.5q387 25 424 -410l49 -618l-334 -35q-10 94 -18 191.5t-15.5 212.5t-11.5 172q-10 127 -37.5 174.5t-87.5 42.5q-85 -7 -128 -68.5t-30 -130.5l39 -610l-350 -19q-76 683 -115 1450z" />
    <glyph glyph-name="i" unicode="i" horiz-adv-x="503" 
d="M287 1159q-78 5 -134.5 65t-52.5 142q5 68 67.5 128t127.5 56q74 -6 138.5 -60t58.5 -118q-3 -53 -13 -89.5t-32 -67.5t-62 -45t-98 -11zM430 1053l-70 -1012l-317 18l63 1000z" />
    <glyph glyph-name="j" unicode="j" horiz-adv-x="512" 
d="M207 1106q-76 -6 -132 57.5t-63 136.5q-4 65 50 128.5t116 68.5q67 6 133 -49t72 -123q3 -45 -16 -93.5t-62 -85.5t-98 -40zM465 -94q7 -89 -9.5 -171t-37.5 -114q-58 -68 -187.5 -99.5t-279.5 -17.5l49 306q27 -2 43.5 -2t35 1.5t28.5 5.5t20.5 12t15 20t8 30t3 41.5
t-3.5 54.5l-97 1026l326 11z" />
    <glyph glyph-name="k" unicode="k" horiz-adv-x="1077" 
d="M489 432l-55 -84l27 -401l-350 -10l-105 1458l344 12l64 -702l268 387l311 -33l-278 -383l411 -561l-340 -138z" />
    <glyph glyph-name="l" unicode="l" horiz-adv-x="499" 
d="M465 1485l-109 -1450l-333 31l114 1454z" />
    <glyph glyph-name="m" unicode="m" horiz-adv-x="1642" 
d="M367 1030l8 -98q77 68 134 102t114 41q106 10 179 -30.5t101 -102.5q46 68 127 117.5t191 60.5q34 5 95.5 0.5t86.5 -14.5q65 -24 109.5 -118t54.5 -247l49 -624l-318 -43l-47 608q-9 109 -35.5 150t-82.5 36q-57 -9 -96 -64t-27 -112q32 -330 43 -629l-326 -20l-47 580
q-7 108 -37.5 159.5t-77.5 40.5q-75 -19 -115.5 -68t-31.5 -110l45 -629l-354 -30l-76 1024z" />
    <glyph glyph-name="n" unicode="n" horiz-adv-x="1107" 
d="M442 1006l-6 -82q47 40 73.5 54.5t92 23.5t186.5 6q67 -9 134.5 -75t107.5 -161.5t29 -181.5l-49 -649q-87 10 -346 14l47 641q9 75 -23 124.5t-67 55.5q-95 7 -150.5 -34.5t-69.5 -116.5l-49 -621l-321 6l78 1014z" />
    <glyph glyph-name="o" unicode="o" horiz-adv-x="1226" 
d="M43 453q-7 95 33 213.5t82 167.5q179 187 415 204q118 8 234 -8t186 -57q28 -16 70 -91t77.5 -177t41.5 -179q12 -153 -53.5 -285.5t-191.5 -215t-286 -93.5q-67 -6 -168.5 2.5t-132.5 18.5q-135 60 -215 194.5t-92 305.5zM375 471q11 -128 78 -201t178 -63
q57 4 118.5 26t79.5 43q57 57 41 232q-10 127 -89 195t-195 59q-109 -9 -164.5 -87.5t-46.5 -203.5z" />
    <glyph glyph-name="p" unicode="p" horiz-adv-x="1230" 
d="M14 995l369 21l8 -84l11 11q55 54 92 73q79 40 276 47q162 17 276 -127t134 -383q18 -225 -81 -391t-247 -189q-70 -7 -124.5 -6.5t-90 5t-70 17t-54 23t-52.5 31.5l45 -475l-377 -14zM414 494q12 -155 45 -193q86 -102 180 -94q58 4 97.5 30t59 71.5t25.5 102t0 130.5
q-8 100 -30.5 170t-57.5 84q-27 14 -70 24.5t-75 7.5q-93 -10 -138.5 -86t-35.5 -247z" />
    <glyph glyph-name="q" unicode="q" horiz-adv-x="1230" 
d="M762 -492l37 496q-127 -84 -291 -72q-122 8 -214.5 56.5t-147 126.5t-77.5 179t-14 218q8 98 30.5 176.5t66.5 144.5t108 108.5t157 63t212 13.5q74 -8 128 -36t99 -85l21 80l354 -21q-60 -644 -115 -1456zM846 453q13 152 -12 211q-16 41 -90.5 85.5t-143.5 36.5
q-98 -9 -156.5 -81.5t-68.5 -202.5q-20 -263 176 -336q59 -20 113.5 -11t96.5 38t54 65q25 119 31 195z" />
    <glyph glyph-name="r" unicode="r" horiz-adv-x="774" 
d="M670 805q-117 29 -193 2q-62 -23 -82.5 -79.5t-11.5 -172.5l49 -526l-332 -19l-73 1004l311 30l16 -83q24 54 68 90.5t98 40.5q125 7 217 -41z" />
    <glyph glyph-name="s" unicode="s" horiz-adv-x="970" 
d="M449 -41q-62 4 -114.5 13.5t-106 30t-95.5 50.5t-77.5 77t-57.5 108l295 84q37 -73 70 -99t110 -39q38 -8 78 18.5t43 73.5q2 25 -8 43t-32 30t-44 19.5t-57 18.5t-58 21q-166 58 -240.5 139t-66.5 190q11 145 136.5 227.5t334.5 67.5q63 -4 141.5 -19t120.5 -38
q51 -28 92.5 -88.5t51.5 -110.5l-263 -82q-37 127 -147 137q-53 6 -89.5 -29t-39.5 -77q-3 -37 27.5 -58t126.5 -51q212 -56 287 -138.5t65 -217.5q-12 -158 -135 -238t-348 -63z" />
    <glyph glyph-name="t" unicode="t" horiz-adv-x="782" 
d="M221 1378l328 41l-37 -391l223 -22l-20 -277l-228 10l-20 -362q-7 -54 10.5 -86t63.5 -41t125 16l26 -289q-16 -58 -325 -43q-126 12 -183 134t-41 317l33 352l-123 8l19 279l123 -8z" />
    <glyph glyph-name="u" unicode="u" horiz-adv-x="1058" 
d="M20 944l308 35l47 -596q7 -100 63.5 -156t136.5 -47q52 8 78.5 60.5t18.5 101.5l-47 672l331 16l50 -524q17 -283 -88.5 -416t-348.5 -151q-262 -19 -376 79q-39 30 -78.5 129t-46.5 195z" />
    <glyph glyph-name="v" unicode="v" horiz-adv-x="1079" 
d="M356 1034l250 -563q89 289 158 629l246 -23l-260 -1030l-338 -29l-422 1010z" />
    <glyph glyph-name="w" unicode="w" horiz-adv-x="1576" 
d="M391 1047l86 -486l201 451l276 -17l168 -512l189 455l272 -20l-379 -984l-256 -6l-157 602l-275 -532l-203 -4q-149 471 -258 1053h336z" />
    <glyph glyph-name="x" unicode="x" horiz-adv-x="1181" 
d="M4 1001l379 39l244 -258l196 285l267 4l-295 -473l422 -475l-299 -98l-314 329l-227 -356l-314 -8l349 520z" />
    <glyph glyph-name="y" unicode="y" horiz-adv-x="1073" 
d="M670 -211q-37 -66 -99.5 -112t-129.5 -67.5t-140 -29t-132.5 -3t-107.5 16.5l39 275q115 -22 170 14t70 117l-266 1036l344 -12l174 -727l194 682l326 -31q-161 -680 -442 -1159z" />
    <glyph glyph-name="z" unicode="z" horiz-adv-x="1032" 
d="M162 680l-39 264q424 46 788 66l9 -265l-428 -491l489 27l39 -281l-924 -61l10 284l490 473z" />
    <glyph glyph-name="braceleft" unicode="{" horiz-adv-x="806" 
d="M285 203q-5 130 -25.5 202.5t-52.5 99t-86 30.5l-37 194q71 17 108 55.5t31 85.5l-35 338q-2 68 -4 125t5 105t14 87t25 70.5t37.5 56t51 42.5t66.5 31t83 21.5t100.5 13.5t119.5 7l8 -268q-24 -2 -39 -3.5t-31 -6.5t-25.5 -9t-19 -15.5t-14.5 -21t-10.5 -31t-7.5 -39.5
t-4.5 -52.5t-3.5 -64.5t-2 -80l16 -316q6 -24 1.5 -51t-16 -52t-46.5 -52.5t-91 -51.5q30 -10 54.5 -23.5t41 -25t30 -32.5t20.5 -33t14 -40.5t9 -40t7 -46t7 -45.5l59 -334q20 -113 31 -136q17 -37 62 -44q32 -4 104 0l18 -259q-113 -24 -199.5 -18.5t-147.5 25.5
t-102 58.5t-62.5 79.5t-29.5 89z" />
    <glyph glyph-name="bar" unicode="|" horiz-adv-x="1251" 
d="M715 1452l145 -1884l-371 -35l-81 959l-46 968z" />
    <glyph glyph-name="braceright" unicode="}" horiz-adv-x="806" 
d="M508 -63q-19 -236 -148.5 -321t-408.5 -30l16 230q28 1 50 0t40 0.5t32 3t24.5 8.5t18 16.5t13 27.5t9 41t6.5 56l33 416q12 160 167 262q-32 31 -52.5 55t-42 60t-28.5 78t-1 90l55 432q4 35 3.5 60t-3 44.5t-15 33t-23.5 22.5t-37 17t-47 13t-62 14q-3 1 -5 1l19 194
q291 9 403.5 -83.5t93.5 -309.5l-34 -426q-4 -33 11.5 -80t50.5 -89.5t79 -53.5l-39 -213q-78 -6 -108 -39.5t-37 -128.5z" />
    <glyph glyph-name="exclamdown" unicode="&#xa1;" horiz-adv-x="739" 
d="M369 1219q-118 35 -76 198q20 27 62.5 43.5t64.5 -0.5q76 -19 102.5 -54.5t20.5 -105.5q-9 -48 -66 -73.5t-108 -7.5zM252 1075l295 -24l-60 -1031l-333 19z" />
    <glyph glyph-name="cent" unicode="&#xa2;" horiz-adv-x="1015" 
d="M1012 272q-61 -192 -250 -243l2 -181l-213 -18l-14 184q-214 24 -344.5 156.5t-145.5 366.5q-10 99 31 200.5t135 185t223 117.5l25 203l207 4l12 -172q53 -6 89 -14.5t86.5 -35.5t90.5 -71l-141 -204q-57 63 -114 80.5t-165 11.5q-76 -11 -128 -105t-42 -217
q11 -129 67.5 -184.5t176.5 -46.5q83 6 122.5 30.5t82.5 104.5z" />
    <glyph glyph-name="sterling" unicode="&#xa3;" horiz-adv-x="1445" 
d="M1368 211q-82 -143 -164.5 -213.5t-170 -75t-189.5 40.5q-312 93 -398 108q-108 17 -163 -18q-35 -22 -82 -86l-193 158q102 153 219 213l23 258l-144 35l50 239l112 -8l15 176q11 119 66 218.5t135.5 153.5t166.5 48q161 18 287 8q69 -10 122 -27t92.5 -44t67 -56
t50.5 -75t38.5 -88t34.5 -107l-284 -49q-22 86 -72.5 123t-134.5 45q-130 9 -171 -30t-50 -171l-13 -145l392 -25l-107 -207l-303 -2l-20 -235q56 -12 115 -34.5t100.5 -42.5t85.5 -39t77.5 -24.5t68 2t66 38.5t62.5 87z" />
    <glyph glyph-name="currency" unicode="&#xa4;" horiz-adv-x="1622" 
d="M283 473q-43 138 -33 275q11 154 82 256l-162 227l168 194l203 -235q92 52 148.5 68t115.5 10q115 -7 176.5 -31.5t151.5 -93.5l262 198l141 -167l-213 -211q37 -89 49 -153t6 -173q-14 -124 -104 -248l180 -264l-160 -141l-262 211q-64 -34 -120 -46.5t-140 -5.5
q-142 10 -280 99l-256 -174l-144 165zM770 438q132 -11 209 55t86 199q13 95 -42 184.5t-149 98.5q-76 8 -149.5 -22t-123 -89.5t-56.5 -132.5q-10 -106 63 -194t162 -99z" />
    <glyph glyph-name="yen" unicode="&#xa5;" horiz-adv-x="1265" 
d="M973 1065l131 8l-39 -223l-872 -84l-76 231l131 11l-289 383l428 94l287 -486l221 521l297 2zM1149 510l-324 -29l35 -448l-344 -58l-35 480l-344 -9l33 224l903 73z" />
    <glyph glyph-name="brokenbar" unicode="&#xa6;" horiz-adv-x="1230" 
d="M846 1495l-74 -795l-350 9l59 778zM700 -391l-364 -23l59 807l350 -35z" />
    <glyph glyph-name="section" unicode="&#xa7;" horiz-adv-x="1269" 
d="M498 10q17 -131 56 -178t124 -41q66 8 100.5 52t28.5 118q-6 68 -54 104.5t-186 81.5q-213 56 -302.5 128t-102.5 178q-7 144 26 236.5t109 154.5q-136 97 -150 260q-12 166 104.5 284.5t323.5 131.5q229 15 334.5 -78t122.5 -320l-264 -65q-7 117 -63.5 177.5
t-108.5 53.5q-77 -6 -124.5 -55t-41.5 -123q4 -56 69 -97.5t169 -60.5q108 -15 193 -52.5t134.5 -86t77 -98.5t33.5 -99q4 -84 -0.5 -138t-24 -96t-43 -68.5t-71.5 -67.5q138 -93 153 -269q12 -175 -100.5 -289.5t-327.5 -127.5q-234 -15 -342 83t-117 324zM647 399
q63 6 113.5 54.5t46.5 107.5q-6 58 -65.5 97.5t-120.5 33.5q-63 -6 -111.5 -53t-42.5 -104q6 -60 62 -100.5t118 -35.5z" />
    <glyph glyph-name="copyright" unicode="&#xa9;" horiz-adv-x="1705" 
d="M102 655q-11 153 38.5 296t143.5 250.5t229.5 177t289.5 81.5q147 12 289 -37.5t249.5 -142.5t178.5 -227t82 -283q12 -151 -37 -294t-142 -251.5t-227 -179t-285 -82.5q-155 -12 -298.5 36t-251.5 140.5t-177.5 227t-81.5 288.5zM270 668q12 -159 100.5 -288t229 -197
t299.5 -56q157 13 284.5 102t195 230t55.5 299q-12 156 -100.5 284t-227.5 196t-295 56q-268 -21 -420 -229q-67 -83 -98.5 -186t-22.5 -211zM442 680q-9 119 40.5 222.5t144.5 167.5t215 73q109 8 235 -49l-63 -162q-78 49 -172 41q-103 -7 -168 -89t-56 -190
q7 -109 83 -175.5t180 -57.5q49 3 84 20.5t106 71.5l64 -176q-116 -75 -240 -84q-115 -9 -216 39.5t-164.5 140.5t-72.5 207z" />
    <glyph glyph-name="guillemotleft" unicode="&#xab;" horiz-adv-x="1196" 
d="M1063 823l-184 -299l245 -221l-182 -221l-399 422l329 483zM393 961l207 -125l-221 -344l272 -299l-143 -138l-469 412z" />
    <glyph glyph-name="registered" unicode="&#xae;" horiz-adv-x="1267" 
d="M600 1485q138 11 264.5 -51.5t208 -180t92.5 -258.5q8 -107 -26.5 -209t-100.5 -179t-161 -127.5t-201 -59.5q-146 -11 -274 50.5t-208.5 179t-91.5 263.5q-8 109 27 210.5t102 178t163 126t206 57.5zM950 686q109 128 97 299q-14 168 -145 281t-298 100
q-189 -15 -299 -164q-98 -126 -86 -278q9 -114 72.5 -206t163.5 -140t213 -39q82 6 154 43.5t124 99.5l-149 -12l-181 221l-71 -6l18 -234l-125 -10l-47 598l225 18q107 8 168 -34.5t68 -130.5q9 -122 -100 -177zM727 1081q-3 33 -24 46t-66 10l-113 -9l11 -129l112 9
q44 3 63.5 21.5t16.5 51.5z" />
    <glyph glyph-name="degree" unicode="&#xb0;" horiz-adv-x="901" 
d="M479 846q-136 -12 -239.5 76t-114.5 225q-11 134 78 236t225 112q132 10 234.5 -78t113.5 -219q10 -136 -77.5 -239.5t-219.5 -112.5zM463 1034q55 3 91.5 47t33.5 103q-5 51 -47.5 88.5t-96.5 34.5q-57 -4 -94.5 -47t-34.5 -99q4 -58 47.5 -95t100.5 -32z" />
    <glyph glyph-name="paragraph" unicode="&#xb6;" horiz-adv-x="1243" 
d="M467 612q-84 -12 -164.5 15.5t-136 76t-92 103t-43.5 100.5q-7 142 10 234.5t46.5 137t80.5 81.5q65 46 167 78.5t193 40.5l570 49l125 -1700l-265 -27l-116 1381l-140 -41l115 -1344l-293 -4l-65 817z" />
    <glyph glyph-name="periodcentered" unicode="&#xb7;" horiz-adv-x="612" 
d="M305 336q-69 -6 -125.5 48t-60.5 136q-4 75 44.5 136.5t110.5 66.5q107 5 171.5 -39.5t60.5 -140.5q-2 -82 -55.5 -142.5t-145.5 -64.5z" />
    <glyph glyph-name="ordmasculine" unicode="&#xba;" horiz-adv-x="905" 
d="M94 1174q5 72 35 131.5t85 105t144.5 68.5t204.5 18q67 -8 133 -61t104 -125.5t31 -132.5q-6 -106 -37.5 -191.5t-79 -138t-105 -77.5t-117.5 -19q-196 10 -303 127t-95 295zM309 1139q-6 -74 23.5 -125.5t83.5 -57.5q91 -6 148.5 38.5t64.5 131.5q7 67 -21.5 112.5
t-97.5 51.5q-72 6 -133.5 -37.5t-67.5 -113.5zM811 625v-283l-784 66l2 264z" />
    <glyph glyph-name="guillemotright" unicode="&#xbb;" horiz-adv-x="1196" 
d="M776 96l-180 117l229 362l-280 281l192 170l418 -442zM670 547l-344 -488l-174 119l194 359l-244 266l152 162z" />
    <glyph glyph-name="questiondown" unicode="&#xbf;" horiz-adv-x="1122" 
d="M506 1464q75 4 120 -41.5t50 -113.5q4 -76 -44.5 -127t-119.5 -56q-150 -12 -186 109q-27 91 35 157.5t145 71.5zM692 1030q6 -107 -4 -174t-48 -130t-116 -132q-75 -72 -92 -119t-10 -117q10 -66 78 -101.5t147 -29.5q89 7 119 84.5t16 218.5l287 19q16 -113 5.5 -222
t-36.5 -157q-24 -42 -39.5 -66t-45 -56t-61.5 -50t-82.5 -33t-113.5 -18q-284 -15 -433.5 93t-164.5 349q-10 94 15.5 153.5t115.5 164.5q86 87 111 142t18 142z" />
    <glyph glyph-name="Agrave" unicode="&#xc0;" horiz-adv-x="1447" 
d="M885 1563l-391 290l284 162l277 -338zM547 1419l446 25l469 -1415l-286 -23l-132 283l-409 -45l-103 -303l-475 -21q234 843 490 1499zM965 524l-166 473l-137 -510z" />
    <glyph glyph-name="Aacute" unicode="&#xc1;" horiz-adv-x="1447" 
d="M866 2028l271 -170l-379 -314l-170 139zM547 1419l446 25l469 -1415l-286 -23l-132 283l-409 -45l-103 -303l-475 -21q234 843 490 1499zM965 524l-166 473l-137 -510z" />
    <glyph glyph-name="Acircumflex" unicode="&#xc2;" horiz-adv-x="1447" 
d="M866 2013l324 -352l-193 -127l-155 152l-207 -130l-182 154zM547 1419l446 25l469 -1415l-286 -23l-132 283l-409 -45l-103 -303l-475 -21q234 843 490 1499zM965 524l-166 473l-137 -510z" />
    <glyph glyph-name="Atilde" unicode="&#xc3;" horiz-adv-x="1447" 
d="M406 1686q29 89 85 137t126 49t151 -35q44 -21 75.5 -29.5t62 -5t55 26t45.5 65.5l153 -92q-37 -95 -101 -158.5t-144.5 -77.5t-165.5 48q-52 37 -95 46.5t-76 -15.5t-47 -86zM547 1419l446 25l469 -1415l-286 -23l-132 283l-409 -45l-103 -303l-475 -21
q234 843 490 1499zM965 524l-166 473l-137 -510z" />
    <glyph glyph-name="Adieresis" unicode="&#xc4;" horiz-adv-x="1447" 
d="M588 1563q-87 6 -140 53t-47 98q6 88 62.5 136.5t142.5 43.5q52 -4 95 -48.5t38 -84.5q-6 -91 -53.5 -147t-97.5 -51zM1047 1528q-83 4 -131 60.5t-44 144.5q6 52 65.5 90.5t143.5 34.5q54 -5 93.5 -62.5t35.5 -142.5q-7 -41 -59 -86t-104 -39zM547 1419l446 25
l469 -1415l-286 -23l-132 283l-409 -45l-103 -303l-475 -21q234 843 490 1499zM965 524l-166 473l-137 -510z" />
    <glyph glyph-name="Aring" unicode="&#xc5;" horiz-adv-x="1447" 
d="M799 1530q-91 -3 -177 62t-100 139q-26 158 47 251t197 103q79 9 198 -60t128 -137q8 -158 -73.5 -258.5t-219.5 -99.5zM815 1729q43 2 62 13t20.5 30.5t-0.5 48.5q-2 21 -40 45.5t-69 21.5q-31 -1 -48 -28.5t-15 -69.5q3 -24 31 -44t59 -17zM547 1419l446 25l469 -1415
l-286 -23l-132 283l-409 -45l-103 -303l-475 -21q234 843 490 1499zM965 524l-166 473l-137 -510z" />
    <glyph glyph-name="AE" unicode="&#xc6;" horiz-adv-x="2019" 
d="M1456 926l334 -70l-21 -254l-452 14l-62 -307l623 -53l6 -326l-960 74l22 295l-342 39l-174 -283l-457 25q366 673 846 1372l1153 -72l-20 -254l-475 54zM1049 1126l-68 -10l-315 -538l301 -31z" />
    <glyph glyph-name="Ccedilla" unicode="&#xc7;" horiz-adv-x="1300" 
d="M57 713q13 140 41.5 238t96.5 167q134 141 295 224t303 69q126 -4 211 -25t151 -71t105.5 -134t62.5 -214l-268 -62q-19 84 -86 142.5t-150 64.5q-50 7 -102.5 -5t-102 -45t-89 -82.5t-64 -123.5t-25.5 -162q-7 -79 18 -154.5t83.5 -131t138.5 -66.5q156 -11 295 131
l280 -297q-119 -134 -248.5 -201.5t-238.5 -58.5q-155 12 -288.5 72.5t-231 160t-148 245.5t-39.5 319zM373 -498q127 43 188 131.5t35 196.5q127 -56 291 -59q20 -91 -63.5 -194.5t-202.5 -147.5z" />
    <glyph glyph-name="Egrave" unicode="&#xc8;" horiz-adv-x="1232" 
d="M639 1587l-391 289l284 164l277 -340zM1073 1454l21 -254l-551 -49l24 -270l416 12l21 -252l-525 -33l23 -321l651 59l57 -342l-1026 -78l-114 1432z" />
    <glyph glyph-name="Eacute" unicode="&#xc9;" horiz-adv-x="1232" 
d="M688 2028l270 -170l-376 -314l-172 139zM1073 1454l21 -254l-551 -49l24 -270l416 12l21 -252l-525 -33l23 -321l651 59l57 -342l-1026 -78l-114 1432z" />
    <glyph glyph-name="Ecircumflex" unicode="&#xca;" horiz-adv-x="1232" 
d="M610 2038l324 -352l-193 -127l-157 151l-205 -129l-182 154zM1073 1454l21 -254l-551 -49l24 -270l416 12l21 -252l-525 -33l23 -321l651 59l57 -342l-1026 -78l-114 1432z" />
    <glyph glyph-name="Edieresis" unicode="&#xcb;" horiz-adv-x="1232" 
d="M367 1589q-87 6 -139.5 53t-47.5 97q6 89 62.5 137.5t142.5 42.5q52 -4 95 -47.5t38 -83.5q-6 -93 -53.5 -149.5t-97.5 -49.5zM825 1554q-83 5 -130.5 61t-41.5 144q5 50 65 89.5t142 35.5q55 -6 95 -63t34 -142q-7 -41 -59.5 -86t-104.5 -39zM1073 1454l21 -254
l-551 -49l24 -270l416 12l21 -252l-525 -33l23 -321l651 59l57 -342l-1026 -78l-114 1432z" />
    <glyph glyph-name="Igrave" unicode="&#xcc;" horiz-adv-x="557" 
d="M369 1563l-392 290l285 162l275 -338zM406 1419q85 -789 112 -1431l-356 -23q-11 224 -56.5 673.5t-56.5 776.5z" />
    <glyph glyph-name="Iacute" unicode="&#xcd;" horiz-adv-x="557" 
d="M319 2028l269 -170l-377 -314l-172 139zM406 1419q85 -789 112 -1431l-356 -23q-11 224 -56.5 673.5t-56.5 776.5z" />
    <glyph glyph-name="Icircumflex" unicode="&#xce;" horiz-adv-x="557" 
d="M311 2013l324 -352l-191 -127l-157 152l-205 -130l-182 154zM406 1419q85 -789 112 -1431l-356 -23q-11 224 -56.5 673.5t-56.5 776.5z" />
    <glyph glyph-name="Idieresis" unicode="&#xcf;" horiz-adv-x="557" 
d="M53 1563q-87 6 -139.5 53t-46.5 98q4 88 61.5 136.5t143.5 43.5q52 -4 95 -48.5t38 -84.5q-6 -91 -54 -147t-98 -51zM512 1528q-83 4 -131 60.5t-43 144.5q5 52 65 90.5t144 34.5q54 -5 93.5 -62.5t35.5 -142.5q-7 -41 -59.5 -86t-104.5 -39zM406 1419q85 -789 112 -1431
l-356 -23q-11 224 -56.5 673.5t-56.5 776.5z" />
    <glyph glyph-name="Eth" unicode="&#xd0;" horiz-adv-x="1413" 
d="M1350 803q12 -159 -38.5 -299.5t-150 -242.5t-245.5 -166.5t-320 -78.5l-438 -32l-45 573l-84 -6l14 287l47 6l-45 590l440 34q187 10 329.5 -15t238 -78.5t159 -140.5t95 -191t43.5 -240zM756 410q159 30 237.5 149.5t61.5 327.5q-17 171 -125.5 252t-267.5 65l-173 -6
l27 -299l254 33l8 -318l-235 -20l20 -217z" />
    <glyph glyph-name="Ntilde" unicode="&#xd1;" horiz-adv-x="1437" 
d="M328 1686q29 89 85 137t126 49t151 -35q44 -21 75.5 -29.5t62 -5t55 26t45.5 65.5l151 -92q-37 -95 -100.5 -158.5t-143.5 -77.5t-165 48q-52 37 -94.5 46.5t-75.5 -15.5t-47 -86zM172 1466l250 -10l508 -881l71 820l424 -43l-110 -1405q-63 0 -406 -10l-444 964
l-72 -905l-352 20z" />
    <glyph glyph-name="Ograve" unicode="&#xd2;" horiz-adv-x="1642" 
d="M846 1563l-393 290l286 162l275 -338zM66 616q-8 108 23.5 219.5t85 199.5t118.5 163t124.5 121.5t104.5 64.5q72 2 130 2t91 -0.5t65.5 -3t43 -4t34.5 -5.5t29 -5q169 -17 313.5 -101t238 -225.5t108.5 -314.5q12 -159 -42 -325.5t-118 -245.5q-88 -104 -242.5 -172.5
t-300.5 -79.5q-134 -9 -288 32t-219 82q-71 60 -122 122t-82 115t-51 118t-28.5 117t-15.5 126zM854 295q76 10 149.5 38t104.5 68q101 116 86 306q-9 106 -49.5 197.5t-85.5 117.5q-62 37 -140.5 56t-136.5 12q-59 -8 -114.5 -43t-99 -91.5t-67 -140t-16.5 -178.5
q15 -177 108.5 -267t260.5 -75z" />
    <glyph glyph-name="Oacute" unicode="&#xd3;" horiz-adv-x="1642" 
d="M881 2028l270 -170l-377 -314l-172 139zM66 616q-8 108 23.5 219.5t85 199.5t118.5 163t124.5 121.5t104.5 64.5q72 2 130 2t91 -0.5t65.5 -3t43 -4t34.5 -5.5t29 -5q169 -17 313.5 -101t238 -225.5t108.5 -314.5q12 -159 -42 -325.5t-118 -245.5q-88 -104 -242.5 -172.5
t-300.5 -79.5q-134 -9 -288 32t-219 82q-71 60 -122 122t-82 115t-51 118t-28.5 117t-15.5 126zM854 295q76 10 149.5 38t104.5 68q101 116 86 306q-9 106 -49.5 197.5t-85.5 117.5q-62 37 -140.5 56t-136.5 12q-59 -8 -114.5 -43t-99 -91.5t-67 -140t-16.5 -178.5
q15 -177 108.5 -267t260.5 -75z" />
    <glyph glyph-name="Ocircumflex" unicode="&#xd4;" horiz-adv-x="1642" 
d="M877 2013l323 -352l-192 -127l-156 152l-207 -130l-182 154zM66 616q-8 108 23.5 219.5t85 199.5t118.5 163t124.5 121.5t104.5 64.5q72 2 130 2t91 -0.5t65.5 -3t43 -4t34.5 -5.5t29 -5q169 -17 313.5 -101t238 -225.5t108.5 -314.5q12 -159 -42 -325.5t-118 -245.5
q-88 -104 -242.5 -172.5t-300.5 -79.5q-134 -9 -288 32t-219 82q-71 60 -122 122t-82 115t-51 118t-28.5 117t-15.5 126zM854 295q76 10 149.5 38t104.5 68q101 116 86 306q-9 106 -49.5 197.5t-85.5 117.5q-62 37 -140.5 56t-136.5 12q-59 -8 -114.5 -43t-99 -91.5
t-67 -140t-16.5 -178.5q15 -177 108.5 -267t260.5 -75z" />
    <glyph glyph-name="Otilde" unicode="&#xd5;" horiz-adv-x="1642" 
d="M432 1686q43 133 144.5 172t220.5 -21q45 -21 75.5 -29.5t60.5 -5t54 26t45 65.5l154 -92q-37 -95 -101 -158.5t-144.5 -77.5t-166.5 48q-51 37 -93 46.5t-75 -15.5t-47 -86zM66 616q-8 108 23.5 219.5t85 199.5t118.5 163t124.5 121.5t104.5 64.5q72 2 130 2t91 -0.5
t65.5 -3t43 -4t34.5 -5.5t29 -5q169 -17 313.5 -101t238 -225.5t108.5 -314.5q12 -159 -42 -325.5t-118 -245.5q-88 -104 -242.5 -172.5t-300.5 -79.5q-134 -9 -288 32t-219 82q-71 60 -122 122t-82 115t-51 118t-28.5 117t-15.5 126zM854 295q76 10 149.5 38t104.5 68
q101 116 86 306q-9 106 -49.5 197.5t-85.5 117.5q-62 37 -140.5 56t-136.5 12q-59 -8 -114.5 -43t-99 -91.5t-67 -140t-16.5 -178.5q15 -177 108.5 -267t260.5 -75z" />
    <glyph glyph-name="Odieresis" unicode="&#xd6;" horiz-adv-x="1642" 
d="M590 1565q-90 6 -145 56t-50 105q6 94 65.5 146.5t149.5 46.5q53 -4 99 -51.5t41 -89.5q-6 -99 -56 -159t-104 -54zM1071 1526q-87 6 -137 66t-45 153q6 56 68.5 98.5t150.5 36.5q56 -6 97.5 -67.5t35.5 -151.5q-5 -44 -60 -92.5t-110 -42.5zM66 616q-8 108 23.5 219.5
t85 199.5t118.5 163t124.5 121.5t104.5 64.5q72 2 130 2t91 -0.5t65.5 -3t43 -4t34.5 -5.5t29 -5q169 -17 313.5 -101t238 -225.5t108.5 -314.5q12 -159 -42 -325.5t-118 -245.5q-88 -104 -242.5 -172.5t-300.5 -79.5q-134 -9 -288 32t-219 82q-71 60 -122 122t-82 115
t-51 118t-28.5 117t-15.5 126zM854 295q76 10 149.5 38t104.5 68q101 116 86 306q-9 106 -49.5 197.5t-85.5 117.5q-62 37 -140.5 56t-136.5 12q-59 -8 -114.5 -43t-99 -91.5t-67 -140t-16.5 -178.5q15 -177 108.5 -267t260.5 -75z" />
    <glyph glyph-name="multiply" unicode="&#xd7;" horiz-adv-x="1411" 
d="M481 739l-282 271l159 225l334 -274l293 311l213 -158l-260 -350l303 -279l-164 -188l-360 256l-295 -356l-211 184z" />
    <glyph glyph-name="Oslash" unicode="&#xd8;" horiz-adv-x="1642" 
d="M1438 1081q119 -154 137 -354q12 -159 -42 -325.5t-118 -245.5q-88 -104 -242.5 -172.5t-300.5 -79.5q-134 -9 -288 32t-219 82q-50 42 -72 68l-127 -111l-207 170l178 158q-54 120 -71 313q-8 108 23.5 219.5t85 199.5t118.5 163t124.5 121.5t104.5 64.5q72 2 130 2
t91 -0.5t65.5 -3t43 -4t34.5 -5.5t29 -5q167 -15 316 -102l239 211l183 -209zM485 637q0 -4 1 -12.5t1 -12.5l504 443q-116 48 -209 35q-59 -8 -114.5 -43t-99 -91.5t-67 -140t-16.5 -178.5zM1108 401q101 116 86 306q-5 60 -27 139l-561 -488q97 -78 248 -63
q76 10 149.5 38t104.5 68z" />
    <glyph glyph-name="Ugrave" unicode="&#xd9;" horiz-adv-x="1398" 
d="M662 1561l-392 290l285 164l276 -340zM250 90q-138 153 -154 373q-48 547 -45 917q203 -19 463 -4l55 -618q1 -93 9 -167.5t20.5 -124.5t30 -86.5t38 -55t44 -30t48 -10.5t50.5 3q75 9 118.5 33.5t64 86t7.5 164.5q-11 96 -29 277.5t-34.5 328.5t-36.5 277l367 31
l71 -930q19 -258 -34 -344q-66 -101 -223.5 -186t-309.5 -97q-158 -12 -299.5 31.5t-220.5 130.5z" />
    <glyph glyph-name="Uacute" unicode="&#xda;" horiz-adv-x="1398" 
d="M670 2025l270 -170l-379 -313l-170 139zM250 90q-138 153 -154 373q-48 547 -45 917q203 -19 463 -4l55 -618q1 -93 9 -167.5t20.5 -124.5t30 -86.5t38 -55t44 -30t48 -10.5t50.5 3q75 9 118.5 33.5t64 86t7.5 164.5q-11 96 -29 277.5t-34.5 328.5t-36.5 277l367 31
l71 -930q19 -258 -34 -344q-66 -101 -223.5 -186t-309.5 -97q-158 -12 -299.5 31.5t-220.5 130.5z" />
    <glyph glyph-name="Ucircumflex" unicode="&#xdb;" horiz-adv-x="1398" 
d="M674 2030l325 -355l-192 -127l-158 152l-205 -129l-182 153zM250 90q-138 153 -154 373q-48 547 -45 917q203 -19 463 -4l55 -618q1 -93 9 -167.5t20.5 -124.5t30 -86.5t38 -55t44 -30t48 -10.5t50.5 3q75 9 118.5 33.5t64 86t7.5 164.5q-11 96 -29 277.5t-34.5 328.5
t-36.5 277l367 31l71 -930q19 -258 -34 -344q-66 -101 -223.5 -186t-309.5 -97q-158 -12 -299.5 31.5t-220.5 130.5z" />
    <glyph glyph-name="Udieresis" unicode="&#xdc;" horiz-adv-x="1398" 
d="M365 1585q-86 4 -139 52t-46 98q4 88 61.5 137t143.5 43q50 -4 94 -48.5t39 -84.5q-6 -92 -54 -147.5t-99 -49.5zM825 1548q-83 4 -131 61t-43 144q5 52 65 91.5t144 35.5q54 -6 93.5 -63.5t35.5 -143.5q-7 -39 -59.5 -84t-104.5 -41zM250 90q-138 153 -154 373
q-48 547 -45 917q203 -19 463 -4l55 -618q1 -93 9 -167.5t20.5 -124.5t30 -86.5t38 -55t44 -30t48 -10.5t50.5 3q75 9 118.5 33.5t64 86t7.5 164.5q-11 96 -29 277.5t-34.5 328.5t-36.5 277l367 31l71 -930q19 -258 -34 -344q-66 -101 -223.5 -186t-309.5 -97
q-158 -12 -299.5 31.5t-220.5 130.5z" />
    <glyph glyph-name="Yacute" unicode="&#xdd;" horiz-adv-x="1265" 
d="M709 2040l268 -170l-377 -314l-172 140zM-43 1288l393 160l334 -545l217 586l291 -23l-318 -870l50 -619l-418 -45l-49 596q-247 352 -500 760z" />
    <glyph glyph-name="Thorn" unicode="&#xde;" horiz-adv-x="1312" 
d="M559 1503l-4 -293l246 -22q118 -10 215 -54t155 -105t86.5 -129.5t20.5 -131.5q-5 -93 -23.5 -166.5t-45 -122t-64 -82.5t-76 -51.5t-86 -25.5t-87.5 -7.5t-87 6.5l-322 25l-8 -293l-428 23l131 1450zM688 578q117 8 178 39t68 92q6 116 -45.5 173.5t-145.5 49.5h-163
l-29 -338z" />
    <glyph glyph-name="germandbls" unicode="&#xdf;" horiz-adv-x="1282" 
d="M973 893q62 -25 101 -46.5t80 -59t64 -86t39.5 -123t20.5 -175.5q7 -47 -11.5 -103.5t-65.5 -116t-116 -110t-173 -87t-226 -45.5l-37 249q140 15 203.5 104t54.5 271q-7 38 -29 66t-90 58.5t-182 49.5l-18 199q104 27 151.5 87t40.5 167q-4 34 -52.5 58t-94.5 18
q-105 -8 -139.5 -66.5t-22.5 -208.5l82 -1120l-356 -20l-31 837l-123 10l-14 205l108 27l-8 115q-8 96 12.5 179t60.5 139.5t88.5 92.5t100.5 51q149 34 272 20.5t213 -59t141.5 -101.5t57.5 -107q5 -98 0 -165t-28 -113t-74 -91z" />
    <glyph glyph-name="agrave" unicode="&#xe0;" horiz-adv-x="1230" 
d="M678 1122l-354 279l258 229l290 -397zM1200 20l-358 -20l-19 82q-62 -67 -116 -101.5t-127 -41.5q-92 -7 -195.5 14t-144.5 49q-78 67 -123 189.5t-56 269.5q-18 227 97 381.5t336 171.5q163 16 260 -66l-2 66l370 20q8 -105 20.5 -317.5t25.5 -379t32 -317.5zM803 526
q-6 77 -25 130t-43 67q-34 29 -90 40.5t-108 6.5q-51 -4 -87 -31t-51.5 -67t-22 -90.5t0.5 -102.5q11 -110 65 -178.5t142 -75.5q95 -7 161.5 88.5t57.5 212.5z" />
    <glyph glyph-name="aacute" unicode="&#xe1;" horiz-adv-x="1230" 
d="M707 1628l239 -174l-362 -332l-148 129zM1200 20l-358 -20l-19 82q-62 -67 -116 -101.5t-127 -41.5q-92 -7 -195.5 14t-144.5 49q-78 67 -123 189.5t-56 269.5q-18 227 97 381.5t336 171.5q163 16 260 -66l-2 66l370 20q8 -105 20.5 -317.5t25.5 -379t32 -317.5zM803 526
q-6 77 -25 130t-43 67q-34 29 -90 40.5t-108 6.5q-51 -4 -87 -31t-51.5 -67t-22 -90.5t0.5 -102.5q11 -110 65 -178.5t142 -75.5q95 -7 161.5 88.5t57.5 212.5z" />
    <glyph glyph-name="acircumflex" unicode="&#xe2;" horiz-adv-x="1230" 
d="M719 1575l305 -277l-168 -174l-145 125l-133 -141l-238 125zM1200 20l-358 -20l-19 82q-62 -67 -116 -101.5t-127 -41.5q-92 -7 -195.5 14t-144.5 49q-78 67 -123 189.5t-56 269.5q-18 227 97 381.5t336 171.5q163 16 260 -66l-2 66l370 20q8 -105 20.5 -317.5t25.5 -379
t32 -317.5zM803 526q-6 77 -25 130t-43 67q-34 29 -90 40.5t-108 6.5q-51 -4 -87 -31t-51.5 -67t-22 -90.5t0.5 -102.5q11 -110 65 -178.5t142 -75.5q95 -7 161.5 88.5t57.5 212.5z" />
    <glyph glyph-name="atilde" unicode="&#xe3;" horiz-adv-x="1230" 
d="M231 1247q40 103 89.5 154.5t98 55t99.5 -12t99 -37.5t90 -31.5t78 17t59 98.5l176 -133q-7 -66 -47.5 -116t-96.5 -72t-121 -17.5t-118 39.5q-113 61 -160 48.5t-76 -110.5zM1200 20l-358 -20l-19 82q-62 -67 -116 -101.5t-127 -41.5q-92 -7 -195.5 14t-144.5 49
q-78 67 -123 189.5t-56 269.5q-18 227 97 381.5t336 171.5q163 16 260 -66l-2 66l370 20q8 -105 20.5 -317.5t25.5 -379t32 -317.5zM803 526q-6 77 -25 130t-43 67q-34 29 -90 40.5t-108 6.5q-51 -4 -87 -31t-51.5 -67t-22 -90.5t0.5 -102.5q11 -110 65 -178.5t142 -75.5
q95 -7 161.5 88.5t57.5 212.5z" />
    <glyph glyph-name="adieresis" unicode="&#xe4;" horiz-adv-x="1230" 
d="M944 1169q-85 -4 -138 34.5t-69 103.5q-14 66 32.5 136t96.5 75q98 7 157.5 -39.5t45.5 -153.5q0 -49 -39.5 -99.5t-85.5 -56.5zM473 1118q-47 -4 -95 35.5t-59 83.5q-28 109 30 175t149 52q54 -4 100.5 -40.5t52.5 -77.5q5 -105 -41.5 -166t-136.5 -62zM1200 20
l-358 -20l-19 82q-62 -67 -116 -101.5t-127 -41.5q-92 -7 -195.5 14t-144.5 49q-78 67 -123 189.5t-56 269.5q-18 227 97 381.5t336 171.5q163 16 260 -66l-2 66l370 20q8 -105 20.5 -317.5t25.5 -379t32 -317.5zM803 526q-6 77 -25 130t-43 67q-34 29 -90 40.5t-108 6.5
q-51 -4 -87 -31t-51.5 -67t-22 -90.5t0.5 -102.5q11 -110 65 -178.5t142 -75.5q95 -7 161.5 88.5t57.5 212.5z" />
    <glyph glyph-name="aring" unicode="&#xe5;" horiz-adv-x="1230" 
d="M657 1137q-91 -3 -176.5 61.5t-99.5 140.5q-26 157 47 251t197 102q79 9 197.5 -60t127.5 -137q8 -157 -73.5 -258t-219.5 -100zM674 1335q43 2 62 13t20.5 30.5t-0.5 48.5q-2 21 -40 46t-69 24q-31 -3 -48 -30t-15 -68q3 -24 31 -45.5t59 -18.5zM1200 20l-358 -20
l-19 82q-62 -67 -116 -101.5t-127 -41.5q-92 -7 -195.5 14t-144.5 49q-78 67 -123 189.5t-56 269.5q-18 227 97 381.5t336 171.5q163 16 260 -66l-2 66l370 20q8 -105 20.5 -317.5t25.5 -379t32 -317.5zM803 526q-6 77 -25 130t-43 67q-34 29 -90 40.5t-108 6.5
q-51 -4 -87 -31t-51.5 -67t-22 -90.5t0.5 -102.5q11 -110 65 -178.5t142 -75.5q95 -7 161.5 88.5t57.5 212.5z" />
    <glyph glyph-name="ae" unicode="&#xe6;" horiz-adv-x="1968" 
d="M1892 403l-663 29q6 -75 47 -123t110 -55q87 -4 126 7.5t81 49.5l250 -180q-88 -102 -200 -141t-265 -13q-195 33 -293 121l-6 -67l-321 20l6 82q-75 -55 -146.5 -74.5t-216.5 -11.5q-77 8 -143.5 50t-107 99.5t-59.5 123.5t-9 124q6 135 19.5 231.5t40 171.5t62.5 121.5
t93.5 77.5t127 45t167.5 19q38 1 67.5 -6.5t55 -26t43 -36.5t44.5 -49q7 -9 11 -13l8 84l338 -21l-6 -69q31 19 39 23.5t41 21t52.5 21.5t58.5 13.5t74.5 8t86 -5.5t105.5 -17q52 -13 106 -60.5t98.5 -118.5t69 -171t14.5 -205zM526 338q70 -32 125.5 -11.5t90.5 65.5t42 95
q10 164 -12 259.5t-94 103.5q-71 4 -125 -14.5t-85.5 -53t-48 -71.5t-22.5 -78q-9 -97 3.5 -154.5t40.5 -86t85 -54.5zM1610 621q-8 74 -53.5 120.5t-118.5 53.5q-68 6 -138 -44t-90 -118z" />
    <glyph glyph-name="ccedilla" unicode="&#xe7;" horiz-adv-x="1015" 
d="M33 512q19 315 200 440q56 37 185.5 63t236.5 19q102 -8 201.5 -62t147.5 -134q-9 -6 -43.5 -32t-47 -36t-37.5 -30.5t-41.5 -38t-31.5 -37.5q-44 65 -91.5 86t-154.5 18q-77 5 -131 -63.5t-64 -210.5q-9 -116 36.5 -184t148.5 -77q74 -6 116 14.5t111 86.5l172 -131
q-75 -119 -174 -190.5t-201 -71.5q-120 1 -246 39.5t-167 85.5q-72 72 -103.5 196.5t-21.5 249.5zM104 -471q127 43 188.5 131.5t35.5 196.5q130 -57 290 -60q20 -91 -63.5 -194.5t-202.5 -147.5z" />
    <glyph glyph-name="egrave" unicode="&#xe8;" horiz-adv-x="1122" 
d="M592 1130l-352 279l256 229l290 -395zM51 551q30 238 168 364t363 109q72 -6 126 -20.5t162 -53.5q82 -43 143 -178.5t48 -290.5l-6 -69l-697 22q9 -93 66.5 -154t132.5 -69q69 -6 117 9t96 61q88 -49 264 -129q-29 -69 -83 -118t-121 -73t-134.5 -32.5t-136.5 -2.5
q-117 9 -215.5 53t-170.5 120t-105 192.5t-17 259.5zM758 614q-4 186 -160 191q-68 6 -129 -38.5t-84 -125.5z" />
    <glyph glyph-name="eacute" unicode="&#xe9;" horiz-adv-x="1122" 
d="M653 1628l240 -174l-361 -332l-147 129zM51 551q30 238 168 364t363 109q72 -6 126 -20.5t162 -53.5q82 -43 143 -178.5t48 -290.5l-6 -69l-697 22q9 -93 66.5 -154t132.5 -69q69 -6 117 9t96 61q88 -49 264 -129q-29 -69 -83 -118t-121 -73t-134.5 -32.5t-136.5 -2.5
q-117 9 -215.5 53t-170.5 120t-105 192.5t-17 259.5zM758 614q-4 186 -160 191q-68 6 -129 -38.5t-84 -125.5z" />
    <glyph glyph-name="ecircumflex" unicode="&#xea;" horiz-adv-x="1122" 
d="M637 1606l305 -277l-168 -172l-145 125l-135 -141l-238 123zM51 551q30 238 168 364t363 109q72 -6 126 -20.5t162 -53.5q82 -43 143 -178.5t48 -290.5l-6 -69l-697 22q9 -93 66.5 -154t132.5 -69q69 -6 117 9t96 61q88 -49 264 -129q-29 -69 -83 -118t-121 -73
t-134.5 -32.5t-136.5 -2.5q-117 9 -215.5 53t-170.5 120t-105 192.5t-17 259.5zM758 614q-4 186 -160 191q-68 6 -129 -38.5t-84 -125.5z" />
    <glyph glyph-name="edieresis" unicode="&#xeb;" horiz-adv-x="1122" 
d="M815 1184q-85 -4 -137 34t-68 103q-16 66 30.5 136t98.5 75q62 4 109 -11.5t74.5 -62t17.5 -119.5q0 -48 -39.5 -98.5t-85.5 -56.5zM344 1133q-45 -4 -94 35.5t-60 82.5q-27 110 31 176t148 52q55 -4 101 -41t52 -78q5 -105 -41.5 -165.5t-136.5 -61.5zM51 551
q30 238 168 364t363 109q72 -6 126 -20.5t162 -53.5q82 -43 143 -178.5t48 -290.5l-6 -69l-697 22q9 -93 66.5 -154t132.5 -69q69 -6 117 9t96 61q88 -49 264 -129q-29 -69 -83 -118t-121 -73t-134.5 -32.5t-136.5 -2.5q-117 9 -215.5 53t-170.5 120t-105 192.5t-17 259.5z
M758 614q-4 186 -160 191q-68 6 -129 -38.5t-84 -125.5z" />
    <glyph glyph-name="igrave" unicode="&#xec;" horiz-adv-x="471" 
d="M295 1122l-352 279l256 229l290 -397zM410 1020l10 -1020h-330l-16 1008z" />
    <glyph glyph-name="iacute" unicode="&#xed;" horiz-adv-x="471" 
d="M334 1628l237 -174l-360 -332l-148 129zM410 1020l10 -1020h-330l-16 1008z" />
    <glyph glyph-name="icircumflex" unicode="&#xee;" horiz-adv-x="471" 
d="M281 1575l305 -277l-168 -174l-146 125l-135 -141l-237 125zM410 1020l10 -1020h-330l-16 1008z" />
    <glyph glyph-name="idieresis" unicode="&#xef;" horiz-adv-x="471" 
d="M473 1169q-85 -4 -138 34.5t-67 103.5q-16 66 30.5 136t98.5 75q62 4 109 -11.5t74.5 -62t17.5 -119.5q0 -49 -39.5 -99.5t-85.5 -56.5zM2 1118q-45 -4 -94 36t-60 83q-28 109 30 175t149 52q56 -4 101.5 -40.5t51.5 -77.5q5 -105 -41.5 -166t-136.5 -62zM410 1020
l10 -1020h-330l-16 1008z" />
    <glyph glyph-name="eth" unicode="&#xf0;" horiz-adv-x="1290" 
d="M793 1364q178 -116 288.5 -354.5t110.5 -571.5q0 -87 -42 -168.5t-121 -148.5t-207 -107.5t-285 -40.5q-61 0 -123.5 23t-123.5 75t-108.5 125.5t-76.5 185t-29 243.5q0 54 30.5 118t80.5 123.5t119.5 108t142.5 75t153.5 20.5t149.5 -52q-25 68 -62 108t-106 82l-68 -69
l-197 96l89 92q-69 39 -113.5 58t-101.5 30l102 144q145 -18 278 -72l105 106l194 -147zM618 272q55 0 102.5 23.5t82.5 69.5t46.5 114.5t-5.5 159.5q-9 74 -81.5 113t-178.5 39q-80 0 -142.5 -91t-62.5 -227q0 -85 67.5 -143t171.5 -58z" />
    <glyph glyph-name="ntilde" unicode="&#xf1;" horiz-adv-x="1107" 
d="M139 1247q40 103 89.5 154.5t98.5 55t100 -12t99 -37.5t90.5 -31.5t78.5 17t59 98.5l174 -133q-7 -66 -47.5 -116t-96.5 -72t-121 -17.5t-118 39.5q-75 42 -118 49t-69.5 -18.5t-46.5 -92.5zM442 1006l-6 -82q47 40 73.5 54.5t92 23.5t186.5 6q67 -9 134.5 -75
t107.5 -161.5t29 -181.5l-49 -649q-87 10 -346 14l47 641q9 75 -23 124.5t-67 55.5q-95 7 -150.5 -34.5t-69.5 -116.5l-49 -621l-321 6l78 1014z" />
    <glyph glyph-name="ograve" unicode="&#xf2;" horiz-adv-x="1226" 
d="M668 1122l-353 279l256 229l291 -397zM43 453q-7 95 33 213.5t82 167.5q179 187 415 204q118 8 234 -8t186 -57q28 -16 70 -91t77.5 -177t41.5 -179q12 -153 -53.5 -285.5t-191.5 -215t-286 -93.5q-67 -6 -168.5 2.5t-132.5 18.5q-135 60 -215 194.5t-92 305.5zM375 471
q11 -128 78 -201t178 -63q57 4 118.5 26t79.5 43q57 57 41 232q-10 127 -89 195t-195 59q-109 -9 -164.5 -87.5t-46.5 -203.5z" />
    <glyph glyph-name="oacute" unicode="&#xf3;" horiz-adv-x="1226" 
d="M690 1655l240 -174l-361 -332l-147 129zM43 453q-7 95 33 213.5t82 167.5q179 187 415 204q118 8 234 -8t186 -57q28 -16 70 -91t77.5 -177t41.5 -179q12 -153 -53.5 -285.5t-191.5 -215t-286 -93.5q-67 -6 -168.5 2.5t-132.5 18.5q-135 60 -215 194.5t-92 305.5z
M375 471q11 -128 78 -201t178 -63q57 4 118.5 26t79.5 43q57 57 41 232q-10 127 -89 195t-195 59q-109 -9 -164.5 -87.5t-46.5 -203.5z" />
    <glyph glyph-name="ocircumflex" unicode="&#xf4;" horiz-adv-x="1226" 
d="M659 1597l306 -276l-168 -174l-146 125l-135 -142l-237 125zM43 453q-7 95 33 213.5t82 167.5q179 187 415 204q118 8 234 -8t186 -57q28 -16 70 -91t77.5 -177t41.5 -179q12 -153 -53.5 -285.5t-191.5 -215t-286 -93.5q-67 -6 -168.5 2.5t-132.5 18.5
q-135 60 -215 194.5t-92 305.5zM375 471q11 -128 78 -201t178 -63q57 4 118.5 26t79.5 43q57 57 41 232q-10 127 -89 195t-195 59q-109 -9 -164.5 -87.5t-46.5 -203.5z" />
    <glyph glyph-name="otilde" unicode="&#xf5;" horiz-adv-x="1226" 
d="M262 1247q40 103 89.5 154.5t98 55t99.5 -12t98.5 -37.5t89.5 -31.5t78 17t59 98.5l177 -133q-7 -67 -47.5 -116.5t-96.5 -71.5t-121.5 -17.5t-119.5 39.5q-75 42 -118 49t-69.5 -18.5t-46.5 -92.5zM43 453q-7 95 33 213.5t82 167.5q179 187 415 204q118 8 234 -8
t186 -57q28 -16 70 -91t77.5 -177t41.5 -179q12 -153 -53.5 -285.5t-191.5 -215t-286 -93.5q-67 -6 -168.5 2.5t-132.5 18.5q-135 60 -215 194.5t-92 305.5zM375 471q11 -128 78 -201t178 -63q57 4 118.5 26t79.5 43q57 57 41 232q-10 127 -89 195t-195 59
q-109 -9 -164.5 -87.5t-46.5 -203.5z" />
    <glyph glyph-name="odieresis" unicode="&#xf6;" horiz-adv-x="1226" 
d="M862 1194q-85 -4 -138 34t-69 103q-14 66 32.5 136t96.5 75q98 7 157.5 -39.5t45.5 -152.5q0 -49 -39.5 -99.5t-85.5 -56.5zM391 1141q-47 -3 -94.5 36.5t-58.5 82.5q-28 111 29.5 177t148.5 52q55 -4 101 -41t52 -78q5 -105 -41.5 -165.5t-136.5 -63.5zM43 453
q-7 95 33 213.5t82 167.5q179 187 415 204q118 8 234 -8t186 -57q28 -16 70 -91t77.5 -177t41.5 -179q12 -153 -53.5 -285.5t-191.5 -215t-286 -93.5q-67 -6 -168.5 2.5t-132.5 18.5q-135 60 -215 194.5t-92 305.5zM375 471q11 -128 78 -201t178 -63q57 4 118.5 26t79.5 43
q57 57 41 232q-10 127 -89 195t-195 59q-109 -9 -164.5 -87.5t-46.5 -203.5z" />
    <glyph glyph-name="divide" unicode="&#xf7;" horiz-adv-x="1392" 
d="M692 969q-86 -6 -136.5 47t-55.5 131q-4 65 40.5 109t114.5 49q70 4 123 -37.5t58 -96.5q6 -81 -41 -139t-103 -63zM1253 922l17 -283l-1131 -115l15 299zM580 272q-4 95 31.5 150t103.5 67q84 12 134.5 -31t55.5 -104q6 -78 -33 -133t-92 -61q-81 -4 -138 33t-62 79z
" />
    <glyph glyph-name="oslash" unicode="&#xf8;" horiz-adv-x="1226" 
d="M1133 729q44 -122 49 -203q12 -153 -53.5 -285.5t-191.5 -215t-286 -93.5q-67 -6 -168.5 2.5t-132.5 18.5q-56 23 -104 65l-189 -151l-178 135l234 188q-61 122 -70 263q-7 95 33 213.5t82 167.5q179 187 415 204q118 8 234 -8t186 -57q17 -10 37 -39l148 121l157 -164z
M375 471q4 -42 8 -59l379 305q-73 54 -176 45q-109 -9 -164.5 -87.5t-46.5 -203.5zM829 276q57 57 41 232v10l-362 -291q56 -26 123 -20q57 4 118.5 26t79.5 43z" />
    <glyph glyph-name="ugrave" unicode="&#xf9;" horiz-adv-x="1058" 
d="M567 1122l-354 279l258 229l291 -397zM20 944l308 35l47 -596q7 -100 63.5 -156t136.5 -47q52 8 78.5 60.5t18.5 101.5l-47 672l331 16l50 -524q17 -283 -88.5 -416t-348.5 -151q-262 -19 -376 79q-39 30 -78.5 129t-46.5 195z" />
    <glyph glyph-name="uacute" unicode="&#xfa;" horiz-adv-x="1058" 
d="M623 1628l239 -174l-360 -332l-148 129zM20 944l308 35l47 -596q7 -100 63.5 -156t136.5 -47q52 8 78.5 60.5t18.5 101.5l-47 672l331 16l50 -524q17 -283 -88.5 -416t-348.5 -151q-262 -19 -376 79q-39 30 -78.5 129t-46.5 195z" />
    <glyph glyph-name="ucircumflex" unicode="&#xfb;" horiz-adv-x="1058" 
d="M567 1575l307 -277l-169 -174l-144 125l-135 -141l-238 125zM20 944l308 35l47 -596q7 -100 63.5 -156t136.5 -47q52 8 78.5 60.5t18.5 101.5l-47 672l331 16l50 -524q17 -283 -88.5 -416t-348.5 -151q-262 -19 -376 79q-39 30 -78.5 129t-46.5 195z" />
    <glyph glyph-name="udieresis" unicode="&#xfc;" horiz-adv-x="1058" 
d="M780 1169q-84 -4 -136.5 34.5t-68.5 103.5q-16 66 30.5 136t99.5 75q62 4 109 -11.5t74.5 -62t18.5 -119.5q-2 -49 -41.5 -99.5t-85.5 -56.5zM309 1118q-45 -4 -93.5 35.5t-59.5 83.5q-18 73 4.5 129.5t70 81.5t105.5 16q55 -4 100.5 -41t50.5 -77q5 -105 -41.5 -166
t-136.5 -62zM20 944l308 35l47 -596q7 -100 63.5 -156t136.5 -47q52 8 78.5 60.5t18.5 101.5l-47 672l331 16l50 -524q17 -283 -88.5 -416t-348.5 -151q-262 -19 -376 79q-39 30 -78.5 129t-46.5 195z" />
    <glyph glyph-name="yacute" unicode="&#xfd;" horiz-adv-x="1073" 
d="M696 1628l240 -174l-361 -332l-147 129zM670 -211q-37 -66 -99.5 -112t-129.5 -67.5t-140 -29t-132.5 -3t-107.5 16.5l39 275q115 -22 170 14t70 117l-266 1036l344 -12l174 -727l194 682l326 -31q-161 -680 -442 -1159z" />
    <glyph glyph-name="thorn" unicode="&#xfe;" horiz-adv-x="1316" 
d="M8 1425l402 9l26 -510q64 57 155 84.5t277 33.5q61 11 148 -44t155 -140t80 -156q7 -138 -11.5 -259t-54 -206.5t-83.5 -148.5t-98 -96t-99 -39q-153 -7 -240 9.5t-157 60.5l20 -465l-372 -35zM461 373q11 -64 78 -113.5t155 -52.5q134 -16 181 85t36 316
q-9 72 -75.5 137t-128.5 56q-87 -4 -140 -32t-77 -81t-29.5 -131.5t0.5 -183.5z" />
    <glyph glyph-name="ydieresis" unicode="&#xff;" horiz-adv-x="1073" 
d="M852 1169q-85 -4 -137 34t-68 104t30.5 136t98.5 75q62 4 109 -11.5t74.5 -62t17.5 -119.5q0 -49 -39.5 -99.5t-85.5 -56.5zM381 1118q-45 -4 -94 36t-60 83q-14 57 -4 102t36.5 75t65 43.5t81.5 6.5q56 -4 101.5 -40.5t51.5 -77.5q5 -105 -41.5 -166t-136.5 -62z
M670 -211q-37 -66 -99.5 -112t-129.5 -67.5t-140 -29t-132.5 -3t-107.5 16.5l39 275q115 -22 170 14t70 117l-266 1036l344 -12l174 -727l194 682l326 -31q-161 -680 -442 -1159z" />
    <glyph glyph-name="Amacron" unicode="&#x100;" horiz-adv-x="1447" 
d="M1159 1796v-266l-708 74l28 239zM547 1419l446 25l469 -1415l-286 -23l-132 283l-409 -45l-103 -303l-475 -21q234 843 490 1499zM965 524l-166 473l-137 -510z" />
    <glyph glyph-name="amacron" unicode="&#x101;" horiz-adv-x="1230" 
d="M1038 1466l17 -286l-731 -23l26 217zM1200 20l-358 -20l-19 82q-62 -67 -116 -101.5t-127 -41.5q-92 -7 -195.5 14t-144.5 49q-78 67 -123 189.5t-56 269.5q-18 227 97 381.5t336 171.5q163 16 260 -66l-2 66l370 20q8 -105 20.5 -317.5t25.5 -379t32 -317.5zM803 526
q-6 77 -25 130t-43 67q-34 29 -90 40.5t-108 6.5q-51 -4 -87 -31t-51.5 -67t-22 -90.5t0.5 -102.5q11 -110 65 -178.5t142 -75.5q95 -7 161.5 88.5t57.5 212.5z" />
    <glyph glyph-name="Abreve" unicode="&#x102;" horiz-adv-x="1447" 
d="M762 1591q-105 -12 -191.5 88.5t-87.5 237.5l230 4q9 -134 129 -125q28 3 48 46.5t13 94.5l203 15q23 -149 -65 -250t-279 -111zM547 1419l446 25l469 -1415l-286 -23l-132 283l-409 -45l-103 -303l-475 -21q234 843 490 1499zM965 524l-166 473l-137 -510z" />
    <glyph glyph-name="abreve" unicode="&#x103;" horiz-adv-x="1230" 
d="M670 1159q-110 22 -184 84.5t-102 145t-13 174.5l213 -41q-7 -62 14 -98.5t66 -41.5q44 -4 71 26.5t39 98.5l219 -16q-10 -97 -54.5 -178.5t-116.5 -125.5t-152 -28zM1200 20l-358 -20l-19 82q-62 -67 -116 -101.5t-127 -41.5q-92 -7 -195.5 14t-144.5 49
q-78 67 -123 189.5t-56 269.5q-18 227 97 381.5t336 171.5q163 16 260 -66l-2 66l370 20q8 -105 20.5 -317.5t25.5 -379t32 -317.5zM803 526q-6 77 -25 130t-43 67q-34 29 -90 40.5t-108 6.5q-51 -4 -87 -31t-51.5 -67t-22 -90.5t0.5 -102.5q11 -110 65 -178.5t142 -75.5
q95 -7 161.5 88.5t57.5 212.5z" />
    <glyph glyph-name="Aogonek" unicode="&#x104;" horiz-adv-x="1447" 
d="M1274 -172q16 -14 63 2t101 64l-37 -287q-52 -50 -119.5 -64.5t-123.5 2.5t-96.5 56t-45.5 88q-1 59 -0.5 98t18 75t48 70t89.5 82l-127 275l-409 -45l-103 -303l-475 -21q234 843 490 1499l446 25l469 -1415l-71 -6q-65 -45 -101.5 -89.5t-35 -69t19.5 -36.5zM662 487
l303 37l-166 473z" />
    <glyph glyph-name="aogonek" unicode="&#x105;" horiz-adv-x="1230" 
d="M940 -180q13 -6 34.5 -6t58 18.5t71.5 52.5l-35 -288q-54 -50 -121.5 -64t-123.5 3.5t-96.5 56.5t-45.5 88q-2 58 -0.5 97.5t18.5 76t49 70.5t91 81l-17 76q-62 -67 -116 -101.5t-127 -41.5q-92 -7 -195.5 14t-144.5 49q-78 67 -123 189.5t-56 269.5q-18 227 97 381.5
t336 171.5q163 16 260 -66l-2 66l370 20q8 -105 20.5 -317.5t25.5 -379t32 -317.5l-147 -8q-63 -44 -98.5 -88.5t-34 -68.5t19.5 -35zM584 225q95 -7 161.5 88.5t57.5 212.5q-6 77 -25 130t-43 67q-34 29 -90 40.5t-108 6.5q-51 -4 -87 -31t-51.5 -67t-22 -90.5t0.5 -102.5
q11 -110 65 -178.5t142 -75.5z" />
    <glyph glyph-name="Cacute" unicode="&#x106;" horiz-adv-x="1300" 
d="M791 2028l268 -170l-377 -314l-172 139zM57 713q13 140 41.5 238t96.5 167q134 141 295 224t303 69q126 -4 211 -25t151 -71t105.5 -134t62.5 -214l-268 -62q-19 84 -86 142.5t-150 64.5q-50 7 -102.5 -5t-102 -45t-89 -82.5t-64 -123.5t-25.5 -162q-7 -79 18 -154.5
t83.5 -131t138.5 -66.5q156 -11 295 131l280 -297q-119 -134 -248.5 -201.5t-238.5 -58.5q-155 12 -288.5 72.5t-231 160t-148 245.5t-39.5 319z" />
    <glyph glyph-name="cacute" unicode="&#x107;" horiz-adv-x="1015" 
d="M643 1628l238 -174l-361 -332l-147 129zM33 512q19 315 200 440q56 37 185.5 63t236.5 19q102 -8 201.5 -62t147.5 -134q-9 -6 -43.5 -32t-47 -36t-37.5 -30.5t-41.5 -38t-31.5 -37.5q-44 65 -91.5 86t-154.5 18q-77 5 -131 -63.5t-64 -210.5q-9 -116 36.5 -184
t148.5 -77q74 -6 116 14.5t111 86.5l172 -131q-75 -119 -174 -190.5t-201 -71.5q-120 1 -246 39.5t-167 85.5q-72 72 -103.5 196.5t-21.5 249.5z" />
    <glyph glyph-name="Ccaron" unicode="&#x10c;" horiz-adv-x="1300" 
d="M588 2007l186 -149l184 135l166 -181l-370 -272l-316 354zM57 713q13 140 41.5 238t96.5 167q134 141 295 224t303 69q126 -4 211 -25t151 -71t105.5 -134t62.5 -214l-268 -62q-19 84 -86 142.5t-150 64.5q-50 7 -102.5 -5t-102 -45t-89 -82.5t-64 -123.5t-25.5 -162
q-7 -79 18 -154.5t83.5 -131t138.5 -66.5q156 -11 295 131l280 -297q-119 -134 -248.5 -201.5t-238.5 -58.5q-155 12 -288.5 72.5t-231 160t-148 245.5t-39.5 319z" />
    <glyph glyph-name="ccaron" unicode="&#x10d;" horiz-adv-x="1015" 
d="M291 1612l260 -166l174 215l250 -164l-400 -362l-448 301zM33 512q19 315 200 440q56 37 185.5 63t236.5 19q102 -8 201.5 -62t147.5 -134q-9 -6 -43.5 -32t-47 -36t-37.5 -30.5t-41.5 -38t-31.5 -37.5q-44 65 -91.5 86t-154.5 18q-77 5 -131 -63.5t-64 -210.5
q-9 -116 36.5 -184t148.5 -77q74 -6 116 14.5t111 86.5l172 -131q-75 -119 -174 -190.5t-201 -71.5q-120 1 -246 39.5t-167 85.5q-72 72 -103.5 196.5t-21.5 249.5z" />
    <glyph glyph-name="Dcaron" unicode="&#x10e;" horiz-adv-x="1413" 
d="M406 2007l184 -149l184 135l168 -181l-373 -272l-313 354zM485 1468q187 10 329.5 -15t238 -78.5t159 -140.5t95 -191t43.5 -240q12 -159 -38.5 -299.5t-150 -242.5t-245.5 -166.5t-320 -78.5l-438 -32l-113 1450zM756 410q159 30 237.5 149.5t61.5 327.5
q-17 171 -125.5 252t-267.5 65l-173 -6l74 -821z" />
    <glyph glyph-name="dcaron" unicode="&#x10f;" horiz-adv-x="1218" 
d="M1104 1518l115 -1450l-351 -21l-6 80q-65 -64 -125 -94t-155 -37q-109 -7 -227.5 31t-164.5 79q-56 59 -92.5 171.5t-46.5 228.5q-11 169 40.5 304.5t156.5 216t248 91.5q169 12 286 -65l-24 426l-223 -203l-449 303l164 176l260 -168l174 217l250 -164l-156 -141z
M588 289q118 10 181 72t52 133q-1 18 -3 86t-7.5 113t-17.5 67q-64 117 -226 106q-75 -9 -129 -116.5t-45 -231.5q11 -95 67.5 -166.5t127.5 -62.5z" />
    <glyph glyph-name="Dcroat" unicode="&#x110;" horiz-adv-x="1413" 
d="M1350 803q12 -159 -38.5 -299.5t-150 -242.5t-245.5 -166.5t-320 -78.5l-438 -32l-45 573l-84 -6l14 287l47 6l-45 590l440 34q187 10 329.5 -15t238 -78.5t159 -140.5t95 -191t43.5 -240zM756 410q159 30 237.5 149.5t61.5 327.5q-17 171 -125.5 252t-267.5 65l-173 -6
l27 -299l254 33l8 -318l-235 -20l20 -217z" />
    <glyph glyph-name="dcroat" unicode="&#x111;" horiz-adv-x="1218" 
d="M1264 500l-78 -6l33 -426l-351 -21l-6 80q-65 -64 -125 -94t-155 -37q-109 -7 -227.5 31t-164.5 79q-56 59 -92.5 171.5t-46.5 228.5q-11 169 40.5 304.5t156.5 216t248 91.5q169 12 286 -65l-26 444l348 21l61 -781l90 11zM588 289q108 9 170 61.5t65 118.5l-268 -18
l12 223l242 26q-7 44 -16 60q-64 117 -226 106q-75 -9 -129 -116.5t-45 -231.5q11 -95 67.5 -166.5t127.5 -62.5z" />
    <glyph glyph-name="Emacron" unicode="&#x112;" horiz-adv-x="1232" 
d="M913 1841l-2 -266l-708 74l30 239zM1073 1454l21 -254l-551 -49l24 -270l416 12l21 -252l-525 -33l23 -321l651 59l57 -342l-1026 -78l-114 1432z" />
    <glyph glyph-name="emacron" unicode="&#x113;" horiz-adv-x="1122" 
d="M915 1466l19 -286l-731 -23l26 217zM51 551q30 238 168 364t363 109q72 -6 126 -20.5t162 -53.5q82 -43 143 -178.5t48 -290.5l-6 -69l-697 22q9 -93 66.5 -154t132.5 -69q69 -6 117 9t96 61q88 -49 264 -129q-29 -69 -83 -118t-121 -73t-134.5 -32.5t-136.5 -2.5
q-117 9 -215.5 53t-170.5 120t-105 192.5t-17 259.5zM758 614q-4 186 -160 191q-68 6 -129 -38.5t-84 -125.5z" />
    <glyph glyph-name="Edotaccent" unicode="&#x116;" horiz-adv-x="1232" 
d="M651 1565q-91 2 -155 54.5t-70 141.5q-4 59 48 116t106 62q115 6 182 -33.5t74 -90.5q4 -114 -47 -183t-138 -67zM1073 1454l21 -254l-551 -49l24 -270l416 12l21 -252l-525 -33l23 -321l651 59l57 -342l-1026 -78l-114 1432z" />
    <glyph glyph-name="edotaccent" unicode="&#x117;" horiz-adv-x="1122" 
d="M563 1137q-69 -6 -136 48.5t-73 121.5q-4 81 56.5 149t128.5 74q93 4 155.5 -58.5t67.5 -138.5q4 -66 -62 -128.5t-137 -67.5zM51 551q30 238 168 364t363 109q72 -6 126 -20.5t162 -53.5q82 -43 143 -178.5t48 -290.5l-6 -69l-697 22q9 -93 66.5 -154t132.5 -69
q69 -6 117 9t96 61q88 -49 264 -129q-29 -69 -83 -118t-121 -73t-134.5 -32.5t-136.5 -2.5q-117 9 -215.5 53t-170.5 120t-105 192.5t-17 259.5zM758 614q-4 186 -160 191q-68 6 -129 -38.5t-84 -125.5z" />
    <glyph glyph-name="Eogonek" unicode="&#x118;" horiz-adv-x="1232" 
d="M1036 -205q16 -14 63 2t99 64l-35 -287q-54 -50 -121.5 -64.5t-123 2.5t-96 56t-46.5 88q-3 65 0 100t19.5 74.5t48.5 72.5t92 81l-752 -58l-114 1432l1003 96l21 -254l-551 -49l24 -270l416 12l21 -252l-525 -33l23 -321l651 59l57 -342l-43 -4q-71 -47 -111.5 -94
t-39.5 -73t20 -38z" />
    <glyph glyph-name="eogonek" unicode="&#x119;" horiz-adv-x="1122" 
d="M870 950q82 -43 143 -178.5t48 -290.5l-6 -69l-697 22q9 -93 66.5 -154t132.5 -69q69 -6 117 9t96 61q88 -49 264 -129q-32 -78 -98 -130t-138.5 -73.5t-156.5 -24.5q-40 -32 -60 -63t-19 -51t18 -27q7 -6 23 -7t37.5 4t50.5 20.5t57 39.5l-54 -284q-56 -47 -124 -57.5
t-122.5 10t-92.5 61.5t-40 90q1 58 5 91t17.5 68t39.5 62.5t72 61.5q-97 23 -175 73t-133.5 124.5t-79.5 179.5t-10 231q30 238 168 364t363 109q72 -6 126 -20.5t162 -53.5zM385 641l373 -27q-4 186 -160 191q-68 6 -129 -38.5t-84 -125.5z" />
    <glyph glyph-name="Ecaron" unicode="&#x11a;" horiz-adv-x="1232" 
d="M375 2007l184 -149l184 135l168 -181l-372 -272l-314 354zM1073 1454l21 -254l-551 -49l24 -270l416 12l21 -252l-525 -33l23 -321l651 59l57 -342l-1026 -78l-114 1432z" />
    <glyph glyph-name="ecaron" unicode="&#x11b;" horiz-adv-x="1122" 
d="M350 1612l258 -166l176 215l248 -164l-399 -362l-449 301zM51 551q30 238 168 364t363 109q72 -6 126 -20.5t162 -53.5q82 -43 143 -178.5t48 -290.5l-6 -69l-697 22q9 -93 66.5 -154t132.5 -69q69 -6 117 9t96 61q88 -49 264 -129q-29 -69 -83 -118t-121 -73
t-134.5 -32.5t-136.5 -2.5q-117 9 -215.5 53t-170.5 120t-105 192.5t-17 259.5zM758 614q-4 186 -160 191q-68 6 -129 -38.5t-84 -125.5z" />
    <glyph glyph-name="uni0122" unicode="&#x122;" horiz-adv-x="1484" 
d="M66 649q-9 123 20.5 240.5t92.5 215.5t150.5 174.5t199.5 123t235 55.5q132 11 303 -54.5t256 -166.5l-229 -199q-54 54 -152 79t-166 7q-167 -42 -251.5 -159.5t-69.5 -296.5q7 -96 41.5 -171.5t86.5 -120t113.5 -67.5t128.5 -22q109 -6 209.5 66.5t132.5 168.5l-12 70
l-414 -55l19 278l651 51l53 -200q33 -369 -119 -537t-479 -168q-127 -4 -237 14.5t-211 67.5t-174 127t-120.5 200t-57.5 279zM1071 -229l-219 -553l-195 149l109 502z" />
    <glyph glyph-name="uni0123" unicode="&#x123;" horiz-adv-x="1232" 
d="M700 1749l209 -117l-247 -504l-285 113zM354 -145q28 -52 94 -82t132 -21q201 16 215 205l4 33q-108 -69 -256 -53q-105 8 -177.5 32t-129.5 78q-87 84 -126.5 220.5t-29.5 365.5q9 65 55 135t111.5 125t151 87t165.5 24q178 -12 297 -119l14 98l347 -47l-78 -975
q-8 -106 -58.5 -203t-119.5 -159.5t-144 -97t-135 -27.5q-126 -3 -225.5 13.5t-165.5 48.5t-106 63.5t-74 72.5zM412 477q-11 -123 35 -200t145 -84q101 -10 182 40t90 117q10 185 -28 256q-28 49 -81.5 82t-113.5 39q-91 7 -170 -72q-16 -17 -26.5 -36t-16.5 -40.5
t-8.5 -35.5t-4.5 -37t-3 -29z" />
    <glyph glyph-name="Imacron" unicode="&#x12a;" horiz-adv-x="557" 
d="M643 1796l-2 -266l-709 74l29 239zM406 1419q85 -789 112 -1431l-356 -23q-11 224 -56.5 673.5t-56.5 776.5z" />
    <glyph glyph-name="imacron" unicode="&#x12b;" horiz-adv-x="471" 
d="M575 1466l19 -286l-731 -23l26 217zM410 1020l10 -1020h-330l-16 1008z" />
    <glyph glyph-name="Iogonek" unicode="&#x12e;" horiz-adv-x="557" 
d="M264 -213q18 -14 65 1.5t99 64.5l-35 -289q-54 -50 -121.5 -64t-123.5 3.5t-96.5 56.5t-45.5 88q-4 83 4 127t41.5 89t110.5 107q-11 221 -56.5 669.5t-56.5 774.5l357 4q85 -789 112 -1431l-139 -8q-64 -44 -100 -88.5t-34.5 -69t19.5 -35.5z" />
    <glyph glyph-name="iogonek" unicode="&#x12f;" horiz-adv-x="471" 
d="M252 1137q-69 -6 -137 48.5t-72 121.5q-6 81 54 149t128 74q94 4 156.5 -58t69.5 -139q4 -66 -62 -128.5t-137 -67.5zM313 0q-64 -45 -100 -89.5t-34.5 -69t18.5 -36.5q18 -13 64.5 2.5t98.5 63.5l-34 -287q-54 -50 -121.5 -64t-123.5 2.5t-96.5 55.5t-45.5 88
q-3 66 0 100.5t19.5 74t48.5 73t93 82.5l47 4h-57l-16 1008l336 12l10 -1020h-107z" />
    <glyph glyph-name="dotlessi" unicode="&#x131;" horiz-adv-x="471" 
d="M410 1020l10 -1020h-330l-16 1008z" />
    <glyph glyph-name="uni0136" unicode="&#x136;" horiz-adv-x="1372" 
d="M946 -100l-405 628l-72 -49l-47 -403l-352 4l114 1452q302 -14 437 -51l-50 -490l441 475l411 -184l-571 -528l420 -729zM782 -201l-217 -553l-194 152l106 502z" />
    <glyph glyph-name="uni0137" unicode="&#x137;" horiz-adv-x="1077" 
d="M489 432l-55 -84l27 -401l-350 -10l-105 1458l344 12l64 -702l268 387l311 -33l-278 -383l411 -561l-340 -138zM872 -186l-219 -553l-194 151l106 502z" />
    <glyph glyph-name="Lacute" unicode="&#x139;" horiz-adv-x="1069" 
d="M360 2028l271 -170l-377 -314l-172 139zM600 1436l-76 -1151l480 -60l-33 -293l-901 72l75 1452q212 -27 455 -20z" />
    <glyph glyph-name="lacute" unicode="&#x13a;" horiz-adv-x="499" 
d="M406 2068l270 -170l-377 -313l-172 139zM465 1485l-109 -1450l-333 31l114 1454z" />
    <glyph glyph-name="uni013B" unicode="&#x13b;" horiz-adv-x="1069" 
d="M600 1436l-76 -1151l480 -60l-33 -293l-901 72l75 1452q212 -27 455 -20zM653 -233l-219 -553l-194 149l108 502z" />
    <glyph glyph-name="uni013C" unicode="&#x13c;" horiz-adv-x="499" 
d="M465 1485l-109 -1450l-333 31l114 1454zM360 -203l-292 -510l-168 176l176 476z" />
    <glyph glyph-name="Lcaron" unicode="&#x13d;" horiz-adv-x="1069" 
d="M209 2007l184 -149l185 135l167 -181l-372 -272l-314 354zM600 1436l-76 -1151l480 -60l-33 -293l-901 72l75 1452q212 -27 455 -20z" />
    <glyph glyph-name="lcaron" unicode="&#x13e;" horiz-adv-x="499" 
d="M20 2054l259 -168l176 215l247 -162l-399 -364l-448 301zM465 1485l-109 -1450l-333 31l114 1454z" />
    <glyph glyph-name="Lslash" unicode="&#x141;" horiz-adv-x="1069" 
d="M524 285l480 -60l-33 -293l-901 72l20 406l-45 -31l-84 254l148 110l36 713q212 -27 455 -20l-22 -340l139 104l155 -266l-319 -215z" />
    <glyph glyph-name="lslash" unicode="&#x142;" horiz-adv-x="499" 
d="M735 963l-325 -220l-54 -708l-333 31l34 442l-147 -98l-86 254l262 196l51 660l328 -35l-27 -361l142 107z" />
    <glyph glyph-name="Nacute" unicode="&#x143;" horiz-adv-x="1437" 
d="M768 2028l268 -170l-377 -314l-172 139zM172 1466l250 -10l508 -881l71 820l424 -43l-110 -1405q-63 0 -406 -10l-444 964l-72 -905l-352 20z" />
    <glyph glyph-name="nacute" unicode="&#x144;" horiz-adv-x="1107" 
d="M664 1628l239 -174l-360 -332l-148 129zM442 1006l-6 -82q47 40 73.5 54.5t92 23.5t186.5 6q67 -9 134.5 -75t107.5 -161.5t29 -181.5l-49 -649q-87 10 -346 14l47 641q9 75 -23 124.5t-67 55.5q-95 7 -150.5 -34.5t-69.5 -116.5l-49 -621l-321 6l78 1014z" />
    <glyph glyph-name="uni0145" unicode="&#x145;" horiz-adv-x="1437" 
d="M172 1466l250 -10l508 -881l71 820l424 -43l-110 -1405q-63 0 -406 -10l-444 964l-72 -905l-352 20zM874 -201l-219 -553l-194 152l106 502z" />
    <glyph glyph-name="uni0146" unicode="&#x146;" horiz-adv-x="1107" 
d="M442 1006l-6 -82q47 40 73.5 54.5t92 23.5t186.5 6q67 -9 134.5 -75t107.5 -161.5t29 -181.5l-49 -649q-87 10 -346 14l47 641q9 75 -23 124.5t-67 55.5q-95 7 -150.5 -34.5t-69.5 -116.5l-49 -621l-321 6l78 1014zM754 -201l-217 -553l-195 152l107 502z" />
    <glyph glyph-name="Ncaron" unicode="&#x147;" horiz-adv-x="1437" 
d="M522 2007l185 -149l184 135l168 -181l-373 -272l-313 354zM172 1466l250 -10l508 -881l71 820l424 -43l-110 -1405q-63 0 -406 -10l-444 964l-72 -905l-352 20z" />
    <glyph glyph-name="ncaron" unicode="&#x148;" horiz-adv-x="1107" 
d="M328 1612l260 -166l174 215l250 -164l-400 -362l-448 301zM442 1006l-6 -82q47 40 73.5 54.5t92 23.5t186.5 6q67 -9 134.5 -75t107.5 -161.5t29 -181.5l-49 -649q-87 10 -346 14l47 641q9 75 -23 124.5t-67 55.5q-95 7 -150.5 -34.5t-69.5 -116.5l-49 -621l-321 6
l78 1014z" />
    <glyph glyph-name="Eng" unicode="&#x14a;" horiz-adv-x="1439" 
d="M1421 1423l-133 -1443q-13 -113 -80.5 -201.5t-166 -138t-216 -68t-235.5 -2.5l20 256q36 -7 65.5 -7t52 4t40.5 16.5t31 26t23 37.5t16 45.5t11 56t7.5 62t5.5 70.5l-422 785l-55 -875l-340 33l127 1444l193 -13l518 -893l61 850z" />
    <glyph glyph-name="eng" unicode="&#x14b;" horiz-adv-x="1107" 
d="M631 1049q208 0 299.5 -101t91.5 -323v-625h-2q-11 -218 -144.5 -330.5t-398.5 -87.5l17 260q53 -3 87 -1t58 17.5t36 30.5t18.5 56.5t7.5 75t1 106.5v539q0 124 -108 145q-90 24 -141.5 -50.5t-51.5 -185.5v-575h-313v1047l313 -23v-55q66 45 111 62.5t119 17.5z" />
    <glyph glyph-name="Omacron" unicode="&#x14c;" horiz-adv-x="1642" 
d="M1159 1796v-266l-708 74l28 239zM66 616q-8 108 23.5 219.5t85 199.5t118.5 163t124.5 121.5t104.5 64.5q72 2 130 2t91 -0.5t65.5 -3t43 -4t34.5 -5.5t29 -5q169 -17 313.5 -101t238 -225.5t108.5 -314.5q12 -159 -42 -325.5t-118 -245.5q-88 -104 -242.5 -172.5
t-300.5 -79.5q-134 -9 -288 32t-219 82q-71 60 -122 122t-82 115t-51 118t-28.5 117t-15.5 126zM854 295q76 10 149.5 38t104.5 68q101 116 86 306q-9 106 -49.5 197.5t-85.5 117.5q-62 37 -140.5 56t-136.5 12q-59 -8 -114.5 -43t-99 -91.5t-67 -140t-16.5 -178.5
q15 -177 108.5 -267t260.5 -75z" />
    <glyph glyph-name="omacron" unicode="&#x14d;" horiz-adv-x="1226" 
d="M1006 1466l16 -286l-731 -23l28 217zM43 453q-7 95 33 213.5t82 167.5q179 187 415 204q118 8 234 -8t186 -57q28 -16 70 -91t77.5 -177t41.5 -179q12 -153 -53.5 -285.5t-191.5 -215t-286 -93.5q-67 -6 -168.5 2.5t-132.5 18.5q-135 60 -215 194.5t-92 305.5zM375 471
q11 -128 78 -201t178 -63q57 4 118.5 26t79.5 43q57 57 41 232q-10 127 -89 195t-195 59q-109 -9 -164.5 -87.5t-46.5 -203.5z" />
    <glyph glyph-name="Ohungarumlaut" unicode="&#x150;" horiz-adv-x="1642" 
d="M643 2050l225 -145l-254 -351l-172 97zM1051 1997l278 -96l-338 -361l-168 90zM66 616q-8 108 23.5 219.5t85 199.5t118.5 163t124.5 121.5t104.5 64.5q72 2 130 2t91 -0.5t65.5 -3t43 -4t34.5 -5.5t29 -5q169 -17 313.5 -101t238 -225.5t108.5 -314.5
q12 -159 -42 -325.5t-118 -245.5q-88 -104 -242.5 -172.5t-300.5 -79.5q-134 -9 -288 32t-219 82q-71 60 -122 122t-82 115t-51 118t-28.5 117t-15.5 126zM854 295q76 10 149.5 38t104.5 68q101 116 86 306q-9 106 -49.5 197.5t-85.5 117.5q-62 37 -140.5 56t-136.5 12
q-59 -8 -114.5 -43t-99 -91.5t-67 -140t-16.5 -178.5q15 -177 108.5 -267t260.5 -75z" />
    <glyph glyph-name="ohungarumlaut" unicode="&#x151;" horiz-adv-x="1226" 
d="M520 1604l232 -125l-342 -301l-140 151zM940 1552l248 -157l-365 -289l-184 96zM43 453q-7 95 33 213.5t82 167.5q179 187 415 204q118 8 234 -8t186 -57q28 -16 70 -91t77.5 -177t41.5 -179q12 -153 -53.5 -285.5t-191.5 -215t-286 -93.5q-67 -6 -168.5 2.5t-132.5 18.5
q-135 60 -215 194.5t-92 305.5zM375 471q11 -128 78 -201t178 -63q57 4 118.5 26t79.5 43q57 57 41 232q-10 127 -89 195t-195 59q-109 -9 -164.5 -87.5t-46.5 -203.5z" />
    <glyph glyph-name="OE" unicode="&#x152;" horiz-adv-x="2428" 
d="M1761 1202l-39 -297l473 -69l-20 -230l-553 47l-31 -327l695 -60l2 -346l-1028 105l12 155q-109 -78 -225.5 -122.5t-188.5 -34.5q-173 14 -372 75t-248 133q-213 271 -187 621q11 143 83.5 280t170 229t206 143.5t191.5 39.5q256 -10 405.5 -69t252.5 -164l12 166
l1008 -60l-21 -274zM743 432q73 -7 151 18t136.5 67.5t99.5 95.5t48 100q8 73 -15.5 153t-65 141.5t-92.5 105t-96 50.5q-90 8 -172.5 -12.5t-141.5 -61t-96.5 -95t-45.5 -113.5q-13 -105 -3.5 -186.5t56.5 -135.5q28 -35 98 -77.5t139 -49.5z" />
    <glyph glyph-name="oe" unicode="&#x153;" horiz-adv-x="1951" 
d="M1880 395l-672 58q19 -196 201 -211q54 -6 87 11t71 71l241 -189q-44 -69 -115.5 -111t-137.5 -54t-128 -5q-302 19 -438 213q-84 -79 -218 -115.5t-351 -27.5q-65 10 -130 55t-123 123.5t-90.5 206.5t-23.5 282q7 48 38 104.5t88 113t129.5 101t172.5 69.5t207 18
q89 -9 190.5 -70t168.5 -147q45 43 78 68t81.5 49.5t100.5 32t126.5 5t168.5 -21.5q48 -13 101.5 -61.5t97.5 -118.5t68.5 -165.5t14.5 -189.5zM590 313q99 -10 161.5 36t73.5 116q9 175 -42.5 261t-182.5 95q-76 11 -145.5 -40.5t-79.5 -129.5q-10 -142 49.5 -235.5
t165.5 -102.5zM1569 612q-4 47 -10.5 76.5t-21.5 57t-42.5 41.5t-69.5 18q-83 7 -144 -42.5t-85 -131.5z" />
    <glyph glyph-name="Racute" unicode="&#x154;" horiz-adv-x="1376" 
d="M631 2064l268 -170l-377 -313l-172 139zM625 1483q247 21 392.5 -79t162.5 -312q8 -98 -8.5 -164.5t-51.5 -111t-104 -97.5l389 -498l-326 -162l-448 555l-135 -18l47 -586l-387 -22l-115 1452zM555 874q119 20 173 74t48 146q-9 105 -68 142.5t-161 6.5l-137 -37
l30 -358z" />
    <glyph glyph-name="racute" unicode="&#x155;" horiz-adv-x="774" 
d="M426 1630l240 -174l-363 -332l-147 129zM670 805q-117 29 -193 2q-62 -23 -82.5 -79.5t-11.5 -172.5l49 -526l-332 -19l-73 1004l311 30l16 -83q24 54 68 90.5t98 40.5q125 7 217 -41z" />
    <glyph glyph-name="uni0156" unicode="&#x156;" horiz-adv-x="1376" 
d="M625 1483q247 21 392.5 -79t162.5 -312q8 -98 -8.5 -164.5t-51.5 -111t-104 -97.5l389 -498l-326 -162l-448 555l-135 -18l47 -586l-387 -22l-115 1452zM555 874q119 20 173 74t48 146q-9 105 -68 142.5t-161 6.5l-137 -37l30 -358zM1036 -109l-219 -553l-194 152
l108 502z" />
    <glyph glyph-name="uni0157" unicode="&#x157;" horiz-adv-x="774" 
d="M670 805q-117 29 -193 2q-62 -23 -82.5 -79.5t-11.5 -172.5l49 -526l-332 -19l-73 1004l311 30l16 -83q24 54 68 90.5t98 40.5q125 7 217 -41zM420 -201l-219 -553l-195 152l109 502z" />
    <glyph glyph-name="Rcaron" unicode="&#x158;" horiz-adv-x="1376" 
d="M389 2040l186 -150l185 135l168 -180l-373 -272l-313 354zM625 1483q247 21 392.5 -79t162.5 -312q8 -98 -8.5 -164.5t-51.5 -111t-104 -97.5l389 -498l-326 -162l-448 555l-135 -18l47 -586l-387 -22l-115 1452zM555 874q119 20 173 74t48 146q-9 105 -68 142.5
t-161 6.5l-137 -37l30 -358z" />
    <glyph glyph-name="rcaron" unicode="&#x159;" horiz-adv-x="774" 
d="M68 1640l260 -165l174 215l250 -164l-402 -363l-446 301zM670 805q-117 29 -193 2q-62 -23 -82.5 -79.5t-11.5 -172.5l49 -526l-332 -19l-73 1004l311 30l16 -83q24 54 68 90.5t98 40.5q125 7 217 -41z" />
    <glyph glyph-name="Sacute" unicode="&#x15a;" horiz-adv-x="1183" 
d="M692 2028l269 -170l-377 -314l-172 139zM520 -63q-65 4 -127.5 19t-127 46t-116.5 74.5t-93 110t-60 147.5l319 145q7 -47 39 -99t58 -69q55 -33 157 -41q61 -8 121 24t66 85q3 25 -2.5 51t-14.5 39q-40 38 -114 86.5t-154 77.5q-199 68 -282.5 175t-71.5 255
q6 76 24 123t56 80q83 79 220 134t259 46q70 -5 147 -31.5t149.5 -69t128 -108.5t73.5 -141q-63 -28 -347 -113q-11 86 -82 141q-25 21 -49.5 29.5t-62.5 11.5q-61 9 -97 -13t-40 -91q-15 -130 200 -209q163 -60 293 -143q65 -47 107 -153t34 -202q-7 -91 -43 -165
t-93.5 -123.5t-133.5 -81.5t-161.5 -43.5t-178.5 -3.5z" />
    <glyph glyph-name="sacute" unicode="&#x15b;" horiz-adv-x="970" 
d="M608 1628l240 -174l-363 -332l-147 129zM449 -41q-62 4 -114.5 13.5t-106 30t-95.5 50.5t-77.5 77t-57.5 108l295 84q37 -73 70 -99t110 -39q38 -8 78 18.5t43 73.5q2 25 -8 43t-32 30t-44 19.5t-57 18.5t-58 21q-166 58 -240.5 139t-66.5 190q11 145 136.5 227.5
t334.5 67.5q63 -4 141.5 -19t120.5 -38q51 -28 92.5 -88.5t51.5 -110.5l-263 -82q-37 127 -147 137q-53 6 -89.5 -29t-39.5 -77q-3 -37 27.5 -58t126.5 -51q212 -56 287 -138.5t65 -217.5q-12 -158 -135 -238t-348 -63z" />
    <glyph glyph-name="Scedilla" unicode="&#x15e;" horiz-adv-x="1183" 
d="M520 -63q-65 4 -127.5 19t-127 46t-116.5 74.5t-93 110t-60 147.5l319 145q7 -47 39 -99t58 -69q55 -33 157 -41q61 -8 121 24t66 85q3 25 -2.5 51t-14.5 39q-40 38 -114 86.5t-154 77.5q-199 68 -282.5 175t-71.5 255q6 76 24 123t56 80q83 79 220 134t259 46
q70 -5 147 -31.5t149.5 -69t128 -108.5t73.5 -141q-63 -28 -347 -113q-11 86 -82 141q-25 21 -49.5 29.5t-62.5 11.5q-61 9 -97 -13t-40 -91q-15 -130 200 -209q163 -60 293 -143q65 -47 107 -153t34 -202q-7 -91 -43 -165t-93.5 -123.5t-133.5 -81.5t-161.5 -43.5
t-178.5 -3.5zM150 -471q127 43 188.5 131.5t34.5 196.5q130 -57 291 -60q21 -91 -63 -194.5t-204 -147.5z" />
    <glyph glyph-name="scedilla" unicode="&#x15f;" horiz-adv-x="970" 
d="M449 -41q-62 4 -114.5 13.5t-106 30t-95.5 50.5t-77.5 77t-57.5 108l295 84q37 -73 70 -99t110 -39q38 -8 78 18.5t43 73.5q2 25 -8 43t-32 30t-44 19.5t-57 18.5t-58 21q-166 58 -240.5 139t-66.5 190q11 145 136.5 227.5t334.5 67.5q63 -4 141.5 -19t120.5 -38
q51 -28 92.5 -88.5t51.5 -110.5l-263 -82q-37 127 -147 137q-53 6 -89.5 -29t-39.5 -77q-3 -37 27.5 -58t126.5 -51q212 -56 287 -138.5t65 -217.5q-12 -158 -135 -238t-348 -63zM29 -451q127 42 188 130t35 196q127 -53 291 -59q21 -91 -63 -194.5t-204 -147.5z" />
    <glyph glyph-name="Scaron" unicode="&#x160;" horiz-adv-x="1183" 
d="M444 2007l185 -149l184 135l168 -181l-373 -272l-313 354zM520 -63q-65 4 -127.5 19t-127 46t-116.5 74.5t-93 110t-60 147.5l319 145q7 -47 39 -99t58 -69q55 -33 157 -41q61 -8 121 24t66 85q3 25 -2.5 51t-14.5 39q-40 38 -114 86.5t-154 77.5q-199 68 -282.5 175
t-71.5 255q6 76 24 123t56 80q83 79 220 134t259 46q70 -5 147 -31.5t149.5 -69t128 -108.5t73.5 -141q-63 -28 -347 -113q-11 86 -82 141q-25 21 -49.5 29.5t-62.5 11.5q-61 9 -97 -13t-40 -91q-15 -130 200 -209q163 -60 293 -143q65 -47 107 -153t34 -202
q-7 -91 -43 -165t-93.5 -123.5t-133.5 -81.5t-161.5 -43.5t-178.5 -3.5z" />
    <glyph glyph-name="scaron" unicode="&#x161;" horiz-adv-x="970" 
d="M262 1612l258 -166l176 215l248 -164l-399 -362l-449 301zM449 -41q-62 4 -114.5 13.5t-106 30t-95.5 50.5t-77.5 77t-57.5 108l295 84q37 -73 70 -99t110 -39q38 -8 78 18.5t43 73.5q2 25 -8 43t-32 30t-44 19.5t-57 18.5t-58 21q-166 58 -240.5 139t-66.5 190
q11 145 136.5 227.5t334.5 67.5q63 -4 141.5 -19t120.5 -38q51 -28 92.5 -88.5t51.5 -110.5l-263 -82q-37 127 -147 137q-53 6 -89.5 -29t-39.5 -77q-3 -37 27.5 -58t126.5 -51q212 -56 287 -138.5t65 -217.5q-12 -158 -135 -238t-348 -63z" />
    <glyph glyph-name="uni0162" unicode="&#x162;" horiz-adv-x="1167" 
d="M29 1061q-26 194 -29 383q183 26 569.5 50t530.5 38l-17 -332q-112 -13 -323 -10q21 -575 33 -1143l-361 -20l-55 1054zM295 -420q127 42 188 130t35 196q130 -54 291 -60q20 -91 -63.5 -194.5t-202.5 -147.5z" />
    <glyph glyph-name="uni0163" unicode="&#x163;" horiz-adv-x="782" 
d="M221 1378l328 41l-37 -391l223 -22l-20 -277l-228 10l-20 -362q-7 -54 10.5 -86t63.5 -41t125 16l26 -289q-16 -58 -325 -43q-126 12 -183 134t-41 317l33 352l-123 8l19 279l123 -8zM31 -465q127 42 188 130t35 196q130 -54 291 -60q20 -91 -63.5 -194.5t-202.5 -147.5z
" />
    <glyph glyph-name="Tcaron" unicode="&#x164;" horiz-adv-x="1167" 
d="M426 2044l186 -150l183 136l168 -181l-371 -272l-316 354zM29 1061q-26 194 -29 383q183 26 569.5 50t530.5 38l-17 -332q-112 -13 -323 -10q21 -575 33 -1143l-361 -20l-55 1054z" />
    <glyph glyph-name="tcaron" unicode="&#x165;" horiz-adv-x="782" 
d="M76 1993l258 -166l176 215l248 -164l-400 -362l-448 301zM221 1378l328 41l-37 -391l223 -22l-20 -277l-228 10l-20 -362q-7 -54 10.5 -86t63.5 -41t125 16l26 -289q-16 -58 -325 -43q-126 12 -183 134t-41 317l33 352l-123 8l19 279l123 -8z" />
    <glyph glyph-name="Tbar" unicode="&#x166;" horiz-adv-x="1167" 
d="M1083 1200q-112 -13 -323 -10l12 -336l172 23l10 -318l-174 -14l13 -498l-361 -20l-24 485l-205 -16l14 286l174 23l-14 276l-348 -20q-26 194 -29 383q183 26 569.5 50t530.5 38z" />
    <glyph glyph-name="tbar" unicode="&#x167;" horiz-adv-x="782" 
d="M467 377q-7 -54 10.5 -86t63.5 -41t125 16l26 -289q-16 -58 -325 -43q-126 12 -183 134t-41 317l2 23l-155 -11l14 215l162 17l10 108l-123 8l19 279l123 -8l26 362l328 41l-37 -391l223 -22l-20 -277l-228 10l-4 -80l248 25l10 -240l-272 -16z" />
    <glyph glyph-name="Umacron" unicode="&#x16a;" horiz-adv-x="1398" 
d="M981 1833v-266l-709 73l29 238zM250 90q-138 153 -154 373q-48 547 -45 917q203 -19 463 -4l55 -618q1 -93 9 -167.5t20.5 -124.5t30 -86.5t38 -55t44 -30t48 -10.5t50.5 3q75 9 118.5 33.5t64 86t7.5 164.5q-11 96 -29 277.5t-34.5 328.5t-36.5 277l367 31l71 -930
q19 -258 -34 -344q-66 -101 -223.5 -186t-309.5 -97q-158 -12 -299.5 31.5t-220.5 130.5z" />
    <glyph glyph-name="umacron" unicode="&#x16b;" horiz-adv-x="1058" 
d="M874 1466l17 -286l-731 -23l28 217zM20 944l308 35l47 -596q7 -100 63.5 -156t136.5 -47q52 8 78.5 60.5t18.5 101.5l-47 672l331 16l50 -524q17 -283 -88.5 -416t-348.5 -151q-262 -19 -376 79q-39 30 -78.5 129t-46.5 195z" />
    <glyph glyph-name="Uring" unicode="&#x16e;" horiz-adv-x="1398" 
d="M625 1522q-71 18 -124 106.5t-44 190.5q9 113 105.5 172.5t230.5 50.5q75 -9 122.5 -85t40.5 -177q-5 -59 -30 -112.5t-68 -92.5t-102 -54.5t-131 1.5zM702 1698q56 -3 74 63q11 40 -13.5 59.5t-76.5 22.5q-11 2 -29.5 -19t-21.5 -46q-3 -37 15.5 -57t51.5 -23zM250 90
q-138 153 -154 373q-48 547 -45 917q203 -19 463 -4l55 -618q1 -93 9 -167.5t20.5 -124.5t30 -86.5t38 -55t44 -30t48 -10.5t50.5 3q75 9 118.5 33.5t64 86t7.5 164.5q-11 96 -29 277.5t-34.5 328.5t-36.5 277l367 31l71 -930q19 -258 -34 -344q-66 -101 -223.5 -186
t-309.5 -97q-158 -12 -299.5 31.5t-220.5 130.5z" />
    <glyph glyph-name="uring" unicode="&#x16f;" horiz-adv-x="1058" 
d="M514 1137q-90 -3 -175 62t-99 140q-26 157 46.5 251t194.5 102q50 6 126 -23.5t135.5 -79t64.5 -94.5q9 -157 -72 -258t-221 -100zM532 1335q42 2 60.5 13t20 30.5t-0.5 48.5q-2 21 -39.5 46t-68.5 24q-32 -3 -48.5 -30t-13.5 -68q2 -24 30.5 -45.5t59.5 -18.5zM20 944
l308 35l47 -596q7 -100 63.5 -156t136.5 -47q52 8 78.5 60.5t18.5 101.5l-47 672l331 16l50 -524q17 -283 -88.5 -416t-348.5 -151q-262 -19 -376 79q-39 30 -78.5 129t-46.5 195z" />
    <glyph glyph-name="Uhungarumlaut" unicode="&#x170;" horiz-adv-x="1398" 
d="M508 2054l225 -145l-254 -353l-172 99zM918 2001l278 -96l-338 -361l-170 88zM250 90q-138 153 -154 373q-48 547 -45 917q203 -19 463 -4l55 -618q1 -93 9 -167.5t20.5 -124.5t30 -86.5t38 -55t44 -30t48 -10.5t50.5 3q75 9 118.5 33.5t64 86t7.5 164.5
q-11 96 -29 277.5t-34.5 328.5t-36.5 277l367 31l71 -930q19 -258 -34 -344q-66 -101 -223.5 -186t-309.5 -97q-158 -12 -299.5 31.5t-220.5 130.5z" />
    <glyph glyph-name="uhungarumlaut" unicode="&#x171;" horiz-adv-x="1058" 
d="M410 1587l231 -125l-340 -303l-139 154zM829 1534l248 -158l-364 -286l-183 96zM20 944l308 35l47 -596q7 -100 63.5 -156t136.5 -47q52 8 78.5 60.5t18.5 101.5l-47 672l331 16l50 -524q17 -283 -88.5 -416t-348.5 -151q-262 -19 -376 79q-39 30 -78.5 129t-46.5 195z
" />
    <glyph glyph-name="Uogonek" unicode="&#x172;" horiz-adv-x="1398" 
d="M1337 555q19 -258 -34 -344q-51 -77 -161.5 -148t-234.5 -108q-55 -41 -85 -82t-27.5 -62.5t20.5 -31.5q13 -6 34.5 -6t58 18.5t71.5 52.5l-35 -288q-54 -50 -121.5 -64t-123.5 3.5t-96.5 56.5t-45.5 88q-6 107 13.5 162t99.5 124q-130 5 -241.5 48t-178.5 116
q-138 153 -154 373q-48 547 -45 917q203 -19 463 -4l55 -618q1 -93 9 -167.5t20.5 -124.5t30 -86.5t38 -55t44 -30t48 -10.5t50.5 3q75 9 118.5 33.5t64 86t7.5 164.5q-11 96 -29 277.5t-34.5 328.5t-36.5 277l367 31z" />
    <glyph glyph-name="uogonek" unicode="&#x173;" horiz-adv-x="1058" 
d="M705 -41q-61 -43 -94 -86t-31 -66t20 -34q17 -14 64.5 1.5t99.5 63.5l-35 -287q-54 -50 -121.5 -64.5t-123.5 2.5t-96.5 56t-45.5 88q-5 114 16.5 169.5t112.5 131.5q-181 3 -278 84q-39 30 -78.5 129t-46.5 195l-48 602l308 35l47 -596q7 -100 63.5 -156t136.5 -47
q52 8 78.5 60.5t18.5 101.5l-47 672l331 16l50 -524q13 -242 -60 -373t-241 -174z" />
    <glyph glyph-name="Wcircumflex" unicode="&#x174;" horiz-adv-x="2086" 
d="M1079 2013l324 -352l-191 -127l-157 152l-207 -130l-180 154zM424 1380l278 -884l146 872l303 43q16 -47 72.5 -222t105 -310t94.5 -234l166 840l439 -37l-322 -1438q-78 -2 -153.5 -16t-147.5 -21l-322 805l-204 -856l-371 15q-93 208 -181.5 443.5t-188.5 519
t-161 443.5z" />
    <glyph glyph-name="wcircumflex" unicode="&#x175;" horiz-adv-x="1576" 
d="M819 1575l305 -277l-168 -174l-145 125l-135 -141l-238 125zM391 1047l86 -486l201 451l276 -17l168 -512l189 455l272 -20l-379 -984l-256 -6l-157 602l-275 -532l-203 -4q-149 471 -258 1053h336z" />
    <glyph glyph-name="Ycircumflex" unicode="&#x176;" horiz-adv-x="1265" 
d="M635 2062l323 -352l-192 -127l-158 152l-205 -129l-182 151zM-43 1288l393 160l334 -545l217 586l291 -23l-318 -870l50 -619l-418 -45l-49 596q-247 352 -500 760z" />
    <glyph glyph-name="ycircumflex" unicode="&#x177;" horiz-adv-x="1073" 
d="M662 1583l305 -276l-168 -172l-146 125l-135 -142l-237 123zM670 -211q-37 -66 -99.5 -112t-129.5 -67.5t-140 -29t-132.5 -3t-107.5 16.5l39 275q115 -22 170 14t70 117l-266 1036l344 -12l174 -727l194 682l326 -31q-161 -680 -442 -1159z" />
    <glyph glyph-name="Ydieresis" unicode="&#x178;" horiz-adv-x="1265" 
d="M350 1628q-85 4 -138 52t-48 98q6 88 62.5 137t142.5 43q52 -4 95 -48.5t38 -84.5q-4 -91 -53 -147.5t-99 -49.5zM809 1591q-83 4 -130.5 61t-41.5 144q5 52 65 91.5t144 35.5q54 -7 93.5 -64t33.5 -143q-5 -39 -58.5 -84t-105.5 -41zM-43 1288l393 160l334 -545l217 586
l291 -23l-318 -870l50 -619l-418 -45l-49 596q-247 352 -500 760z" />
    <glyph glyph-name="Zacute" unicode="&#x179;" horiz-adv-x="1253" 
d="M780 2028l271 -170l-377 -314l-172 139zM225 1102l-2 362q25 -1 123 -7t130 -8l120 -7.5t130.5 -9t120 -10t130.5 -12t120 -13t128 -15.5l-13 -395l-698 -571l608 -56l47 -448q-520 59 -1161 106l41 504l772 533z" />
    <glyph glyph-name="zacute" unicode="&#x17a;" horiz-adv-x="1032" 
d="M602 1628l238 -174l-361 -332l-147 129zM162 680l-39 264q424 46 788 66l9 -265l-428 -491l489 27l39 -281l-924 -61l10 284l490 473z" />
    <glyph glyph-name="Zdotaccent" unicode="&#x17b;" horiz-adv-x="1253" 
d="M696 1544q-91 3 -155 56.5t-70 142.5q-4 58 48 115t106 63q114 6 181.5 -34.5t74.5 -92.5q4 -113 -47 -181.5t-138 -68.5zM225 1102l-2 362q25 -1 123 -7t130 -8l120 -7.5t130.5 -9t120 -10t130.5 -12t120 -13t128 -15.5l-13 -395l-698 -571l608 -56l47 -448
q-520 59 -1161 106l41 504l772 533z" />
    <glyph glyph-name="zdotaccent" unicode="&#x17c;" horiz-adv-x="1032" 
d="M561 1137q-69 -6 -137 48.5t-72 121.5q-4 81 55.5 149t127.5 74q94 4 156 -58t69 -139q4 -66 -62 -128.5t-137 -67.5zM162 680l-39 264q424 46 788 66l9 -265l-428 -491l489 27l39 -281l-924 -61l10 284l490 473z" />
    <glyph glyph-name="Zcaron" unicode="&#x17d;" horiz-adv-x="1253" 
d="M530 2036l185 -148l184 133l168 -178l-373 -274l-313 356zM225 1102l-2 362q25 -1 123 -7t130 -8l120 -7.5t130.5 -9t120 -10t130.5 -12t120 -13t128 -15.5l-13 -395l-698 -571l608 -56l47 -448q-520 59 -1161 106l41 504l772 533z" />
    <glyph glyph-name="zcaron" unicode="&#x17e;" horiz-adv-x="1032" 
d="M309 1626l258 -166l176 215l248 -164l-399 -362l-449 301zM162 680l-39 264q424 46 788 66l9 -265l-428 -491l489 27l39 -281l-924 -61l10 284l490 473z" />
    <glyph glyph-name="gravecomb" unicode="&#x300;" horiz-adv-x="0" 
d="M-594 1122l-352 279l256 229l291 -397z" />
    <glyph glyph-name="acutecomb" unicode="&#x301;" horiz-adv-x="0" 
d="M-596 1628l238 -174l-361 -332l-147 129z" />
    <glyph glyph-name="uni0302" unicode="&#x302;" horiz-adv-x="0" 
d="M-588 1575l307 -277l-170 -174l-143 125l-135 -141l-238 125z" />
    <glyph glyph-name="tildecomb" unicode="&#x303;" horiz-adv-x="0" 
d="M-1008 1247q40 103 89.5 154.5t98.5 55t100 -12t99 -37.5t90.5 -31.5t78.5 17t59 98.5l174 -133q-7 -66 -47.5 -116t-96.5 -72t-121 -17.5t-118 39.5q-75 42 -118 49t-69.5 -18.5t-46.5 -92.5z" />
    <glyph glyph-name="uni0304" unicode="&#x304;" horiz-adv-x="0" 
d="M-229 1466l16 -286l-731 -23l26 217z" />
    <glyph glyph-name="uni0306" unicode="&#x306;" horiz-adv-x="0" 
d="M-598 1159q-165 33 -244 148t-55 256l211 -41q-7 -63 14.5 -99t67.5 -41q44 -4 70.5 26.5t37.5 98.5l220 -16q-10 -97 -55 -178.5t-116.5 -125.5t-150.5 -28z" />
    <glyph glyph-name="uni0307" unicode="&#x307;" horiz-adv-x="0" 
d="M-645 1137q-69 -6 -137 48.5t-72 121.5q-6 81 54 149t128 74q94 4 156.5 -58t69.5 -139q4 -66 -62 -128.5t-137 -67.5z" />
    <glyph glyph-name="uni0308" unicode="&#x308;" horiz-adv-x="0" 
d="M-369 1169q-84 -4 -136 34.5t-68 103.5q-16 66 30.5 136t98.5 75q46 3 84 -5.5t68 -30t43.5 -61.5t6.5 -96q-2 -49 -40.5 -99.5t-86.5 -56.5zM-840 1118q-45 -4 -93.5 35.5t-59.5 83.5q-18 73 4.5 129.5t70 81.5t105.5 16q55 -4 100.5 -41t50.5 -77q6 -105 -40.5 -166
t-137.5 -62z" />
    <glyph glyph-name="uni030A" unicode="&#x30a;" horiz-adv-x="0" 
d="M-641 1137q-91 -3 -176.5 61.5t-100.5 140.5q-25 158 48 251.5t196 101.5q79 9 198 -60t128 -137q9 -157 -73 -258t-220 -100zM-625 1335q43 2 62 13t20.5 30.5t-0.5 48.5q-2 21 -39.5 46t-68.5 24q-32 -3 -49 -30t-15 -68q3 -24 31 -45.5t59 -18.5z" />
    <glyph glyph-name="uni030B" unicode="&#x30b;" horiz-adv-x="0" 
d="M-795 1587l232 -125l-340 -303l-139 154zM-375 1534l248 -158l-365 -286l-182 96z" />
    <glyph glyph-name="uni030C" unicode="&#x30c;" horiz-adv-x="0" 
d="M-895 1612l260 -166l174 215l250 -164l-401 -362l-447 301z" />
    <glyph glyph-name="uni0312" unicode="&#x312;" horiz-adv-x="0" 
d="M-881 1749l209 -117l-248 -504l-282 113z" />
    <glyph glyph-name="uni0326" unicode="&#x326;" horiz-adv-x="0" 
d="M-377 -201l-219 -553l-195 152l109 502z" />
    <glyph glyph-name="uni0327" unicode="&#x327;" horiz-adv-x="0" 
d="M-1006 -434q127 42 188.5 129.5t35.5 195.5q128 -53 290 -59q21 -91 -62.5 -194.5t-203.5 -147.5z" />
    <glyph glyph-name="uni0328" unicode="&#x328;" horiz-adv-x="0" 
d="M-532 -334q-1 60 0 99.5t18.5 76t49.5 71t93 83.5l238 20q-76 -48 -118.5 -96.5t-41.5 -75t19 -39.5q16 -13 63 2.5t100 63.5l-36 -287q-52 -50 -119.5 -64t-123.5 2.5t-96.5 55.5t-45.5 88z" />
    <glyph glyph-name="uni0335" unicode="&#x335;" horiz-adv-x="0" 
d="M-672 877l8 -318l-749 -63l14 286z" />
    <glyph glyph-name="uni0337" unicode="&#x337;" horiz-adv-x="0" 
d="M-1126 379l-86 254l755 567l156 -266z" />
    <glyph glyph-name="uni0338" unicode="&#x338;" horiz-adv-x="0" 
d="M-1536 -25l-207 170l1512 1332l180 -209z" />
    <glyph glyph-name="pi" unicode="&#x3c0;" horiz-adv-x="1329" 
d="M1139 324q60 -47 168 16l20 -299q-46 -22 -121 -29q-82 -6 -173.5 11t-158.5 57q-39 28 -70 105.5t-38 168.5l-49 570l-203 -11l61 -944l-325 -6l-64 959l-168 -13l-18 303l1227 74l20 -328l-203 -14l46 -536q19 -67 49 -84z" />
    <glyph glyph-name="Wgrave" unicode="&#x1e80;" horiz-adv-x="2086" 
d="M1118 1563l-393 290l287 162l274 -338zM424 1380l278 -884l146 872l303 43q16 -47 72.5 -222t105 -310t94.5 -234l166 840l439 -37l-322 -1438q-78 -2 -153.5 -16t-147.5 -21l-322 805l-204 -856l-371 15q-93 208 -181.5 443.5t-188.5 519t-161 443.5z" />
    <glyph glyph-name="wgrave" unicode="&#x1e81;" horiz-adv-x="1576" 
d="M821 1122l-352 279l256 229l291 -397zM391 1047l86 -486l201 451l276 -17l168 -512l189 455l272 -20l-379 -984l-256 -6l-157 602l-275 -532l-203 -4q-149 471 -258 1053h336z" />
    <glyph glyph-name="Wacute" unicode="&#x1e82;" horiz-adv-x="2086" 
d="M1102 2028l270 -170l-379 -314l-170 139zM424 1380l278 -884l146 872l303 43q16 -47 72.5 -222t105 -310t94.5 -234l166 840l439 -37l-322 -1438q-78 -2 -153.5 -16t-147.5 -21l-322 805l-204 -856l-371 15q-93 208 -181.5 443.5t-188.5 519t-161 443.5z" />
    <glyph glyph-name="wacute" unicode="&#x1e83;" horiz-adv-x="1576" 
d="M868 1628l238 -174l-361 -332l-147 129zM391 1047l86 -486l201 451l276 -17l168 -512l189 455l272 -20l-379 -984l-256 -6l-157 602l-275 -532l-203 -4q-149 471 -258 1053h336z" />
    <glyph glyph-name="Wdieresis" unicode="&#x1e84;" horiz-adv-x="2086" 
d="M819 1563q-87 6 -139 53t-47 98q6 88 62.5 136.5t142.5 43.5q52 -4 95 -48.5t38 -84.5q-4 -91 -53 -147t-99 -51zM1278 1528q-83 5 -130.5 61t-41.5 144q5 52 65 90.5t144 34.5q53 -5 93 -62.5t34 -142.5q-5 -40 -58.5 -85.5t-105.5 -39.5zM424 1380l278 -884l146 872
l303 43q16 -47 72.5 -222t105 -310t94.5 -234l166 840l439 -37l-322 -1438q-78 -2 -153.5 -16t-147.5 -21l-322 805l-204 -856l-371 15q-93 208 -181.5 443.5t-188.5 519t-161 443.5z" />
    <glyph glyph-name="wdieresis" unicode="&#x1e85;" horiz-adv-x="1576" 
d="M1034 1169q-84 -4 -136.5 34.5t-68.5 103.5q-16 66 30.5 136t98.5 75q62 4 109 -11.5t75 -62t19 -119.5q-2 -49 -41.5 -99.5t-85.5 -56.5zM563 1118q-45 -4 -93.5 35.5t-59.5 83.5q-27 110 30.5 175.5t147.5 51.5q56 -4 101.5 -40.5t51.5 -77.5q5 -105 -41.5 -166
t-136.5 -62zM391 1047l86 -486l201 451l276 -17l168 -512l189 455l272 -20l-379 -984l-256 -6l-157 602l-275 -532l-203 -4q-149 471 -258 1053h336z" />
    <glyph glyph-name="Ygrave" unicode="&#x1ef2;" horiz-adv-x="1265" 
d="M623 1563l-392 290l285 162l275 -338zM-43 1288l393 160l334 -545l217 586l291 -23l-318 -870l50 -619l-418 -45l-49 596q-247 352 -500 760z" />
    <glyph glyph-name="ygrave" unicode="&#x1ef3;" horiz-adv-x="1073" 
d="M614 1122l-352 279l256 229l291 -397zM670 -211q-37 -66 -99.5 -112t-129.5 -67.5t-140 -29t-132.5 -3t-107.5 16.5l39 275q115 -22 170 14t70 117l-266 1036l344 -12l174 -727l194 682l326 -31q-161 -680 -442 -1159z" />
    <glyph glyph-name="endash" unicode="&#x2013;" horiz-adv-x="1212" 
d="M1094 588l12 -295l-993 76l-7 325z" />
    <glyph glyph-name="emdash" unicode="&#x2014;" horiz-adv-x="1765" 
d="M1661 754l18 -293l-1556 -150l-2 334z" />
    <glyph glyph-name="quoteleft" unicode="&#x2018;" horiz-adv-x="688" 
d="M354 1550l213 -94l-172 -522l-311 115z" />
    <glyph glyph-name="quoteright" unicode="&#x2019;" horiz-adv-x="532" 
d="M47 985l195 537l282 -113l-278 -510z" />
    <glyph glyph-name="quotesinglbase" unicode="&#x201a;" horiz-adv-x="677" 
d="M598 111l-326 -471l-176 100l189 508z" />
    <glyph glyph-name="quotedblleft" unicode="&#x201c;" horiz-adv-x="1079" 
d="M969 1485l-117 -551l-305 78l192 547zM307 1522l217 -47l-147 -555l-289 104z" />
    <glyph glyph-name="quotedblright" unicode="&#x201d;" horiz-adv-x="1079" 
d="M94 1022l193 534l291 -118l-281 -510zM684 885l-172 92l229 524l293 -104z" />
    <glyph glyph-name="quotedblbase" unicode="&#x201e;" horiz-adv-x="1105" 
d="M88 -193l191 502l284 -127l-278 -510zM682 -330l-193 66l256 512l289 -101z" />
    <glyph glyph-name="bullet" unicode="&#x2022;" horiz-adv-x="1230" 
d="M639 299q-91 0 -176.5 30.5t-144 77t-93.5 103t-35 108.5q0 113 26 209t67 157t90 94.5t98 33.5q247 0 394.5 -89t174.5 -220q29 -116 2 -209t-91.5 -158.5t-147 -101t-164.5 -35.5z" />
    <glyph glyph-name="ellipsis" unicode="&#x2026;" horiz-adv-x="1888" 
d="M764 98q6 101 52.5 158t123.5 53q80 -4 150 -58t65 -101q-4 -109 -60 -165t-147 -67q-75 -10 -132 52t-52 128zM274 23q-44 19 -67 72.5t-6 111.5q19 54 67.5 82.5t87.5 9.5q166 -41 119 -180q-26 -57 -78.5 -84.5t-122.5 -11.5zM1389 78q5 60 58.5 121.5t127.5 56.5
q91 -4 145.5 -79t34.5 -140q-28 -82 -88.5 -124t-144.5 -38q-57 5 -97 65t-36 138z" />
    <glyph glyph-name="perthousand" unicode="&#x2030;" horiz-adv-x="2461" 
d="M485 877q-179 10 -275 123t-85 294q7 65 56.5 128.5t116.5 100t122 29.5q94 -6 172.5 -36.5t126 -74.5t71.5 -95.5t19 -100.5q-5 -90 -35.5 -163.5t-76.5 -119t-101 -68t-111 -17.5zM1155 1483l266 -2l-852 -1430l-260 35q429 737 846 1397zM457 1090q55 -5 91.5 28.5
t39.5 106.5q5 27 -25 66.5t-61 43.5q-67 4 -104 -20t-42 -74q-5 -56 23.5 -101.5t77.5 -49.5zM893 291q4 89 38.5 163.5t82 117t96 63.5t86.5 16q103 -6 180.5 -34t122 -71.5t64 -95.5t14.5 -110q-11 -174 -113.5 -267t-277.5 -81q-74 7 -146 55.5t-113.5 116.5t-33.5 127z
M1673 264q5 82 35.5 149.5t82.5 112.5t123.5 61.5t160.5 -3.5q50 -13 96 -43t87 -79.5t63.5 -128.5t17.5 -175q-12 -87 -104.5 -151.5t-231.5 -53.5q-142 11 -241 103t-89 208zM1122 313q-6 -48 25.5 -71.5t97.5 -28.5q34 -5 66.5 31t36.5 98q5 31 -26.5 64t-78.5 36
q-42 4 -80 -39t-41 -90zM1882 283q-5 -50 24.5 -88.5t75.5 -42.5q48 -4 85 16t42 47q5 73 -14.5 119.5t-60.5 50.5q-54 5 -101 -26.5t-51 -75.5z" />
    <glyph glyph-name="guilsinglleft" unicode="&#x2039;" horiz-adv-x="749" 
d="M494 952l200 -112l-258 -305l207 -338l-223 -119l-340 457z" />
    <glyph glyph-name="guilsinglright" unicode="&#x203a;" horiz-adv-x="749" 
d="M258 94l-184 154l254 289l-215 327l211 109l342 -424z" />
    <glyph glyph-name="Euro" unicode="&#x20ac;" horiz-adv-x="1550" 
d="M1223 827l-1153 -77l55 247l145 13q71 211 269.5 363.5t433.5 172.5q228 16 444 -84l-127 -274q-75 41 -143.5 50t-198.5 1q-78 -9 -139 -59.5t-113 -145.5l566 49zM1051 307q103 5 157.5 31t146.5 99q5 5 8 7t8 6t9 7l148 -269q-52 -90 -199.5 -151.5t-304.5 -69.5
q-137 -12 -295 44t-288.5 165t-180.5 238l-154 -17l46 273l1009 53l-31 -250l-460 -37q61 -64 174.5 -102t206.5 -27z" />
    <glyph glyph-name="uni20BF" unicode="&#x20bf;" horiz-adv-x="1316" 
d="M1227 659q44 -167 26 -298t-101.5 -218t-217.5 -110l-14 -201l-213 -14l-31 198l-103 -6l17 -198l-238 -17l-14 199l-205 -29l-92 1465l182 14l-12 196l233 5l17 -185l98 6v185l195 16l16 -203q188 -29 279.5 -130.5t74.5 -295.5q-1 -23 -5.5 -43t-16.5 -42t-20 -34.5
t-28 -40l-28 -38.5q97 -45 141.5 -85.5t59.5 -95.5zM827 1055q-4 56 -17 89.5t-42 50t-62.5 20.5t-91.5 2l-161 -15l26 -323l187 14q56 8 111.5 61t49.5 101zM713 293q223 34 213 225q-16 137 -297 117l-199 -25l29 -352z" />
    <glyph glyph-name="uni2117" unicode="&#x2117;" horiz-adv-x="1228" 
d="M102 975q11 145 93.5 261t212 176t274.5 48q139 -11 254.5 -92.5t177.5 -209.5t51 -269q-11 -143 -92.5 -260.5t-209.5 -180t-269 -51.5q-147 11 -264.5 92.5t-178 210.5t-49.5 275zM219 965q-8 -114 40 -214t139 -163t204 -72q111 -9 210 39t162.5 139.5t72.5 204.5
q8 110 -40 209t-138 162.5t-199 72.5q-191 15 -322 -116q-116 -104 -129 -262zM709 1229q101 -7 153.5 -60t46.5 -141q-6 -83 -64.5 -127.5t-150.5 -36.5l-116 10l-19 -235l-127 10l47 598zM700 983q81 -6 84 55q3 34 -14 50t-63 20l-111 8l-10 -125z" />
    <glyph glyph-name="uni2120" unicode="&#x2120;" horiz-adv-x="937" 
d="M455 1444l39 4l155 -285l117 305l37 2l98 -430l-80 -6l-51 234l-90 -244l-37 -4l-125 227l-16 -237l-80 -6zM225 979q-45 -3 -88 12t-69 43l55 58q14 -18 43.5 -28.5t56.5 -8.5q31 3 52 21.5t20 41.5q-2 43 -102 60q-124 20 -130 112q-4 58 36 96.5t104 43.5
q83 9 147 -48l-47 -61q-47 38 -94 35q-28 -3 -46.5 -19t-17.5 -37q3 -24 26.5 -34.5t66.5 -18.5q71 -13 102.5 -41.5t36.5 -77.5q4 -64 -37.5 -103.5t-114.5 -45.5z" />
    <glyph glyph-name="trademark" unicode="&#x2122;" horiz-adv-x="933" 
d="M451 1475l47 4l153 -275l105 293l47 4l96 -430l-88 -6l-47 213l-84 -225l-39 -2l-121 209l-14 -220l-84 -12zM41 1358l-6 84l334 24l6 -82l-121 -10l27 -352l-86 -6l-27 350z" />
    <glyph glyph-name="estimated" unicode="&#x212e;" horiz-adv-x="1536" 
d="M825 -41q-211 -16 -378.5 69.5t-265 248t-115.5 376.5q-16 214 55.5 389.5t225 286t364.5 127.5q314 24 517 -165.5t242 -528.5l-1097 -86l37 -492q176 -147 407 -129q335 27 500 367l100 -49q-120 -203 -255 -303t-337 -111zM1124 1229q-183 151 -409 133
q-230 -18 -381 -197l33 -389l788 60z" />
    <glyph glyph-name="arrowleft" unicode="&#x2190;" 
d="M707 506l159 -162l-307 -164l-465 586l586 477l281 -147l-220 -172l930 -95l-37 -360z" />
    <glyph glyph-name="arrowup" unicode="&#x2191;" 
d="M664 877l-201 -215l-164 305l520 557l615 -492l-164 -334l-232 187l78 -862l-375 8z" />
    <glyph glyph-name="arrowright" unicode="&#x2192;" 
d="M141 840l901 80l-219 172l281 276l557 -606l-451 -672l-336 236l191 204l-930 -79z" />
    <glyph glyph-name="arrowdown" unicode="&#x2193;" 
d="M1014 1483l78 -914l200 201l193 -291l-551 -557l-641 492l137 319l258 -186l-78 872z" />
    <glyph glyph-name="arrowboth" unicode="&#x2194;" 
d="M496 1329l233 -194l-143 -232l563 80l-176 170l223 223l512 -565l-434 -657l-264 237l159 203l-606 -51l174 -172l-207 -207l-483 520z" />
    <glyph glyph-name="arrowupdn" unicode="&#x2195;" 
d="M1450 1010l-193 -222l-170 218l-57 -623l232 174l165 -278l-616 -463l-522 530l192 252l174 -223l70 651l-203 -186l-166 247l615 506z" />
    <glyph glyph-name="uni2196" unicode="&#x2196;" 
d="M565 895l31 -274l-336 22l-55 787l868 55l47 -355l-276 -10l735 -551l-279 -282z" />
    <glyph glyph-name="uni2197" unicode="&#x2197;" 
d="M190 459l764 653l-276 8l49 326l766 -55l16 -773l-335 -51l28 277l-735 -682z" />
    <glyph glyph-name="uni2198" unicode="&#x2198;" 
d="M514 1397l653 -764l9 276l370 -78l-86 -811l-885 27l-8 397l275 -32l-623 721z" />
    <glyph glyph-name="uni2199" unicode="&#x2199;" 
d="M868 305l277 31l-8 -309l-871 -99l-28 854l340 62l8 -275l624 721l281 -264z" />
    <glyph glyph-name="uni21C5" unicode="&#x21c5;" 
d="M348 1008l-186 -134l-152 193l543 467l422 -539l-178 -223l-156 217l-78 -1001l-293 20zM1485 1397l-78 -961l186 187l150 -217l-555 -512l-408 526l176 250l127 -215l93 1005z" />
    <glyph glyph-name="uni21C8" unicode="&#x21c8;" horiz-adv-x="1474" 
d="M291 838l-154 -217l-180 251l479 568l264 -248l250 313l473 -479l-123 -293l-172 160l78 -913l-293 -19l-77 926l-107 -137l-115 118l78 -899l-321 -47z" />
    <glyph glyph-name="uni21F5" unicode="&#x21f5;" 
d="M1112 1006l-156 -215l-176 192l410 567l510 -495l-107 -203l-186 158l78 -961l-338 -6zM563 1411l78 -915l156 215l178 -250l-451 -567l-499 495l151 275l186 -187l-79 914z" />
    <glyph glyph-name="uni2206" unicode="&#x2206;" horiz-adv-x="1447" 
d="M604 1477l363 36l510 -1427l-1399 -125q251 804 526 1516zM1094 360l-248 625l-180 -690z" />
    <glyph glyph-name="minus" unicode="&#x2212;" horiz-adv-x="1402" 
d="M1284 827l-16 -301l-1149 80l-13 344z" />
    <glyph glyph-name="notequal" unicode="&#x2260;" horiz-adv-x="1501" 
d="M903 823l-80 -133l586 31l18 -291l-761 -57l-187 -271l-207 113l88 160l-233 -19l-21 267l383 30l107 148l-500 -37l-18 280l627 60l213 270l229 -125l-90 -143l362 43l-20 -287z" />
    <glyph glyph-name="uni24FF" unicode="&#x24ff;" 
d="M930 74q-150 -12 -292 36.5t-250 142t-178.5 229.5t-82.5 290q-15 196 74 375t255 294t365 130q150 12 293 -37t251.5 -142t179 -226.5t81.5 -282.5q13 -152 -36 -296t-142.5 -252t-229 -178.5t-288.5 -82.5zM905 334q79 5 159 60t101 98q37 73 57 173.5t11 194.5
q-7 93 -49 204.5t-70 139.5q-15 17 -21.5 24.5t-22.5 23t-27.5 22.5t-30.5 18.5t-39 16t-45.5 9t-56.5 4t-66 -4.5q-66 -12 -150.5 -96.5t-115.5 -165.5q-28 -62 -37.5 -113t-5.5 -131q9 -100 43.5 -195.5t81.5 -160.5q40 -48 122.5 -87.5t161.5 -33.5zM891 616
q-33 -3 -67.5 13t-49.5 37q-41 66 -49 151q-10 100 12 160q39 99 101 102q31 4 69.5 -13.5t55.5 -37.5q20 -20 41.5 -73.5t27.5 -102.5q6 -57 -35 -162q-11 -28 -40.5 -49t-65.5 -25z" />
    <glyph glyph-name="heart" unicode="&#x2665;" horiz-adv-x="1810" 
d="M1696 895q-10 -94 -87.5 -235t-166.5 -252q-192 -199 -484 -422q-76 52 -225 133.5t-203 126.5q-88 72 -159 142.5t-111.5 118.5t-75 101t-46 75.5t-27.5 57.5q-5 11 -7 15q-44 159 -32 283.5t65.5 214t122 139.5t139.5 59q81 4 148.5 -9t123.5 -45.5t96.5 -66
t92.5 -86.5q130 250 406 297q97 17 195.5 -47t185.5 -178q34 -41 50.5 -164.5t-1.5 -257.5z" />
    <glyph glyph-name="uni267B" unicode="&#x267b;" horiz-adv-x="1888" 
d="M1190 1403q-116 -12 -195 -137l-245 -367l-322 215l131 191q75 132 170 135zM1380 868l-372 35l100 51l-107 238q82 124 138 160q23 9 49.5 14.5t59.5 6t61.5 -15t44.5 -46.5l100 -187l121 47zM520 961l150 -347l-99 70l-149 -215q-151 8 -205 49q-20 13 -39.5 33.5
t-35.5 49t-16 58.5t19 62l111 176l-96 88zM1483 68q46 121 -31 241l-199 387l340 178l109 -204q78 -141 37 -219zM139 532q40 -53 99 -76.5t118 -23.5l441 -37l-31 -383l-231 17q-155 11 -207 80zM922 160l219 319l-11 -123l259 -18q53 -113 63 -159q4 -21 4 -40
q-2 -35 -14.5 -71.5t-44.5 -69t-76 -31.5l-207 17l-12 -142z" />
    <glyph glyph-name="uni2776" unicode="&#x2776;" 
d="M811 -131q-149 12 -281 83t-224 180t-140.5 253.5t-36.5 298.5q15 196 131 359t298 250.5t382 72.5q149 -12 282.5 -83.5t225.5 -180t141 -251.5t37 -292q-15 -204 -130 -368.5t-297 -251t-388 -70.5zM750 150l245 -13l68 957l-205 30q-50 -90 -250 -184l62 -156l133 50
q-36 -351 -53 -684z" />
    <glyph glyph-name="uni2777" unicode="&#x2777;" 
d="M811 23q-149 12 -281 83t-224 180t-140.5 253.5t-36.5 298.5q11 147 82.5 279t181 224.5t253.5 141.5t294 37q149 -12 282.5 -83.5t225.5 -180t141 -251.5t37 -292q-15 -204 -130 -368.5t-297 -251t-388 -70.5zM848 786q-19 -14 -58 -36.5t-73.5 -44t-73 -53t-70.5 -78
t-51 -103.5l-20 -123l645 -63l24 247l-337 17l133 96q59 43 102 81.5t66 64.5t37.5 52.5t19 40.5t8.5 34q9 77 -4 140.5t-38 102.5t-60 68t-64.5 41.5t-56.5 17.5q-123 6 -215 -23t-141 -85q-17 -19 -45 -73.5t-37 -102.5l227 -43q21 88 49.5 117t77.5 20q112 -17 102 -137
q-4 -23 -11 -39t-40 -51t-96 -85z" />
    <glyph glyph-name="uni2778" unicode="&#x2778;" 
d="M930 66q-200 -15 -379 72.5t-293.5 254t-130.5 371.5q-11 147 39 288.5t143.5 249.5t228 179.5t283.5 83.5q201 15 381 -73t294.5 -252.5t129.5 -365.5q13 -152 -36 -295.5t-142.5 -251t-229 -178t-288.5 -83.5zM901 324q75 4 145 27t95 50q41 41 63 117.5t17 147.5
q-6 75 -33.5 117t-83.5 79q52 36 57 64q16 84 13 139q-4 51 -23 99.5t-37 64.5q-45 46 -120.5 72t-153.5 20q-81 -6 -149 -36t-105 -75q-54 -97 -62 -192l37 -14l164 -5q12 79 40 111t87 35q39 5 71 -23.5t35 -72.5q5 -64 -38 -94.5t-152 -34.5l12 -162q125 19 173.5 -9
t54.5 -104q2 -33 -23 -72q-6 -10 -35 -20.5t-59 -13.5q-54 -4 -88 24t-53 90l-201 -35q51 -312 352 -294z" />
    <glyph glyph-name="uni2779" unicode="&#x2779;" 
d="M930 -68q-200 -16 -379 71.5t-293.5 254.5t-130.5 373q-11 146 39 287.5t143.5 249.5t228 179.5t283.5 82.5q150 12 293 -37t251.5 -142.5t179 -227.5t81.5 -284q13 -152 -36 -295t-142.5 -251t-229 -178.5t-288.5 -82.5zM889 385l22 -192l203 26l-12 191l119 22l-23 182
l-108 -10l-52 567l-209 -8l-348 -600l8 -211zM903 586l-155 -11l126 230z" />
    <glyph glyph-name="uni277A" unicode="&#x277a;" 
d="M811 39q-149 12 -281 82.5t-224 179.5t-140.5 254t-36.5 299q11 147 82.5 279t181 223.5t253.5 140.5t294 37q149 -11 282.5 -82t225.5 -179.5t141 -252t37 -293.5q-15 -203 -130 -367t-297 -250.5t-388 -70.5zM717 633l-217 -31q23 -154 114.5 -233t245.5 -78
q25 -5 62.5 3.5t82 32.5t83.5 60.5t67 94.5t33 126q6 70 -19 158t-49 113q-16 22 -74 44.5t-139 26.5q-31 3 -82 -12l47 121q203 -25 357 -19l4 189q-321 0 -518 26l-115 -284l-51 -183l186 -36q45 62 127 55q50 -8 78.5 -53.5t22.5 -116.5q-4 -54 -15 -72
q-14 -24 -55.5 -50.5t-71.5 -22.5q-46 5 -75.5 45.5t-28.5 95.5z" />
    <glyph glyph-name="uni277B" unicode="&#x277b;" 
d="M930 55q-150 -11 -292 38t-250 142.5t-178.5 229t-82.5 289.5q-11 147 39 288.5t143.5 249.5t228 179t283.5 83q150 11 293 -38t251.5 -142t179 -226.5t81.5 -283.5q13 -152 -36 -295.5t-142.5 -251.5t-229 -178.5t-288.5 -83.5zM498 621q6 -81 48 -155.5t107 -111.5
q36 -19 100.5 -37t127.5 -14q156 12 254.5 123t87.5 258q-4 60 -38.5 132t-60.5 91q-41 37 -90.5 59t-115.5 21.5t-132 -31.5q35 71 122.5 138.5t164.5 99.5l-80 131q-77 -22 -140 -54t-106 -66.5t-80.5 -79.5t-63 -83.5t-53.5 -86.5q-12 -21 -18 -31q-51 -86 -34 -303z
M723 592q-21 66 0 117q12 25 49 55t68 33q53 5 121 -39q24 -15 32 -94q6 -60 -26.5 -107t-87.5 -51q-125 -12 -156 86z" />
    <glyph glyph-name="uni277C" unicode="&#x277c;" 
d="M811 -111q-149 12 -281 83t-224 179.5t-140.5 254t-36.5 299.5q11 147 82.5 278.5t181 223.5t253.5 141t294 38q149 -12 282.5 -83t225.5 -179.5t141 -251.5t37 -292q-11 -152 -82 -286.5t-180 -227t-254 -141t-299 -36.5zM590 848l436 -14l-520 -609l209 -100l577 729
l-37 219l-682 31z" />
    <glyph glyph-name="uni277D" unicode="&#x277d;" 
d="M811 72q-149 12 -281 83t-224 180t-140.5 253.5t-36.5 298.5q11 147 82.5 279t181 224.5t253.5 141.5t294 37q149 -12 282.5 -83.5t225.5 -180t141 -251.5t37 -292q-15 -203 -130 -367.5t-297 -251t-388 -71.5zM545 657q-11 -127 45 -200q26 -43 109 -86.5t143 -46.5
q60 -5 128.5 11.5t96.5 33.5q48 35 78 102t37 137q9 134 -84 221q90 68 96 181q5 56 -17.5 122.5t-43.5 94.5q-34 40 -105.5 63t-148.5 21q-56 3 -126 -38t-114 -95q-26 -20 -39 -150q-5 -35 12.5 -82t51.5 -84q-107 -72 -119 -205zM881 930q-33 4 -52.5 30t-21.5 62
q-2 34 25 68t67 34q38 -1 67.5 -35t26.5 -71q-9 -58 -37 -70q-9 -4 -34 -11t-41 -7zM766 684q8 30 40 47.5t77 13.5q44 -3 69 -28q39 -26 31 -82q-2 -19 -10.5 -39t-18.5 -27q-39 -31 -92 -24q-26 3 -56 21t-40 34q-14 32 0 84z" />
    <glyph glyph-name="uni277E" unicode="&#x277e;" 
d="M930 -63q-150 -12 -292 36.5t-250 142t-178.5 229.5t-82.5 290q-11 146 39 287.5t143.5 249.5t228 179.5t283.5 82.5q150 12 293 -37t251.5 -142.5t179 -227.5t81.5 -284q13 -152 -36 -295t-142.5 -250.5t-229 -178t-288.5 -82.5zM1237 874q-6 75 -40 146t-71 92
q-58 34 -137 57t-145 19q-51 -2 -98 -17t-78.5 -34.5t-59.5 -44.5t-41.5 -42.5t-23.5 -33.5q-45 -78 -33 -211q5 -54 27 -120.5t45 -90.5q23 -26 77.5 -48t120 -27.5t123.5 20.5q-11 -27 -27 -52t-37.5 -48.5t-38.5 -40.5t-45.5 -39t-42 -32.5t-45 -32t-38.5 -26.5l104 -96
q89 26 163.5 71t129.5 103.5t91 109.5t71 115q32 57 43 145.5t6 157.5zM1026 852q4 -65 -23 -101t-94 -53q-59 -13 -123 43q-22 20 -32 39t-13 58q-4 42 23 82.5t67 52.5q48 13 90 5t66 -30q32 -29 39 -96z" />
    <glyph glyph-name="uni2B1F" unicode="&#x2b1f;" horiz-adv-x="1781" 
d="M1726 977l-264 -981l-1013 -39l-392 872l779 701z" />
    <glyph glyph-name="uni2B22" unicode="&#x2b22;" horiz-adv-x="1513" 
d="M793 -41l-664 395l-63 727l634 408l703 -322l27 -774z" />
    <glyph glyph-name="uni2BC4" unicode="&#x2bc4;" horiz-adv-x="1705" 
d="M1602 958l-19 -602l-487 -405l-600 47l-406 487l62 615l458 377l600 -19z" />
    <glyph glyph-name="uniF8FF" unicode="&#xf8ff;" horiz-adv-x="1722" 
d="M774 1450q119 0 201 -81.5t82 -201.5q0 -117 -82.5 -199.5t-200.5 -82.5q-117 0 -199.5 82.5t-82.5 199.5q0 119 82 201t200 82zM1624 979q-91 -94 -211 -94q-117 0 -200 82.5t-83 199.5q0 119 82 201t201 82q122 0 211 -92l-76 -64q-52 62 -135 62q-76 0 -130 -56
t-54 -133q0 -75 54 -129.5t130 -54.5q83 0 135 61zM774 983q75 0 131 54.5t56 129.5q0 77 -55.5 133t-131.5 56q-78 0 -131 -55.5t-53 -133.5q0 -75 54 -129.5t130 -54.5zM98 1217h310v-99h-310v99z" />
    <glyph glyph-name="u1F150" unicode="&#x1f150;" 
d="M930 -4q-200 -16 -379 71.5t-293.5 254.5t-130.5 372q-11 147 39 288.5t143.5 249.5t228 179.5t283.5 83.5q150 11 293 -38.5t251.5 -142.5t179 -226.5t81.5 -282.5q13 -152 -36 -296t-142.5 -252t-229 -178.5t-288.5 -82.5zM739 1249q-162 -419 -309 -944l299 12l66 191
l258 29l80 -179l182 15l-295 891zM1001 684l-190 -22l86 321z" />
    <glyph glyph-name="u1F151" unicode="&#x1f151;" 
d="M811 -43q-199 15 -361.5 129.5t-249.5 297t-71 388.5q15 195 131 358t298 250.5t382 71.5q149 -11 282.5 -82t225.5 -179.5t141 -252t37 -293.5q-15 -203 -130 -367t-297 -250.5t-388 -70.5zM899 1174l-264 26q-95 -464 -109 -905l412 -31q151 -11 248.5 56t107.5 192
q4 61 -26.5 114.5t-59.5 75.5q-52 17 -98 23q3 3 22 21.5t27.5 27.5t25.5 28t25.5 32.5t16 30.5t8.5 32q10 114 -88.5 190t-247.5 87zM936 825l-88 13l16 190l92 -14q55 -5 78.5 -28t20.5 -77q-4 -38 -42 -64t-77 -20zM899 422l-125 16l19 217l112 -14q79 -8 119 -31.5
t37 -70.5q-7 -49 -50 -86t-112 -31z" />
    <glyph glyph-name="u1F152" unicode="&#x1f152;" 
d="M930 -37q-200 -16 -379 71.5t-293.5 254.5t-130.5 373q-11 147 39 288.5t143.5 249.5t228 179t283.5 83q150 11 293 -38.5t251.5 -142.5t179 -226.5t81.5 -282.5q13 -152 -36 -296t-142.5 -252t-229 -178.5t-288.5 -82.5zM451 668q10 -142 84.5 -244t186 -146t241.5 -34
q69 5 147 57t147 145l-202 177q-64 -104 -172 -113q-73 -9 -127.5 44t-67.5 130q-10 67 3.5 125t43 95t66 59.5t76.5 27.5q50 4 95 -25.5t60 -74.5l146 49q-34 149 -109.5 197.5t-234.5 42.5q-85 -7 -176.5 -73.5t-159.5 -160.5q-39 -51 -48 -129t1 -149z" />
    <glyph glyph-name="u1F153" unicode="&#x1f153;" 
d="M930 -6q-150 -12 -292 36.5t-250 142t-178.5 229.5t-82.5 290q-11 146 39 287t143.5 249t228 179.5t283.5 83.5q150 12 293 -37t251.5 -142t179 -227t81.5 -284q13 -152 -36 -295t-142.5 -251t-229 -178.5t-288.5 -82.5zM793 1186l-275 -23l70 -905l274 21
q222 19 354 154.5t115 336.5q-8 107 -37.5 184t-90 134t-163 81.5t-247.5 16.5zM961 524l-119 -20l-47 512l106 4q101 9 168.5 -41.5t77.5 -157.5q10 -128 -38.5 -203t-147.5 -94z" />
    <glyph glyph-name="u1F154" unicode="&#x1f154;" 
d="M811 -41q-149 12 -281 82.5t-224 179.5t-140.5 254t-36.5 299q11 147 82.5 279t181 223.5t253.5 140.5t294 37q149 -11 282.5 -82t225.5 -179.5t141 -252t37 -293.5q-15 -203 -130 -367t-297 -250.5t-388 -70.5zM1225 1126l-629 37l-70 -893l641 -49l-12 213l-405 35
l24 201l326 -39l14 157l-260 52l14 170l342 -43z" />
    <glyph glyph-name="u1F155" unicode="&#x1f155;" 
d="M930 -8q-200 -15 -379 72.5t-293.5 254t-130.5 371.5q-11 147 39 288.5t143.5 249.5t228 179.5t283.5 83.5q150 11 293 -38t251.5 -142t179 -226.5t81.5 -283.5q13 -152 -36 -295.5t-142.5 -251.5t-229 -178.5t-288.5 -83.5zM1155 1227l-606 -47l72 -906l241 13l-61 403
l387 31l-12 158l-308 -29l-14 121l313 33q2 91 -12 223z" />
    <glyph glyph-name="u1F156" unicode="&#x1f156;" 
d="M930 -6q-150 -12 -292 36.5t-250 142t-178.5 229.5t-82.5 290q-15 196 74 375t255 294t365 130q150 12 293 -37t251.5 -142t179 -227t81.5 -284q12 -145 -38.5 -287t-144.5 -252t-229 -183t-284 -85zM430 715q5 -96 34 -171t74.5 -122.5t108 -78t130 -41.5t145.5 -9
q201 0 294.5 102.5t73.5 329.5l-35 127l-399 -33l-10 -170l254 33l8 -43q-21 -60 -83 -104.5t-128 -40.5q-89 0 -155 59.5t-74 173.5q-10 111 42.5 183.5t155.5 99.5q42 9 102.5 -6.5t94.5 -47.5l139 123q-52 62 -157.5 101.5t-186.5 33.5q-126 -10 -228.5 -80
t-156.5 -181.5t-43 -237.5z" />
    <glyph glyph-name="u1F157" unicode="&#x1f157;" 
d="M811 -43q-149 12 -281 82.5t-224 179.5t-140.5 254t-36.5 299q15 196 131 359t298 250.5t382 72.5q149 -12 282.5 -83.5t226 -180t141 -252t36.5 -293.5q-15 -203 -130 -367t-297 -250.5t-388 -70.5zM754 1180l-211 12l-90 -901l272 -12l16 403l246 -23l4 -417l230 -9
q43 491 57 902l-231 12l-46 -330l-258 31z" />
    <glyph glyph-name="u1F158" unicode="&#x1f158;" 
d="M930 -8q-150 -12 -292 36.5t-250 142t-178.5 229.5t-82.5 290q-11 146 39 287.5t143.5 249.5t228 179.5t283.5 82.5q150 12 293 -37t251.5 -142t179 -227t81.5 -284q13 -152 -36 -295t-142.5 -251t-229 -178.5t-288.5 -82.5zM954 1198l-223 -4q8 -202 36.5 -482
t35.5 -423l221 12q-18 437 -70 897z" />
    <glyph glyph-name="u1F159" unicode="&#x1f159;" 
d="M811 -39q-149 12 -281 82.5t-224 179.5t-140.5 254t-36.5 299q15 196 131 359t298 250.5t382 72.5q149 -12 282.5 -83.5t226 -180t141 -252t36.5 -293.5q-15 -203 -130 -367t-297 -250.5t-388 -70.5zM729 616l-215 -10q7 -189 71 -266t203 -88q54 -9 101.5 -2.5
t107.5 47.5q31 16 70.5 96t46.5 170l47 582l-231 2l-39 -479q-10 -136 -33 -154q-24 -38 -74 -43q-30 3 -45.5 39t-9.5 106z" />
    <glyph glyph-name="u1F15A" unicode="&#x1f15a;" 
d="M930 -45q-200 -15 -379 72.5t-293.5 254t-130.5 371.5q-11 147 39 288.5t143.5 249.5t228 179.5t283.5 83.5q150 11 293 -38.5t251.5 -142.5t179 -226.5t81.5 -282.5q13 -152 -36 -296t-142.5 -252t-229 -178.5t-288.5 -82.5zM1096 225l198 107l-340 391l293 383l-252 78
l-221 -348l-22 303q-112 16 -271 4l72 -893l217 20l-22 248l30 45z" />
    <glyph glyph-name="u1F15B" unicode="&#x1f15b;" 
d="M930 -4q-150 -12 -292 36.5t-250 142t-178.5 229.5t-82.5 290q-11 146 39 287.5t143.5 249.5t228 179.5t283.5 82.5q150 12 293 -37t251.5 -142t179 -227t81.5 -284q13 -152 -36 -295t-142.5 -251t-229 -178.5t-288.5 -82.5zM850 1200q-154 -17 -287 -12l96 -905l562 45
l-2 182l-301 -27z" />
    <glyph glyph-name="u1F15C" unicode="&#x1f15c;" 
d="M811 -45q-149 12 -281 82.5t-224 179.5t-140.5 254t-36.5 299q11 147 82.5 279t181 223.5t253.5 140.5t294 37q149 -11 282.5 -82t225.5 -179.5t141 -252t37 -293.5q-15 -203 -130 -367t-297 -250.5t-388 -70.5zM1356 1126q-125 6 -250 0l-291 -438l-166 496l-203 6
l-81 -893l221 -25l39 492l178 -399l127 -13l174 412l-14 -526l229 -13q10 494 37 901z" />
    <glyph glyph-name="u1F15D" unicode="&#x1f15d;" 
d="M930 -33q-200 -16 -379 71.5t-293.5 254.5t-130.5 373q-15 195 74 373.5t255 293.5t365 131q150 12 293 -37t251.5 -142t179 -227t81.5 -284q13 -152 -36 -295t-142.5 -251t-229 -178.5t-288.5 -82.5zM461 1147l61 -907l219 12l-45 565l369 -526q174 16 252 20l-74 881
h-264l45 -514l-408 475z" />
    <glyph glyph-name="u1F15E" unicode="&#x1f15e;" 
d="M930 -8q-200 -15 -379 72.5t-293.5 254t-130.5 371.5q-11 147 39 288.5t143.5 249.5t228 179.5t283.5 83.5q150 11 293 -38.5t251.5 -142.5t179 -226.5t81.5 -282.5q13 -152 -36 -296t-142.5 -252t-229 -178.5t-288.5 -82.5zM412 717q5 -58 13.5 -99t27.5 -89.5t55 -94
t90 -92.5q41 -26 137 -51.5t180 -20.5q91 6 187 50t151 110q41 50 75 152.5t26 201.5q-15 165 -132.5 276.5t-279.5 125.5q-4 1 -22 4t-29.5 4t-37 2.5t-64.5 1.5t-93 -2q-36 -12 -85 -55.5t-96.5 -105.5t-78 -148t-24.5 -170zM905 516q-105 -10 -163 45.5t-70 167.5
q-8 117 49.5 195.5t136.5 89.5q37 3 86 -9.5t88 -35.5q28 -15 53 -72t31 -125q9 -116 -53 -190q-19 -25 -66 -43t-92 -23z" />
    <glyph glyph-name="u1F15F" unicode="&#x1f15f;" 
d="M930 -49q-150 -12 -292 36.5t-250 142t-178.5 229.5t-82.5 290q-15 196 74 375t255 294t365 130q150 12 293 -37t251.5 -142t179 -227t81.5 -284q13 -152 -36 -295t-142.5 -251t-229 -178.5t-288.5 -82.5zM913 1153l-362 -29q36 -433 61 -907l244 21l-33 303l166 20
q44 6 109 30.5t84 39.5q41 35 70 114t22 158q-3 56 -30 106.5t-58 75.5q-99 80 -273 68zM954 760l-108 -15l-25 216l111 14q52 7 85 -15.5t36 -66.5q4 -78 -23 -100q-8 -8 -32.5 -20t-43.5 -13z" />
    <glyph glyph-name="u1F160" unicode="&#x1f160;" 
d="M930 -10q-200 -15 -379 72.5t-293.5 254t-130.5 371.5q-11 147 39 288.5t143.5 249.5t228 179.5t283.5 83.5q150 11 293 -38t251.5 -142t179 -226.5t81.5 -283.5q13 -152 -36 -295.5t-142.5 -251.5t-229 -178.5t-288.5 -83.5zM860 305q142 14 219 78q51 -57 81.5 -78.5
t94.5 -44.5q5 -2 60 -0.5t59 0.5l25 178q-98 40 -150 97q44 64 59.5 137.5t6.5 126.5q-8 104 -57.5 201t-127.5 155q-40 25 -137.5 47.5t-171.5 16.5q-119 -10 -219 -77.5t-155 -175t-46 -225.5q9 -80 54 -181t114 -157q47 -34 133 -68.5t158 -29.5zM852 528
q-63 -4 -118 64.5t-64 161.5q-8 56 -1.5 129.5t29.5 101.5q18 28 56.5 54t81.5 30q111 10 164 -61.5t63 -204.5q5 -48 -3.5 -94.5t-31 -88t-68 -67t-108.5 -25.5z" />
    <glyph glyph-name="u1F161" unicode="&#x1f161;" 
d="M930 -41q-200 -16 -379 71.5t-293.5 254.5t-130.5 372q-11 147 39 288.5t143.5 249.5t228 179.5t283.5 83.5q150 11 293 -38.5t251.5 -142.5t179 -226.5t81.5 -282.5q13 -152 -36 -296t-142.5 -252t-229 -178.5t-288.5 -82.5zM868 1180l-370 -29l71 -920l246 15l-29 370
l84 11l287 -351l207 103l-248 315q65 51 88.5 99t16.5 137q-9 136 -102 199t-251 51zM825 793l-73 -23l-19 234l86 24q63 20 101.5 -4.5t44.5 -91.5q1 -28 -6 -48t-29.5 -37t-41.5 -26.5t-63 -27.5z" />
    <glyph glyph-name="u1F162" unicode="&#x1f162;" 
d="M811 -39q-149 12 -281 82.5t-224 179.5t-140.5 254t-36.5 299q15 196 131 359t298 250.5t382 72.5q149 -12 282.5 -83.5t226 -180t141 -252t36.5 -293.5q-15 -203 -130 -367t-297 -250.5t-388 -70.5zM825 248q97 -8 178.5 16t137 86.5t63.5 155.5q4 58 -22 122t-66 95
q-68 46 -182 90q-132 49 -123 129q5 77 84 66q47 -6 70 -27q14 -10 31.5 -33.5t21.5 -54.5q25 8 73 23t82.5 27t57.5 22q-23 89 -118 148.5t-189 68.5q-76 6 -161.5 -28.5t-135.5 -84.5q-24 -21 -35 -49.5t-14 -75.5q-8 -94 43 -159t174 -107q51 -18 96.5 -48t69.5 -55
q16 -19 12 -55q-4 -32 -42 -52t-75 -15q-71 9 -98 26q-14 11 -34.5 43t-25.5 60l-196 -90q14 -62 48.5 -109t81 -74.5t94.5 -42t99 -18.5z" />
    <glyph glyph-name="u1F163" unicode="&#x1f163;" 
d="M930 0q-200 -15 -379 72.5t-293.5 254t-130.5 371.5q-11 147 39 288.5t143.5 249.5t228 179.5t283.5 83.5q150 11 293 -38t251.5 -142t179 -226.5t81.5 -283.5q13 -152 -36 -295.5t-142.5 -251.5t-229 -178.5t-288.5 -83.5zM526 932l215 12l35 -651l221 12
q-7 392 -20 707q122 -3 201 6l10 205q-82 -8 -324 -23t-356 -33q3 -125 18 -235z" />
    <glyph glyph-name="u1F164" unicode="&#x1f164;" 
d="M930 -41q-150 -12 -292 36.5t-250 142t-178.5 229.5t-82.5 290q-11 146 39 287t143.5 249t228 179.5t283.5 83.5q150 11 293 -38t251.5 -142t179 -226.5t81.5 -283.5q13 -152 -36 -295.5t-142.5 -251.5t-229 -178t-288.5 -82zM598 311q47 -52 133 -78t184 -18
q95 7 191 58.5t135 113.5q33 59 21 211l-45 569l-226 -18q13 -80 23.5 -166.5t23 -208t17.5 -166.5q8 -63 -5 -101t-39 -53t-73 -22q-31 -5 -54 2.5t-45 34.5t-33.5 90t-12.5 160l-35 383q-173 -10 -283 0q-2 -195 27 -559q11 -140 96 -232z" />
    <glyph glyph-name="u1F165" unicode="&#x1f165;" 
d="M930 -8q-150 -12 -292 36.5t-250 142t-178.5 229.5t-82.5 290q-11 146 39 287t143.5 249t228 179.5t283.5 83.5q150 11 293 -38t251.5 -142t179 -226.5t81.5 -283.5q13 -152 -36 -295t-142.5 -251t-229 -178.5t-288.5 -82.5zM731 1161l-278 -14l352 -871l272 35
q17 146 66 436t65 443q-125 8 -176 18l-110 -551q-32 96 -108.5 292t-82.5 212z" />
    <glyph glyph-name="u1F166" unicode="&#x1f166;" 
d="M930 0q-200 -16 -379 71t-293.5 253.5t-130.5 371.5q-11 147 39 288.5t143.5 249.5t228 179.5t283.5 83.5q150 11 293 -38t251.5 -142t179 -226.5t81.5 -283.5q13 -152 -36 -295.5t-142.5 -251.5t-229 -178t-288.5 -82zM537 1102l-240 -21q30 -80 86.5 -243.5t104.5 -291
t100 -243.5l200 -6l105 473l176 -444q43 3 82.5 10t79.5 8l170 793l-236 20l-88 -463q-31 73 -87 239t-62 183l-162 -22l-76 -482z" />
    <glyph glyph-name="u1F167" unicode="&#x1f167;" 
d="M930 -49q-200 -15 -379 72.5t-293.5 254t-130.5 371.5q-11 147 39 288.5t143.5 249.5t228 179.5t283.5 83.5q150 11 293 -38t251.5 -142t179 -226.5t81.5 -283.5q13 -152 -36 -295.5t-142.5 -251.5t-229 -178.5t-288.5 -83.5zM461 1087l295 -415l-226 -420l201 -19
l150 273l184 -225q37 17 94 45t95.5 45.5t66.5 25.5l-281 375l179 358l-166 44l-154 -291l-194 260z" />
    <glyph glyph-name="u1F168" unicode="&#x1f168;" 
d="M811 -8q-149 12 -281 83t-224 180t-140.5 253.5t-36.5 298.5q15 196 131 359t298 250.5t382 72.5q149 -12 282.5 -83.5t225.5 -180t141 -251.5t37 -292q-15 -204 -130 -368.5t-297 -251t-388 -70.5zM514 1153q135 -320 231 -520l-30 -369l258 2l31 383l280 496l-182 43
l-187 -334l-155 369z" />
    <glyph glyph-name="u1F169" unicode="&#x1f169;" 
d="M930 -43q-150 -12 -292 36.5t-250 142t-178.5 229.5t-82.5 290q-11 146 39 287t143.5 249t228 179.5t283.5 83.5q150 12 293 -37t251.5 -142t179 -227t81.5 -284q13 -152 -36 -295t-142.5 -251t-229 -178.5t-288.5 -82.5zM575 918l365 30l-371 -397l-10 -305
q437 33 711 47l-53 266l-371 -35l325 422l-8 242q-190 -7 -614 -55z" />
    <glyph glyph-name="u1F53A" unicode="&#x1f53a;" horiz-adv-x="1931" 
d="M1907 109l-1655 -189l596 1550z" />
    <glyph glyph-name="E.ss01" horiz-adv-x="1232" 
d="M1044 1501l50 -252l-637 -49l20 -282l555 26l21 -258l-617 -70l17 -294l700 59l57 -299l-1067 -109l-114 1485z" />
    <glyph glyph-name="F.ss01" horiz-adv-x="1159" 
d="M1065 1477l20 -359l-577 -59l22 -219l478 53l20 -246l-530 -88l59 -590l-387 -20q-94 651 -104 1423z" />
    <glyph glyph-name="M.ss01" horiz-adv-x="1695" 
d="M1532 1479l131 -1454l-354 -23l-49 961l-289 -908l-195 -16l-379 743l66 -839l-332 -33l-102 1440l413 22l387 -729l234 819q114 12 469 17z" />
    <glyph glyph-name="OE.ss01" horiz-adv-x="2428" 
d="M1642 1204l9 -256l448 27l21 -252l-488 -70l33 -293l694 60l33 -336l-1020 -117l-12 174q-88 -88 -210.5 -156t-199.5 -81q-290 -10 -426.5 11.5t-208.5 84.5q-137 141 -195 325t-69 470q-10 65 8.5 143t59.5 153t95.5 140.5t121 112t131.5 61.5q502 93 805 -135l6 184
l1010 82l18 -274zM821 281q77 9 134 35t103 77.5t66.5 141.5t12.5 215q-7 70 -48 131.5t-96 99.5t-115 56.5t-106 9.5q-72 -6 -130.5 -30t-96 -60t-61.5 -81t-31.5 -92.5t-1.5 -95.5q10 -127 31 -191t79 -106q5 -3 31.5 -21t49.5 -31.5t54.5 -29t63.5 -23t61 -5.5z" />
    <glyph glyph-name="R.ss02" horiz-adv-x="1376" 
d="M635 1444q87 -8 145.5 -16t137 -25t137 -47.5t96.5 -73.5q88 -105 74 -268q-11 -136 -99 -246t-243 -154l403 -514l-368 -196l-373 643l-66 -37l-47 -508l-401 23l104 1462zM616 850q55 -10 112.5 20t80.5 95q9 24 12 39t0.5 36.5t-16.5 40.5q-34 55 -67 74t-95 25
l-141 24l-29 -330z" />
    <glyph glyph-name="a.ss01" horiz-adv-x="1230" 
d="M1122 2h-319l-17 111q-52 -64 -132.5 -100t-157.5 -29q-100 8 -194 52.5t-159 121.5q-32 42 -48 184t-7 358q8 56 28.5 108t59.5 101.5t93 84.5t133.5 53.5t175.5 11.5q176 -18 256 -109l28 90l340 -45zM834 426q4 123 -5 207t-28 106q-29 32 -94 50t-125 22
q-54 7 -92 -28t-56 -90t-26 -130q-9 -108 26.5 -189t104.5 -106q66 -21 129 -1t111 66.5t55 92.5z" />
    <glyph glyph-name="g.ss01" horiz-adv-x="1232" 
d="M412 -182q155 -61 235 -39q35 11 67.5 30t65.5 51.5t50.5 85t13.5 117.5l-2 39q-48 -61 -114.5 -103t-125.5 -48q-98 -8 -217.5 19t-167.5 71q-77 74 -126 194t-58 244q-9 115 21 220t89.5 182.5t145 127t184.5 58.5q93 6 161 -12t138 -62l-6 60l360 39l70 -981
q15 -271 -122 -426.5t-388 -176.5q-121 -10 -206.5 5.5t-170.5 62.5zM362 502q10 -133 83.5 -213.5t162.5 -71.5q70 11 142.5 91t62.5 149q-21 260 -43 284q-33 45 -102 68.5t-107 17.5q-53 -6 -101 -36.5t-77 -83.5q-10 -22 -17.5 -87.5t-3.5 -117.5z" />
    <glyph glyph-name="t.ss01" horiz-adv-x="782" 
d="M123 1417l297 37l31 -377l235 17l21 -265l-244 -26l39 -365q6 -40 21.5 -67.5t44 -44t75 -14t109.5 23.5l32 -270q-8 -11 -35 -24t-87.5 -22.5t-133.5 -1.5q-74 5 -131 36.5t-87.5 66t-54 101t-30.5 99.5t-18 104q-1 7 -2 11l-39 316l-123 -9l-18 304l122 8z" />
    <glyph glyph-name="y.ss01" horiz-adv-x="1073" 
d="M829 35q-29 -77 -69 -143t-85.5 -113t-95.5 -84t-101 -60t-100.5 -38t-96.5 -20.5t-85 -5t-69 6.5l4 270q129 -3 200 59.5t72 180.5l-383 916l349 18l223 -559q13 54 24 110t19.5 124t13 108t12.5 125.5t11 113.5l325 21q-58 -584 -168 -1030z" />
    <glyph glyph-name="a.ss02" horiz-adv-x="1230" 
d="M1186 35l-336 -49l-6 123q-21 -53 -69.5 -91.5t-100.5 -56t-109 -22.5q-192 -15 -325 63q-151 91 -179 459q-9 76 9.5 168.5t58 177t107.5 145.5t149 70q142 9 222.5 -7t140.5 -67l-3 66l349 35q5 -67 18.5 -303.5t29.5 -392t44 -318.5zM760 526q-6 81 -25.5 147
t-42.5 79q-68 57 -174 47q-67 -6 -112 -57.5t-61.5 -120.5t-10.5 -142q11 -116 65 -189.5t142 -64.5q97 9 162.5 98t56.5 203z" />
    <glyph glyph-name="n.ss02" horiz-adv-x="1107" 
d="M373 1010l6 -86q145 96 409 84q153 -13 221 -126t50 -292l-49 -649q-155 18 -303 20l47 604q9 81 -36 128t-124 52q-77 7 -128 -34.5t-65 -114.5l-57 -608l-293 30l58 1020z" />
    <glyph glyph-name="r.ss02" horiz-adv-x="774" 
d="M692 821q-135 19 -200 -18q-61 -33 -79.5 -90t-15.5 -176l23 -521l-320 -6l-73 1018l282 16l17 -83q59 133 198 141q89 8 195 -35z" />
    <glyph glyph-name="t.ss02" horiz-adv-x="782" 
d="M221 1399l342 20l-37 -405l209 -23l-20 -297l-209 17l-25 -334q-11 -82 33.5 -113t151.5 2l26 -286q-14 -27 -101.5 -45.5t-189.5 -4.5q-145 25 -203.5 141.5t-47.5 313.5l26 338l-123 8l19 307l123 -8z" />
    <glyph glyph-name="T_T.dlig" horiz-adv-x="1708" 
d="M1401 37l-385 -33q-23 579 -103 1462l707 54l20 -312l-333 -14zM-6 979q-24 214 -21 412q26 1 295.5 13t405.5 23l96 -1443l-348 -11l-80 1024z" />
    <glyph glyph-name="c_k.dlig" horiz-adv-x="2121" 
d="M1473 358l-64 -43l-37 -317l-323 33l94 1007q6 40 4.5 75t-11.5 61.5t-38.5 43.5t-75.5 21q-17 3 -38.5 -5.5t-41 -30t-29 -52.5t3.5 -81t52 -109l10 -11l-166 -219q-66 67 -101.5 85t-111.5 24q-36 5 -73.5 -12.5t-70.5 -55t-56 -104.5t-27 -152q-9 -74 56 -137t161 -72
q60 -6 105 8.5t93 53.5l148 -195q-88 -63 -150.5 -92t-144 -41.5t-207.5 -7.5q-67 9 -139 58.5t-130.5 124t-92.5 178.5t-25 210q9 117 46 208t106.5 159.5t182 101t261.5 23.5l31 -2q-14 58 -7 112.5t27 102.5t64 86.5t104 64t147.5 36t194.5 1.5q43 -8 87.5 -32t88.5 -68
t69 -119t19 -168l-28 -422l317 338l324 -86l-373 -348l313 -576l-319 -108z" />
    <glyph glyph-name="c_l.dlig" horiz-adv-x="1552" 
d="M1055 1501q61 7 124.5 -14.5t118.5 -67t91.5 -123t40.5 -172.5l98 -1095l-334 -6l-78 981q-4 41 -8.5 68.5t-14.5 59.5t-23.5 50.5t-36.5 30t-54 8.5q-35 -3 -70.5 -26.5t-56.5 -56.5t-13.5 -74t50.5 -73l57 -67l-155 -213q-47 39 -69.5 54t-63 25.5t-95.5 6.5
q-62 -7 -101.5 -55t-51 -110t-4.5 -128q9 -135 63.5 -193t146.5 -47q116 11 207 129l217 -166q-82 -118 -205.5 -193.5t-289.5 -82.5q-71 -9 -150.5 24.5t-147 96.5t-116 160t-57.5 204q-12 151 35.5 283.5t151 220.5t243.5 100l96 2q-63 170 64.5 306t390.5 153z" />
    <glyph glyph-name="c_t.dlig" horiz-adv-x="1798" 
d="M1704 -10q-63 -27 -110 -34.5t-216 -16.5q-72 5 -132 54t-90.5 125t-20.5 156l34 480h-110l18 256l111 -11q3 51 -2.5 92.5t-22.5 76.5t-53 52t-88 11q-15 0 -34.5 -10.5t-37 -34t-26.5 -55.5t1.5 -81.5t43.5 -105.5l8 -8l-113 -229q-84 67 -123.5 85.5t-119.5 24.5
q-230 17 -252 -246q-9 -126 29.5 -189.5t127.5 -72.5q134 -12 258 88l162 -180q-124 -112 -211 -157.5t-178 -41.5q-132 4 -237.5 57.5t-171.5 141.5t-98 203.5t-23 245.5q9 93 57.5 178.5t119.5 145.5t164.5 89.5t186.5 14.5l94 -13q-24 70 -15 135t51 120t100.5 94.5
t132.5 59.5t147 13q74 -4 133.5 -19.5t102.5 -38.5t77 -59.5t56 -74t39 -91.5t27 -103t20 -116l213 -26l-19 -258l-215 2l-29 -336q-10 -111 35.5 -138.5t139.5 25.5z" />
    <glyph glyph-name="s_t.dlig" horiz-adv-x="1753" 
d="M1765 111q-46 -36 -100 -55t-156 -23q-71 -8 -149.5 32.5t-134.5 115t-64 155.5l-18 442l-109 -8l-14 270l110 9q-9 92 -65 138.5t-156 37.5q-29 -3 -59 -26.5t-49 -60.5t-4.5 -93t69.5 -115l-131 -201q-65 42 -114 56t-113 8q-40 -7 -72.5 -35t-29.5 -64
q1 -14 4.5 -22.5t17.5 -17.5t32.5 -15t57.5 -14t84.5 -15t122.5 -18q41 0 82 -17t80 -53.5t65.5 -104t30.5 -157.5q6 -48 -21 -97.5t-83.5 -94t-155 -77t-223.5 -40.5q-36 -4 -67.5 -4t-74 3.5t-79.5 17t-74 36t-67.5 62t-51.5 92.5l233 112q37 -59 73.5 -78t99.5 -12
q62 6 105.5 46t39.5 89q-2 31 -20.5 46t-40 17.5t-69 5t-79.5 7.5q-336 74 -350 279q-10 137 80.5 241.5t216.5 120.5q64 1 106.5 -1t62.5 -4.5t27 -2.5q-21 69 -15.5 136t38 129t78 110.5t105.5 79t122 34.5q256 5 372.5 -89.5t139.5 -327.5l229 -9l21 -239l-221 -41
l30 -301q7 -75 33.5 -115.5t75.5 -44.5t121 43z" />
    <glyph glyph-name="f_f.liga.ss01" horiz-adv-x="1429" 
d="M1331 1268q-124 13 -167 -21.5t-31 -107.5l2 -72l233 18l18 -239l-231 -19l76 -788l-359 -4l-61 772l-336 -51l74 -758l-334 -47l-61 756l-107 -9l-20 263l108 8l-6 188q-9 75 23.5 140.5t104 111.5t180 62.5t251.5 -7.5l-47 -241q-112 2 -155 -25t-27 -106l12 -80
l322 35l-7 122q-12 130 60.5 219t200.5 122t286 10z" />
    <glyph glyph-name="f_t.liga.ss01" horiz-adv-x="1515" 
d="M1407 4q-53 -31 -124 -46.5t-214 -12.5q-101 15 -169.5 128.5t-55.5 291.5l33 421l-396 19l-47 -754l-334 8l62 738l-107 10l19 287l106 -9l2 138q7 75 61 141.5t137 105t186.5 44.5t209.5 -41l-37 -246q-56 15 -94.5 18t-64 -4t-41 -27t-23 -46t-12.5 -68l-4 -35
l397 -39l25 334l325 -21l-24 -331l213 -19l-19 -241l-215 -13l-26 -299q-8 -99 13.5 -143t67 -45t111.5 10z" />
    <glyph glyph-name="t_f.liga.ss01" horiz-adv-x="1486" 
d="M1391 1278q-133 1 -169.5 -33t-25.5 -143l4 -35l225 20l19 -241l-225 -35l65 -748l-342 -43l-61 789l-396 -41l31 -369q10 -110 73.5 -143.5t158.5 14.5l69 -219q-39 -30 -97.5 -51.5t-111.5 -26.5q-207 -12 -306 75t-114 278l-32 422l-111 -9l-18 240l125 8l-41 332
l331 39l25 -336l395 51l-6 119q-9 75 31 146.5t115 119t176 66t213 -12.5v-233z" />
    <glyph glyph-name="comma.ss03" horiz-adv-x="602" 
d="M465 186q36 -63 38.5 -140.5t-24.5 -151.5t-81.5 -142t-127.5 -114l-164 79q61 24 99.5 68t50.5 84t10 76q-62 0 -109.5 44t-52.5 99q-4 59 55 127.5t117 73.5q38 3 96 -28.5t93 -74.5z" />
    <glyph glyph-name="semicolon.ss03" horiz-adv-x="598" 
d="M131 848q-9 14 -9 41t8.5 55.5t30 54t50.5 35.5q71 16 126.5 -27.5t59.5 -88.5q-6 -130 -129 -168q-34 -19 -76 10.5t-61 87.5zM494 250q37 -65 39 -145t-25.5 -156t-83.5 -145.5t-131 -116.5l-168 82q62 24 101.5 69t51.5 85.5t11 78.5q-65 0 -113.5 45t-54.5 103
q-3 60 58.5 131t121.5 75q38 3 97 -30t96 -76z" />
    <glyph glyph-name="quotesinglbase.ss03" horiz-adv-x="677" 
d="M502 150q30 -70 23 -145.5t-41 -144t-101.5 -128.5t-159.5 -99l-153 107q91 18 141 75.5t57 114.5q-65 9 -104 63.5t-35 127.5q3 26 36.5 62t87.5 63.5t105 25.5q64 -8 144 -122z" />
    <glyph glyph-name="quotedblbase.ss03" horiz-adv-x="1105" 
d="M530 190q29 -70 18 -147.5t-48.5 -147.5t-102 -129t-143.5 -92l-154 107q91 18 141.5 76t57.5 116q-63 7 -103.5 57t-35.5 107q5 59 72 119.5t122 56.5q40 -3 93.5 -40t82.5 -83zM1008 182q46 -143 -26 -290.5t-218 -231.5l-180 74q87 40 135 99t53 112q-64 7 -103 61.5
t-36 130.5q6 39 72 95.5t110 52.5q72 -3 123.5 -31t69.5 -72z" />
    <glyph glyph-name="quotedblleft.ss03" horiz-adv-x="1079" 
d="M309 1229q54 -12 93 -63t36 -105q-6 -56 -57 -97t-92 -36q-63 3 -112 24.5t-66 55.5q-35 62 -35 143t31.5 157.5t104.5 139t173 84.5l141 -107q-106 -21 -164 -75t-53 -121zM764 1210q49 -13 77 -64.5t23 -96.5q-4 -73 -50 -117t-107 -39q-133 10 -162 63
q-28 49 -32.5 111t13.5 126t53 123t90.5 108.5t121.5 76.5l178 -84q-51 -10 -91 -35.5t-63 -56.5t-36 -60.5t-15 -54.5z" />
    <glyph glyph-name="quotedblright.ss03" horiz-adv-x="1079" 
d="M549 1446q12 -41 14 -94t-13.5 -117t-47 -121.5t-93 -107t-145.5 -74.5l-117 133q182 63 191 158q-43 6 -74 27.5t-45.5 52t-20 61.5t-3.5 61q5 62 59.5 101t148.5 33q33 -2 53.5 -9t46 -32.5t46.5 -71.5zM971 1444q34 -61 33.5 -143t-32.5 -160.5t-103 -143.5t-167 -90
l-143 127q100 19 148 61t53 95q-51 13 -82.5 68.5t-26.5 113.5q5 61 52.5 110.5t105.5 45.5q44 -3 94 -27.5t68 -56.5z" />
    <glyph glyph-name="quoteleft.ss03" horiz-adv-x="688" 
d="M362 1214q55 -14 94.5 -55.5t35.5 -85.5q-5 -72 -57.5 -122t-133.5 -46q-107 8 -178 131q-15 36 -15.5 83.5t23 105t58.5 110.5t91 100t121 74l164 -82q-66 -12 -113.5 -53.5t-66 -81.5t-23.5 -78z" />
    <glyph glyph-name="quoteright.ss03" horiz-adv-x="532" 
d="M475 1436q17 -49 17 -108.5t-20 -127t-77 -136t-145 -120.5l-113 86q62 27 97 79.5t32 102.5q-52 6 -96 66t-49 119q-4 59 42 105.5t107 51.5q30 2 69.5 -7.5t80.5 -39t55 -71.5z" />
    <glyph glyph-name="gravecomb.case" horiz-adv-x="0" 
d="M-528 1563l-392 290l285 162l275 -338z" />
    <glyph glyph-name="acutecomb.case" horiz-adv-x="0" 
d="M-446 2028l268 -170l-377 -314l-172 139z" />
    <glyph glyph-name="tildecomb.case" horiz-adv-x="0" 
d="M-944 1686q29 89 85 137t126 49t151 -35q44 -21 75.5 -29.5t62 -5t55 26t45.5 65.5l154 -92q-37 -95 -101 -158.5t-144.5 -77.5t-166.5 48q-52 37 -94 46.5t-75 -15t-48 -86.5z" />
    <glyph glyph-name="amcaron.ss02" horiz-adv-x="1474" 
 />
    <glyph glyph-name="A.ss01" horiz-adv-x="1447" 
d="M557 1487l490 -10q117 -413 321 -1497l-412 6l-77 317l-328 45l-107 -282l-467 22q77 176 177 445t197.5 509.5t205.5 444.5zM870 545l-118 557l-170 -514z" />
    <glyph glyph-name="B.ss01" horiz-adv-x="1316" 
d="M608 1434q156 -12 264 -47t169.5 -92.5t85.5 -132t16 -173.5q-6 -75 -67 -162t-132 -112q21 -4 55 -15.5t75.5 -31.5t77.5 -51t50 -66q22 -51 28 -95t-1 -130q-7 -101 -63 -175t-146 -114t-198.5 -55t-231.5 -5l-551 48l90 1460zM647 846q63 -9 123 33t66 102
q7 86 -31 123t-125 45l-182 22l-27 -305zM662 225q82 -17 131.5 38.5t58.5 137.5q7 77 -38.5 119.5t-141.5 54.5l-172 23l-45 -330z" />
    <glyph glyph-name="C.ss01" horiz-adv-x="1300" 
d="M78 573q-19 128 -23.5 206t9 149.5t42 127t84.5 136.5q71 118 244.5 211t341.5 108q119 5 188.5 -6t138.5 -53.5t154 -132.5l-227 -264q-176 107 -307 59q-319 -104 -281 -432q15 -136 125.5 -230t272.5 -100q64 -3 128 40.5t146 131.5l227 -174q-38 -74 -71 -122.5
t-79 -92.5t-102.5 -68.5t-134.5 -40t-182 -18.5q-67 -10 -151 9t-171 67.5t-163 116.5t-133 165.5t-76 206.5z" />
    <glyph glyph-name="D.ss01" horiz-adv-x="1413" 
d="M698 1452q155 -19 275.5 -86t179.5 -147q58 -58 133.5 -247.5t67.5 -305.5q-11 -152 -82 -306t-135 -192q-125 -79 -278.5 -126.5t-299.5 -39.5l-518 16l113 1483zM569 377q194 22 289.5 100.5t112.5 241.5q34 334 -336 371l-148 12l-47 -735z" />
    <glyph glyph-name="G.ss01" horiz-adv-x="1484" 
d="M59 625q24 526 288.5 730.5t776.5 121.5q68 -15 150.5 -105t142.5 -211l-317 -74q-47 63 -105.5 79.5t-152.5 2.5q-148 -9 -246 -113t-113 -282q-14 -188 68 -307.5t201 -134.5q233 -18 323 102l25 96l-264 41l10 295l581 -51l-26 -213q-12 -116 -25 -190.5t-37 -148
t-62 -115.5t-94 -78.5t-139.5 -52t-192 -22.5t-257.5 -3q-85 12 -186 79.5t-181.5 158t-130 199.5t-37.5 196z" />
    <glyph glyph-name="H.ss01" horiz-adv-x="1421" 
d="M408 1415l59 -526l500 43l-29 543l346 10q21 -279 50.5 -774t41.5 -676l-350 -29l-57 643l-426 -49l28 -663l-405 6l-129 1464z" />
    <glyph glyph-name="I.ss01" horiz-adv-x="557" 
d="M537 1466q-22 -246 -71.5 -729.5t-70.5 -724.5l-317 54q23 229 37.5 431.5t31 482t29.5 468.5z" />
    <glyph glyph-name="J.ss01" horiz-adv-x="1067" 
d="M285 670q-8 -84 1 -157t41.5 -123t84.5 -50q76 5 120 72q22 14 43.5 86.5t30.5 171.5l72 815l354 -66l-69 -739q-3 -116 -15 -206.5t-27 -145t-36.5 -96t-38.5 -60t-39 -35.5q-58 -68 -113.5 -101.5t-133.5 -46t-204 -7.5q-47 6 -92.5 24t-94 52.5t-87.5 95t-59 139.5
q-15 58 -16 117t7 252z" />
    <glyph glyph-name="K.ss01" horiz-adv-x="1372" 
d="M1061 -100l-543 673l-31 -211l45 -430l-370 -4l-121 1450l367 19l14 -496l418 545l473 -16l-461 -691l532 -604z" />
    <glyph glyph-name="L.ss01" horiz-adv-x="1069" 
d="M434 1438l92 -1047l510 68l49 -418l-897 -68l-180 1477z" />
    <glyph glyph-name="N.ss01" horiz-adv-x="1437" 
d="M59 1421l295 27l654 -809l6 831l297 46l112 -1455l-399 -32l-569 682l34 -705l-333 -35z" />
    <glyph glyph-name="O.ss01" horiz-adv-x="1642" 
d="M68 991q8 75 60.5 157.5t128 150t159 123t159.5 86.5t123 32q60 0 106.5 -3.5t155 -25t248.5 -63.5q174 -50 288.5 -294t92.5 -581q-11 -85 -100.5 -205.5t-165.5 -170.5q-98 -91 -233 -140.5t-218 -36.5q-21 1 -84 3.5t-99.5 5t-84.5 9t-78 15.5q-91 27 -158 72t-96 82
q-79 86 -126 175t-65 181t-20.5 199t7.5 229zM776 322q106 -31 262 98q62 54 87 142t34 267q9 50 -6.5 117.5t-46.5 110.5q-52 65 -120.5 112t-125.5 54q-78 10 -161 -41t-143.5 -150t-70.5 -215q-35 -395 291 -495z" />
    <glyph glyph-name="P.ss01" horiz-adv-x="1257" 
d="M731 1440q128 -3 233.5 -46t151.5 -98q61 -69 97 -159t30 -179q-10 -129 -74 -247.5t-135 -151.5q-136 -57 -315 -70l-236 7l-41 -508l-417 43q29 284 62.5 796t41.5 623zM672 766q33 -3 73 8t56 21q42 32 57 149q9 45 -36.5 85t-125.5 46l-225 17l-31 -308z" />
    <glyph glyph-name="Thorn.ss01" horiz-adv-x="1312" 
d="M502 1444l6 -264h258q244 0 386 -99t142 -250q0 -110 -18 -196.5t-43.5 -142.5t-72 -97t-83.5 -61.5t-98.5 -33t-96.5 -15t-98 -5.5q-16 -1 -24 -1h-225v-295h-429l-2 1474zM674 584q62 0 107 4.5t81.5 15.5t55 31.5t18.5 50.5q0 114 -52 160.5t-155 46.5h-237v-309h182z
" />
    <glyph glyph-name="Q.ss01" horiz-adv-x="1699" 
d="M817 -74q-172 -9 -335.5 50t-229.5 120q-54 64 -98.5 177.5t-66.5 212t-32 186.5q-10 124 13.5 240t80.5 215t141.5 175t203.5 123.5t260 57.5q134 10 285 -12.5t210 -59.5q140 -104 227.5 -280.5t100.5 -401.5q4 -56 4.5 -85t-4 -67.5t-14 -62t-31 -63t-50 -78
t-75.5 -99.5q59 -68 146.5 -111t183.5 -59l-41 -282q-104 4 -273 45q-49 19 -102.5 64t-130.5 126q-132 -110 -373 -131zM846 209q84 3 147.5 54.5t96 129.5t44.5 164t3 166q-6 72 -22 134t-45.5 117t-70.5 92.5t-101.5 56.5t-135.5 12q-89 -7 -157 -60t-109 -129
q-31 -54 -37.5 -144t2.5 -261q18 -149 122 -243.5t263 -88.5z" />
    <glyph glyph-name="R.ss01" horiz-adv-x="1376" 
d="M737 1444q142 -12 257.5 -60.5t181.5 -123.5q29 -37 42.5 -112.5t6.5 -164.5q-4 -60 -17.5 -103.5t-35.5 -78t-64 -65.5t-90.5 -56.5t-128.5 -61.5l397 -632l-385 -47l-364 583l-58 -12l-76 -508l-358 8l90 1477zM616 807q50 -9 106.5 37.5t65.5 107.5q4 28 -2 86
q-7 45 -64.5 75t-119.5 30l-143 14l-15 -326z" />
    <glyph glyph-name="S.ss01" horiz-adv-x="1183" 
d="M582 -14q-54 -5 -108.5 2.5t-111.5 32t-104 64.5t-84.5 105.5t-54.5 149.5l289 66q19 -29 52 -51t60 -29q55 -23 113 -17q54 8 102.5 53t42.5 97q-2 25 -11.5 49t-21.5 31l-19 13q-19 12 -25 15.5t-28.5 16t-38 19t-45 19t-57 22t-67 21.5t-82.5 23q-134 21 -219.5 109.5
t-97.5 230.5q-7 85 10 151t78 142q31 49 156 103.5t247 64.5q149 -2 253 -35t257 -129q-16 -23 -51 -59.5t-80.5 -81t-65.5 -66.5q-10 5 -36.5 20.5t-35 20t-30 16t-31.5 15.5t-29 11t-32.5 9.5t-31.5 4.5t-36 2q-78 -13 -117 -56.5t-32 -89.5q6 -78 54.5 -117.5
t137.5 -60.5q35 -10 83 -22t74 -19t62 -19.5t70 -27.5q88 -40 135.5 -81.5t72.5 -109.5t30 -180q7 -68 -3.5 -126.5t-49 -116t-104.5 -99t-178 -70.5t-261 -36z" />
    <glyph glyph-name="T.ss01" horiz-adv-x="1167" 
d="M102 1171q-30 154 -16 334q169 -5 558.5 -51.5t569.5 -56.5l-20 -379q-29 3 -159.5 29t-205.5 24q-20 -231 -45 -607.5t-34 -492.5l-332 37l65 1118z" />
    <glyph glyph-name="U.ss01" horiz-adv-x="1398" 
d="M143 279q-17 28 -27.5 52.5t-25.5 72.5t-20.5 118.5t-1.5 157.5q8 63 24 232.5t34.5 325t41.5 278.5q46 -2 123 -2.5t128 -4t113 -14.5l-86 -643q-5 -69 -5.5 -126.5t3 -102.5t13.5 -81t22 -62t30.5 -45.5t38 -32.5t46.5 -21.5t53 -13t60 -7.5q112 -15 173.5 36.5
t69.5 201.5q8 234 30.5 476.5t51.5 348.5l336 -18l-57 -895q-16 -256 -92 -326q-78 -86 -208.5 -144.5t-209.5 -47.5q-186 9 -314 45.5t-204.5 93.5t-139.5 148z" />
    <glyph glyph-name="V.ss01" horiz-adv-x="1280" 
d="M332 1393q169 -439 332 -936l192 1007q47 6 99.5 10t132 8t98.5 5q-39 -250 -134.5 -762.5t-133.5 -747.5l-437 5l-522 1407z" />
    <glyph glyph-name="W.ss01" horiz-adv-x="2086" 
d="M508 1536l104 -973l369 920l332 -10q10 -60 81 -398t103 -540l285 884l346 -10l-537 -1423q-31 1 -184.5 7.5t-222.5 8.5l-152 748l-325 -684l-328 28q-60 223 -109 458.5t-105.5 544.5t-86.5 459z" />
    <glyph glyph-name="X.ss01" horiz-adv-x="1329" 
d="M-35 1380l422 39l279 -393l208 442l398 25l-354 -727l473 -690q-133 -40 -404 -70l-301 365l-240 -424l-368 -4l356 700z" />
    <glyph glyph-name="Y.ss01" horiz-adv-x="1265" 
d="M72 1477l420 18l174 -541l233 492l408 -25l-449 -792l-49 -641l-418 43l49 608q-258 569 -368 838z" />
    <glyph glyph-name="Z.ss01" horiz-adv-x="1253" 
d="M57 1114l-28 309q566 56 1099 72l11 -315l-518 -834l596 53l8 -331q-699 -49 -1106 -97l-21 394l590 800z" />
    <glyph glyph-name="A.ss02" horiz-adv-x="1447" 
d="M526 1487l521 -10q55 -220 157 -733.5t164 -763.5l-448 20l-62 303l-336 45l-106 -282l-439 22q350 854 549 1399zM850 545l-98 483l-199 -440z" />
    <glyph glyph-name="D.ss02" horiz-adv-x="1413" 
d="M528 1458q189 -16 323.5 -56t210 -91.5t134.5 -126.5q89 -95 128 -215t30 -244q-12 -196 -71.5 -325.5t-172.5 -231.5q-101 -90 -248 -134t-303 -32l-518 31l113 1468zM588 362q66 -8 133 19t118.5 76t87 114.5t44.5 130.5q17 220 -68 329.5t-264 111.5h-123l-100 -766z
" />
    <glyph glyph-name="E.ss02" horiz-adv-x="1232" 
d="M1073 1532l21 -297l-666 -49l18 -254l615 39l20 -285l-616 -70l31 -280l686 90l18 -346l-1057 -76l-114 1454z" />
    <glyph glyph-name="H.ss02" horiz-adv-x="1421" 
d="M461 1415l57 -584l477 43l-28 590l317 21q9 -180 21 -383.5t21.5 -340.5t25.5 -373.5t24 -352.5l-350 -29l-57 572l-469 -50l28 -559l-362 -26l-129 1446z" />
    <glyph glyph-name="I.ss02" horiz-adv-x="557" 
d="M522 1450q-8 -183 -22 -394.5t-24.5 -350.5t-29.5 -368.5t-26 -318.5l-385 19q15 157 60 689t67 744z" />
    <glyph glyph-name="L.ss02" horiz-adv-x="1069" 
d="M477 1438l92 -1090l482 39l18 -346l-899 -64l-141 1440z" />
    <glyph glyph-name="N.ss02" horiz-adv-x="1437" 
d="M59 1421l314 25l686 -856l-127 903l379 23l112 -1455l-356 -22l-641 784l70 -829l-340 -23z" />
    <glyph glyph-name="O.ss02" horiz-adv-x="1642" 
d="M68 991q10 97 67 194.5t142.5 173t197 125.5t223.5 56q157 10 268.5 -11.5t241.5 -80.5q85 -31 157 -92.5t127 -151.5t81.5 -216t15.5 -271q-11 -178 -95.5 -320.5t-170.5 -199.5q-96 -89 -197 -125.5t-254 -51.5q-73 -10 -175 0.5t-171 32.5q-91 27 -158 72t-96 82
q-251 273 -204 784zM727 362q101 -21 170.5 -1.5t128.5 63.5q90 78 123.5 152t42.5 215q18 168 -96 274q-95 85 -244 104q-54 9 -113.5 -10t-112 -61t-91 -113.5t-46.5 -159.5q-5 -57 -4.5 -115.5t17 -115.5t43 -104t73.5 -81.5t109 -46.5z" />
    <glyph glyph-name="S.ss02" horiz-adv-x="1183" 
d="M727 -39q-162 -1 -275 20t-184.5 66.5t-110 105.5t-59.5 148l246 86q20 -28 56 -49.5t67 -30.5q54 -22 123 -18q87 5 154 47t63 96q-1 26 -13 47t-23 30.5t-34 27.5q-17 13 -37.5 24t-38.5 19t-54 20.5t-60 20t-81 25.5l-95 30q-130 25 -214.5 127.5t-90.5 243.5
q-5 81 12 133.5t80 128.5q65 84 173 134.5t234 51.5q159 -4 263 -33.5t165.5 -87t93.5 -151.5q-16 -22 -54 -35t-105 -30t-121 -40q-84 118 -217 107q-87 -8 -138.5 -48.5t-48.5 -111.5q1 -24 8.5 -42.5t24 -32.5t30 -23.5t43 -18.5t44.5 -13t52.5 -12.5t51.5 -11.5
q110 -27 166 -44t121 -48q122 -62 167.5 -155t45.5 -263q9 -106 -47 -204.5t-158.5 -162.5t-224.5 -73z" />
    <glyph glyph-name="T.ss02" horiz-adv-x="1167" 
d="M102 1100q-31 162 -16 362q176 -5 595 -32.5t533 -32.5l-20 -408q-76 14 -209.5 24t-173.5 17q-5 -70 -19.5 -285t-28.5 -413t-28 -361l-360 37l43 1057z" />
    <glyph glyph-name="U.ss02" horiz-adv-x="1398" 
d="M182 211q-42 64 -65 111.5t-39 137t-10 206.5q8 62 24 232t34.5 325t41.5 278q76 -3 207 -3t200 -3l-86 -643q-3 -73 -5.5 -131t5.5 -103.5t16.5 -79t26 -58t34 -40.5t41 -26.5t47.5 -16t53 -8.5q112 -15 173.5 36.5t69.5 201.5q8 231 30.5 467.5t51.5 343.5l350 -19
l-86 -909q-13 -126 -32 -197t-60 -129q-36 -53 -75.5 -87t-103 -61.5t-159 -38t-229.5 -5.5q-161 13 -278.5 70t-176.5 149z" />
    <glyph glyph-name="b.ss01" horiz-adv-x="1230" 
d="M504 1477l-31 -484q71 52 174 60q23 1 43.5 1.5t66 -10.5t115.5 -36q142 -45 202.5 -145.5t62.5 -276.5q4 -158 -42.5 -302.5t-137.5 -238t-205 -92.5q-144 -7 -245 31t-142 102l-21 -102l-291 28l82 1473zM340 494q-5 -43 6.5 -84.5t40 -77.5t79.5 -60t118 -28
q100 -9 162 62.5t73 195.5q9 70 -54 156t-134 96q-61 3 -101.5 -2t-68.5 -22.5t-42 -32.5t-38 -48q-32 -37 -41 -155z" />
    <glyph glyph-name="c.ss01" horiz-adv-x="1015" 
d="M33 481q-9 144 40.5 280.5t135.5 215.5q41 43 143.5 72.5t218.5 37.5q99 7 203.5 -51t163.5 -151l-174 -99q-149 87 -248 48q-74 -27 -114.5 -107.5t-30.5 -200.5q6 -64 31 -118t75 -90.5t117 -30.5q126 14 178 153l246 -88q-38 -157 -136 -249t-212 -107
q-128 -18 -260 15t-226 120q-57 45 -99.5 141.5t-51.5 208.5z" />
    <glyph glyph-name="d.ss01" horiz-adv-x="1218" 
d="M1106 -49l-297 -2l-10 102q-160 -117 -332 -104q-108 8 -221.5 96t-171.5 176q-69 112 -51 457q8 84 46 156.5t104.5 127.5t168 82.5t225.5 18.5q77 -6 152.5 -44t120.5 -91l45 514l319 -23zM827 430q30 83 -22 221q-40 104 -221 113q-77 11 -145 -70.5t-77 -197.5
q-11 -91 32 -171t116 -89q120 -9 203.5 45t113.5 149z" />
    <glyph glyph-name="e.ss01" horiz-adv-x="1122" 
d="M57 600q-4 75 10.5 141.5t55 129t105 107.5t165.5 73.5t230 31.5q154 17 266 -90q40 -29 64.5 -51.5t50.5 -56t40.5 -77t20.5 -99.5l6 -115l-670 -109q6 -88 67.5 -158t135.5 -63q101 13 170 103q114 -9 307 -9q-15 -87 -50.5 -151t-80.5 -102.5t-110.5 -62.5t-126 -33.5
t-142.5 -14.5q-73 -7 -144 8.5t-138.5 60.5t-118.5 114t-82 178t-31 245zM780 717q-15 73 -72.5 117.5t-119.5 35.5q-136 -12 -188.5 -59.5t-49.5 -142.5z" />
    <glyph glyph-name="f.ss01" horiz-adv-x="724" 
d="M35 788l20 244l113 -8l22 143q35 127 91.5 204t129.5 103.5t149.5 22.5t168.5 -35l-57 -260q-148 71 -172 -135l-4 -59l227 -19l-18 -217l-213 10q-20 -226 -60 -764l-334 21l60 741z" />
    <glyph glyph-name="h.ss01" horiz-adv-x="1112" 
d="M449 1491l-25 -541q51 71 119.5 100.5t132.5 24.5q43 -3 61.5 -4.5t56.5 -7t60 -14.5t51.5 -24t52.5 -38.5t43 -54.5q25 -39 34 -142.5t-1 -250.5l-57 -547l-305 18q-3 87 0 162.5t12.5 197t13.5 193.5q16 155 -53 164q-97 7 -153.5 -41.5t-73.5 -122.5l-76 -522l-330 20
q38 503 115 1450z" />
    <glyph glyph-name="i.ss01" horiz-adv-x="503" 
d="M188 1092q-77 8 -126.5 52.5t-53.5 121.5q-4 99 44 146t124 54q110 5 163.5 -44.5t59.5 -161.5q5 -55 -58.5 -117.5t-152.5 -50.5zM403 971l76 -973l-284 -25l-115 965z" />
    <glyph glyph-name="j.ss01" horiz-adv-x="512" 
d="M309 1139q-77 6 -125 61.5t-43 122.5q7 77 55.5 135.5t137.5 54.5q36 -3 65.5 -14t57.5 -32.5t42.5 -60.5t12.5 -93q-7 -69 -63 -123.5t-140 -50.5zM387 -70q-6 -112 -32.5 -191.5t-61.5 -109.5q-145 -122 -467 -51l57 244q18 5 46.5 10.5t40 8.5t29 11t24.5 18.5t16 30
t13 47.5t7 68l72 988l326 -5z" />
    <glyph glyph-name="k.ss01" horiz-adv-x="1077" 
d="M379 567l-47 -65l10 -467l-330 16l92 1473l338 2l-71 -717l239 252l402 -17l-324 -346l324 -630l-355 -93z" />
    <glyph glyph-name="l.ss01" horiz-adv-x="499" 
d="M352 1485l115 -1491l-301 -33l-141 1483z" />
    <glyph glyph-name="m.ss01" horiz-adv-x="1642" 
d="M410 1049l20 -113q69 59 100.5 79t57.5 25q57 16 155 0q63 -10 119 -61.5t70 -110.5q104 90 139 105q73 25 133 20q79 0 144 -17t94 -38q66 -44 109.5 -137.5t33.5 -237.5l-47 -641l-340 31l47 547q9 107 -8.5 154.5t-58.5 50.5q-60 -3 -100 -14.5t-61.5 -32.5t-31 -42
t-14.5 -53l-43 -606l-262 37l30 538q12 211 -69 220q-89 7 -145.5 -36.5t-67.5 -109.5l-43 -586l-344 23l84 1026z" />
    <glyph glyph-name="n.ss01" horiz-adv-x="1107" 
d="M313 1030l58 -96q103 115 336 127q73 6 134.5 -23.5t102 -84t66 -120t34.5 -135.5l48 -647q-235 -22 -347 -24l-79 583q-7 45 -17 72t-32.5 49.5t-62 30.5t-101.5 6q-44 -10 -71.5 -77.5t-10.5 -176.5l63 -522l-321 -10l-82 999z" />
    <glyph glyph-name="o.ss01" horiz-adv-x="1226" 
d="M45 494q8 172 53.5 281t159.5 196q66 48 173.5 79t223.5 23q101 -7 188.5 -52.5t129.5 -90.5q82 -72 150 -199t59 -215q-17 -257 -167.5 -386.5t-445.5 -162.5q-116 -9 -364 139q-75 55 -123.5 169t-36.5 219zM336 594q-54 -159 84 -264q37 -38 84.5 -58.5t88.5 -22.5
t70.5 1t43.5 10q46 23 73 64.5t51 113.5q19 61 7.5 118.5t-42.5 105t-68.5 79t-70.5 41.5q-110 31 -195 -19t-126 -169z" />
    <glyph glyph-name="oe.ss01" horiz-adv-x="1951" 
d="M1894 553l-669 -74q24 -123 79.5 -173t151.5 -42q52 4 84.5 28t79.5 89l254 -78q-32 -89 -78.5 -150t-107 -94.5t-123 -49t-144.5 -21.5q-116 -10 -217 25.5t-157 125.5q-146 -187 -404 -207q-143 -12 -272.5 38.5t-218.5 161.5t-101 261q-6 88 4 169t43 161t87.5 139.5
t145 99t208.5 46.5q111 9 241 -35.5t209 -120.5q83 99 120 131q89 77 217 79q36 1 77 -3q72 -1 125.5 -9.5t110 -31t97 -61t74.5 -103.5t54 -154zM1552 686q-17 59 -34 88.5t-50.5 43.5t-91.5 9q-83 -7 -135 -60t-61 -134zM578 215q108 9 182.5 90.5t64.5 181.5
q-11 143 -62.5 205t-174.5 53q-41 -5 -83.5 -25.5t-78.5 -53.5t-57 -85t-17 -112q8 -69 33 -126.5t75.5 -96t117.5 -31.5z" />
    <glyph glyph-name="p.ss01" horiz-adv-x="1230" 
d="M115 1049l329 -21l17 -100q75 57 134 76t179 12q106 -7 182.5 -42.5t122.5 -96.5t71.5 -147.5t30 -196t-2.5 -240.5q-21 -106 -106 -195.5t-212 -134.5q-24 -5 -80.5 -6t-129.5 3.5t-140 28t-94 62.5l-41 -454l-363 -5zM414 537q-7 -66 -6 -124t18 -106
q13 -36 56.5 -58.5t99.5 -29.5q86 -9 152.5 59t76.5 187q7 80 -16.5 139.5t-71.5 89.5q-7 4 -21.5 13.5t-22.5 14t-22.5 9.5t-29.5 6q-87 10 -145 -39t-68 -161z" />
    <glyph glyph-name="q.ss01" horiz-adv-x="1230" 
d="M905 -387l-51 514q-39 -76 -116 -108.5t-244 -38.5q-80 -9 -160.5 27.5t-145 104.5t-109 168.5t-54.5 213.5q-18 208 87 375.5t250 193.5q84 10 148 10.5t101.5 -4.5t71 -21t48 -27t39.5 -35q3 -3 5 -4.5t4.5 -4l4.5 -4.5l-6 104l340 -6q54 -786 115 -1444zM803 559
q0 64 -13 130.5t-34 82.5q-36 24 -56 35.5t-46.5 20t-52.5 6.5t-60 -13q-165 -50 -142 -299q11 -99 46.5 -158.5t115.5 -89.5q34 -17 63 -20t50.5 7.5t36 24t28.5 33.5q16 15 27 30t17 26.5t9.5 35.5t5 36.5t3 51.5t2.5 60z" />
    <glyph glyph-name="r.ss01" horiz-adv-x="774" 
d="M731 688q-79 26 -123.5 32t-89.5 -3q-125 -7 -139 -281l-41 -434l-299 6l78 1024l280 -16l9 -98q52 96 200 96q17 0 32.5 -2t24.5 -3t27 -7t23.5 -7.5t32.5 -12t36 -13.5q-15 -55 -29 -150.5t-22 -130.5z" />
    <glyph glyph-name="s.ss01" horiz-adv-x="970" 
d="M492 2q-70 -5 -127 3.5t-111 33t-98 73t-76 119.5l209 88q68 -63 119 -83t114 -11q40 4 84 39t41 80q-2 21 -14 36t-28 23t-42 12.5t-48 6t-54.5 4t-52.5 4.5q-173 35 -250.5 109t-85.5 206q-13 119 67 209t240 117q27 4 51.5 6t43.5 3.5t41.5 0t34.5 -1t34 -3.5t29 -5
t30 -7t26.5 -7t29.5 -8.5t28 -8.5q108 -35 160 -157l-193 -76q-64 69 -188 61q-66 -5 -104 -34t-35 -95q3 -34 42 -45.5t150 -23.5q184 -31 241 -52q102 -35 137 -113q32 -70 26 -200q3 -134 -112.5 -210t-358.5 -93z" />
    <glyph glyph-name="u.ss01" horiz-adv-x="1058" 
d="M106 1071l377 -12l-47 -539q-7 -97 27 -151t96 -64q81 -8 123 26t51 87l45 629l275 -29l-62 -703q-20 -149 -136 -246.5t-259 -80.5q-143 7 -227 23t-122 38t-69 62q-47 54 -87.5 157t-33.5 193z" />
    <glyph glyph-name="v.ss01" horiz-adv-x="1079" 
d="M387 1028l123 -696q126 262 289 649l293 -27l-426 -981l-349 13l-262 1054z" />
    <glyph glyph-name="w.ss01" horiz-adv-x="1576" 
d="M309 993l189 -475l120 526h232l215 -505l129 530l326 21l-250 -1045l-240 -8l-268 571l-170 -610l-199 -8q-209 480 -416 983z" />
    <glyph glyph-name="x.ss01" horiz-adv-x="1181" 
d="M84 1036l350 -6l199 -293l225 250l311 -29l-366 -442l334 -567l-301 4l-244 358l-283 -315l-334 27l449 516z" />
    <glyph glyph-name="z.ss01" horiz-adv-x="1032" 
d="M160 809l-4 260q76 -5 257.5 -14.5t321.5 -18.5t256 -20l-10 -277l-532 -424l489 -47l2 -280l-920 78l27 286l535 428z" />
    <glyph glyph-name="d.ss02" horiz-adv-x="1218" 
d="M1176 -6l-324 -29l-29 107q-70 -61 -131.5 -87.5t-156.5 -27.5q-116 -1 -195.5 32t-151.5 103q-109 106 -139 228t-16 288q6 90 41.5 174.5t95 152t149.5 109t195 43.5q158 0 295 -55l6 418l336 -10zM821 479q11 46 11.5 128.5t-13.5 125.5q-21 53 -72.5 78.5
t-138.5 28.5q-83 0 -144.5 -78.5t-68.5 -220.5q-2 -96 45.5 -174.5t120.5 -79.5q115 -4 180 50.5t80 141.5z" />
    <glyph glyph-name="e.ss02" horiz-adv-x="1122" 
d="M47 444q6 264 94 397.5t301 202.5q82 36 176 32.5t173 -27.5t149 -64q135 -82 125 -450l-2 -70l-729 -19q13 -92 74 -149t137 -59q154 -7 239 81q178 -48 273 -69q-30 -78 -70.5 -132t-104.5 -94t-157 -58t-221 -17q-85 3 -167.5 40.5t-147.5 101t-104.5 156t-37.5 197.5
zM766 653q-7 184 -164 189q-70 2 -130.5 -43.5t-82.5 -126.5z" />
    <glyph glyph-name="h.ss02" horiz-adv-x="1112" 
d="M422 1438l-19 -473q123 120 447 61q105 -13 153.5 -120t43.5 -312l-11 -631l-334 2q7 176 11 578q3 148 -20 203t-85 57q-84 1 -134.5 -53.5t-53.5 -126.5l-8 -648l-353 -2q2 109 10.5 699t14.5 788z" />
    <glyph glyph-name="i.ss02" horiz-adv-x="503" 
d="M182 1165q-68 18 -99 56.5t-32 119.5q0 84 47.5 134.5t137.5 50.5q95 0 152.5 -41.5t57.5 -110.5q0 -120 -73.5 -180.5t-190.5 -28.5zM424 1004l-8 -998l-328 -8l-4 1008z" />
    <glyph glyph-name="l.ss02" horiz-adv-x="499" 
d="M387 1475l51 -1450l-332 -7l-34 1450z" />
    <glyph glyph-name="o.ss02" horiz-adv-x="1226" 
d="M63 516q0 114 26.5 205.5t92.5 169.5q76 89 190.5 138.5t241.5 49.5q117 -2 234.5 -38.5t177.5 -94.5q160 -152 160 -440q0 -232 -144 -391t-354 -164q-129 -3 -218.5 10t-182.5 55q-97 45 -160.5 188.5t-63.5 311.5zM412 621q-14 -151 25 -231t149 -103q70 -17 140 3.5
t103 51.5q51 45 73 109t5 196q-5 81 -67 142t-170 71q-108 9 -179 -62.5t-79 -176.5z" />
    <glyph glyph-name="s.ss02" horiz-adv-x="970" 
d="M502 -31q-79 -2 -142.5 8.5t-125 37.5t-109.5 80t-80 132l266 78q40 -62 79 -80.5t116 -25.5q61 -8 116 26.5t54 83.5q0 18 -8 32t-24.5 23.5t-33.5 16t-45.5 11t-50 7.5t-56.5 6.5t-57 6.5q-174 24 -254.5 114t-83.5 254q-2 46 27.5 92.5t83.5 87t141 67t191 28.5
q114 0 189.5 -17.5t107.5 -42.5q99 -86 121 -161l-232 -80q-36 59 -80.5 79t-101.5 17q-45 -1 -83.5 -12t-62 -40.5t-6.5 -72.5q14 -36 58 -51.5t151 -32.5q107 -20 183.5 -52t115 -70t55 -72t19.5 -70q1 -217 -101 -310t-337 -98z" />
    <glyph glyph-name="u.ss02" horiz-adv-x="1058" 
d="M63 1024l312 -4l-10 -600q-3 -191 151 -191q119 -3 153 62q21 40 23 152v26l10 549l306 -6l-11 -529q-1 -112 -23 -201t-57.5 -147t-84 -96.5t-100 -55t-107.5 -16.5q-222 -7 -316 13t-157 88q-39 40 -62.5 101.5t-29.5 122t-8 125t1 111.5z" />
    <glyph glyph-name="zero.ss01" horiz-adv-x="1230" 
d="M61 762q8 140 58 245.5t186 221.5q91 94 193 137.5t237 34.5q94 -6 175 -52t110 -98q86 -91 125 -239t26 -260q-25 -421 -161 -602q-25 -26 -63.5 -54t-96.5 -59.5t-135.5 -50.5t-157.5 -17q-120 6 -237.5 82t-157.5 156q-57 113 -85.5 259t-15.5 296zM664 346
q58 14 107 44.5t67 68.5q13 37 21 84.5t7 110t-16 114.5q-5 67 -32 137.5t-68 100.5q-25 24 -79 24t-104 -18q-55 -15 -95 -62.5t-54 -111.5q-28 -94 2 -240q31 -127 72 -186q28 -38 73.5 -58.5t98.5 -7.5z" />
    <glyph glyph-name="one.ss01" horiz-adv-x="884" 
d="M160 952l-37 203q224 70 432 270l262 -106l-143 -1360l-361 31q38 546 84 1022z" />
    <glyph glyph-name="two.ss01" horiz-adv-x="1155" 
d="M455 606q171 200 225.5 290.5t56.5 141.5q6 83 -26.5 126.5t-106.5 62.5q-127 48 -184 -64q-32 -67 -35 -200l-307 -2q-10 184 90 362q12 27 37 51.5t70.5 49.5t108.5 39t150.5 19.5t198.5 -9.5q47 9 113.5 -22t122.5 -90t71 -122q13 -73 17.5 -128t-2.5 -104t-17.5 -83
t-37 -80t-49 -78.5t-65.5 -95.5t-77 -115l-131 -211l463 33l4 -309l-977 -72v115q15 47 31 88.5t28 71.5t33.5 66t31 54t37 54.5t36.5 48.5t44.5 55.5t45.5 56.5z" />
    <glyph glyph-name="three.ss01" horiz-adv-x="1110" 
d="M477 -25q-216 42 -313 147.5t-115 280.5l318 66q10 -87 43.5 -127.5t89.5 -50.5q42 -3 88.5 5.5t64.5 20.5q27 23 39 55t15 109q8 62 -87.5 108.5t-297.5 57.5l20 217q394 4 406 162q6 63 -43 115t-109 55q-32 4 -62 0.5t-57 -15.5t-56.5 -42.5t-60.5 -81.5l-225 145
q42 85 85 130.5t104 76.5q77 39 133 48.5t174 0.5q120 -7 226 -61t163 -131q19 -32 35 -103t12 -119q-2 -41 -9.5 -76.5t-13 -51.5t-18.5 -46q-12 -22 -72.5 -74t-95.5 -69q17 -16 51.5 -46t53 -48.5t40 -48.5t30 -66.5t5.5 -81.5q-8 -103 -63.5 -219.5t-126.5 -167.5
q-159 -114 -371 -74z" />
    <glyph glyph-name="four.ss01" horiz-adv-x="1204" 
d="M569 309l-479 23l-78 256l617 874l329 -6l-22 -889l166 -12l20 -268l-223 -2v-305l-309 26zM651 596l13 408l-289 -386z" />
    <glyph glyph-name="five.ss01" horiz-adv-x="1146" 
d="M387 440q15 -76 68.5 -120t124.5 -37q44 4 74 16.5t48.5 36t27 40.5t20.5 52q8 22 11 83t-1 93q-16 151 -285 123q-78 -10 -147 -104l-256 51l106 743q324 -10 491 3t310 57l31 -279q-122 -40 -288.5 -52.5t-309.5 7.5l-45 -250q25 31 94.5 55t132.5 27q82 5 160 -9.5
t117 -30t69 -32.5q22 -13 47.5 -57.5t49.5 -118t33 -169t-3 -210.5q4 -96 -82.5 -189.5t-233 -149t-300.5 -44.5q-36 -2 -75.5 9t-84 39t-83.5 71.5t-75 112.5t-59 155z" />
    <glyph glyph-name="six.ss01" horiz-adv-x="1191" 
d="M49 692q7 67 13.5 102t26.5 95t61 121t106 133q41 40 108 86t157.5 94.5t208 88.5t235.5 58l92 -227q-417 -98 -531 -323q69 30 124.5 43t88.5 14t66 -13t46 -24.5t40 -34.5q141 -72 190 -167t41 -267q-9 -102 -56.5 -215t-94.5 -147q-49 -38 -186 -79.5t-244 -33.5
q-176 12 -328 164q-30 31 -58.5 75.5t-56.5 110.5t-42 156.5t-7 189.5zM346 492q-3 -156 191 -193q180 -34 258 141q18 40 19 86.5t-13 75.5q-28 64 -82.5 100.5t-112.5 47.5q-51 8 -118.5 -22.5t-98.5 -63.5q-28 -29 -38.5 -67.5t-4.5 -104.5z" />
    <glyph glyph-name="seven.ss01" horiz-adv-x="1206" 
d="M133 1100l17 358l1042 -82l35 -340l-836 -1122l-321 258q381 440 811 864q-536 57 -748 64z" />
    <glyph glyph-name="eight.ss01" horiz-adv-x="1081" 
d="M39 397q9 145 53 233.5t139 168.5q-59 71 -94 152t-28 132q7 77 27.5 153.5t47.5 102.5q44 48 158 104.5t197 55.5q110 3 218 -34t138 -79q71 -86 103.5 -182t25.5 -225q-6 -49 -55.5 -113t-137.5 -129q95 -68 141 -137t38 -123q-8 -151 -54.5 -271.5t-121.5 -178.5
q-37 -25 -135 -47.5t-156 -12.5q-140 17 -236.5 53t-132.5 74q-64 63 -104 152t-31 151zM539 870q11 -4 32.5 10t43 32.5t22.5 19.5q22 18 39.5 50.5t21.5 53.5q5 39 -48 99.5t-118 64.5q-19 4 -50.5 -13.5t-55 -56t-16.5 -83.5q5 -56 41 -107.5t88 -69.5zM401 516
q-30 -80 -4 -164q11 -30 58.5 -68t87.5 -42q37 -3 85 17.5t68 49.5q12 13 25.5 47.5t19.5 65.5q11 66 -45 143q-17 24 -63.5 47.5t-73.5 26.5q-33 6 -87 -36t-71 -87z" />
    </font>
</defs>
</svg>
